%TF.GenerationSoftware,Altium Limited,Altium Designer,18.0.12 (696)*%
G04 Layer_Color=32896*
%FSLAX45Y45*%
%MOMM*%
%TF.FileFunction,Legend,Bot*%
%TF.Part,Single*%
G01*
G75*
%TA.AperFunction,NonConductor*%
%ADD46C,0.10000*%
%ADD47C,0.20000*%
%ADD48C,0.15000*%
%ADD49C,0.02540*%
%ADD50C,0.03810*%
%ADD51C,0.05000*%
D46*
X738713Y1153714D02*
G03*
X738713Y1153714I-5000J0D01*
G01*
D47*
X671750Y244250D02*
X691750D01*
X671750Y309250D02*
X691750D01*
X640000Y1262500D02*
X660000D01*
X640000Y1197500D02*
X660000D01*
D48*
X38997Y968500D02*
X-60971D01*
Y918516D01*
X-44309Y901855D01*
X-10987D01*
X5675Y918516D01*
Y968500D01*
Y935178D02*
X38997Y901855D01*
X-60971Y528500D02*
X5675D01*
X38997Y495178D01*
X5675Y461855D01*
X-60971D01*
D49*
X53997Y1044922D02*
Y1060157D01*
X46380D01*
X43841Y1057618D01*
Y1052539D01*
X46380Y1050000D01*
X53997D01*
X38762D02*
X33684D01*
X36223D01*
Y1060157D01*
X38762D01*
X18449Y1050000D02*
X23527D01*
X26066Y1052539D01*
Y1057618D01*
X23527Y1060157D01*
X18449D01*
X15910Y1057618D01*
Y1055079D01*
X26066D01*
X10831Y1060157D02*
X674D01*
X10831Y1050000D01*
X674D01*
X-6943D02*
X-12022D01*
X-14561Y1052539D01*
Y1057618D01*
X-12022Y1060157D01*
X-6943D01*
X-4404Y1057618D01*
Y1052539D01*
X-6943Y1050000D01*
X-19639Y1057618D02*
X-29796D01*
X-45031Y1065235D02*
Y1050000D01*
X-37414D01*
X-34874Y1052539D01*
Y1057618D01*
X-37414Y1060157D01*
X-45031D01*
X-50110D02*
Y1050000D01*
Y1055079D01*
X-52649Y1057618D01*
X-55188Y1060157D01*
X-57727D01*
X-65345Y1050000D02*
X-70423D01*
X-67884D01*
Y1060157D01*
X-65345D01*
X-78041D02*
X-83119Y1050000D01*
X-88197Y1060157D01*
X-100893Y1050000D02*
X-95815D01*
X-93276Y1052539D01*
Y1057618D01*
X-95815Y1060157D01*
X-100893D01*
X-103433Y1057618D01*
Y1055079D01*
X-93276D01*
D50*
X528320Y364734D02*
Y349499D01*
X520703D01*
X518163Y352038D01*
Y362195D01*
X520703Y364734D01*
X528320D01*
X513085Y349499D02*
X508006D01*
X510546D01*
Y364734D01*
X513085Y362195D01*
X739000Y1234795D02*
Y1219560D01*
X731383D01*
X728844Y1222099D01*
Y1232256D01*
X731383Y1234795D01*
X739000D01*
X723765Y1232256D02*
X721226Y1234795D01*
X716148D01*
X713608Y1232256D01*
Y1222099D01*
X716148Y1219560D01*
X721226D01*
X723765Y1222099D01*
Y1232256D01*
X694894Y199446D02*
X697433Y201985D01*
X702512D01*
X705051Y199446D01*
Y189289D01*
X702512Y186750D01*
X697433D01*
X694894Y189289D01*
X689816Y186750D02*
X684737D01*
X687277D01*
Y201985D01*
X689816Y199446D01*
X677120Y186750D02*
X672041D01*
X674581D01*
Y201985D01*
X677120Y199446D01*
X805157Y907304D02*
X802618Y904765D01*
X797539D01*
X795000Y907304D01*
Y917461D01*
X797539Y920000D01*
X802618D01*
X805157Y917461D01*
X810235Y920000D02*
X815314D01*
X812775D01*
Y904765D01*
X810235Y907304D01*
X822931D02*
X825471Y904765D01*
X830549D01*
X833088Y907304D01*
Y917461D01*
X830549Y920000D01*
X825471D01*
X822931Y917461D01*
Y907304D01*
X792304Y1239843D02*
X789765Y1242383D01*
Y1247461D01*
X792304Y1250000D01*
X802461D01*
X805000Y1247461D01*
Y1242383D01*
X802461Y1239843D01*
X792304Y1234765D02*
X789765Y1232226D01*
Y1227147D01*
X792304Y1224608D01*
X794843D01*
X797383Y1227147D01*
X799922Y1224608D01*
X802461D01*
X805000Y1227147D01*
Y1232226D01*
X802461Y1234765D01*
X799922D01*
X797383Y1232226D01*
X794843Y1234765D01*
X792304D01*
X797383Y1232226D02*
Y1227147D01*
X812304Y1137542D02*
X809765Y1140081D01*
Y1145159D01*
X812304Y1147698D01*
X822461D01*
X825000Y1145159D01*
Y1140081D01*
X822461Y1137542D01*
X809765Y1132463D02*
Y1122307D01*
X812304D01*
X822461Y1132463D01*
X825000D01*
D51*
X503329Y908339D02*
X499997Y905007D01*
X493333D01*
X490000Y908339D01*
Y921668D01*
X493333Y925000D01*
X499997D01*
X503329Y921668D01*
X509994D02*
X513326Y925000D01*
X519991D01*
X523323Y921668D01*
Y908339D01*
X519991Y905007D01*
X513326D01*
X509994Y908339D01*
Y911671D01*
X513326Y915004D01*
X523323D01*
%TF.MD5,a889b1c24a453d0d927cb049e7dd414d*%
M02*
