%TF.GenerationSoftware,Altium Limited,Altium Designer,18.0.12 (696)*%
G04 Layer_Color=0*
%FSLAX45Y45*%
%MOMM*%
%TF.FileFunction,Plated,1,3,PTH,Drill*%
%TF.Part,Single*%
G01*
G75*
%TA.AperFunction,ComponentDrill*%
%ADD85C,0.10000*%
%ADD86C,0.27500*%
%TA.AperFunction,OtherDrill,Pad Free-2 (-3.65mm,13.75mm)*%
%ADD87C,0.60000*%
%TA.AperFunction,ComponentDrill*%
%ADD88C,0.10000*%
%TA.AperFunction,OtherDrill,Pad Free-2 (3.65mm,13.75mm)*%
%ADD89C,0.60000*%
%TA.AperFunction,OtherDrill,Pad Free-2 (3.65mm,0.75mm)*%
%ADD90C,0.60000*%
%TA.AperFunction,ViaDrill,NotFilled*%
%ADD91C,0.10000*%
D85*
X515000Y230500D02*
D03*
X-300750Y343250D02*
D03*
X-232750D02*
D03*
X-412250Y398500D02*
D03*
X-387819Y695000D02*
D03*
X391000Y278000D02*
D03*
Y343250D02*
D03*
D86*
X223977Y-592140D02*
D03*
X97027D02*
D03*
X-93473Y-472840D02*
D03*
X-156973D02*
D03*
X-220473D02*
D03*
X97027D02*
D03*
X33527D02*
D03*
X-29973D02*
D03*
X-93473Y-592140D02*
D03*
X-156973D02*
D03*
X-220473D02*
D03*
X-29973D02*
D03*
X33527D02*
D03*
X160477Y-472840D02*
D03*
Y-592140D02*
D03*
X223977Y-472840D02*
D03*
D87*
X-365000Y1375000D02*
D03*
D88*
X-413000Y315500D02*
D03*
D89*
X365000Y1375000D02*
D03*
D90*
Y75000D02*
D03*
D91*
X539750Y276750D02*
D03*
X535000Y358000D02*
D03*
X500000Y1230000D02*
D03*
X252692Y335187D02*
D03*
X415000Y500000D02*
D03*
X505001Y925000D02*
D03*
X409090Y565999D02*
D03*
X-343750Y463000D02*
D03*
X760001Y1150000D02*
D03*
X755001Y953882D02*
D03*
%TF.MD5,504f2ab9126fdbe24aed77c53c6f802c*%
M02*
