%TF.GenerationSoftware,Altium Limited,Altium Designer,18.0.12 (696)*%
G04 Layer_Color=8421504*
%FSLAX45Y45*%
%MOMM*%
%TF.FileFunction,Paste,Top*%
%TF.Part,Single*%
G01*
G75*
%TA.AperFunction,SMDPad,CuDef*%
%ADD10R,0.43180X0.43180*%
%ADD11R,0.76200X0.68580*%
%ADD12R,0.43180X0.43180*%
%TA.AperFunction,ConnectorPad*%
%ADD13R,0.76200X0.68580*%
%TA.AperFunction,SMDPad,CuDef*%
%ADD14R,0.16000X0.43500*%
%ADD15R,0.25000X0.43500*%
%ADD16R,0.15240X0.20320*%
%ADD17R,0.20320X0.15240*%
%ADD18R,1.60000X0.25000*%
%ADD19R,5.33400X4.57200*%
D10*
X-68370Y146750D02*
D03*
X10370D02*
D03*
X-15240Y322750D02*
D03*
X63500D02*
D03*
D11*
X177000Y311750D02*
D03*
Y205070D02*
D03*
D12*
X311750Y324370D02*
D03*
Y245630D02*
D03*
X-136500Y325620D02*
D03*
Y246880D02*
D03*
D13*
X-420750Y493910D02*
D03*
Y600590D02*
D03*
D14*
X-290004Y1097699D02*
D03*
X-255005D02*
D03*
X-220006D02*
D03*
X-185006D02*
D03*
X-150007D02*
D03*
X-115007D02*
D03*
X-80008D02*
D03*
X-45009D02*
D03*
X-10009D02*
D03*
X24990D02*
D03*
X59990D02*
D03*
X94989D02*
D03*
X129989D02*
D03*
X164988D02*
D03*
X199987D02*
D03*
X234987D02*
D03*
X269986D02*
D03*
X-290004Y1279199D02*
D03*
X-255005D02*
D03*
X-220006D02*
D03*
X-185006D02*
D03*
X-150007D02*
D03*
X-115007D02*
D03*
X-80008D02*
D03*
X-45009D02*
D03*
X-10009D02*
D03*
X24990D02*
D03*
X59990D02*
D03*
X94989D02*
D03*
X129989D02*
D03*
X164988D02*
D03*
X199987D02*
D03*
X234987D02*
D03*
X269986D02*
D03*
D15*
X-330005D02*
D03*
Y1097699D02*
D03*
X309995Y1279199D02*
D03*
Y1097699D02*
D03*
D16*
X126675Y449159D02*
D03*
X4755D02*
D03*
X-86685D02*
D03*
X-56205D02*
D03*
X-25725D02*
D03*
X35235D02*
D03*
X65715D02*
D03*
X96195D02*
D03*
X157155D02*
D03*
X187635D02*
D03*
X218115D02*
D03*
X248595D02*
D03*
X-178125D02*
D03*
X-208605D02*
D03*
X248595Y987639D02*
D03*
X218115D02*
D03*
X187635D02*
D03*
X157155D02*
D03*
X126675D02*
D03*
X96195D02*
D03*
X65715D02*
D03*
X-208605D02*
D03*
X-178125D02*
D03*
X-147645D02*
D03*
X-117165D02*
D03*
X-86685D02*
D03*
X-56205D02*
D03*
X-25725D02*
D03*
D17*
X-284805Y901279D02*
D03*
Y870799D02*
D03*
Y809839D02*
D03*
Y687919D02*
D03*
Y718399D02*
D03*
Y748879D02*
D03*
Y779359D02*
D03*
Y931759D02*
D03*
Y840319D02*
D03*
X324795Y901279D02*
D03*
Y870799D02*
D03*
Y840319D02*
D03*
Y809839D02*
D03*
Y657439D02*
D03*
Y687919D02*
D03*
Y718399D02*
D03*
Y748879D02*
D03*
Y779359D02*
D03*
Y931759D02*
D03*
Y505039D02*
D03*
Y535519D02*
D03*
Y565999D02*
D03*
Y626959D02*
D03*
X-284805Y505039D02*
D03*
Y535519D02*
D03*
Y565999D02*
D03*
Y626959D02*
D03*
Y657439D02*
D03*
D18*
X-341957Y63326D02*
D03*
Y122451D02*
D03*
D19*
X19995Y718399D02*
D03*
%TF.MD5,1bd8b10ac322ac128a00fbfbf5d767c4*%
M02*
