%TF.GenerationSoftware,Altium Limited,Altium Designer,18.0.12 (696)*%
G04 Layer_Color=8388736*
%FSLAX45Y45*%
%MOMM*%
%TF.FileFunction,Soldermask,Top*%
%TF.Part,Single*%
G01*
G75*
%TA.AperFunction,ComponentPad*%
G04:AMPARAMS|DCode=61|XSize=0.5032mm|YSize=0.5032mm|CornerRadius=0mm|HoleSize=0mm|Usage=FLASHONLY|Rotation=180.000|XOffset=0mm|YOffset=0mm|HoleType=Round|Shape=Octagon|*
%AMOCTAGOND61*
4,1,8,-0.25160,0.12580,-0.25160,-0.12580,-0.12580,-0.25160,0.12580,-0.25160,0.25160,-0.12580,0.25160,0.12580,0.12580,0.25160,-0.12580,0.25160,-0.25160,0.12580,0.0*
%
%ADD61OCTAGOND61*%

%ADD62O,0.50000X0.70000*%
%TA.AperFunction,ViaPad*%
%ADD63C,1.40320*%
%TA.AperFunction,ComponentPad*%
G04:AMPARAMS|DCode=64|XSize=0.5032mm|YSize=0.5032mm|CornerRadius=0mm|HoleSize=0mm|Usage=FLASHONLY|Rotation=90.000|XOffset=0mm|YOffset=0mm|HoleType=Round|Shape=Octagon|*
%AMOCTAGOND64*
4,1,8,0.12580,0.25160,-0.12580,0.25160,-0.25160,0.12580,-0.25160,-0.12580,-0.12580,-0.25160,0.12580,-0.25160,0.25160,-0.12580,0.25160,0.12580,0.12580,0.25160,0.0*
%
%ADD64OCTAGOND64*%

%TA.AperFunction,ViaPad*%
%ADD66C,0.40000*%
%TA.AperFunction,SMDPad,CuDef*%
%ADD68R,0.63500X0.63500*%
%ADD69R,0.96520X0.88900*%
%ADD70R,0.63500X0.63500*%
%TA.AperFunction,ConnectorPad*%
%ADD71R,0.96520X0.88900*%
%TA.AperFunction,SMDPad,CuDef*%
%ADD72R,0.23000X0.50500*%
%ADD73R,0.32000X0.50500*%
%ADD74R,0.35560X0.40640*%
%ADD75R,0.40640X0.35560*%
%ADD76R,1.80320X0.45320*%
%ADD77R,5.53720X4.77520*%
D61*
X515000Y230500D02*
D03*
X-300750Y343250D02*
D03*
X-232750D02*
D03*
X-412250Y398500D02*
D03*
X-387819Y695000D02*
D03*
X391000Y278000D02*
D03*
Y343250D02*
D03*
D62*
X223977Y-592140D02*
D03*
X97027D02*
D03*
X-93473Y-472840D02*
D03*
X-156973D02*
D03*
X-220473D02*
D03*
X97027D02*
D03*
X33527D02*
D03*
X-29973D02*
D03*
X-93473Y-592140D02*
D03*
X-156973D02*
D03*
X-220473D02*
D03*
X-29973D02*
D03*
X33527D02*
D03*
X160477Y-472840D02*
D03*
Y-592140D02*
D03*
X223977Y-472840D02*
D03*
D63*
X-365000Y1375000D02*
D03*
X365000D02*
D03*
Y75000D02*
D03*
D64*
X-413000Y315500D02*
D03*
D66*
X254999Y279999D02*
D03*
X500000Y1230000D02*
D03*
X415000Y500000D02*
D03*
X505001Y925000D02*
D03*
X409090Y565999D02*
D03*
X-343750Y463000D02*
D03*
X760001Y1150000D02*
D03*
X755001Y953882D02*
D03*
X-134635Y409199D02*
D03*
X324997Y439196D02*
D03*
D68*
X-68370Y146750D02*
D03*
X10370D02*
D03*
X-15240Y322750D02*
D03*
X63500D02*
D03*
D69*
X177000Y311750D02*
D03*
Y205070D02*
D03*
D70*
X311750Y324370D02*
D03*
Y245630D02*
D03*
X-136500Y325620D02*
D03*
Y246880D02*
D03*
D71*
X-420750Y493910D02*
D03*
Y600590D02*
D03*
D72*
X-290004Y1097699D02*
D03*
X-255005D02*
D03*
X-220006D02*
D03*
X-185006D02*
D03*
X-150007D02*
D03*
X-115007D02*
D03*
X-80008D02*
D03*
X-45009D02*
D03*
X-10009D02*
D03*
X24990D02*
D03*
X59990D02*
D03*
X94989D02*
D03*
X129989D02*
D03*
X164988D02*
D03*
X199987D02*
D03*
X234987D02*
D03*
X269986D02*
D03*
X-290004Y1279199D02*
D03*
X-255005D02*
D03*
X-220006D02*
D03*
X-185006D02*
D03*
X-150007D02*
D03*
X-115007D02*
D03*
X-80008D02*
D03*
X-45009D02*
D03*
X-10009D02*
D03*
X24990D02*
D03*
X59990D02*
D03*
X94989D02*
D03*
X129989D02*
D03*
X164988D02*
D03*
X199987D02*
D03*
X234987D02*
D03*
X269986D02*
D03*
D73*
X-330005D02*
D03*
Y1097699D02*
D03*
X309995Y1279199D02*
D03*
Y1097699D02*
D03*
D74*
X126675Y449159D02*
D03*
X4755D02*
D03*
X-86685D02*
D03*
X-56205D02*
D03*
X-25725D02*
D03*
X35235D02*
D03*
X65715D02*
D03*
X96195D02*
D03*
X157155D02*
D03*
X187635D02*
D03*
X218115D02*
D03*
X248595D02*
D03*
X-178125D02*
D03*
X-208605D02*
D03*
X248595Y987639D02*
D03*
X218115D02*
D03*
X187635D02*
D03*
X157155D02*
D03*
X126675D02*
D03*
X96195D02*
D03*
X65715D02*
D03*
X-208605D02*
D03*
X-178125D02*
D03*
X-147645D02*
D03*
X-117165D02*
D03*
X-86685D02*
D03*
X-56205D02*
D03*
X-25725D02*
D03*
D75*
X-284805Y901279D02*
D03*
Y870799D02*
D03*
Y809839D02*
D03*
Y687919D02*
D03*
Y718399D02*
D03*
Y748879D02*
D03*
Y779359D02*
D03*
Y931759D02*
D03*
Y840319D02*
D03*
X324795Y901279D02*
D03*
Y870799D02*
D03*
Y840319D02*
D03*
Y809839D02*
D03*
Y657439D02*
D03*
Y687919D02*
D03*
Y718399D02*
D03*
Y748879D02*
D03*
Y779359D02*
D03*
Y931759D02*
D03*
Y505039D02*
D03*
Y535519D02*
D03*
Y565999D02*
D03*
Y626959D02*
D03*
X-284805Y505039D02*
D03*
Y535519D02*
D03*
Y565999D02*
D03*
Y626959D02*
D03*
Y657439D02*
D03*
D76*
X-341957Y63326D02*
D03*
Y122451D02*
D03*
D77*
X19995Y718399D02*
D03*
%TF.MD5,38cdb723e1399db4cd06635ccede79be*%
M02*
