%TF.GenerationSoftware,Altium Limited,Altium Designer,18.0.12 (696)*%
G04 Layer_Color=8388736*
%FSLAX45Y45*%
%MOMM*%
%TF.FileFunction,Other,layer_stack_table*%
%TF.Part,Single*%
G01*
G75*
%TA.AperFunction,NonConductor*%
%ADD49C,0.02540*%
%ADD78C,0.25400*%
%ADD83C,0.00100*%
D49*
X5865028Y1531775D02*
X5940028Y1606775D01*
X5790028Y1531775D02*
X5940028Y1681775D01*
X5715027Y1531775D02*
X5865028Y1681775D01*
X5640027Y1531775D02*
X5790028Y1681775D01*
X5565027Y1531775D02*
X5715027Y1681775D01*
X5490027Y1531775D02*
X5640027Y1681775D01*
X5415027Y1531775D02*
X5565027Y1681775D01*
X5340027Y1531775D02*
X5490027Y1681775D01*
X5276876Y1543624D02*
X5415027Y1681775D01*
X5276876Y1618624D02*
X5340027Y1681775D01*
X5865028D02*
X5940028Y1756775D01*
X5790028Y1681775D02*
X5940028Y1831775D01*
X5715027Y1681775D02*
X5865028Y1831775D01*
X5640027Y1681775D02*
X5790028Y1831775D01*
X5565027Y1681775D02*
X5715027Y1831775D01*
X5490027Y1681775D02*
X5640027Y1831775D01*
X5415027Y1681775D02*
X5565027Y1831775D01*
X5340027Y1681775D02*
X5490027Y1831775D01*
X5276876Y1693624D02*
X5415027Y1831775D01*
X5276876Y1768624D02*
X5340027Y1831775D01*
X5865028D02*
X5940028Y1906775D01*
X5790028Y1831775D02*
X5940028Y1981776D01*
X5715027Y1831775D02*
X5865028Y1981776D01*
X5640027Y1831775D02*
X5790028Y1981776D01*
X5565027Y1831775D02*
X5715027Y1981776D01*
X5490027Y1831775D02*
X5640027Y1981776D01*
X5415027Y1831775D02*
X5565027Y1981776D01*
X5340027Y1831775D02*
X5490027Y1981776D01*
X5276876Y1843624D02*
X5415027Y1981776D01*
X5276876Y1918625D02*
X5340027Y1981776D01*
X5865028D02*
X5940028Y2056776D01*
X5790028Y1981776D02*
X5940028Y2131776D01*
X5715027Y1981776D02*
X5865028Y2131776D01*
X5640027Y1981776D02*
X5790028Y2131776D01*
X5565027Y1981776D02*
X5715027Y2131776D01*
X5490027Y1981776D02*
X5640027Y2131776D01*
X5415027Y1981776D02*
X5565027Y2131776D01*
X5340027Y1981776D02*
X5490027Y2131776D01*
X5276876Y1993625D02*
X5415027Y2131776D01*
X5276876Y2068625D02*
X5340027Y2131776D01*
X5865028D02*
X5940028Y2206776D01*
X5790028Y2131776D02*
X5940028Y2281776D01*
X5715027Y2131776D02*
X5865028Y2281776D01*
X5640027Y2131776D02*
X5790028Y2281776D01*
X5565027Y2131776D02*
X5715027Y2281776D01*
X5490027Y2131776D02*
X5640027Y2281776D01*
X5415027Y2131776D02*
X5565027Y2281776D01*
X5340027Y2131776D02*
X5490027Y2281776D01*
X5276876Y2143625D02*
X5415027Y2281776D01*
X5276876Y2218625D02*
X5340027Y2281776D01*
X5865028D02*
X5940028Y2356776D01*
X5790028Y2281776D02*
X5940028Y2431776D01*
X5715027Y2281776D02*
X5865028Y2431776D01*
X5640027Y2281776D02*
X5790028Y2431776D01*
X5565027Y2281776D02*
X5715027Y2431776D01*
X5490027Y2281776D02*
X5640027Y2431776D01*
X5415027Y2281776D02*
X5565027Y2431776D01*
X5340027Y2281776D02*
X5490027Y2431776D01*
X5276876Y2293625D02*
X5415027Y2431776D01*
X5276876Y2368625D02*
X5340027Y2431776D01*
X5865028D02*
X5940028Y2506776D01*
X5790028Y2431776D02*
X5940028Y2581776D01*
X5715027Y2431776D02*
X5865028Y2581776D01*
X5640027Y2431776D02*
X5790028Y2581776D01*
X5565027Y2431776D02*
X5715027Y2581776D01*
X5490027Y2431776D02*
X5640027Y2581776D01*
X5415027Y2431776D02*
X5565027Y2581776D01*
X5340027Y2431776D02*
X5490027Y2581776D01*
X5276876Y2443625D02*
X5415027Y2581776D01*
X5276876Y2518625D02*
X5340027Y2581776D01*
X5865028D02*
X5940028Y2656776D01*
X5790028Y2581776D02*
X5940028Y2731777D01*
X5715027Y2581776D02*
X5865028Y2731777D01*
X5640027Y2581776D02*
X5790028Y2731777D01*
X5565027Y2581776D02*
X5715027Y2731777D01*
X5490027Y2581776D02*
X5640027Y2731777D01*
X5415027Y2581776D02*
X5565027Y2731777D01*
X5340027Y2581776D02*
X5490027Y2731777D01*
X5276876Y2593625D02*
X5415027Y2731777D01*
X5276876Y2668626D02*
X5340027Y2731777D01*
X5865028D02*
X5940028Y2806777D01*
X5790028Y2731777D02*
X5940028Y2881777D01*
X5715027Y2731777D02*
X5865028Y2881777D01*
X5640027Y2731777D02*
X5790028Y2881777D01*
X5565027Y2731777D02*
X5715027Y2881777D01*
X5490027Y2731777D02*
X5640027Y2881777D01*
X5415027Y2731777D02*
X5565027Y2881777D01*
X5340027Y2731777D02*
X5490027Y2881777D01*
X5276876Y2743626D02*
X5415027Y2881777D01*
X5276876Y2818626D02*
X5340027Y2881777D01*
X5940028Y1906775D02*
X6015028Y1831775D01*
X5940028Y1981776D02*
X6090028Y1831775D01*
X6015028Y1981776D02*
X6165028Y1831775D01*
X6090028Y1981776D02*
X6240028Y1831775D01*
X6165028Y1981776D02*
X6315028Y1831775D01*
X6240028Y1981776D02*
X6390028Y1831775D01*
X6315028Y1981776D02*
X6465028Y1831775D01*
X6390028Y1981776D02*
X6540029Y1831775D01*
X6465028Y1981776D02*
X6615029Y1831775D01*
X6540029Y1981776D02*
X6690029Y1831775D01*
X6615029Y1981776D02*
X6765029Y1831775D01*
X6690029Y1981776D02*
X6840029Y1831775D01*
X6765029Y1981776D02*
X6903083Y1843721D01*
X6840029Y1981776D02*
X6903083Y1918721D01*
X5940028Y2056776D02*
X6015028Y1981776D01*
X5940028Y2131776D02*
X6090028Y1981776D01*
X6015028Y2131776D02*
X6165028Y1981776D01*
X6090028Y2131776D02*
X6240028Y1981776D01*
X6165028Y2131776D02*
X6315028Y1981776D01*
X6240028Y2131776D02*
X6390028Y1981776D01*
X6315028Y2131776D02*
X6465028Y1981776D01*
X6390028Y2131776D02*
X6540029Y1981776D01*
X6465028Y2131776D02*
X6615029Y1981776D01*
X6540029Y2131776D02*
X6690029Y1981776D01*
X6615029Y2131776D02*
X6765029Y1981776D01*
X6690029Y2131776D02*
X6840029Y1981776D01*
X6765029Y2131776D02*
X6903083Y1993721D01*
X6840029Y2131776D02*
X6903083Y2068721D01*
X5940028Y2206776D02*
X6015028Y2131776D01*
X5940028Y2281776D02*
X6090028Y2131776D01*
X6015028Y2281776D02*
X6165028Y2131776D01*
X6090028Y2281776D02*
X6240028Y2131776D01*
X6165028Y2281776D02*
X6315028Y2131776D01*
X6240028Y2281776D02*
X6390028Y2131776D01*
X6315028Y2281776D02*
X6465028Y2131776D01*
X6390028Y2281776D02*
X6540029Y2131776D01*
X6465028Y2281776D02*
X6615029Y2131776D01*
X6540029Y2281776D02*
X6690029Y2131776D01*
X6615029Y2281776D02*
X6765029Y2131776D01*
X6690029Y2281776D02*
X6840029Y2131776D01*
X6765029Y2281776D02*
X6903083Y2143721D01*
X6840029Y2281776D02*
X6903083Y2218721D01*
X5940028Y2356776D02*
X6015028Y2281776D01*
X5940028Y2431776D02*
X6090028Y2281776D01*
X6015028Y2431776D02*
X6165028Y2281776D01*
X6090028Y2431776D02*
X6240028Y2281776D01*
X6165028Y2431776D02*
X6315028Y2281776D01*
X6240028Y2431776D02*
X6390028Y2281776D01*
X6315028Y2431776D02*
X6465028Y2281776D01*
X6390028Y2431776D02*
X6540029Y2281776D01*
X6465028Y2431776D02*
X6615029Y2281776D01*
X6540029Y2431776D02*
X6690029Y2281776D01*
X6615029Y2431776D02*
X6765029Y2281776D01*
X6690029Y2431776D02*
X6840029Y2281776D01*
X6765029Y2431776D02*
X6903083Y2293722D01*
X6840029Y2431776D02*
X6903083Y2368722D01*
X5940028Y2506776D02*
X6015028Y2431776D01*
X5940028Y2581776D02*
X6090028Y2431776D01*
X6015028Y2581776D02*
X6165028Y2431776D01*
X6090028Y2581776D02*
X6240028Y2431776D01*
X6165028Y2581776D02*
X6315028Y2431776D01*
X6240028Y2581776D02*
X6390028Y2431776D01*
X6315028Y2581776D02*
X6465028Y2431776D01*
X6390028Y2581776D02*
X6540029Y2431776D01*
X6465028Y2581776D02*
X6615029Y2431776D01*
X6540029Y2581776D02*
X6690029Y2431776D01*
X6615029Y2581776D02*
X6765029Y2431776D01*
X6690029Y2581776D02*
X6840029Y2431776D01*
X6765029Y2581776D02*
X6903083Y2443722D01*
X6840029Y2581776D02*
X6903083Y2518722D01*
X5940028Y2656776D02*
X6015028Y2581776D01*
X5940028Y2731777D02*
X6090028Y2581776D01*
X6015028Y2731777D02*
X6165028Y2581776D01*
X6090028Y2731777D02*
X6240028Y2581776D01*
X6165028Y2731777D02*
X6315028Y2581776D01*
X6240028Y2731777D02*
X6390028Y2581776D01*
X6315028Y2731777D02*
X6465028Y2581776D01*
X6390028Y2731777D02*
X6540029Y2581776D01*
X6465028Y2731777D02*
X6615029Y2581776D01*
X6540029Y2731777D02*
X6690029Y2581776D01*
X6615029Y2731777D02*
X6765029Y2581776D01*
X6690029Y2731777D02*
X6840029Y2581776D01*
X6765029Y2731777D02*
X6903083Y2593722D01*
X6840029Y2731777D02*
X6903083Y2668722D01*
Y1906775D02*
X7866139D01*
X6903083Y2056776D02*
X7866139D01*
X6903083Y2206776D02*
X7866139D01*
X6903083Y2356776D02*
X7866139D01*
X6903083Y2506776D02*
X7866139D01*
X1795432Y55343D02*
X1871807Y131718D01*
X1720432Y55343D02*
X1871807Y206718D01*
X1645432Y55343D02*
X1871807Y281718D01*
X1604562Y89474D02*
X1871807Y356718D01*
X1524605Y84517D02*
X1871807Y431718D01*
X1449605Y84517D02*
X1871807Y506719D01*
X1374605Y84517D02*
X1871807Y581719D01*
X1304563Y89475D02*
X1871807Y656719D01*
X1195431Y55343D02*
X1871807Y731719D01*
X1120431Y55343D02*
X1871807Y806719D01*
X1045431Y55343D02*
X1871807Y881719D01*
X970431Y55343D02*
X1871807Y956719D01*
X961435Y121348D02*
X1871807Y1031719D01*
X961435Y196348D02*
X1871807Y1106719D01*
X961435Y271348D02*
X1871807Y1181720D01*
X961435Y346348D02*
X1871807Y1256720D01*
X961435Y421348D02*
X1871807Y1331720D01*
X961435Y496349D02*
X1871807Y1406720D01*
X961435Y571349D02*
X1871807Y1481720D01*
X961435Y646349D02*
X1810737Y1495651D01*
X961435Y721349D02*
X1735737Y1495651D01*
X961435Y796349D02*
X1660737Y1495651D01*
X961435Y871349D02*
X1585737Y1495651D01*
X961435Y946349D02*
X1510737Y1495651D01*
X961435Y1021349D02*
X1435737Y1495651D01*
X961435Y1096349D02*
X1360737Y1495651D01*
X961435Y1171349D02*
X1285737Y1495651D01*
X961435Y1246350D02*
X1210736Y1495651D01*
X961435Y1321350D02*
X1135736Y1495651D01*
X961435Y1396350D02*
X1060736Y1495651D01*
X961435Y1471350D02*
X985736Y1495651D01*
X1871804Y284014D02*
X1901549Y286763D01*
X1871804Y359014D02*
X1901549Y361763D01*
X1871804Y434014D02*
X1901549Y436763D01*
X1871804Y509014D02*
X1901549Y511763D01*
X1871804Y584014D02*
X1901549Y586763D01*
X1871804Y659014D02*
X1901549Y661763D01*
X1871804Y734014D02*
X1901549Y736764D01*
X1871804Y809014D02*
X1901549Y811764D01*
X1871804Y884014D02*
X1901549Y886764D01*
X1871804Y959015D02*
X1901549Y961764D01*
X1871804Y1034015D02*
X1901549Y1036764D01*
X1871804Y1109015D02*
X1901549Y1111764D01*
X1871804Y1184015D02*
X1901549Y1186764D01*
X1871804Y1259015D02*
X1901549Y1261764D01*
X1871804Y1334015D02*
X1901549Y1336764D01*
X2196956Y209014D02*
X2273331Y285388D01*
X2121956Y209014D02*
X2273331Y360388D01*
X2046956Y209014D02*
X2273331Y435389D01*
X1971956Y209014D02*
X2273331Y510389D01*
X1901547Y213605D02*
X2273331Y585389D01*
X1901547Y288605D02*
X2273331Y660389D01*
X1901547Y363605D02*
X2273331Y735389D01*
X1901547Y438605D02*
X2273331Y810389D01*
X1901547Y513605D02*
X2273331Y885389D01*
X1901547Y588605D02*
X2273331Y960389D01*
X1901547Y663605D02*
X2273331Y1035389D01*
X1901547Y738606D02*
X2273331Y1110389D01*
X1901547Y813606D02*
X2273331Y1185390D01*
X1901547Y888606D02*
X2273331Y1260390D01*
X1901547Y963606D02*
X2273331Y1335390D01*
X1901547Y1038606D02*
X2204923Y1341982D01*
X1901547Y1113606D02*
X2129923Y1341982D01*
X1901547Y1188606D02*
X2054923Y1341982D01*
X1901547Y1263606D02*
X1979923Y1341982D01*
X1901547Y1338606D02*
X1904923Y1341982D01*
X1343875Y-186527D02*
X1420249Y-262901D01*
X1343875Y-111527D02*
X1495249Y-262901D01*
X1343875Y-36526D02*
X1559510Y-252162D01*
X1343874Y38474D02*
X1559510Y-177162D01*
X1369511Y87838D02*
X1559510Y-102162D01*
X1444510Y87838D02*
X1559510Y-27162D01*
X1519511Y87838D02*
X1559510Y47838D01*
X1637301Y-574209D02*
X1713676Y-497835D01*
X1562301Y-574209D02*
X1713676Y-422835D01*
X1487301Y-574209D02*
X1713676Y-347835D01*
X1412301Y-574209D02*
X1645634Y-340876D01*
X1337301Y-574209D02*
X1604194Y-307316D01*
X1262301Y-574209D02*
X1566694Y-269816D01*
X1187301Y-574208D02*
X1501360Y-260150D01*
X1163436Y-523073D02*
X1426360Y-260150D01*
X1163436Y-448073D02*
X1351360Y-260150D01*
X1163436Y-373073D02*
X1195633Y-340877D01*
D78*
X1036437Y2994253D02*
Y2919277D01*
X1086420D01*
X1123909Y2969261D02*
X1148900D01*
X1161396Y2956765D01*
Y2919277D01*
X1123909D01*
X1111413Y2931773D01*
X1123909Y2944269D01*
X1161396D01*
X1186389Y2969261D02*
Y2931773D01*
X1198885Y2919277D01*
X1236372D01*
Y2906781D01*
X1223876Y2894285D01*
X1211381D01*
X1236372Y2919277D02*
Y2969261D01*
X1298852Y2919277D02*
X1273861D01*
X1261365Y2931773D01*
Y2956765D01*
X1273861Y2969261D01*
X1298852D01*
X1311348Y2956765D01*
Y2944269D01*
X1261365D01*
X1336340Y2969261D02*
Y2919277D01*
Y2944269D01*
X1348837Y2956765D01*
X1361333Y2969261D01*
X1373828D01*
X1036437Y1581771D02*
X1048933Y1569275D01*
X1073924D01*
X1086420Y1581771D01*
Y1631755D01*
X1073924Y1644251D01*
X1048933D01*
X1036437Y1631755D01*
Y1619259D01*
X1048933Y1606763D01*
X1086420D01*
X1036437Y1781755D02*
X1048933Y1794251D01*
X1073924D01*
X1086420Y1781755D01*
Y1769259D01*
X1073924Y1756763D01*
X1086420Y1744267D01*
Y1731771D01*
X1073924Y1719275D01*
X1048933D01*
X1036437Y1731771D01*
Y1744267D01*
X1048933Y1756763D01*
X1036437Y1769259D01*
Y1781755D01*
X1048933Y1756763D02*
X1073924D01*
X1036437Y1944251D02*
X1086420D01*
Y1931755D01*
X1036437Y1881771D01*
Y1869275D01*
X1086420Y2094252D02*
X1061429Y2081756D01*
X1036437Y2056763D01*
Y2031772D01*
X1048933Y2019276D01*
X1073924D01*
X1086420Y2031772D01*
Y2044268D01*
X1073924Y2056763D01*
X1036437D01*
X1086420Y2244252D02*
X1036437D01*
Y2206764D01*
X1061429Y2219260D01*
X1073924D01*
X1086420Y2206764D01*
Y2181772D01*
X1073924Y2169276D01*
X1048933D01*
X1036437Y2181772D01*
X1073924Y2319276D02*
Y2394252D01*
X1036437Y2356764D01*
X1086420D01*
X1036437Y2531756D02*
X1048933Y2544252D01*
X1073924D01*
X1086420Y2531756D01*
Y2519260D01*
X1073924Y2506764D01*
X1061429D01*
X1073924D01*
X1086420Y2494268D01*
Y2481772D01*
X1073924Y2469276D01*
X1048933D01*
X1036437Y2481772D01*
X1086420Y2619276D02*
X1036437D01*
X1086420Y2669260D01*
Y2681756D01*
X1073924Y2694252D01*
X1048933D01*
X1036437Y2681756D01*
Y2769277D02*
X1061429D01*
X1048933D01*
Y2844253D01*
X1036437Y2831757D01*
X1574629Y2919277D02*
Y2994253D01*
X1624612Y2919277D01*
Y2994253D01*
X1662101Y2969261D02*
X1687092D01*
X1699588Y2956765D01*
Y2919277D01*
X1662101D01*
X1649605Y2931773D01*
X1662101Y2944269D01*
X1699588D01*
X1724580Y2919277D02*
Y2969261D01*
X1737077D01*
X1749573Y2956765D01*
Y2919277D01*
Y2956765D01*
X1762068Y2969261D01*
X1774564Y2956765D01*
Y2919277D01*
X1837044D02*
X1812053D01*
X1799556Y2931773D01*
Y2956765D01*
X1812053Y2969261D01*
X1837044D01*
X1849540Y2956765D01*
Y2944269D01*
X1799556D01*
X1574629Y1644251D02*
Y1569275D01*
X1612116D01*
X1624612Y1581771D01*
Y1594267D01*
X1612116Y1606763D01*
X1574629D01*
X1612116D01*
X1624612Y1619259D01*
Y1631755D01*
X1612116Y1644251D01*
X1574629D01*
X1662101Y1569275D02*
X1687092D01*
X1699588Y1581771D01*
Y1606763D01*
X1687092Y1619259D01*
X1662101D01*
X1649605Y1606763D01*
Y1581771D01*
X1662101Y1569275D01*
X1737077Y1631755D02*
Y1619259D01*
X1724580D01*
X1749573D01*
X1737077D01*
Y1581771D01*
X1749573Y1569275D01*
X1799556Y1631755D02*
Y1619259D01*
X1787060D01*
X1812053D01*
X1799556D01*
Y1581771D01*
X1812053Y1569275D01*
X1862036D02*
X1887028D01*
X1899524Y1581771D01*
Y1606763D01*
X1887028Y1619259D01*
X1862036D01*
X1849540Y1606763D01*
Y1581771D01*
X1862036Y1569275D01*
X1924516D02*
Y1619259D01*
X1937012D01*
X1949508Y1606763D01*
Y1569275D01*
Y1606763D01*
X1962004Y1619259D01*
X1974500Y1606763D01*
Y1569275D01*
X2124452Y1631755D02*
X2111956Y1644251D01*
X2086964D01*
X2074468Y1631755D01*
Y1619259D01*
X2086964Y1606763D01*
X2111956D01*
X2124452Y1594267D01*
Y1581771D01*
X2111956Y1569275D01*
X2086964D01*
X2074468Y1581771D01*
X2161940Y1569275D02*
X2186932D01*
X2199428Y1581771D01*
Y1606763D01*
X2186932Y1619259D01*
X2161940D01*
X2149444Y1606763D01*
Y1581771D01*
X2161940Y1569275D01*
X2224420D02*
X2249412D01*
X2236916D01*
Y1644251D01*
X2224420D01*
X2336884D02*
Y1569275D01*
X2299396D01*
X2286900Y1581771D01*
Y1606763D01*
X2299396Y1619259D01*
X2336884D01*
X2399364Y1569275D02*
X2374372D01*
X2361876Y1581771D01*
Y1606763D01*
X2374372Y1619259D01*
X2399364D01*
X2411860Y1606763D01*
Y1594267D01*
X2361876D01*
X2436852Y1619259D02*
Y1569275D01*
Y1594267D01*
X2449348Y1606763D01*
X2461844Y1619259D01*
X2474340D01*
X1574629Y1794251D02*
Y1719275D01*
X1612116D01*
X1624612Y1731771D01*
Y1744267D01*
X1612116Y1756763D01*
X1574629D01*
X1612116D01*
X1624612Y1769259D01*
Y1781755D01*
X1612116Y1794251D01*
X1574629D01*
X1662101Y1719275D02*
X1687092D01*
X1699588Y1731771D01*
Y1756763D01*
X1687092Y1769259D01*
X1662101D01*
X1649605Y1756763D01*
Y1731771D01*
X1662101Y1719275D01*
X1737077Y1781755D02*
Y1769259D01*
X1724580D01*
X1749573D01*
X1737077D01*
Y1731771D01*
X1749573Y1719275D01*
X1799556Y1781755D02*
Y1769259D01*
X1787060D01*
X1812053D01*
X1799556D01*
Y1731771D01*
X1812053Y1719275D01*
X1862036D02*
X1887028D01*
X1899524Y1731771D01*
Y1756763D01*
X1887028Y1769259D01*
X1862036D01*
X1849540Y1756763D01*
Y1731771D01*
X1862036Y1719275D01*
X1924516D02*
Y1769259D01*
X1937012D01*
X1949508Y1756763D01*
Y1719275D01*
Y1756763D01*
X1962004Y1769259D01*
X1974500Y1756763D01*
Y1719275D01*
X2074468D02*
X2099460D01*
X2086964D01*
Y1794251D01*
X2074468D01*
X2149444Y1769259D02*
X2174436D01*
X2186932Y1756763D01*
Y1719275D01*
X2149444D01*
X2136948Y1731771D01*
X2149444Y1744267D01*
X2186932D01*
X2211924Y1769259D02*
Y1731771D01*
X2224420Y1719275D01*
X2261908D01*
Y1706779D01*
X2249412Y1694283D01*
X2236916D01*
X2261908Y1719275D02*
Y1769259D01*
X2324388Y1719275D02*
X2299396D01*
X2286900Y1731771D01*
Y1756763D01*
X2299396Y1769259D01*
X2324388D01*
X2336884Y1756763D01*
Y1744267D01*
X2286900D01*
X2361876Y1769259D02*
Y1719275D01*
Y1744267D01*
X2374372Y1756763D01*
X2386868Y1769259D01*
X2399364D01*
X1574629Y1944251D02*
Y1869275D01*
X1612116D01*
X1624612Y1881771D01*
Y1931755D01*
X1612116Y1944251D01*
X1574629D01*
X1649605Y1869275D02*
X1674597D01*
X1662101D01*
Y1919259D01*
X1649605D01*
X1749572Y1869275D02*
X1724580D01*
X1712084Y1881771D01*
Y1906763D01*
X1724580Y1919259D01*
X1749572D01*
X1762068Y1906763D01*
Y1894267D01*
X1712084D01*
X1787060Y1869275D02*
X1812053D01*
X1799556D01*
Y1944251D01*
X1787060D01*
X1887028Y1869275D02*
X1862036D01*
X1849540Y1881771D01*
Y1906763D01*
X1862036Y1919259D01*
X1887028D01*
X1899524Y1906763D01*
Y1894267D01*
X1849540D01*
X1974500Y1919259D02*
X1937012D01*
X1924516Y1906763D01*
Y1881771D01*
X1937012Y1869275D01*
X1974500D01*
X2011988Y1931755D02*
Y1919259D01*
X1999492D01*
X2024484D01*
X2011988D01*
Y1881771D01*
X2024484Y1869275D01*
X2061972Y1919259D02*
Y1869275D01*
Y1894267D01*
X2074468Y1906763D01*
X2086964Y1919259D01*
X2099460D01*
X2136948Y1869275D02*
X2161940D01*
X2149444D01*
Y1919259D01*
X2136948D01*
X2249412D02*
X2211924D01*
X2199428Y1906763D01*
Y1881771D01*
X2211924Y1869275D01*
X2249412D01*
X2399364D02*
X2349380D01*
X2399364Y1919259D01*
Y1931755D01*
X2386868Y1944251D01*
X2361876D01*
X2349380Y1931755D01*
X1574629Y2019276D02*
Y2069260D01*
X1599621Y2094252D01*
X1624612Y2069260D01*
Y2019276D01*
Y2056763D01*
X1574629D01*
X1699588Y2094252D02*
Y2019276D01*
X1662101D01*
X1649605Y2031772D01*
Y2056763D01*
X1662101Y2069260D01*
X1699588D01*
X1724580Y2094252D02*
Y2019276D01*
Y2056763D01*
X1737077Y2069260D01*
X1762068D01*
X1774564Y2056763D01*
Y2019276D01*
X1837044D02*
X1812053D01*
X1799556Y2031772D01*
Y2056763D01*
X1812053Y2069260D01*
X1837044D01*
X1849540Y2056763D01*
Y2044268D01*
X1799556D01*
X1874532Y2019276D02*
X1912020D01*
X1924516Y2031772D01*
X1912020Y2044268D01*
X1887028D01*
X1874532Y2056763D01*
X1887028Y2069260D01*
X1924516D01*
X1949508Y2019276D02*
X1974500D01*
X1962004D01*
Y2069260D01*
X1949508D01*
X2011988D02*
X2036980Y2019276D01*
X2061972Y2069260D01*
X2124452Y2019276D02*
X2099460D01*
X2086964Y2031772D01*
Y2056763D01*
X2099460Y2069260D01*
X2124452D01*
X2136948Y2056763D01*
Y2044268D01*
X2086964D01*
X2286900Y2019276D02*
X2236916D01*
X2286900Y2069260D01*
Y2081756D01*
X2274404Y2094252D01*
X2249412D01*
X2236916Y2081756D01*
X1624612Y2231756D02*
X1612116Y2244252D01*
X1587125D01*
X1574629Y2231756D01*
Y2181772D01*
X1587125Y2169276D01*
X1612116D01*
X1624612Y2181772D01*
Y2206764D01*
X1599621D01*
X1649605Y2169276D02*
Y2244252D01*
X1699588Y2169276D01*
Y2244252D01*
X1724580D02*
Y2169276D01*
X1762068D01*
X1774564Y2181772D01*
Y2231756D01*
X1762068Y2244252D01*
X1724580D01*
X1574629Y2319276D02*
Y2369260D01*
X1599621Y2394252D01*
X1624612Y2369260D01*
Y2319276D01*
Y2356764D01*
X1574629D01*
X1699588Y2394252D02*
Y2319276D01*
X1662101D01*
X1649605Y2331772D01*
Y2356764D01*
X1662101Y2369260D01*
X1699588D01*
X1724580Y2394252D02*
Y2319276D01*
Y2356764D01*
X1737077Y2369260D01*
X1762068D01*
X1774564Y2356764D01*
Y2319276D01*
X1837044D02*
X1812053D01*
X1799556Y2331772D01*
Y2356764D01*
X1812053Y2369260D01*
X1837044D01*
X1849540Y2356764D01*
Y2344268D01*
X1799556D01*
X1874532Y2319276D02*
X1912020D01*
X1924516Y2331772D01*
X1912020Y2344268D01*
X1887028D01*
X1874532Y2356764D01*
X1887028Y2369260D01*
X1924516D01*
X1949508Y2319276D02*
X1974500D01*
X1962004D01*
Y2369260D01*
X1949508D01*
X2011988D02*
X2036980Y2319276D01*
X2061972Y2369260D01*
X2124452Y2319276D02*
X2099460D01*
X2086964Y2331772D01*
Y2356764D01*
X2099460Y2369260D01*
X2124452D01*
X2136948Y2356764D01*
Y2344268D01*
X2086964D01*
X2236916Y2319276D02*
X2261908D01*
X2249412D01*
Y2394252D01*
X2236916Y2381756D01*
X1574629Y2544252D02*
Y2469276D01*
X1612116D01*
X1624612Y2481772D01*
Y2531756D01*
X1612116Y2544252D01*
X1574629D01*
X1649605Y2469276D02*
X1674597D01*
X1662101D01*
Y2519260D01*
X1649605D01*
X1749572Y2469276D02*
X1724580D01*
X1712084Y2481772D01*
Y2506764D01*
X1724580Y2519260D01*
X1749572D01*
X1762068Y2506764D01*
Y2494268D01*
X1712084D01*
X1787060Y2469276D02*
X1812053D01*
X1799556D01*
Y2544252D01*
X1787060D01*
X1887028Y2469276D02*
X1862036D01*
X1849540Y2481772D01*
Y2506764D01*
X1862036Y2519260D01*
X1887028D01*
X1899524Y2506764D01*
Y2494268D01*
X1849540D01*
X1974500Y2519260D02*
X1937012D01*
X1924516Y2506764D01*
Y2481772D01*
X1937012Y2469276D01*
X1974500D01*
X2011988Y2531756D02*
Y2519260D01*
X1999492D01*
X2024484D01*
X2011988D01*
Y2481772D01*
X2024484Y2469276D01*
X2061972Y2519260D02*
Y2469276D01*
Y2494268D01*
X2074468Y2506764D01*
X2086964Y2519260D01*
X2099460D01*
X2136948Y2469276D02*
X2161940D01*
X2149444D01*
Y2519260D01*
X2136948D01*
X2249412D02*
X2211924D01*
X2199428Y2506764D01*
Y2481772D01*
X2211924Y2469276D01*
X2249412D01*
X2349380D02*
X2374372D01*
X2361876D01*
Y2544252D01*
X2349380Y2531756D01*
X1574629Y2694252D02*
X1624612D01*
X1599621D01*
Y2619276D01*
X1662101D02*
X1687092D01*
X1699588Y2631772D01*
Y2656764D01*
X1687092Y2669260D01*
X1662101D01*
X1649605Y2656764D01*
Y2631772D01*
X1662101Y2619276D01*
X1724580Y2594284D02*
Y2669260D01*
X1762068D01*
X1774564Y2656764D01*
Y2631772D01*
X1762068Y2619276D01*
X1724580D01*
X1874532Y2694252D02*
Y2619276D01*
X1924516D01*
X1962004Y2669260D02*
X1986996D01*
X1999492Y2656764D01*
Y2619276D01*
X1962004D01*
X1949508Y2631772D01*
X1962004Y2644269D01*
X1999492D01*
X2024484Y2669260D02*
Y2631772D01*
X2036980Y2619276D01*
X2074468D01*
Y2606780D01*
X2061972Y2594284D01*
X2049476D01*
X2074468Y2619276D02*
Y2669260D01*
X2136948Y2619276D02*
X2111956D01*
X2099460Y2631772D01*
Y2656764D01*
X2111956Y2669260D01*
X2136948D01*
X2149444Y2656764D01*
Y2644269D01*
X2099460D01*
X2174436Y2669260D02*
Y2619276D01*
Y2644269D01*
X2186932Y2656764D01*
X2199428Y2669260D01*
X2211924D01*
X1624612Y2844253D02*
X1574629D01*
Y2806765D01*
X1599621D01*
X1574629D01*
Y2769277D01*
X1662101D02*
X1687092D01*
X1699588Y2781773D01*
Y2806765D01*
X1687092Y2819261D01*
X1662101D01*
X1649605Y2806765D01*
Y2781773D01*
X1662101Y2769277D01*
X1737077Y2831757D02*
Y2819261D01*
X1724580D01*
X1749573D01*
X1737077D01*
Y2781773D01*
X1749573Y2769277D01*
X1799556D02*
X1824548D01*
X1837044Y2781773D01*
Y2806765D01*
X1824548Y2819261D01*
X1799556D01*
X1787060Y2806765D01*
Y2781773D01*
X1799556Y2769277D01*
X1862036D02*
X1887028D01*
X1874532D01*
Y2844253D01*
X1862036D01*
X1937012Y2819261D02*
X1962004D01*
X1974500Y2806765D01*
Y2769277D01*
X1937012D01*
X1924516Y2781773D01*
X1937012Y2794269D01*
X1974500D01*
X2049476Y2819261D02*
X2011988D01*
X1999492Y2806765D01*
Y2781773D01*
X2011988Y2769277D01*
X2049476D01*
X2074468D02*
Y2844253D01*
Y2794269D02*
X2111956Y2819261D01*
X2074468Y2794269D02*
X2111956Y2769277D01*
X2675140Y2919277D02*
Y2994253D01*
X2700132Y2969261D01*
X2725124Y2994253D01*
Y2919277D01*
X2762612Y2969261D02*
X2787604D01*
X2800100Y2956765D01*
Y2919277D01*
X2762612D01*
X2750116Y2931773D01*
X2762612Y2944269D01*
X2800100D01*
X2837588Y2981757D02*
Y2969261D01*
X2825092D01*
X2850084D01*
X2837588D01*
Y2931773D01*
X2850084Y2919277D01*
X2925060D02*
X2900068D01*
X2887572Y2931773D01*
Y2956765D01*
X2900068Y2969261D01*
X2925060D01*
X2937556Y2956765D01*
Y2944269D01*
X2887572D01*
X2962548Y2969261D02*
Y2919277D01*
Y2944269D01*
X2975044Y2956765D01*
X2987540Y2969261D01*
X3000036D01*
X3037524Y2919277D02*
X3062516D01*
X3050020D01*
Y2969261D01*
X3037524D01*
X3112500D02*
X3137492D01*
X3149988Y2956765D01*
Y2919277D01*
X3112500D01*
X3100004Y2931773D01*
X3112500Y2944269D01*
X3149988D01*
X3174980Y2919277D02*
X3199972D01*
X3187476D01*
Y2994253D01*
X3174980D01*
X2725124Y1631755D02*
X2712628Y1644251D01*
X2687636D01*
X2675140Y1631755D01*
Y1619259D01*
X2687636Y1606763D01*
X2712628D01*
X2725124Y1594267D01*
Y1581771D01*
X2712628Y1569275D01*
X2687636D01*
X2675140Y1581771D01*
X2762612Y1569275D02*
X2787604D01*
X2800100Y1581771D01*
Y1606763D01*
X2787604Y1619259D01*
X2762612D01*
X2750116Y1606763D01*
Y1581771D01*
X2762612Y1569275D01*
X2825092D02*
X2850084D01*
X2837588D01*
Y1644251D01*
X2825092D01*
X2937556D02*
Y1569275D01*
X2900068D01*
X2887572Y1581771D01*
Y1606763D01*
X2900068Y1619259D01*
X2937556D01*
X3000036Y1569275D02*
X2975044D01*
X2962548Y1581771D01*
Y1606763D01*
X2975044Y1619259D01*
X3000036D01*
X3012532Y1606763D01*
Y1594267D01*
X2962548D01*
X3037524Y1619259D02*
Y1569275D01*
Y1594267D01*
X3050020Y1606763D01*
X3062516Y1619259D01*
X3075012D01*
X3187476Y1569275D02*
Y1644251D01*
X3224964D01*
X3237460Y1631755D01*
Y1606763D01*
X3224964Y1594267D01*
X3187476D01*
X3212468D02*
X3237460Y1569275D01*
X3299940D02*
X3274948D01*
X3262452Y1581771D01*
Y1606763D01*
X3274948Y1619259D01*
X3299940D01*
X3312436Y1606763D01*
Y1594267D01*
X3262452D01*
X3337428Y1569275D02*
X3374916D01*
X3387412Y1581771D01*
X3374916Y1594267D01*
X3349924D01*
X3337428Y1606763D01*
X3349924Y1619259D01*
X3387412D01*
X3412404Y1569275D02*
X3437396D01*
X3424900D01*
Y1619259D01*
X3412404D01*
X3474884Y1569275D02*
X3512372D01*
X3524868Y1581771D01*
X3512372Y1594267D01*
X3487380D01*
X3474884Y1606763D01*
X3487380Y1619259D01*
X3524868D01*
X3562356Y1631755D02*
Y1619259D01*
X3549860D01*
X3574852D01*
X3562356D01*
Y1581771D01*
X3574852Y1569275D01*
X2725124Y1781755D02*
X2712628Y1794251D01*
X2687636D01*
X2675140Y1781755D01*
Y1731771D01*
X2687636Y1719275D01*
X2712628D01*
X2725124Y1731771D01*
X2762612Y1719275D02*
X2787604D01*
X2800100Y1731771D01*
Y1756763D01*
X2787604Y1769259D01*
X2762612D01*
X2750116Y1756763D01*
Y1731771D01*
X2762612Y1719275D01*
X2825092Y1694283D02*
Y1769259D01*
X2862580D01*
X2875076Y1756763D01*
Y1731771D01*
X2862580Y1719275D01*
X2825092D01*
X2900068Y1694283D02*
Y1769259D01*
X2937556D01*
X2950052Y1756763D01*
Y1731771D01*
X2937556Y1719275D01*
X2900068D01*
X3012532D02*
X2987540D01*
X2975044Y1731771D01*
Y1756763D01*
X2987540Y1769259D01*
X3012532D01*
X3025028Y1756763D01*
Y1744267D01*
X2975044D01*
X3050020Y1769259D02*
Y1719275D01*
Y1744267D01*
X3062516Y1756763D01*
X3075012Y1769259D01*
X3087508D01*
X2725124Y1944251D02*
X2675140D01*
Y1906763D01*
X2700132D01*
X2675140D01*
Y1869275D01*
X2750116D02*
Y1944251D01*
X2787604D01*
X2800100Y1931755D01*
Y1906763D01*
X2787604Y1894267D01*
X2750116D01*
X2775108D02*
X2800100Y1869275D01*
X2825092Y1906763D02*
X2875076D01*
X2937556Y1869275D02*
Y1944251D01*
X2900068Y1906763D01*
X2950052D01*
X2725124Y2231756D02*
X2712628Y2244252D01*
X2687636D01*
X2675140Y2231756D01*
Y2181772D01*
X2687636Y2169276D01*
X2712628D01*
X2725124Y2181772D01*
X2762612Y2169276D02*
X2787604D01*
X2800100Y2181772D01*
Y2206764D01*
X2787604Y2219260D01*
X2762612D01*
X2750116Y2206764D01*
Y2181772D01*
X2762612Y2169276D01*
X2825092Y2144284D02*
Y2219260D01*
X2862580D01*
X2875076Y2206764D01*
Y2181772D01*
X2862580Y2169276D01*
X2825092D01*
X2900068Y2144284D02*
Y2219260D01*
X2937556D01*
X2950052Y2206764D01*
Y2181772D01*
X2937556Y2169276D01*
X2900068D01*
X3012532D02*
X2987540D01*
X2975044Y2181772D01*
Y2206764D01*
X2987540Y2219260D01*
X3012532D01*
X3025028Y2206764D01*
Y2194268D01*
X2975044D01*
X3050020Y2219260D02*
Y2169276D01*
Y2194268D01*
X3062516Y2206764D01*
X3075012Y2219260D01*
X3087508D01*
X2725124Y2544252D02*
X2675140D01*
Y2506764D01*
X2700132D01*
X2675140D01*
Y2469276D01*
X2750116D02*
Y2544252D01*
X2787604D01*
X2800100Y2531756D01*
Y2506764D01*
X2787604Y2494268D01*
X2750116D01*
X2775108D02*
X2800100Y2469276D01*
X2825092Y2506764D02*
X2875076D01*
X2937556Y2469276D02*
Y2544252D01*
X2900068Y2506764D01*
X2950052D01*
X2725124Y2681756D02*
X2712628Y2694252D01*
X2687636D01*
X2675140Y2681756D01*
Y2631772D01*
X2687636Y2619276D01*
X2712628D01*
X2725124Y2631772D01*
X2762612Y2619276D02*
X2787604D01*
X2800100Y2631772D01*
Y2656764D01*
X2787604Y2669260D01*
X2762612D01*
X2750116Y2656764D01*
Y2631772D01*
X2762612Y2619276D01*
X2825092Y2594284D02*
Y2669260D01*
X2862580D01*
X2875076Y2656764D01*
Y2631772D01*
X2862580Y2619276D01*
X2825092D01*
X2900068Y2594284D02*
Y2669260D01*
X2937556D01*
X2950052Y2656764D01*
Y2631772D01*
X2937556Y2619276D01*
X2900068D01*
X3012532D02*
X2987540D01*
X2975044Y2631772D01*
Y2656764D01*
X2987540Y2669260D01*
X3012532D01*
X3025028Y2656764D01*
Y2644269D01*
X2975044D01*
X3050020Y2669260D02*
Y2619276D01*
Y2644269D01*
X3062516Y2656764D01*
X3075012Y2669260D01*
X3087508D01*
X2725124Y2831757D02*
X2712628Y2844253D01*
X2687636D01*
X2675140Y2831757D01*
Y2819261D01*
X2687636Y2806765D01*
X2712628D01*
X2725124Y2794269D01*
Y2781773D01*
X2712628Y2769277D01*
X2687636D01*
X2675140Y2781773D01*
X2762612Y2769277D02*
X2787604D01*
X2800100Y2781773D01*
Y2806765D01*
X2787604Y2819261D01*
X2762612D01*
X2750116Y2806765D01*
Y2781773D01*
X2762612Y2769277D01*
X2825092D02*
X2850084D01*
X2837588D01*
Y2844253D01*
X2825092D01*
X2937556D02*
Y2769277D01*
X2900068D01*
X2887572Y2781773D01*
Y2806765D01*
X2900068Y2819261D01*
X2937556D01*
X3000036Y2769277D02*
X2975044D01*
X2962548Y2781773D01*
Y2806765D01*
X2975044Y2819261D01*
X3000036D01*
X3012532Y2806765D01*
Y2794269D01*
X2962548D01*
X3037524Y2819261D02*
Y2769277D01*
Y2794269D01*
X3050020Y2806765D01*
X3062516Y2819261D01*
X3075012D01*
X3187476Y2769277D02*
Y2844253D01*
X3224964D01*
X3237460Y2831757D01*
Y2806765D01*
X3224964Y2794269D01*
X3187476D01*
X3212468D02*
X3237460Y2769277D01*
X3299940D02*
X3274948D01*
X3262452Y2781773D01*
Y2806765D01*
X3274948Y2819261D01*
X3299940D01*
X3312436Y2806765D01*
Y2794269D01*
X3262452D01*
X3337428Y2769277D02*
X3374916D01*
X3387412Y2781773D01*
X3374916Y2794269D01*
X3349924D01*
X3337428Y2806765D01*
X3349924Y2819261D01*
X3387412D01*
X3412404Y2769277D02*
X3437396D01*
X3424900D01*
Y2819261D01*
X3412404D01*
X3474884Y2769277D02*
X3512372D01*
X3524868Y2781773D01*
X3512372Y2794269D01*
X3487380D01*
X3474884Y2806765D01*
X3487380Y2819261D01*
X3524868D01*
X3562356Y2831757D02*
Y2819261D01*
X3549860D01*
X3574852D01*
X3562356D01*
Y2781773D01*
X3574852Y2769277D01*
X3775652Y2994253D02*
X3825636D01*
X3800644D01*
Y2919277D01*
X3850628Y2994253D02*
Y2919277D01*
Y2956765D01*
X3863124Y2969261D01*
X3888116D01*
X3900612Y2956765D01*
Y2919277D01*
X3925604D02*
X3950596D01*
X3938100D01*
Y2969261D01*
X3925604D01*
X4038068D02*
X4000580D01*
X3988084Y2956765D01*
Y2931773D01*
X4000580Y2919277D01*
X4038068D01*
X4063060D02*
Y2994253D01*
Y2944269D02*
X4100548Y2969261D01*
X4063060Y2944269D02*
X4100548Y2919277D01*
X4138036D02*
Y2969261D01*
X4175524D01*
X4188020Y2956765D01*
Y2919277D01*
X4250500D02*
X4225508D01*
X4213012Y2931773D01*
Y2956765D01*
X4225508Y2969261D01*
X4250500D01*
X4262996Y2956765D01*
Y2944269D01*
X4213012D01*
X4287988Y2919277D02*
X4325476D01*
X4337972Y2931773D01*
X4325476Y2944269D01*
X4300484D01*
X4287988Y2956765D01*
X4300484Y2969261D01*
X4337972D01*
X4362964Y2919277D02*
X4400452D01*
X4412948Y2931773D01*
X4400452Y2944269D01*
X4375460D01*
X4362964Y2956765D01*
X4375460Y2969261D01*
X4412948D01*
X3775652Y1781755D02*
X3788148Y1794251D01*
X3813140D01*
X3825636Y1781755D01*
Y1731771D01*
X3813140Y1719275D01*
X3788148D01*
X3775652Y1731771D01*
Y1781755D01*
X3850628Y1719275D02*
Y1731771D01*
X3863124D01*
Y1719275D01*
X3850628D01*
X3913108Y1781755D02*
X3925604Y1794251D01*
X3950596D01*
X3963092Y1781755D01*
Y1731771D01*
X3950596Y1719275D01*
X3925604D01*
X3913108Y1731771D01*
Y1781755D01*
X3988084Y1719275D02*
X4013076D01*
X4000580D01*
Y1794251D01*
X3988084Y1781755D01*
X4100548Y1719275D02*
X4050564D01*
X4100548Y1769259D01*
Y1781755D01*
X4088052Y1794251D01*
X4063060D01*
X4050564Y1781755D01*
X4125540Y1719275D02*
Y1769259D01*
X4138036D01*
X4150532Y1756763D01*
Y1719275D01*
Y1756763D01*
X4163028Y1769259D01*
X4175524Y1756763D01*
Y1719275D01*
X4200516D02*
Y1769259D01*
X4213012D01*
X4225508Y1756763D01*
Y1719275D01*
Y1756763D01*
X4238004Y1769259D01*
X4250500Y1756763D01*
Y1719275D01*
X3775652Y1931755D02*
X3788148Y1944251D01*
X3813140D01*
X3825636Y1931755D01*
Y1881771D01*
X3813140Y1869275D01*
X3788148D01*
X3775652Y1881771D01*
Y1931755D01*
X3850628Y1869275D02*
Y1881771D01*
X3863124D01*
Y1869275D01*
X3850628D01*
X3913108Y1931755D02*
X3925604Y1944251D01*
X3950596D01*
X3963092Y1931755D01*
Y1881771D01*
X3950596Y1869275D01*
X3925604D01*
X3913108Y1881771D01*
Y1931755D01*
X4038068Y1869275D02*
X3988084D01*
X4038068Y1919259D01*
Y1931755D01*
X4025572Y1944251D01*
X4000580D01*
X3988084Y1931755D01*
X4113044Y1869275D02*
X4063060D01*
X4113044Y1919259D01*
Y1931755D01*
X4100548Y1944251D01*
X4075556D01*
X4063060Y1931755D01*
X4138036Y1869275D02*
Y1919259D01*
X4150532D01*
X4163028Y1906763D01*
Y1869275D01*
Y1906763D01*
X4175524Y1919259D01*
X4188020Y1906763D01*
Y1869275D01*
X4213012D02*
Y1919259D01*
X4225508D01*
X4238004Y1906763D01*
Y1869275D01*
Y1906763D01*
X4250500Y1919259D01*
X4262996Y1906763D01*
Y1869275D01*
X3775652Y2081756D02*
X3788148Y2094252D01*
X3813140D01*
X3825636Y2081756D01*
Y2031772D01*
X3813140Y2019276D01*
X3788148D01*
X3775652Y2031772D01*
Y2081756D01*
X3850628Y2019276D02*
Y2031772D01*
X3863124D01*
Y2019276D01*
X3850628D01*
X3913108Y2081756D02*
X3925604Y2094252D01*
X3950596D01*
X3963092Y2081756D01*
Y2031772D01*
X3950596Y2019276D01*
X3925604D01*
X3913108Y2031772D01*
Y2081756D01*
X4038068Y2019276D02*
X3988084D01*
X4038068Y2069260D01*
Y2081756D01*
X4025572Y2094252D01*
X4000580D01*
X3988084Y2081756D01*
X4113044Y2094252D02*
X4063060D01*
Y2056763D01*
X4088052Y2069260D01*
X4100548D01*
X4113044Y2056763D01*
Y2031772D01*
X4100548Y2019276D01*
X4075556D01*
X4063060Y2031772D01*
X4138036Y2019276D02*
Y2069260D01*
X4150532D01*
X4163028Y2056763D01*
Y2019276D01*
Y2056763D01*
X4175524Y2069260D01*
X4188020Y2056763D01*
Y2019276D01*
X4213012D02*
Y2069260D01*
X4225508D01*
X4238004Y2056763D01*
Y2019276D01*
Y2056763D01*
X4250500Y2069260D01*
X4262996Y2056763D01*
Y2019276D01*
X3775652Y2231756D02*
X3788148Y2244252D01*
X3813140D01*
X3825636Y2231756D01*
Y2181772D01*
X3813140Y2169276D01*
X3788148D01*
X3775652Y2181772D01*
Y2231756D01*
X3850628Y2169276D02*
Y2181772D01*
X3863124D01*
Y2169276D01*
X3850628D01*
X3913108Y2231756D02*
X3925604Y2244252D01*
X3950596D01*
X3963092Y2231756D01*
Y2181772D01*
X3950596Y2169276D01*
X3925604D01*
X3913108Y2181772D01*
Y2231756D01*
X3988084Y2169276D02*
X4013076D01*
X4000580D01*
Y2244252D01*
X3988084Y2231756D01*
X4100548Y2169276D02*
X4050564D01*
X4100548Y2219260D01*
Y2231756D01*
X4088052Y2244252D01*
X4063060D01*
X4050564Y2231756D01*
X4125540Y2169276D02*
Y2219260D01*
X4138036D01*
X4150532Y2206764D01*
Y2169276D01*
Y2206764D01*
X4163028Y2219260D01*
X4175524Y2206764D01*
Y2169276D01*
X4200516D02*
Y2219260D01*
X4213012D01*
X4225508Y2206764D01*
Y2169276D01*
Y2206764D01*
X4238004Y2219260D01*
X4250500Y2206764D01*
Y2169276D01*
X3775652Y2381756D02*
X3788148Y2394252D01*
X3813140D01*
X3825636Y2381756D01*
Y2331772D01*
X3813140Y2319276D01*
X3788148D01*
X3775652Y2331772D01*
Y2381756D01*
X3850628Y2319276D02*
Y2331772D01*
X3863124D01*
Y2319276D01*
X3850628D01*
X3913108Y2381756D02*
X3925604Y2394252D01*
X3950596D01*
X3963092Y2381756D01*
Y2331772D01*
X3950596Y2319276D01*
X3925604D01*
X3913108Y2331772D01*
Y2381756D01*
X4038068Y2319276D02*
X3988084D01*
X4038068Y2369260D01*
Y2381756D01*
X4025572Y2394252D01*
X4000580D01*
X3988084Y2381756D01*
X4113044Y2394252D02*
X4063060D01*
Y2356764D01*
X4088052Y2369260D01*
X4100548D01*
X4113044Y2356764D01*
Y2331772D01*
X4100548Y2319276D01*
X4075556D01*
X4063060Y2331772D01*
X4138036Y2319276D02*
Y2369260D01*
X4150532D01*
X4163028Y2356764D01*
Y2319276D01*
Y2356764D01*
X4175524Y2369260D01*
X4188020Y2356764D01*
Y2319276D01*
X4213012D02*
Y2369260D01*
X4225508D01*
X4238004Y2356764D01*
Y2319276D01*
Y2356764D01*
X4250500Y2369260D01*
X4262996Y2356764D01*
Y2319276D01*
X3775652Y2531756D02*
X3788148Y2544252D01*
X3813140D01*
X3825636Y2531756D01*
Y2481772D01*
X3813140Y2469276D01*
X3788148D01*
X3775652Y2481772D01*
Y2531756D01*
X3850628Y2469276D02*
Y2481772D01*
X3863124D01*
Y2469276D01*
X3850628D01*
X3913108Y2531756D02*
X3925604Y2544252D01*
X3950596D01*
X3963092Y2531756D01*
Y2481772D01*
X3950596Y2469276D01*
X3925604D01*
X3913108Y2481772D01*
Y2531756D01*
X4038068Y2469276D02*
X3988084D01*
X4038068Y2519260D01*
Y2531756D01*
X4025572Y2544252D01*
X4000580D01*
X3988084Y2531756D01*
X4113044Y2469276D02*
X4063060D01*
X4113044Y2519260D01*
Y2531756D01*
X4100548Y2544252D01*
X4075556D01*
X4063060Y2531756D01*
X4138036Y2469276D02*
Y2519260D01*
X4150532D01*
X4163028Y2506764D01*
Y2469276D01*
Y2506764D01*
X4175524Y2519260D01*
X4188020Y2506764D01*
Y2469276D01*
X4213012D02*
Y2519260D01*
X4225508D01*
X4238004Y2506764D01*
Y2469276D01*
Y2506764D01*
X4250500Y2519260D01*
X4262996Y2506764D01*
Y2469276D01*
X3775652Y2681756D02*
X3788148Y2694252D01*
X3813140D01*
X3825636Y2681756D01*
Y2631772D01*
X3813140Y2619276D01*
X3788148D01*
X3775652Y2631772D01*
Y2681756D01*
X3850628Y2619276D02*
Y2631772D01*
X3863124D01*
Y2619276D01*
X3850628D01*
X3913108Y2681756D02*
X3925604Y2694252D01*
X3950596D01*
X3963092Y2681756D01*
Y2631772D01*
X3950596Y2619276D01*
X3925604D01*
X3913108Y2631772D01*
Y2681756D01*
X3988084Y2619276D02*
X4013076D01*
X4000580D01*
Y2694252D01*
X3988084Y2681756D01*
X4100548Y2619276D02*
X4050564D01*
X4100548Y2669260D01*
Y2681756D01*
X4088052Y2694252D01*
X4063060D01*
X4050564Y2681756D01*
X4125540Y2619276D02*
Y2669260D01*
X4138036D01*
X4150532Y2656764D01*
Y2619276D01*
Y2656764D01*
X4163028Y2669260D01*
X4175524Y2656764D01*
Y2619276D01*
X4200516D02*
Y2669260D01*
X4213012D01*
X4225508Y2656764D01*
Y2619276D01*
Y2656764D01*
X4238004Y2669260D01*
X4250500Y2656764D01*
Y2619276D01*
X4663732Y2981757D02*
X4651236Y2994253D01*
X4626244D01*
X4613748Y2981757D01*
Y2931773D01*
X4626244Y2919277D01*
X4651236D01*
X4663732Y2931773D01*
X4701220Y2919277D02*
X4726212D01*
X4738708Y2931773D01*
Y2956765D01*
X4726212Y2969261D01*
X4701220D01*
X4688724Y2956765D01*
Y2931773D01*
X4701220Y2919277D01*
X4763700D02*
Y2969261D01*
X4801188D01*
X4813684Y2956765D01*
Y2919277D01*
X4838676D02*
X4876164D01*
X4888660Y2931773D01*
X4876164Y2944269D01*
X4851172D01*
X4838676Y2956765D01*
X4851172Y2969261D01*
X4888660D01*
X4926148Y2981757D02*
Y2969261D01*
X4913652D01*
X4938644D01*
X4926148D01*
Y2931773D01*
X4938644Y2919277D01*
X4988628Y2969261D02*
X5013620D01*
X5026116Y2956765D01*
Y2919277D01*
X4988628D01*
X4976132Y2931773D01*
X4988628Y2944269D01*
X5026116D01*
X5051108Y2919277D02*
Y2969261D01*
X5088596D01*
X5101092Y2956765D01*
Y2919277D01*
X5138580Y2981757D02*
Y2969261D01*
X5126084D01*
X5151076D01*
X5138580D01*
Y2931773D01*
X5151076Y2919277D01*
X4613748Y1631755D02*
X4626244Y1644251D01*
X4651236D01*
X4663732Y1631755D01*
Y1619259D01*
X4651236Y1606763D01*
X4638740D01*
X4651236D01*
X4663732Y1594267D01*
Y1581771D01*
X4651236Y1569275D01*
X4626244D01*
X4613748Y1581771D01*
X4688724Y1569275D02*
Y1581771D01*
X4701220D01*
Y1569275D01*
X4688724D01*
X4801188Y1644251D02*
X4751204D01*
Y1606763D01*
X4776196Y1619259D01*
X4788692D01*
X4801188Y1606763D01*
Y1581771D01*
X4788692Y1569275D01*
X4763700D01*
X4751204Y1581771D01*
X4651236Y1869275D02*
Y1944251D01*
X4613748Y1906763D01*
X4663732D01*
X4688724Y1869275D02*
Y1881771D01*
X4701220D01*
Y1869275D01*
X4688724D01*
X4801188D02*
X4751204D01*
X4801188Y1919259D01*
Y1931755D01*
X4788692Y1944251D01*
X4763700D01*
X4751204Y1931755D01*
X4651236Y2019276D02*
Y2094252D01*
X4613748Y2056763D01*
X4663732D01*
X4688724Y2019276D02*
Y2031772D01*
X4701220D01*
Y2019276D01*
X4688724D01*
X4801188D02*
X4751204D01*
X4801188Y2069260D01*
Y2081756D01*
X4788692Y2094252D01*
X4763700D01*
X4751204Y2081756D01*
X4651236Y2319276D02*
Y2394252D01*
X4613748Y2356764D01*
X4663732D01*
X4688724Y2319276D02*
Y2331772D01*
X4701220D01*
Y2319276D01*
X4688724D01*
X4801188D02*
X4751204D01*
X4801188Y2369260D01*
Y2381756D01*
X4788692Y2394252D01*
X4763700D01*
X4751204Y2381756D01*
X4651236Y2469276D02*
Y2544252D01*
X4613748Y2506764D01*
X4663732D01*
X4688724Y2469276D02*
Y2481772D01*
X4701220D01*
Y2469276D01*
X4688724D01*
X4801188D02*
X4751204D01*
X4801188Y2519260D01*
Y2531756D01*
X4788692Y2544252D01*
X4763700D01*
X4751204Y2531756D01*
X4613748Y2831757D02*
X4626244Y2844253D01*
X4651236D01*
X4663732Y2831757D01*
Y2819261D01*
X4651236Y2806765D01*
X4638740D01*
X4651236D01*
X4663732Y2794269D01*
Y2781773D01*
X4651236Y2769277D01*
X4626244D01*
X4613748Y2781773D01*
X4688724Y2769277D02*
Y2781773D01*
X4701220D01*
Y2769277D01*
X4688724D01*
X4801188Y2844253D02*
X4751204D01*
Y2806765D01*
X4776196Y2819261D01*
X4788692D01*
X4801188Y2806765D01*
Y2781773D01*
X4788692Y2769277D01*
X4763700D01*
X4751204Y2781773D01*
X5351876Y2919277D02*
X5376868D01*
X5364372D01*
Y2969261D01*
X5351876D01*
X5414356Y2919277D02*
Y2969261D01*
X5451844D01*
X5464340Y2956765D01*
Y2919277D01*
X5501828Y2981757D02*
Y2969261D01*
X5489332D01*
X5514324D01*
X5501828D01*
Y2931773D01*
X5514324Y2919277D01*
X5564308Y2969261D02*
X5589300D01*
X5601796Y2956765D01*
Y2919277D01*
X5564308D01*
X5551812Y2931773D01*
X5564308Y2944269D01*
X5601796D01*
X5626788Y2919277D02*
Y2969261D01*
X5664276D01*
X5676772Y2956765D01*
Y2919277D01*
X6027524D02*
X6052516D01*
X6065012Y2931773D01*
Y2956765D01*
X6052516Y2969261D01*
X6027524D01*
X6015028Y2956765D01*
Y2931773D01*
X6027524Y2919277D01*
X6090004D02*
Y2969261D01*
X6102500D01*
X6114996Y2956765D01*
Y2919277D01*
Y2956765D01*
X6127492Y2969261D01*
X6139988Y2956765D01*
Y2919277D01*
X6164980D02*
Y2969261D01*
X6202468D01*
X6214964Y2956765D01*
Y2919277D01*
X6277444D02*
X6252452D01*
X6239956Y2931773D01*
Y2956765D01*
X6252452Y2969261D01*
X6277444D01*
X6289940Y2956765D01*
Y2944269D01*
X6239956D01*
X6327428Y2981757D02*
Y2969261D01*
X6314932D01*
X6339924D01*
X6327428D01*
Y2931773D01*
X6339924Y2919277D01*
X6377412Y2956765D02*
X6427396D01*
X6452388Y2919277D02*
X6477380D01*
X6464884D01*
Y2969261D01*
X6452388D01*
X6514868Y2919277D02*
Y2969261D01*
X6552355D01*
X6564851Y2956765D01*
Y2919277D01*
X6602340Y2981757D02*
Y2969261D01*
X6589844D01*
X6614836D01*
X6602340D01*
Y2931773D01*
X6614836Y2919277D01*
X6664820Y2969261D02*
X6689811D01*
X6702307Y2956765D01*
Y2919277D01*
X6664820D01*
X6652323Y2931773D01*
X6664820Y2944269D01*
X6702307D01*
X6727299Y2919277D02*
Y2969261D01*
X6764787D01*
X6777283Y2956765D01*
Y2919277D01*
X6978084D02*
X7003076D01*
X6990580D01*
Y2969261D01*
X6978084D01*
X7040564Y2919277D02*
Y2969261D01*
X7078051D01*
X7090547Y2956765D01*
Y2919277D01*
X7128036Y2981757D02*
Y2969261D01*
X7115539D01*
X7140532D01*
X7128036D01*
Y2931773D01*
X7140532Y2919277D01*
X7190515Y2969261D02*
X7215507D01*
X7228003Y2956765D01*
Y2919277D01*
X7190515D01*
X7178019Y2931773D01*
X7190515Y2944269D01*
X7228003D01*
X7252995Y2919277D02*
Y2969261D01*
X7290483D01*
X7302979Y2956765D01*
Y2919277D01*
X7327971Y2956765D02*
X7377955D01*
X7452931Y2994253D02*
Y2919277D01*
X7415443D01*
X7402947Y2931773D01*
Y2956765D01*
X7415443Y2969261D01*
X7452931D01*
X7477923D02*
Y2919277D01*
Y2944269D01*
X7490419Y2956765D01*
X7502915Y2969261D01*
X7515411D01*
X7552899Y2919277D02*
X7577891D01*
X7565395D01*
Y2969261D01*
X7552899D01*
X7615379D02*
X7640371Y2919277D01*
X7665363Y2969261D01*
X7727843Y2919277D02*
X7702851D01*
X7690355Y2931773D01*
Y2956765D01*
X7702851Y2969261D01*
X7727843D01*
X7740339Y2956765D01*
Y2944269D01*
X7690355D01*
D83*
X961436Y2881777D02*
X7866139D01*
X961436Y3031777D02*
X7866139D01*
X961436Y1531775D02*
Y3031777D01*
Y1531775D02*
X1499628D01*
X961436Y1681775D02*
X1499628D01*
X961436Y1831775D02*
X1499628D01*
X961436Y1981776D02*
X1499628D01*
X961436Y2131776D02*
X1499628D01*
X961436Y2281776D02*
X1499628D01*
X961436Y2431776D02*
X1499628D01*
X961436Y2581776D02*
X1499628D01*
X961436Y2731777D02*
X1499628D01*
Y1531775D02*
Y3031777D01*
Y1531775D02*
X2600140D01*
X1499628Y1681775D02*
X2600140D01*
X1499628Y1831775D02*
X2600140D01*
X1499628Y1981776D02*
X2600140D01*
X1499628Y2131776D02*
X2600140D01*
X1499628Y2281776D02*
X2600140D01*
X1499628Y2431776D02*
X2600140D01*
X1499628Y2581776D02*
X2600140D01*
X1499628Y2731777D02*
X2600140D01*
Y1531775D02*
Y3031777D01*
Y1531775D02*
X3700652D01*
X2600140Y1681775D02*
X3700652D01*
X2600140Y1831775D02*
X3700652D01*
X2600140Y1981776D02*
X3700652D01*
X2600140Y2131776D02*
X3700652D01*
X2600140Y2281776D02*
X3700652D01*
X2600140Y2431776D02*
X3700652D01*
X2600140Y2581776D02*
X3700652D01*
X2600140Y2731777D02*
X3700652D01*
Y1531775D02*
Y3031777D01*
Y1531775D02*
X4538748D01*
X3700652Y1681775D02*
X4538748D01*
X3700652Y1831775D02*
X4538748D01*
X3700652Y1981776D02*
X4538748D01*
X3700652Y2131776D02*
X4538748D01*
X3700652Y2281776D02*
X4538748D01*
X3700652Y2431776D02*
X4538748D01*
X3700652Y2581776D02*
X4538748D01*
X3700652Y2731777D02*
X4538748D01*
Y1531775D02*
Y3031777D01*
Y1531775D02*
X5276876D01*
X4538748Y1681775D02*
X5276876D01*
X4538748Y1831775D02*
X5276876D01*
X4538748Y1981776D02*
X5276876D01*
X4538748Y2131776D02*
X5276876D01*
X4538748Y2281776D02*
X5276876D01*
X4538748Y2431776D02*
X5276876D01*
X4538748Y2581776D02*
X5276876D01*
X4538748Y2731777D02*
X5276876D01*
Y1531775D02*
Y3031777D01*
Y1531775D02*
X5940028D01*
X5276876Y1681775D02*
X5940028D01*
X5276876Y1831775D02*
X5940028D01*
X5276876Y1981776D02*
X5940028D01*
X5276876Y2131776D02*
X5940028D01*
X5276876Y2281776D02*
X5940028D01*
X5276876Y2431776D02*
X5940028D01*
X5276876Y2581776D02*
X5940028D01*
X5276876Y2731777D02*
X5940028D01*
Y1531775D02*
Y3031777D01*
Y1531775D02*
X6903083D01*
X5940028Y1681775D02*
X6903083D01*
X5940028Y1831775D02*
X6903083D01*
X5940028Y1981776D02*
X6903083D01*
X5940028Y2131776D02*
X6903083D01*
X5940028Y2281776D02*
X6903083D01*
X5940028Y2431776D02*
X6903083D01*
X5940028Y2581776D02*
X6903083D01*
X5940028Y2731777D02*
X6903083D01*
Y1531775D02*
Y3031777D01*
Y1531775D02*
X7866139D01*
X6903083Y1681775D02*
X7866139D01*
X6903083Y1831775D02*
X7866139D01*
X6903083Y1981776D02*
X7866139D01*
X6903083Y2131776D02*
X7866139D01*
X6903083Y2281776D02*
X7866139D01*
X6903083Y2431776D02*
X7866139D01*
X6903083Y2581776D02*
X7866139D01*
X6903083Y2731777D02*
X7866139D01*
Y1531775D02*
Y3031777D01*
X1343874Y86461D02*
Y91419D01*
X1237299Y91420D02*
X1343874Y91419D01*
X1237299Y91420D02*
X1237300Y56718D01*
X961435D02*
X1237300D01*
X961435D02*
Y1494276D01*
X1871807D01*
Y56718D02*
Y1494276D01*
X1633864Y56718D02*
X1871807D01*
X1633864Y91418D02*
X1633864Y56718D01*
X1559510Y91418D02*
X1633864Y91418D01*
X1559510Y86461D02*
Y91418D01*
X1343874Y86461D02*
X1559510D01*
X1871804Y210388D02*
X1901549D01*
X1871804D02*
Y1340607D01*
X1901549D01*
Y210388D02*
Y1340607D01*
X1901547D02*
X2273331D01*
Y210388D02*
Y1340607D01*
X1901547Y210388D02*
X2273331D01*
X1901547D02*
Y1340607D01*
X1343874Y86463D02*
X1343875Y-261527D01*
X1343874Y86463D02*
X1559510D01*
X1559510Y-261527D02*
X1559510Y86463D01*
X1343875Y-261527D02*
X1559510D01*
Y-264577D02*
Y-261524D01*
Y-264577D02*
X1637754Y-342820D01*
X1713676Y-342821D01*
Y-572835D02*
Y-342821D01*
X1163436Y-572832D02*
X1713676Y-572835D01*
X1163436Y-572832D02*
Y-342821D01*
X1266127Y-342820D01*
X1343875Y-265072D01*
Y-261524D01*
X1559510D01*
%TF.MD5,db2e36ad9159775d74061bdc289e0194*%
M02*
