%TF.GenerationSoftware,Altium Limited,Altium Designer,18.0.12 (696)*%
G04 Layer_Color=5220458*
%FSLAX45Y45*%
%MOMM*%
%TF.FileFunction,Other,board_outline*%
%TF.Part,Single*%
G01*
G75*
%TA.AperFunction,NonConductor*%
%ADD51C,0.05000*%
D51*
X-479500Y1450000D02*
X440000D01*
X-479500Y-1D02*
Y1450000D01*
X204171Y-403000D02*
X280000D01*
Y-635000D02*
Y-403000D01*
X-92500Y30503D02*
Y35002D01*
X-200000D02*
X-92500D01*
X124998Y35000D02*
X200000D01*
X-171000Y-403000D02*
X-92500Y-324500D01*
X-173000Y-403000D02*
X-171000D01*
X-92500Y-324500D02*
Y30503D01*
X-479500Y-1D02*
X-200000D01*
Y35001D01*
X-200000Y35002D02*
X-200000Y35001D01*
X-273000Y-403000D02*
X-173000D01*
X-273000Y-635000D02*
Y-403000D01*
Y-635000D02*
X280000D01*
X125000Y-324500D02*
X204171Y-403000D01*
X125000Y-324500D02*
Y35000D01*
X200000D02*
X200000Y35000D01*
Y0D02*
Y35000D01*
Y0D02*
X200001Y-1D01*
X440000D01*
Y155000D01*
X845000D01*
Y1295000D01*
X845000Y1295000D02*
X845000Y1295000D01*
X440000Y1295000D02*
X845000D01*
X440000D02*
Y1450000D01*
%TF.MD5,6a91386cfb0b7ad8559f03e0291af3bc*%
M02*
