%TF.GenerationSoftware,Altium Limited,Altium Designer,18.0.12 (696)*%
G04 Layer_Color=128*
%FSLAX45Y45*%
%MOMM*%
%TF.FileFunction,Drillmap*%
%TF.Part,Single*%
G01*
G75*
%TA.AperFunction,NonConductor*%
%ADD80C,0.12700*%
D80*
X358940Y911873D02*
X368940D01*
X363940Y906873D02*
Y916873D01*
X355162Y874840D02*
X365162D01*
X360162Y869840D02*
Y879840D01*
X-279000Y1326500D02*
X-259000D01*
X-269000Y1316500D02*
Y1336500D01*
X-397819Y1261431D02*
X-377819D01*
X-387819Y1251431D02*
Y1271431D01*
X-330000Y778349D02*
X-320000D01*
X-325000Y773349D02*
Y783349D01*
X-330000Y810849D02*
X-320000D01*
X-325000Y805849D02*
Y815849D01*
X-330000Y908350D02*
X-320000D01*
X-325000Y903350D02*
Y913350D01*
X-330000Y875850D02*
X-320000D01*
X-325000Y870850D02*
Y880850D01*
X-330000Y843350D02*
X-320000D01*
X-325000Y838350D02*
Y848350D01*
X-297675Y1226936D02*
X-287675D01*
X-292675Y1221936D02*
Y1231936D01*
X-330000Y713348D02*
X-320000D01*
X-325000Y708348D02*
Y718348D01*
X-330000Y680848D02*
X-320000D01*
X-325000Y675848D02*
Y685848D01*
X-330000Y745849D02*
X-320000D01*
X-325000Y740849D02*
Y750849D01*
X15000Y1224998D02*
X25000D01*
X20000Y1219998D02*
Y1229998D01*
X-20000Y1224998D02*
X-10000D01*
X-15000Y1219998D02*
Y1229998D01*
X-230000Y1224998D02*
X-220000D01*
X-225000Y1219998D02*
Y1229998D01*
X189949Y124218D02*
X209949D01*
X199949Y114218D02*
Y134218D01*
X250000Y279999D02*
X259999D01*
X254999Y274999D02*
Y284999D01*
X275079Y401720D02*
X285079D01*
X280079Y396720D02*
Y406720D01*
X155000Y1224998D02*
X165000D01*
X160000Y1219998D02*
Y1229998D01*
X-8500Y1158750D02*
X11500D01*
X1500Y1148750D02*
Y1168750D01*
X225000Y1224998D02*
X235000D01*
X230000Y1219998D02*
Y1229998D01*
X190000Y1224998D02*
X200000D01*
X195000Y1219998D02*
Y1229998D01*
X-264999Y1224998D02*
X-254999D01*
X-259999Y1219998D02*
Y1229998D01*
X-195000Y1224998D02*
X-185000D01*
X-190000Y1219998D02*
Y1229998D01*
X-160000Y1224998D02*
X-150000D01*
X-155000Y1219998D02*
Y1229998D01*
X-125000Y1224998D02*
X-115000D01*
X-120000Y1219998D02*
Y1229998D01*
X-90000Y1224998D02*
X-80000D01*
X-85000Y1219998D02*
Y1229998D01*
X-55000Y1224998D02*
X-45000D01*
X-50000Y1219998D02*
Y1229998D01*
X365000Y679838D02*
X375000D01*
X370000Y674838D02*
Y684838D01*
X365000Y712338D02*
X375000D01*
X370000Y707338D02*
Y717338D01*
X365000Y744838D02*
X375000D01*
X370000Y739838D02*
Y749838D01*
X365000Y777339D02*
X375000D01*
X370000Y772339D02*
Y782339D01*
X358940Y842340D02*
X368940D01*
X363940Y837340D02*
Y847340D01*
X358940Y809839D02*
X368940D01*
X363940Y804839D02*
Y814839D01*
X120000Y1224998D02*
X130000D01*
X125000Y1219998D02*
Y1229998D01*
X85000Y1224998D02*
X95000D01*
X90000Y1219998D02*
Y1229998D01*
X50000Y1224998D02*
X60000D01*
X55000Y1219998D02*
Y1229998D01*
X366000Y626959D02*
X376000D01*
X371000Y621959D02*
Y631959D01*
X213115Y411590D02*
X223115D01*
X218115Y406590D02*
Y416590D01*
X-321764Y595000D02*
X-311764D01*
X-316764Y590000D02*
Y600000D01*
X-139635Y409199D02*
X-129635D01*
X-134635Y404199D02*
Y414199D01*
X319997Y439196D02*
X329997D01*
X324997Y434196D02*
Y444196D01*
%TF.MD5,58fee2496217fe05360cff94ec729922*%
M02*
