%TF.GenerationSoftware,Altium Limited,Altium Designer,18.0.12 (696)*%
G04 Layer_Color=10517442*
%FSLAX45Y45*%
%MOMM*%
%TF.FileFunction,Other,Bottom_assembly*%
%TF.Part,Single*%
G01*
G75*
%TA.AperFunction,NonConductor*%
%ADD46C,0.10000*%
%ADD48C,0.15000*%
%ADD49C,0.02540*%
%ADD51C,0.05000*%
%ADD79C,0.05080*%
%ADD81C,0.10160*%
D46*
X-106003Y898500D02*
G03*
X-106003Y898500I-5000J0D01*
G01*
X735650Y412000D02*
G03*
X735650Y412000I-5000J0D01*
G01*
X720000Y1130002D02*
G03*
X720000Y1130002I-5000J0D01*
G01*
X128997Y652500D02*
X153997D01*
X158997Y597500D02*
X188997Y567500D01*
X-146003Y423500D02*
Y1023500D01*
X128992Y425505D02*
Y1023500D01*
X158997Y597500D02*
Y648500D01*
X318997Y567500D02*
Y792500D01*
X128992D02*
X318997D01*
X188997Y567500D02*
X318997D01*
X-146003Y1023500D02*
X128992D01*
X-146003Y423500D02*
X126987D01*
X318997Y567500D02*
Y792500D01*
X188997Y567500D02*
X318997D01*
X158997Y597500D02*
X188997Y567500D01*
X128997Y652500D02*
X153997D01*
X158997Y597500D02*
Y648500D01*
X128992Y792500D02*
X318997D01*
X-146003Y423500D02*
Y1023500D01*
X128992D01*
Y425505D02*
Y1023500D01*
X-146003Y423500D02*
X126987D01*
X737500Y932501D02*
Y1157501D01*
X512500Y932501D02*
X737500D01*
X512500D02*
Y1157501D01*
X737500D01*
D48*
X38997Y968500D02*
X-60971D01*
Y918516D01*
X-44309Y901855D01*
X-10987D01*
X5675Y918516D01*
Y968500D01*
Y935178D02*
X38997Y901855D01*
X-60971Y528500D02*
X5675D01*
X38997Y495178D01*
X5675Y461855D01*
X-60971D01*
Y528500D02*
X5675D01*
X38997Y495178D01*
X5675Y461855D01*
X-60971D01*
X38997Y968500D02*
X-60971D01*
Y918516D01*
X-44309Y901855D01*
X-10987D01*
X5675Y918516D01*
Y968500D01*
Y935178D02*
X38997Y901855D01*
D49*
X-76003Y732579D02*
Y717343D01*
X-68385D01*
X-65846Y719883D01*
Y724961D01*
X-68385Y727500D01*
X-76003D01*
X-60768D02*
X-55689D01*
X-58228D01*
Y717343D01*
X-60768D01*
X-40454Y727500D02*
X-45533D01*
X-48072Y724961D01*
Y719883D01*
X-45533Y717343D01*
X-40454D01*
X-37915Y719883D01*
Y722422D01*
X-48072D01*
X-32837Y717343D02*
X-22680D01*
X-32837Y727500D01*
X-22680D01*
X-15062D02*
X-9984D01*
X-7445Y724961D01*
Y719883D01*
X-9984Y717343D01*
X-15062D01*
X-17601Y719883D01*
Y724961D01*
X-15062Y727500D01*
X-2366Y719883D02*
X7790D01*
X23026Y712265D02*
Y727500D01*
X15408D01*
X12869Y724961D01*
Y719883D01*
X15408Y717343D01*
X23026D01*
X28104D02*
Y727500D01*
Y722422D01*
X30643Y719883D01*
X33183Y717343D01*
X35722D01*
X43339Y727500D02*
X48418D01*
X45878D01*
Y717343D01*
X43339D01*
X56035D02*
X61114Y727500D01*
X66192Y717343D01*
X78888Y727500D02*
X73810D01*
X71270Y724961D01*
Y719883D01*
X73810Y717343D01*
X78888D01*
X81427Y719883D01*
Y722422D01*
X71270D01*
X655885Y562000D02*
X640650D01*
Y569617D01*
X643189Y572157D01*
X653346D01*
X655885Y569617D01*
Y562000D01*
X640650Y577235D02*
Y582314D01*
Y579774D01*
X655885D01*
X653346Y577235D01*
X725000Y1055237D02*
Y1040001D01*
X717383D01*
X714843Y1042541D01*
Y1052697D01*
X717383Y1055237D01*
X725000D01*
X709765Y1052697D02*
X707226Y1055237D01*
X702147D01*
X699608Y1052697D01*
Y1042541D01*
X702147Y1040001D01*
X707226D01*
X709765Y1042541D01*
Y1052697D01*
X611907Y269054D02*
X609368Y266515D01*
X604289D01*
X601750Y269054D01*
Y279211D01*
X604289Y281750D01*
X609368D01*
X611907Y279211D01*
X616985Y281750D02*
X622064D01*
X619525D01*
Y266515D01*
X616985Y269054D01*
X629681Y281750D02*
X634760D01*
X632220D01*
Y266515D01*
X629681Y269054D01*
X705157Y892304D02*
X702618Y889765D01*
X697540D01*
X695000Y892304D01*
Y902461D01*
X697540Y905000D01*
X702618D01*
X705157Y902461D01*
X710236Y905000D02*
X715314D01*
X712775D01*
Y889765D01*
X710236Y892304D01*
X722931D02*
X725471Y889765D01*
X730549D01*
X733088Y892304D01*
Y902461D01*
X730549Y905000D01*
X725471D01*
X722931Y902461D01*
Y892304D01*
X555157D02*
X552618Y889765D01*
X547540D01*
X545000Y892304D01*
Y902461D01*
X547540Y905000D01*
X552618D01*
X555157Y902461D01*
X560236D02*
X562775Y905000D01*
X567853D01*
X570392Y902461D01*
Y892304D01*
X567853Y889765D01*
X562775D01*
X560236Y892304D01*
Y894844D01*
X562775Y897383D01*
X570392D01*
X719844Y1237696D02*
X722383Y1240235D01*
X727461D01*
X730000Y1237696D01*
Y1227539D01*
X727461Y1225000D01*
X722383D01*
X719844Y1227539D01*
X714765Y1237696D02*
X712226Y1240235D01*
X707148D01*
X704608Y1237696D01*
Y1235157D01*
X707148Y1232618D01*
X704608Y1230079D01*
Y1227539D01*
X707148Y1225000D01*
X712226D01*
X714765Y1227539D01*
Y1230079D01*
X712226Y1232618D01*
X714765Y1235157D01*
Y1237696D01*
X712226Y1232618D02*
X707148D01*
X792304Y1084843D02*
X789765Y1087383D01*
Y1092461D01*
X792304Y1095000D01*
X802461D01*
X805000Y1092461D01*
Y1087383D01*
X802461Y1084843D01*
X789765Y1079765D02*
Y1069608D01*
X792304D01*
X802461Y1079765D01*
X805000D01*
D51*
X561750Y224250D02*
Y329250D01*
Y224250D02*
X801750D01*
X561750Y329250D02*
X801750D01*
Y224250D02*
Y329250D01*
X682500Y855000D02*
X807500D01*
X682500D02*
Y915000D01*
X807500D01*
Y855000D02*
Y915000D01*
X532500Y855000D02*
X657500D01*
X532500D02*
Y915000D01*
X657500D01*
Y855000D02*
Y915000D01*
X770000Y1177500D02*
Y1282500D01*
X530000D02*
X770000D01*
X530000Y1177500D02*
X770000D01*
X530000D02*
Y1282500D01*
X755001Y982500D02*
Y1107500D01*
X815000D01*
Y982500D02*
Y1107500D01*
X755001Y982500D02*
X815000D01*
D79*
X715701Y382000D02*
Y832000D01*
D81*
X574400Y377000D02*
X726901D01*
X495650Y382000D02*
Y832000D01*
Y377000D02*
X574400D01*
X495650Y832000D02*
X805650D01*
X810650Y377000D02*
Y832000D01*
X726901Y377000D02*
X805650D01*
%TF.MD5,8d4ccd374670538170161d154a15903b*%
M02*
