%TF.GenerationSoftware,Altium Limited,Altium Designer,18.0.12 (696)*%
G04 Layer_Color=128*
%FSLAX45Y45*%
%MOMM*%
%TF.FileFunction,Drillmap*%
%TF.Part,Single*%
G01*
G75*
%TA.AperFunction,NonConductor*%
%ADD80C,0.12700*%
D80*
X488750Y749000D02*
X498750D01*
X493750Y744000D02*
Y754000D01*
X496250Y712500D02*
X506250D01*
X501250Y707500D02*
Y717500D01*
X821250Y276750D02*
X831250D01*
X826250Y271750D02*
Y281750D01*
X415000Y1240000D02*
X425000D01*
X420000Y1235000D02*
Y1245000D01*
X505000Y1110001D02*
X515000D01*
X510000Y1105001D02*
Y1115001D01*
X295000Y1240000D02*
X305000D01*
X300000Y1235000D02*
Y1245000D01*
X335000Y1240000D02*
X345000D01*
X340000Y1235000D02*
Y1245000D01*
X375000Y1240000D02*
X385000D01*
X380000Y1235000D02*
Y1245000D01*
X505000Y1150000D02*
X515000D01*
X510000Y1145001D02*
Y1155000D01*
X505000Y1030000D02*
X515000D01*
X510000Y1025000D02*
Y1035000D01*
X505000Y1070000D02*
X515000D01*
X510000Y1065000D02*
Y1075000D01*
X-61750Y1336000D02*
X-41750D01*
X-51750Y1326000D02*
Y1346000D01*
X-62750Y1157250D02*
X-42750D01*
X-52750Y1147250D02*
Y1167250D01*
X820000Y740000D02*
X830000D01*
X825000Y735000D02*
Y745000D01*
X495000Y865000D02*
X505000D01*
X500000Y860000D02*
Y870000D01*
X805000Y1230000D02*
X815000D01*
X810000Y1225000D02*
Y1235000D01*
X795000Y1134997D02*
X805000D01*
X800000Y1129997D02*
Y1139997D01*
X795000Y950000D02*
X805000D01*
X800000Y945000D02*
Y955000D01*
%TF.MD5,50add65dd99aa3dbe574a77671f374ba*%
M02*
