%TF.GenerationSoftware,Altium Limited,Altium Designer,18.0.12 (696)*%
G04 Layer_Color=255*
%FSLAX45Y45*%
%MOMM*%
%TF.FileFunction,Pads,Bot*%
%TF.Part,Single*%
G01*
G75*
%TA.AperFunction,ComponentPad*%
G04:AMPARAMS|DCode=29|XSize=0.3mm|YSize=0.3mm|CornerRadius=0mm|HoleSize=0mm|Usage=FLASHONLY|Rotation=180.000|XOffset=0mm|YOffset=0mm|HoleType=Round|Shape=Octagon|*
%AMOCTAGOND29*
4,1,8,-0.15000,0.07500,-0.15000,-0.07500,-0.07500,-0.15000,0.07500,-0.15000,0.15000,-0.07500,0.15000,0.07500,0.07500,0.15000,-0.07500,0.15000,-0.15000,0.07500,0.0*
%
%ADD29OCTAGOND29*%

%ADD30O,0.40000X0.60000*%
%TA.AperFunction,ViaPad*%
%ADD31C,1.20000*%
%TA.AperFunction,ComponentPad*%
G04:AMPARAMS|DCode=32|XSize=0.3mm|YSize=0.3mm|CornerRadius=0mm|HoleSize=0mm|Usage=FLASHONLY|Rotation=90.000|XOffset=0mm|YOffset=0mm|HoleType=Round|Shape=Octagon|*
%AMOCTAGOND32*
4,1,8,0.07500,0.15000,-0.07500,0.15000,-0.15000,0.07500,-0.15000,-0.07500,-0.07500,-0.15000,0.07500,-0.15000,0.15000,-0.07500,0.15000,0.07500,0.07500,0.15000,0.0*
%
%ADD32OCTAGOND32*%

%TA.AperFunction,BGAPad,CuDef*%
%ADD37C,0.20000*%
%TA.AperFunction,SMDPad,CuDef*%
%ADD38R,0.80000X0.25000*%
%TA.AperFunction,BGAPad,CuDef*%
%ADD39R,0.20000X0.20000*%
%TA.AperFunction,SMDPad,CuDef*%
%ADD40R,0.20000X0.11600*%
%ADD41R,0.20000X0.15000*%
%ADD42R,0.11600X0.11600*%
%ADD43R,0.80000X0.85000*%
%ADD44R,0.35000X0.30000*%
%ADD45R,0.30000X0.35000*%
D29*
X515000Y230500D02*
D03*
X-300750Y343250D02*
D03*
X-232750D02*
D03*
X-412250Y398500D02*
D03*
X-387819Y695000D02*
D03*
X391000Y278000D02*
D03*
Y343250D02*
D03*
D30*
X223977Y-592140D02*
D03*
X97027D02*
D03*
X-93473Y-472840D02*
D03*
X-156973D02*
D03*
X-220473D02*
D03*
X97027D02*
D03*
X33527D02*
D03*
X-29973D02*
D03*
X-93473Y-592140D02*
D03*
X-156973D02*
D03*
X-220473D02*
D03*
X-29973D02*
D03*
X33527D02*
D03*
X160477Y-472840D02*
D03*
Y-592140D02*
D03*
X223977Y-472840D02*
D03*
D31*
X-365000Y1375000D02*
D03*
X365000D02*
D03*
Y75000D02*
D03*
D32*
X-413000Y315500D02*
D03*
D37*
X565000Y1065001D02*
D03*
Y985001D02*
D03*
Y1025001D02*
D03*
Y1105001D02*
D03*
X605000Y985001D02*
D03*
X645000D02*
D03*
X685000D02*
D03*
X605000Y1025001D02*
D03*
X645000D02*
D03*
X685000D02*
D03*
X605000Y1065001D02*
D03*
X645000D02*
D03*
X685000D02*
D03*
X605000Y1105001D02*
D03*
X645000D02*
D03*
X685000D02*
D03*
D38*
X253997Y755000D02*
D03*
Y705000D02*
D03*
Y655000D02*
D03*
Y605000D02*
D03*
D39*
X535000Y782000D02*
D03*
Y735000D02*
D03*
X771600Y426000D02*
D03*
Y485060D02*
D03*
X560700Y418200D02*
D03*
X599530D02*
D03*
X771600Y736545D02*
D03*
Y765675D02*
D03*
X535000Y453785D02*
D03*
Y442140D02*
D03*
X709950Y795800D02*
D03*
X771600Y755365D02*
D03*
D40*
X535000Y758020D02*
D03*
D41*
X771600Y455000D02*
D03*
D42*
Y755365D02*
D03*
X535000Y447140D02*
D03*
D43*
X611750Y276750D02*
D03*
X751750D02*
D03*
X720000Y1230000D02*
D03*
X580000D02*
D03*
D44*
X775000Y885000D02*
D03*
X715000D02*
D03*
X625000D02*
D03*
X565000D02*
D03*
D45*
X785000Y1015000D02*
D03*
Y1075000D02*
D03*
%TF.MD5,9c05ead32cbafc7944c3341edc7dbc2e*%
M02*
