%TF.GenerationSoftware,Altium Limited,Altium Designer,18.0.12 (696)*%
G04 Layer_Physical_Order=2*
G04 Layer_Color=39423*
%FSLAX45Y45*%
%MOMM*%
%TF.FileFunction,Copper,L2,Inr,Signal*%
%TF.Part,Single*%
G01*
G75*
%TA.AperFunction,Conductor*%
%ADD20C,0.15000*%
%ADD21C,0.07500*%
%ADD22C,0.20000*%
%ADD23C,0.07620*%
%ADD27C,0.05000*%
%TA.AperFunction,ComponentPad*%
G04:AMPARAMS|DCode=29|XSize=0.3mm|YSize=0.3mm|CornerRadius=0mm|HoleSize=0mm|Usage=FLASHONLY|Rotation=180.000|XOffset=0mm|YOffset=0mm|HoleType=Round|Shape=Octagon|*
%AMOCTAGOND29*
4,1,8,-0.15000,0.07500,-0.15000,-0.07500,-0.07500,-0.15000,0.07500,-0.15000,0.15000,-0.07500,0.15000,0.07500,0.07500,0.15000,-0.07500,0.15000,-0.15000,0.07500,0.0*
%
%ADD29OCTAGOND29*%

%ADD30O,0.40000X0.60000*%
%TA.AperFunction,ViaPad*%
%ADD31C,1.20000*%
%TA.AperFunction,ComponentPad*%
G04:AMPARAMS|DCode=32|XSize=0.3mm|YSize=0.3mm|CornerRadius=0mm|HoleSize=0mm|Usage=FLASHONLY|Rotation=90.000|XOffset=0mm|YOffset=0mm|HoleType=Round|Shape=Octagon|*
%AMOCTAGOND32*
4,1,8,0.07500,0.15000,-0.07500,0.15000,-0.15000,0.07500,-0.15000,-0.07500,-0.07500,-0.15000,0.07500,-0.15000,0.15000,-0.07500,0.15000,0.07500,0.07500,0.15000,0.0*
%
%ADD32OCTAGOND32*%

%TA.AperFunction,ViaPad*%
%ADD33C,0.25000*%
%ADD34C,0.30000*%
%ADD35C,0.50000*%
%TA.AperFunction,OtherPad,Pad gnd-u-gndupad (5.837mm,1.825mm)*%
G04:AMPARAMS|DCode=36|XSize=0.3mm|YSize=0.3mm|CornerRadius=0mm|HoleSize=0mm|Usage=FLASHONLY|Rotation=180.000|XOffset=0mm|YOffset=0mm|HoleType=Round|Shape=Octagon|*
%AMOCTAGOND36*
4,1,8,-0.15000,0.07500,-0.15000,-0.07500,-0.07500,-0.15000,0.07500,-0.15000,0.15000,-0.07500,0.15000,0.07500,0.07500,0.15000,-0.07500,0.15000,-0.15000,0.07500,0.0*
%
%ADD36OCTAGOND36*%

G36*
X-400040Y1449999D02*
X-397514Y1437299D01*
X-400302Y1436145D01*
X-414924Y1424925D01*
X-426144Y1410302D01*
X-433198Y1393274D01*
X-434616Y1382500D01*
X-295383D01*
X-296802Y1393274D01*
X-303855Y1410302D01*
X-315075Y1424925D01*
X-329698Y1436145D01*
X-332485Y1437299D01*
X-329959Y1449999D01*
X329959Y1449999D01*
X332485Y1437299D01*
X329698Y1436145D01*
X315076Y1424925D01*
X303856Y1410302D01*
X296802Y1393274D01*
X295384Y1382500D01*
X365000D01*
Y1375000D01*
X372500D01*
Y1305384D01*
X383274Y1306802D01*
X400302Y1313855D01*
X414925Y1325076D01*
X426145Y1339698D01*
X427299Y1342485D01*
X439999Y1339959D01*
Y1265966D01*
X427877Y1258883D01*
X427299Y1258940D01*
X420000Y1260392D01*
X412197Y1258840D01*
X405581Y1254420D01*
X394419D01*
X387804Y1258840D01*
X380000Y1260392D01*
X372197Y1258840D01*
X365581Y1254420D01*
X354419D01*
X347804Y1258840D01*
X340000Y1260392D01*
X332196Y1258840D01*
X325581Y1254420D01*
X314419D01*
X307804Y1258840D01*
X300000Y1260392D01*
X292197Y1258840D01*
X285581Y1254420D01*
X281160Y1247804D01*
X279608Y1240000D01*
X281160Y1232197D01*
X285016Y1226426D01*
X285401Y1225444D01*
X286174Y1224641D01*
X286684Y1224040D01*
X287095Y1223484D01*
X287417Y1222974D01*
X287662Y1222510D01*
X287823Y1222132D01*
Y1202355D01*
X275123Y1197095D01*
X251245Y1220973D01*
X251092Y1221352D01*
X250936Y1221856D01*
X250803Y1222445D01*
X250701Y1223127D01*
X250637Y1223913D01*
X250615Y1225028D01*
X250193Y1225995D01*
X248839Y1232801D01*
X244419Y1239417D01*
X237803Y1243837D01*
X230000Y1245389D01*
X222196Y1243837D01*
X215580Y1239417D01*
X209419D01*
X202803Y1243837D01*
X195000Y1245389D01*
X187196Y1243837D01*
X180581Y1239417D01*
X174419D01*
X167803Y1243837D01*
X160000Y1245389D01*
X152196Y1243837D01*
X145581Y1239417D01*
X139419D01*
X132803Y1243837D01*
X125000Y1245389D01*
X117196Y1243837D01*
X116881Y1243626D01*
X107500Y1240458D01*
X98119Y1243626D01*
X97803Y1243837D01*
X90000Y1245389D01*
X82196Y1243837D01*
X81881Y1243626D01*
X72500Y1240458D01*
X63119Y1243626D01*
X62804Y1243837D01*
X55000Y1245389D01*
X47196Y1243837D01*
X46881Y1243626D01*
X37500Y1240458D01*
X28119Y1243626D01*
X27804Y1243837D01*
X20000Y1245389D01*
X12196Y1243837D01*
X5581Y1239417D01*
X-581D01*
X-7196Y1243837D01*
X-15000Y1245389D01*
X-22804Y1243837D01*
X-23119Y1243626D01*
X-32500Y1240458D01*
X-41881Y1243626D01*
X-42196Y1243837D01*
X-50000Y1245389D01*
X-57804Y1243837D01*
X-64419Y1239417D01*
X-70581D01*
X-77196Y1243837D01*
X-85000Y1245389D01*
X-92803Y1243837D01*
X-99419Y1239417D01*
X-105581D01*
X-112196Y1243837D01*
X-120000Y1245389D01*
X-127803Y1243837D01*
X-134419Y1239417D01*
X-140581D01*
X-147196Y1243837D01*
X-155000Y1245389D01*
X-162803Y1243837D01*
X-169419Y1239417D01*
X-175581D01*
X-182196Y1243837D01*
X-190000Y1245389D01*
X-197803Y1243837D01*
X-204419Y1239417D01*
X-210580D01*
X-217196Y1243837D01*
X-225000Y1245389D01*
X-232803Y1243837D01*
X-239419Y1239417D01*
X-245580D01*
X-252196Y1243837D01*
X-259999Y1245389D01*
X-267803Y1243837D01*
X-278256Y1241355D01*
X-284871Y1245776D01*
X-292675Y1247328D01*
X-300479Y1245776D01*
X-307094Y1241355D01*
X-311515Y1234739D01*
X-312869Y1227933D01*
X-313291Y1226966D01*
X-313312Y1225851D01*
X-313377Y1225065D01*
X-313479Y1224383D01*
X-313612Y1223794D01*
X-313768Y1223290D01*
X-313920Y1222912D01*
X-419360Y1117471D01*
X-422927Y1108861D01*
Y765510D01*
X-419360Y756900D01*
X-391694Y729233D01*
X-396554Y717500D01*
X-399069D01*
X-410319Y706250D01*
Y683750D01*
X-399069Y672500D01*
X-376569D01*
X-365319Y683750D01*
X-352990Y687161D01*
X-349738Y685193D01*
X-346322Y682629D01*
X-345907Y682211D01*
X-345783Y681586D01*
X-345667Y680731D01*
X-345577Y679572D01*
X-344857Y678156D01*
X-343840Y673044D01*
X-339419Y666429D01*
X-332804Y662008D01*
X-325000Y660456D01*
X-317196Y662008D01*
X-310581Y666429D01*
X-306160Y673044D01*
X-304608Y680848D01*
X-306160Y688652D01*
X-310581Y695267D01*
Y698929D01*
X-306160Y705545D01*
X-304608Y713348D01*
X-306160Y721152D01*
X-310581Y727767D01*
Y731430D01*
X-306160Y738045D01*
X-304608Y745849D01*
X-306160Y753652D01*
X-310581Y760268D01*
Y763930D01*
X-306160Y770545D01*
X-304608Y778349D01*
X-306160Y786153D01*
X-310581Y792768D01*
Y796430D01*
X-306160Y803046D01*
X-305144Y808157D01*
X-304423Y809573D01*
X-304333Y810732D01*
X-304217Y811587D01*
X-304068Y812338D01*
X-303893Y812995D01*
X-303695Y813568D01*
X-303484Y814058D01*
X-261390Y856151D01*
X-257823Y864762D01*
Y999954D01*
X-100420Y1157356D01*
X-100228Y1157355D01*
X-87462Y1152354D01*
X-85719Y1143594D01*
X-77984Y1132016D01*
X-66406Y1124281D01*
X-60250Y1123056D01*
Y1157250D01*
X-45250D01*
Y1123056D01*
X-39094Y1124281D01*
X-27517Y1132016D01*
X-15096Y1127745D01*
X-12156Y1125781D01*
X-6000Y1124556D01*
Y1158750D01*
X9000D01*
Y1124556D01*
X15156Y1125781D01*
X26734Y1133516D01*
X33176Y1143158D01*
X46892Y1147403D01*
X297823Y896472D01*
Y862692D01*
X301390Y854081D01*
X342423Y813048D01*
X342634Y812559D01*
X342832Y811986D01*
X343008Y811329D01*
X343157Y810574D01*
X343272Y809722D01*
X343363Y808563D01*
X344083Y807147D01*
X345100Y802035D01*
X349520Y795420D01*
X355402Y791490D01*
X351161Y785142D01*
X349608Y777339D01*
X351161Y769535D01*
X355581Y762920D01*
Y759258D01*
X351161Y752642D01*
X349608Y744838D01*
X351161Y737035D01*
X355581Y730419D01*
Y726757D01*
X351161Y720142D01*
X349608Y712338D01*
X351161Y704535D01*
X355581Y697919D01*
Y694257D01*
X351161Y687641D01*
X349608Y679838D01*
X351161Y672034D01*
X355581Y665419D01*
X362082Y661075D01*
X362197Y660460D01*
X362220Y648736D01*
X362095Y648069D01*
X354779Y643181D01*
X349806Y635738D01*
X349551Y634459D01*
X392449D01*
X392194Y635738D01*
X387221Y643181D01*
X379779Y648153D01*
X379053Y648298D01*
X378015Y658852D01*
X378377Y661381D01*
X384420Y665419D01*
X388840Y672034D01*
X389856Y677145D01*
X390577Y678561D01*
X390668Y679721D01*
X390783Y680576D01*
X390932Y681326D01*
X391108Y681983D01*
X391306Y682557D01*
X391517Y683046D01*
X427299Y718828D01*
X439999Y713568D01*
Y582417D01*
X428218Y574639D01*
X427299Y574747D01*
X423509Y580418D01*
X416894Y584839D01*
X409090Y586391D01*
X401286Y584839D01*
X394671Y580418D01*
X390250Y573803D01*
X388698Y565999D01*
X390250Y558195D01*
X394671Y551580D01*
X401286Y547159D01*
X409090Y545607D01*
X416894Y547159D01*
X423509Y551580D01*
X427299Y557252D01*
X428218Y557359D01*
X439999Y549582D01*
X439999Y521445D01*
X435158Y518231D01*
X427299Y515836D01*
X422804Y518840D01*
X415000Y520392D01*
X407197Y518840D01*
X400581Y514419D01*
X396160Y507804D01*
X394608Y500000D01*
X396160Y492196D01*
X400581Y485581D01*
X407197Y481160D01*
X415000Y479608D01*
X422804Y481160D01*
X427299Y484164D01*
X435158Y481769D01*
X439999Y478555D01*
Y412427D01*
X433000D01*
X424390Y408860D01*
X409140Y393610D01*
X405573Y385000D01*
Y367127D01*
X402250Y365750D01*
X379750D01*
X368500Y354500D01*
Y332000D01*
X379750Y320750D01*
X402250D01*
X405573Y319374D01*
Y301876D01*
X402250Y300500D01*
X379750D01*
X368500Y289250D01*
Y266750D01*
X371965Y263285D01*
X370139Y254110D01*
X343758Y227729D01*
X244129Y228000D01*
X200000Y183871D01*
Y159946D01*
X199949Y159904D01*
X186292Y157187D01*
X174715Y149452D01*
X170999Y143889D01*
X170557Y143703D01*
X169121Y143232D01*
X167559Y142854D01*
X165861Y142574D01*
X164022Y142400D01*
X161792Y142333D01*
X161188Y142061D01*
X64968D01*
X58140Y140703D01*
X52351Y136835D01*
X-14367Y70117D01*
X-18235Y64328D01*
X-19593Y57500D01*
Y35000D01*
X-478251Y34999D01*
X-478250Y1449999D01*
X-400040D01*
D02*
G37*
G36*
X845000Y1234472D02*
X832300Y1233221D01*
X831194Y1238779D01*
X826222Y1246222D01*
X818779Y1251194D01*
X817500Y1251449D01*
Y1230000D01*
Y1208551D01*
X818779Y1208806D01*
X826222Y1213779D01*
X831194Y1221221D01*
X832300Y1226779D01*
X845000Y1225528D01*
Y768971D01*
X835423Y762334D01*
X832500Y761543D01*
Y740000D01*
Y718458D01*
X835423Y717666D01*
X845000Y711029D01*
Y306556D01*
X841365Y303417D01*
X833750Y299276D01*
Y276750D01*
Y254224D01*
X841365Y250083D01*
X845000Y246944D01*
Y155000D01*
X611710Y155000D01*
X606450Y167700D01*
X608750Y170000D01*
Y175000D01*
X583749D01*
Y182500D01*
X576402D01*
Y167805D01*
X574885Y169172D01*
X573212Y170395D01*
X571383Y171474D01*
X569397Y172410D01*
X567256Y173201D01*
X564958Y173849D01*
X562505Y174352D01*
X559895Y174712D01*
X557129Y174928D01*
X554207Y175000D01*
Y190000D01*
X557129Y190072D01*
X559895Y190288D01*
X562505Y190648D01*
X564958Y191151D01*
X567256Y191799D01*
X569397Y192590D01*
X571383Y193526D01*
X573212Y194605D01*
X574885Y195828D01*
X576249Y197057D01*
Y207500D01*
X571250D01*
X562731Y198981D01*
X561536Y198736D01*
X534546D01*
X529686Y211436D01*
X537500Y219250D01*
Y241750D01*
X534870Y244380D01*
X538364Y252957D01*
X540670Y256541D01*
X547554Y257910D01*
X554169Y262331D01*
X558590Y268946D01*
X560142Y276750D01*
X558590Y284554D01*
X554169Y291169D01*
X547554Y295590D01*
X539750Y297142D01*
X531946Y295590D01*
X526127Y291701D01*
X521896Y292625D01*
X513427Y296214D01*
Y333168D01*
X526127Y339875D01*
X527197Y339160D01*
X535000Y337608D01*
X542804Y339160D01*
X549420Y343581D01*
X553840Y350196D01*
X555392Y358000D01*
X553840Y365804D01*
X549420Y372419D01*
X542804Y376840D01*
X535000Y378392D01*
X527197Y376840D01*
X526127Y376125D01*
X513427Y382832D01*
Y696582D01*
X515669Y698081D01*
X520090Y704696D01*
X521642Y712500D01*
X520090Y720304D01*
X515669Y726919D01*
X509668Y733051D01*
X512590Y741197D01*
X514142Y749000D01*
X512590Y756804D01*
X508169Y763419D01*
X501554Y767840D01*
X493750Y769392D01*
X485946Y767840D01*
X482700Y765671D01*
X471576Y769965D01*
X470000Y771296D01*
Y846541D01*
X482700Y850393D01*
X483779Y848779D01*
X491221Y843806D01*
X492500Y843551D01*
Y865000D01*
Y886449D01*
X491221Y886194D01*
X483779Y881222D01*
X482700Y879607D01*
X470000Y883459D01*
Y1029063D01*
X482402Y1036034D01*
X482936Y1035802D01*
X483247Y1035640D01*
X483702Y1035357D01*
X484493Y1034761D01*
X489378Y1030261D01*
X489384Y1029971D01*
X489806Y1029004D01*
X491160Y1022197D01*
X495581Y1015581D01*
X502196Y1011161D01*
X510000Y1009609D01*
X517804Y1011161D01*
X524419Y1015581D01*
X528840Y1022197D01*
X530392Y1030000D01*
X528840Y1037804D01*
X524419Y1044420D01*
Y1055581D01*
X528840Y1062197D01*
X530392Y1070000D01*
X528840Y1077804D01*
X524419Y1084420D01*
Y1095582D01*
X528840Y1102197D01*
X530392Y1110001D01*
X528840Y1117804D01*
X524419Y1124420D01*
Y1135581D01*
X528840Y1142197D01*
X530392Y1150000D01*
X528840Y1157804D01*
X524419Y1164420D01*
X517804Y1168840D01*
X510000Y1170392D01*
X502196Y1168840D01*
X496426Y1164985D01*
X495444Y1164600D01*
X494640Y1163826D01*
X494040Y1163317D01*
X493483Y1162905D01*
X492974Y1162583D01*
X492509Y1162338D01*
X492132Y1162178D01*
X470000D01*
Y1217780D01*
X471467Y1218360D01*
X482700Y1219892D01*
X485581Y1215581D01*
X492196Y1211160D01*
X500000Y1209608D01*
X507804Y1211160D01*
X514419Y1215581D01*
X518840Y1222196D01*
X520392Y1230000D01*
X518840Y1237804D01*
X514419Y1244419D01*
X507804Y1248840D01*
X500000Y1250392D01*
X492196Y1248840D01*
X485581Y1244419D01*
X482700Y1240108D01*
X471467Y1241640D01*
X470000Y1242221D01*
Y1295000D01*
X845000Y1295000D01*
Y1234472D01*
D02*
G37*
G36*
X427800Y1230086D02*
X426950Y1229085D01*
X426200Y1228070D01*
X425550Y1227041D01*
X425000Y1225999D01*
X424550Y1224942D01*
X424200Y1223871D01*
X423950Y1222787D01*
X423800Y1221688D01*
X423750Y1220576D01*
X416250D01*
X416200Y1221688D01*
X416050Y1222787D01*
X415800Y1223871D01*
X415450Y1224942D01*
X415000Y1225999D01*
X414450Y1227041D01*
X413800Y1228070D01*
X413050Y1229085D01*
X412200Y1230086D01*
X411250Y1231073D01*
X428750D01*
X427800Y1230086D01*
D02*
G37*
G36*
X387800D02*
X386950Y1229085D01*
X386200Y1228070D01*
X385550Y1227041D01*
X385000Y1225999D01*
X384550Y1224942D01*
X384200Y1223871D01*
X383950Y1222787D01*
X383800Y1221688D01*
X383750Y1220576D01*
X376250D01*
X376200Y1221688D01*
X376050Y1222787D01*
X375800Y1223871D01*
X375450Y1224942D01*
X375000Y1225999D01*
X374450Y1227041D01*
X373800Y1228070D01*
X373050Y1229085D01*
X372200Y1230086D01*
X371250Y1231073D01*
X388750D01*
X387800Y1230086D01*
D02*
G37*
G36*
X347800D02*
X346950Y1229085D01*
X346200Y1228070D01*
X345550Y1227041D01*
X345000Y1225999D01*
X344550Y1224942D01*
X344200Y1223871D01*
X343950Y1222787D01*
X343800Y1221688D01*
X343750Y1220576D01*
X336250D01*
X336200Y1221688D01*
X336050Y1222787D01*
X335800Y1223871D01*
X335450Y1224942D01*
X335000Y1225999D01*
X334450Y1227041D01*
X333800Y1228070D01*
X333050Y1229085D01*
X332200Y1230086D01*
X331250Y1231073D01*
X348750D01*
X347800Y1230086D01*
D02*
G37*
G36*
X307800D02*
X306950Y1229085D01*
X306200Y1228070D01*
X305550Y1227041D01*
X305000Y1225999D01*
X304550Y1224942D01*
X304200Y1223871D01*
X303950Y1222787D01*
X303800Y1221688D01*
X303750Y1220576D01*
X296250D01*
X296200Y1221688D01*
X296050Y1222787D01*
X295800Y1223871D01*
X295450Y1224942D01*
X295000Y1225999D01*
X294450Y1227041D01*
X293800Y1228070D01*
X293050Y1229085D01*
X292200Y1230086D01*
X291250Y1231073D01*
X308750D01*
X307800Y1230086D01*
D02*
G37*
G36*
X-292800Y1214436D02*
X-294170Y1214410D01*
X-295479Y1214303D01*
X-296727Y1214116D01*
X-297914Y1213848D01*
X-299040Y1213500D01*
X-300106Y1213071D01*
X-301110Y1212561D01*
X-302054Y1211971D01*
X-302936Y1211300D01*
X-303758Y1210549D01*
X-309062Y1215853D01*
X-308311Y1216674D01*
X-307640Y1217557D01*
X-307050Y1218501D01*
X-306540Y1219505D01*
X-306111Y1220571D01*
X-305763Y1221697D01*
X-305495Y1222884D01*
X-305307Y1224132D01*
X-305201Y1225441D01*
X-305174Y1226811D01*
X-292800Y1214436D01*
D02*
G37*
G36*
X242525Y1223503D02*
X242632Y1222194D01*
X242819Y1220946D01*
X243087Y1219759D01*
X243436Y1218633D01*
X243865Y1217567D01*
X244374Y1216563D01*
X244964Y1215619D01*
X245635Y1214736D01*
X246386Y1213914D01*
X241083Y1208611D01*
X240261Y1209362D01*
X239378Y1210033D01*
X238434Y1210623D01*
X237430Y1211132D01*
X236365Y1211561D01*
X235238Y1211910D01*
X234051Y1212178D01*
X232803Y1212365D01*
X231494Y1212472D01*
X230125Y1212498D01*
X242499Y1224873D01*
X242525Y1223503D01*
D02*
G37*
G36*
X207525D02*
X207632Y1222194D01*
X207819Y1220946D01*
X208087Y1219759D01*
X208436Y1218633D01*
X208865Y1217567D01*
X209374Y1216563D01*
X209965Y1215619D01*
X210635Y1214736D01*
X211386Y1213914D01*
X206083Y1208611D01*
X205261Y1209362D01*
X204378Y1210033D01*
X203434Y1210623D01*
X202430Y1211132D01*
X201365Y1211561D01*
X200238Y1211910D01*
X199051Y1212178D01*
X197803Y1212365D01*
X196494Y1212472D01*
X195125Y1212498D01*
X207499Y1224873D01*
X207525Y1223503D01*
D02*
G37*
G36*
X172525D02*
X172632Y1222194D01*
X172820Y1220946D01*
X173087Y1219759D01*
X173436Y1218633D01*
X173865Y1217567D01*
X174374Y1216563D01*
X174965Y1215619D01*
X175635Y1214736D01*
X176386Y1213914D01*
X171083Y1208611D01*
X170261Y1209362D01*
X169378Y1210033D01*
X168435Y1210623D01*
X167430Y1211132D01*
X166365Y1211561D01*
X165238Y1211910D01*
X164051Y1212178D01*
X162803Y1212365D01*
X161494Y1212472D01*
X160125Y1212498D01*
X172499Y1224873D01*
X172525Y1223503D01*
D02*
G37*
G36*
X137525D02*
X137632Y1222194D01*
X137820Y1220946D01*
X138087Y1219759D01*
X138436Y1218633D01*
X138865Y1217567D01*
X139374Y1216563D01*
X139965Y1215619D01*
X140635Y1214736D01*
X141386Y1213914D01*
X136083Y1208611D01*
X135261Y1209362D01*
X134378Y1210033D01*
X133435Y1210623D01*
X132430Y1211132D01*
X131365Y1211561D01*
X130239Y1211910D01*
X129051Y1212178D01*
X127803Y1212365D01*
X126495Y1212472D01*
X125125Y1212498D01*
X137499Y1224873D01*
X137525Y1223503D01*
D02*
G37*
G36*
X102525D02*
X102632Y1222194D01*
X102820Y1220946D01*
X103087Y1219759D01*
X103436Y1218633D01*
X103865Y1217567D01*
X104374Y1216563D01*
X104965Y1215619D01*
X105635Y1214736D01*
X106386Y1213914D01*
X101083Y1208611D01*
X100261Y1209362D01*
X99379Y1210033D01*
X98435Y1210623D01*
X97430Y1211132D01*
X96365Y1211561D01*
X95239Y1211910D01*
X94051Y1212178D01*
X92803Y1212365D01*
X91495Y1212472D01*
X90125Y1212498D01*
X102499Y1224873D01*
X102525Y1223503D01*
D02*
G37*
G36*
X67525D02*
X67632Y1222194D01*
X67820Y1220946D01*
X68087Y1219759D01*
X68436Y1218633D01*
X68865Y1217567D01*
X69375Y1216563D01*
X69965Y1215619D01*
X70635Y1214736D01*
X71386Y1213914D01*
X66083Y1208611D01*
X65261Y1209362D01*
X64379Y1210033D01*
X63435Y1210623D01*
X62430Y1211132D01*
X61365Y1211561D01*
X60239Y1211910D01*
X59051Y1212178D01*
X57804Y1212365D01*
X56495Y1212472D01*
X55125Y1212498D01*
X67499Y1224873D01*
X67525Y1223503D01*
D02*
G37*
G36*
X32525D02*
X32632Y1222194D01*
X32820Y1220946D01*
X33088Y1219759D01*
X33436Y1218633D01*
X33865Y1217567D01*
X34375Y1216563D01*
X34965Y1215619D01*
X35635Y1214736D01*
X36387Y1213914D01*
X31083Y1208611D01*
X30261Y1209362D01*
X29379Y1210033D01*
X28435Y1210623D01*
X27430Y1211132D01*
X26365Y1211561D01*
X25239Y1211910D01*
X24052Y1212178D01*
X22804Y1212365D01*
X21495Y1212472D01*
X20125Y1212498D01*
X32499Y1224873D01*
X32525Y1223503D01*
D02*
G37*
G36*
X-2474D02*
X-2368Y1222194D01*
X-2180Y1220946D01*
X-1912Y1219759D01*
X-1564Y1218633D01*
X-1135Y1217567D01*
X-625Y1216563D01*
X-35Y1215619D01*
X636Y1214736D01*
X1387Y1213914D01*
X-3917Y1208611D01*
X-4739Y1209362D01*
X-5621Y1210033D01*
X-6565Y1210623D01*
X-7569Y1211132D01*
X-8635Y1211561D01*
X-9761Y1211910D01*
X-10948Y1212178D01*
X-12196Y1212365D01*
X-13505Y1212472D01*
X-14875Y1212498D01*
X-2501Y1224873D01*
X-2474Y1223503D01*
D02*
G37*
G36*
X-50125Y1212498D02*
X-51495Y1212472D01*
X-52804Y1212365D01*
X-54051Y1212178D01*
X-55239Y1211910D01*
X-56365Y1211561D01*
X-57430Y1211132D01*
X-58435Y1210623D01*
X-59379Y1210033D01*
X-60261Y1209362D01*
X-61083Y1208611D01*
X-66386Y1213914D01*
X-65635Y1214736D01*
X-64965Y1215619D01*
X-64375Y1216563D01*
X-63865Y1217567D01*
X-63436Y1218633D01*
X-63088Y1219759D01*
X-62820Y1220946D01*
X-62632Y1222194D01*
X-62525Y1223503D01*
X-62499Y1224873D01*
X-50125Y1212498D01*
D02*
G37*
G36*
X-85125D02*
X-86495Y1212472D01*
X-87803Y1212365D01*
X-89051Y1212178D01*
X-90239Y1211910D01*
X-91365Y1211561D01*
X-92430Y1211132D01*
X-93435Y1210623D01*
X-94379Y1210033D01*
X-95261Y1209362D01*
X-96083Y1208611D01*
X-101386Y1213914D01*
X-100635Y1214736D01*
X-99965Y1215619D01*
X-99374Y1216563D01*
X-98865Y1217567D01*
X-98436Y1218633D01*
X-98087Y1219759D01*
X-97820Y1220946D01*
X-97632Y1222194D01*
X-97525Y1223503D01*
X-97499Y1224873D01*
X-85125Y1212498D01*
D02*
G37*
G36*
X-120125D02*
X-121495Y1212472D01*
X-122803Y1212365D01*
X-124051Y1212178D01*
X-125239Y1211910D01*
X-126365Y1211561D01*
X-127430Y1211132D01*
X-128435Y1210623D01*
X-129378Y1210033D01*
X-130261Y1209362D01*
X-131083Y1208611D01*
X-136386Y1213914D01*
X-135635Y1214736D01*
X-134965Y1215619D01*
X-134374Y1216563D01*
X-133865Y1217567D01*
X-133436Y1218633D01*
X-133087Y1219759D01*
X-132820Y1220946D01*
X-132632Y1222194D01*
X-132525Y1223503D01*
X-132499Y1224873D01*
X-120125Y1212498D01*
D02*
G37*
G36*
X-155125D02*
X-156494Y1212472D01*
X-157803Y1212365D01*
X-159051Y1212178D01*
X-160238Y1211910D01*
X-161365Y1211561D01*
X-162430Y1211132D01*
X-163435Y1210623D01*
X-164378Y1210033D01*
X-165261Y1209362D01*
X-166083Y1208611D01*
X-171386Y1213914D01*
X-170635Y1214736D01*
X-169965Y1215619D01*
X-169374Y1216563D01*
X-168865Y1217567D01*
X-168436Y1218633D01*
X-168087Y1219759D01*
X-167820Y1220946D01*
X-167632Y1222194D01*
X-167525Y1223503D01*
X-167499Y1224873D01*
X-155125Y1212498D01*
D02*
G37*
G36*
X-190125D02*
X-191494Y1212472D01*
X-192803Y1212365D01*
X-194051Y1212178D01*
X-195238Y1211910D01*
X-196365Y1211561D01*
X-197430Y1211132D01*
X-198434Y1210623D01*
X-199378Y1210033D01*
X-200261Y1209362D01*
X-201083Y1208611D01*
X-206386Y1213914D01*
X-205635Y1214736D01*
X-204965Y1215619D01*
X-204374Y1216563D01*
X-203865Y1217567D01*
X-203436Y1218633D01*
X-203087Y1219759D01*
X-202820Y1220946D01*
X-202632Y1222194D01*
X-202525Y1223503D01*
X-202499Y1224873D01*
X-190125Y1212498D01*
D02*
G37*
G36*
X-225125D02*
X-226494Y1212472D01*
X-227803Y1212365D01*
X-229051Y1212178D01*
X-230238Y1211910D01*
X-231365Y1211561D01*
X-232430Y1211132D01*
X-233434Y1210623D01*
X-234378Y1210033D01*
X-235261Y1209362D01*
X-236083Y1208611D01*
X-241386Y1213914D01*
X-240635Y1214736D01*
X-239964Y1215619D01*
X-239374Y1216563D01*
X-238865Y1217567D01*
X-238436Y1218633D01*
X-238087Y1219759D01*
X-237819Y1220946D01*
X-237632Y1222194D01*
X-237525Y1223503D01*
X-237499Y1224873D01*
X-225125Y1212498D01*
D02*
G37*
G36*
X-260124D02*
X-261494Y1212472D01*
X-262803Y1212365D01*
X-264051Y1212178D01*
X-265238Y1211910D01*
X-266364Y1211561D01*
X-267430Y1211132D01*
X-268434Y1210623D01*
X-269378Y1210033D01*
X-270261Y1209362D01*
X-271083Y1208611D01*
X-276386Y1213914D01*
X-275635Y1214736D01*
X-274964Y1215619D01*
X-274374Y1216563D01*
X-273865Y1217567D01*
X-273436Y1218633D01*
X-273087Y1219759D01*
X-272819Y1220946D01*
X-272632Y1222194D01*
X-272525Y1223503D01*
X-272499Y1224873D01*
X-260124Y1212498D01*
D02*
G37*
G36*
X501073Y1141250D02*
X500086Y1142200D01*
X499085Y1143051D01*
X498070Y1143800D01*
X497041Y1144450D01*
X495998Y1145001D01*
X494942Y1145450D01*
X493871Y1145800D01*
X492787Y1146051D01*
X491688Y1146200D01*
X490576Y1146250D01*
Y1153751D01*
X491688Y1153801D01*
X492787Y1153950D01*
X493871Y1154201D01*
X494942Y1154551D01*
X495998Y1155000D01*
X497041Y1155551D01*
X498070Y1156201D01*
X499085Y1156950D01*
X500086Y1157801D01*
X501073Y1158751D01*
Y1141250D01*
D02*
G37*
G36*
Y1101251D02*
X500086Y1102200D01*
X499085Y1103051D01*
X498070Y1103800D01*
X497041Y1104450D01*
X495998Y1105001D01*
X494942Y1105450D01*
X493871Y1105800D01*
X492787Y1106051D01*
X491688Y1106200D01*
X490576Y1106251D01*
Y1113751D01*
X491688Y1113801D01*
X492787Y1113951D01*
X493871Y1114201D01*
X494942Y1114551D01*
X495998Y1115001D01*
X497041Y1115551D01*
X498070Y1116201D01*
X499085Y1116951D01*
X500086Y1117801D01*
X501073Y1118751D01*
Y1101251D01*
D02*
G37*
G36*
X499739Y1085636D02*
X500621Y1084965D01*
X501565Y1084375D01*
X502569Y1083865D01*
X503635Y1083436D01*
X504761Y1083088D01*
X505948Y1082820D01*
X507196Y1082633D01*
X508505Y1082526D01*
X509875Y1082500D01*
X497501Y1070125D01*
X497474Y1071495D01*
X497368Y1072804D01*
X497180Y1074052D01*
X496912Y1075239D01*
X496564Y1076365D01*
X496135Y1077431D01*
X495625Y1078435D01*
X495035Y1079379D01*
X494365Y1080262D01*
X493613Y1081084D01*
X498917Y1086387D01*
X499739Y1085636D01*
D02*
G37*
G36*
Y1045636D02*
X500621Y1044965D01*
X501565Y1044375D01*
X502569Y1043866D01*
X503635Y1043437D01*
X504761Y1043088D01*
X505948Y1042820D01*
X507196Y1042633D01*
X508505Y1042526D01*
X509875Y1042500D01*
X497501Y1030125D01*
X497474Y1031495D01*
X497368Y1032804D01*
X497180Y1034052D01*
X496912Y1035239D01*
X496564Y1036365D01*
X496135Y1037431D01*
X495625Y1038435D01*
X495035Y1039379D01*
X494365Y1040262D01*
X493613Y1041084D01*
X498917Y1046387D01*
X499739Y1045636D01*
D02*
G37*
G36*
X367740Y930185D02*
X367890Y929086D01*
X368140Y928002D01*
X368490Y926931D01*
X368940Y925874D01*
X369490Y924832D01*
X370140Y923803D01*
X370890Y922788D01*
X371740Y921787D01*
X372690Y920800D01*
X355190D01*
X356139Y921787D01*
X356990Y922788D01*
X357739Y923803D01*
X358389Y924832D01*
X358940Y925874D01*
X359389Y926931D01*
X359739Y928002D01*
X359990Y929086D01*
X360139Y930185D01*
X360190Y931297D01*
X367690D01*
X367740Y930185D01*
D02*
G37*
G36*
X-321200Y926662D02*
X-321050Y925564D01*
X-320800Y924479D01*
X-320450Y923409D01*
X-320000Y922352D01*
X-319450Y921309D01*
X-318800Y920280D01*
X-318050Y919265D01*
X-317200Y918264D01*
X-316250Y917277D01*
X-333750D01*
X-332800Y918264D01*
X-331950Y919265D01*
X-331200Y920280D01*
X-330550Y921309D01*
X-330000Y922352D01*
X-329550Y923409D01*
X-329200Y924479D01*
X-328950Y925564D01*
X-328800Y926662D01*
X-328750Y927774D01*
X-321250D01*
X-321200Y926662D01*
D02*
G37*
G36*
X-308260Y886199D02*
X-309003Y885389D01*
X-309675Y884514D01*
X-310277Y883576D01*
X-310808Y882573D01*
X-311269Y881505D01*
X-311660Y880374D01*
X-311980Y879178D01*
X-312229Y877918D01*
X-312408Y876594D01*
X-312517Y875206D01*
X-324106Y888318D01*
X-322762Y888265D01*
X-321474Y888301D01*
X-320243Y888428D01*
X-319069Y888646D01*
X-317952Y888954D01*
X-316892Y889351D01*
X-315889Y889839D01*
X-314942Y890418D01*
X-314053Y891086D01*
X-313221Y891845D01*
X-308260Y886199D01*
D02*
G37*
G36*
X349901Y890475D02*
X350784Y889805D01*
X351728Y889215D01*
X352732Y888705D01*
X353797Y888276D01*
X354924Y887928D01*
X356111Y887660D01*
X357359Y887472D01*
X358668Y887366D01*
X360037Y887339D01*
X347663Y874965D01*
X347637Y876335D01*
X347530Y877644D01*
X347342Y878892D01*
X347075Y880079D01*
X346726Y881205D01*
X346297Y882271D01*
X345788Y883275D01*
X345197Y884219D01*
X344527Y885101D01*
X343776Y885923D01*
X349079Y891227D01*
X349901Y890475D01*
D02*
G37*
G36*
X-308209Y853580D02*
X-308957Y852766D01*
X-309634Y851890D01*
X-310241Y850952D01*
X-310778Y849952D01*
X-311244Y848889D01*
X-311640Y847765D01*
X-311966Y846578D01*
X-312221Y845329D01*
X-312406Y844018D01*
X-312520Y842646D01*
X-324047Y855813D01*
X-322719Y855755D01*
X-321445Y855788D01*
X-320226Y855913D01*
X-319062Y856129D01*
X-317952Y856437D01*
X-316897Y856836D01*
X-315896Y857326D01*
X-314950Y857907D01*
X-314058Y858580D01*
X-313221Y859345D01*
X-308209Y853580D01*
D02*
G37*
G36*
X350880Y855918D02*
X351779Y855258D01*
X352718Y854718D01*
X353695Y854300D01*
X354712Y854002D01*
X355767Y853825D01*
X356862Y853768D01*
X357995Y853832D01*
X359168Y854017D01*
X360380Y854322D01*
X351889Y839020D01*
X351477Y840420D01*
X350557Y843005D01*
X350048Y844190D01*
X348935Y846343D01*
X348330Y847313D01*
X347693Y848210D01*
X347023Y849035D01*
X346322Y849789D01*
X350019Y856699D01*
X350880Y855918D01*
D02*
G37*
G36*
X-308260Y821198D02*
X-309003Y820388D01*
X-309675Y819513D01*
X-310277Y818575D01*
X-310808Y817572D01*
X-311269Y816505D01*
X-311660Y815374D01*
X-311980Y814178D01*
X-312229Y812918D01*
X-312408Y811593D01*
X-312517Y810205D01*
X-324106Y823317D01*
X-322762Y823264D01*
X-321474Y823301D01*
X-320243Y823428D01*
X-319069Y823645D01*
X-317952Y823953D01*
X-316892Y824351D01*
X-315889Y824839D01*
X-314942Y825417D01*
X-314053Y826085D01*
X-313221Y826844D01*
X-308260Y821198D01*
D02*
G37*
G36*
X352993Y825076D02*
X353882Y824407D01*
X354828Y823829D01*
X355832Y823341D01*
X356892Y822943D01*
X358009Y822635D01*
X359183Y822418D01*
X360414Y822291D01*
X361701Y822254D01*
X363046Y822307D01*
X351456Y809195D01*
X351348Y810584D01*
X351169Y811908D01*
X350919Y813168D01*
X350599Y814364D01*
X350209Y815495D01*
X349748Y816562D01*
X349217Y817565D01*
X348615Y818504D01*
X347943Y819378D01*
X347200Y820188D01*
X352161Y825834D01*
X352993Y825076D01*
D02*
G37*
G36*
X-335947Y793585D02*
X-335058Y792917D01*
X-334112Y792339D01*
X-333109Y791850D01*
X-332048Y791453D01*
X-330931Y791145D01*
X-329757Y790928D01*
X-328526Y790801D01*
X-327239Y790764D01*
X-325894Y790817D01*
X-337483Y777705D01*
X-337592Y779093D01*
X-337771Y780418D01*
X-338020Y781677D01*
X-338340Y782873D01*
X-338731Y784005D01*
X-339192Y785072D01*
X-339723Y786075D01*
X-340325Y787013D01*
X-340997Y787888D01*
X-341740Y788698D01*
X-336779Y794344D01*
X-335947Y793585D01*
D02*
G37*
G36*
X386387Y788422D02*
X385636Y787600D01*
X384965Y786718D01*
X384375Y785774D01*
X383865Y784769D01*
X383436Y783704D01*
X383088Y782578D01*
X382820Y781390D01*
X382633Y780142D01*
X382526Y778834D01*
X382500Y777464D01*
X370125Y789838D01*
X371495Y789864D01*
X372804Y789971D01*
X374052Y790159D01*
X375239Y790426D01*
X376365Y790775D01*
X377431Y791204D01*
X378435Y791713D01*
X379379Y792304D01*
X380262Y792974D01*
X381084Y793725D01*
X386387Y788422D01*
D02*
G37*
G36*
X386740Y755187D02*
X385997Y754377D01*
X385325Y753503D01*
X384723Y752564D01*
X384192Y751561D01*
X383731Y750494D01*
X383341Y749363D01*
X383021Y748167D01*
X382771Y746907D01*
X382592Y745583D01*
X382484Y744194D01*
X370894Y757307D01*
X372239Y757253D01*
X373527Y757290D01*
X374757Y757417D01*
X375931Y757635D01*
X377049Y757942D01*
X378109Y758340D01*
X379112Y758828D01*
X380058Y759406D01*
X380947Y760075D01*
X381780Y760833D01*
X386740Y755187D01*
D02*
G37*
G36*
X-335947Y761085D02*
X-335058Y760416D01*
X-334112Y759838D01*
X-333109Y759350D01*
X-332048Y758952D01*
X-330931Y758645D01*
X-329757Y758427D01*
X-328526Y758300D01*
X-327239Y758263D01*
X-325894Y758317D01*
X-337483Y745205D01*
X-337592Y746593D01*
X-337771Y747917D01*
X-338020Y749177D01*
X-338340Y750373D01*
X-338731Y751504D01*
X-339192Y752572D01*
X-339723Y753574D01*
X-340325Y754513D01*
X-340997Y755387D01*
X-341740Y756197D01*
X-336779Y761844D01*
X-335947Y761085D01*
D02*
G37*
G36*
X493333Y736507D02*
X493175Y736483D01*
X493033Y736399D01*
X492908Y736256D01*
X492800Y736053D01*
X492708Y735791D01*
X492633Y735469D01*
X492575Y735088D01*
X492533Y734648D01*
X492500Y733588D01*
X485000D01*
X484873Y740199D01*
X493333Y736507D01*
D02*
G37*
G36*
X386740Y722687D02*
X385997Y721877D01*
X385325Y721002D01*
X384723Y720064D01*
X384192Y719061D01*
X383731Y717994D01*
X383341Y716862D01*
X383021Y715667D01*
X382771Y714407D01*
X382592Y713082D01*
X382484Y711694D01*
X370894Y724806D01*
X372239Y724753D01*
X373527Y724790D01*
X374757Y724917D01*
X375931Y725134D01*
X377049Y725442D01*
X378109Y725840D01*
X379112Y726328D01*
X380058Y726906D01*
X380947Y727574D01*
X381780Y728333D01*
X386740Y722687D01*
D02*
G37*
G36*
X-335947Y728585D02*
X-335058Y727916D01*
X-334112Y727338D01*
X-333109Y726850D01*
X-332048Y726452D01*
X-330931Y726144D01*
X-329757Y725927D01*
X-328526Y725800D01*
X-327239Y725763D01*
X-325894Y725816D01*
X-337483Y712704D01*
X-337592Y714093D01*
X-337771Y715417D01*
X-338020Y716677D01*
X-338340Y717873D01*
X-338731Y719004D01*
X-339192Y720071D01*
X-339723Y721074D01*
X-340325Y722013D01*
X-340997Y722887D01*
X-341740Y723697D01*
X-336779Y729343D01*
X-335947Y728585D01*
D02*
G37*
G36*
X386740Y690187D02*
X385997Y689377D01*
X385325Y688502D01*
X384723Y687564D01*
X384192Y686561D01*
X383731Y685493D01*
X383341Y684362D01*
X383021Y683166D01*
X382771Y681906D01*
X382592Y680582D01*
X382484Y679194D01*
X370894Y692306D01*
X372239Y692253D01*
X373527Y692289D01*
X374757Y692416D01*
X375931Y692634D01*
X377049Y692941D01*
X378109Y693339D01*
X379112Y693827D01*
X380058Y694406D01*
X380947Y695074D01*
X381780Y695833D01*
X386740Y690187D01*
D02*
G37*
G36*
X-335947Y696084D02*
X-335058Y695416D01*
X-334112Y694838D01*
X-333109Y694349D01*
X-332048Y693952D01*
X-330931Y693644D01*
X-329757Y693427D01*
X-328526Y693300D01*
X-327239Y693263D01*
X-325894Y693316D01*
X-337483Y680204D01*
X-337592Y681592D01*
X-337771Y682917D01*
X-338020Y684176D01*
X-338340Y685372D01*
X-338731Y686504D01*
X-339192Y687571D01*
X-339723Y688574D01*
X-340325Y689512D01*
X-340997Y690387D01*
X-341740Y691197D01*
X-336779Y696843D01*
X-335947Y696084D01*
D02*
G37*
G36*
X517762Y216110D02*
X517001Y216592D01*
X516026Y216730D01*
X514839Y216525D01*
X513438Y215974D01*
X511823Y215080D01*
X509996Y213842D01*
X507955Y212259D01*
X503234Y208062D01*
X500553Y205447D01*
X489947Y216053D01*
X492562Y218734D01*
X498342Y225496D01*
X499580Y227323D01*
X500474Y228938D01*
X501025Y230339D01*
X501230Y231526D01*
X501092Y232501D01*
X500610Y233262D01*
X517762Y216110D01*
D02*
G37*
G36*
X372536Y142620D02*
X372823Y139411D01*
X373074Y138083D01*
X373396Y136937D01*
X373790Y135976D01*
X374256Y135198D01*
X374794Y134604D01*
X375403Y134194D01*
X376084Y133967D01*
X353917D01*
X354597Y134194D01*
X355207Y134604D01*
X355744Y135198D01*
X356210Y135976D01*
X356604Y136937D01*
X356927Y138083D01*
X357178Y139411D01*
X357357Y140924D01*
X357464Y142620D01*
X357500Y144500D01*
X372500D01*
X372536Y142620D01*
D02*
G37*
G36*
X182095Y106718D02*
X180571Y108143D01*
X178940Y109418D01*
X177202Y110543D01*
X175357Y111518D01*
X173405Y112343D01*
X171345Y113018D01*
X169179Y113543D01*
X166905Y113918D01*
X164524Y114143D01*
X162036Y114218D01*
Y134218D01*
X164524Y134293D01*
X166905Y134518D01*
X169179Y134893D01*
X171345Y135418D01*
X173405Y136093D01*
X175357Y136918D01*
X177202Y137893D01*
X178940Y139018D01*
X180571Y140293D01*
X182095Y141718D01*
Y106718D01*
D02*
G37*
G36*
X164243Y-438666D02*
X164477Y-441700D01*
X164618Y-442441D01*
X164790Y-443048D01*
X164993Y-443520D01*
X165228Y-443857D01*
X165494Y-444059D01*
X165791Y-444127D01*
X155163D01*
X155460Y-444059D01*
X155726Y-443857D01*
X155961Y-443520D01*
X156164Y-443048D01*
X156336Y-442441D01*
X156477Y-441700D01*
X156586Y-440823D01*
X156711Y-438666D01*
X156727Y-437385D01*
X164227D01*
X164243Y-438666D01*
D02*
G37*
G36*
X210891Y-436051D02*
X216199Y-440540D01*
X218582Y-442205D01*
X220783Y-443483D01*
X222802Y-444376D01*
X224640Y-444882D01*
X226297Y-445002D01*
X227773Y-444735D01*
X229067Y-444082D01*
X204504Y-461347D01*
X205516Y-460389D01*
X206117Y-459228D01*
X206306Y-457862D01*
X206085Y-456293D01*
X205452Y-454520D01*
X204408Y-452543D01*
X202953Y-450363D01*
X201087Y-447978D01*
X198810Y-445390D01*
X196122Y-442598D01*
X207965Y-433227D01*
X210891Y-436051D01*
D02*
G37*
G36*
X140284Y-566591D02*
X141381Y-567532D01*
X142386Y-568275D01*
X143297Y-568822D01*
X144116Y-569170D01*
X144841Y-569321D01*
X145473Y-569275D01*
X146012Y-569031D01*
X146458Y-568590D01*
X146811Y-567951D01*
X140701Y-582666D01*
X140917Y-581932D01*
X140977Y-581143D01*
X140883Y-580299D01*
X140634Y-579400D01*
X140230Y-578446D01*
X139671Y-577437D01*
X138957Y-576373D01*
X138088Y-575254D01*
X137064Y-574080D01*
X135885Y-572852D01*
X139093Y-565453D01*
X140284Y-566591D01*
D02*
G37*
G36*
X74989Y-555821D02*
X81711Y-561431D01*
X84613Y-563359D01*
X87208Y-564703D01*
X89496Y-565462D01*
X91479Y-565637D01*
X93155Y-565228D01*
X94525Y-564234D01*
X95588Y-562656D01*
X77251Y-600343D01*
X77922Y-598385D01*
X78122Y-596233D01*
X77853Y-593888D01*
X77113Y-591350D01*
X75904Y-588618D01*
X74224Y-585693D01*
X72074Y-582574D01*
X69454Y-579262D01*
X66364Y-575757D01*
X62804Y-572059D01*
X71169Y-552139D01*
X74989Y-555821D01*
D02*
G37*
%LPC*%
G36*
X-44250Y1370194D02*
Y1343500D01*
X-17556D01*
X-18781Y1349656D01*
X-26516Y1361234D01*
X-38094Y1368969D01*
X-44250Y1370194D01*
D02*
G37*
G36*
X-59250D02*
X-65406Y1368969D01*
X-76984Y1361234D01*
X-84719Y1349656D01*
X-85944Y1343500D01*
X-59250D01*
Y1370194D01*
D02*
G37*
G36*
X357500Y1367500D02*
X295384D01*
X296802Y1356727D01*
X303856Y1339698D01*
X315076Y1325076D01*
X329698Y1313855D01*
X346727Y1306802D01*
X357500Y1305384D01*
Y1367500D01*
D02*
G37*
G36*
X-295383D02*
X-434616D01*
X-433198Y1356727D01*
X-426144Y1339698D01*
X-414924Y1325076D01*
X-400302Y1313855D01*
X-383273Y1306802D01*
X-368708Y1304884D01*
X-362791Y1292841D01*
X-375423Y1280209D01*
X-379040Y1282625D01*
X-387819Y1284372D01*
X-396598Y1282625D01*
X-404041Y1277652D01*
X-409014Y1270210D01*
X-410760Y1261431D01*
X-409014Y1252652D01*
X-404041Y1245209D01*
X-396598Y1240236D01*
X-387819Y1238490D01*
X-379040Y1240236D01*
X-374024Y1243588D01*
X-368967D01*
X-362139Y1244946D01*
X-356350Y1248814D01*
X-296507Y1308657D01*
X-289863D01*
X-289204Y1308382D01*
X-287570Y1308377D01*
X-282734Y1308264D01*
X-282138Y1308218D01*
X-277779Y1305305D01*
X-269000Y1303559D01*
X-260221Y1305305D01*
X-252779Y1310279D01*
X-247805Y1317721D01*
X-246059Y1326500D01*
X-247805Y1335279D01*
X-252779Y1342721D01*
X-260221Y1347695D01*
X-269000Y1349441D01*
X-277779Y1347695D01*
X-281781Y1345020D01*
X-288041Y1344690D01*
X-294561Y1350418D01*
X-296979Y1354037D01*
X-296760Y1357043D01*
X-295383Y1367500D01*
D02*
G37*
G36*
X-17556Y1328500D02*
X-44250D01*
Y1301806D01*
X-38094Y1303031D01*
X-26516Y1310766D01*
X-18781Y1322344D01*
X-17556Y1328500D01*
D02*
G37*
G36*
X-59250D02*
X-85944D01*
X-84719Y1322344D01*
X-76984Y1310766D01*
X-65406Y1303031D01*
X-59250Y1301806D01*
Y1328500D01*
D02*
G37*
G36*
X392449Y619459D02*
X378500D01*
Y605510D01*
X379779Y605765D01*
X387221Y610738D01*
X392194Y618180D01*
X392449Y619459D01*
D02*
G37*
G36*
X363500D02*
X349551D01*
X349806Y618180D01*
X354779Y610738D01*
X362221Y605765D01*
X363500Y605510D01*
Y619459D01*
D02*
G37*
G36*
X-309264Y616449D02*
Y602500D01*
X-295315D01*
X-295569Y603779D01*
X-300542Y611222D01*
X-307985Y616194D01*
X-309264Y616449D01*
D02*
G37*
G36*
X-324264D02*
X-325543Y616194D01*
X-332985Y611222D01*
X-337958Y603779D01*
X-338212Y602500D01*
X-324264D01*
Y616449D01*
D02*
G37*
G36*
X-295315Y587500D02*
X-309264D01*
Y573551D01*
X-307985Y573806D01*
X-300542Y578779D01*
X-295569Y586221D01*
X-295315Y587500D01*
D02*
G37*
G36*
X-324264D02*
X-338212D01*
X-337958Y586221D01*
X-332985Y578779D01*
X-325543Y573806D01*
X-324264Y573551D01*
Y587500D01*
D02*
G37*
G36*
X332497Y460645D02*
Y446696D01*
X346446D01*
X346191Y447975D01*
X341218Y455418D01*
X333776Y460390D01*
X332497Y460645D01*
D02*
G37*
G36*
X317497D02*
X316218Y460390D01*
X308775Y455418D01*
X303803Y447975D01*
X303548Y446696D01*
X317497D01*
Y460645D01*
D02*
G37*
G36*
X-343750Y483392D02*
X-351554Y481840D01*
X-358169Y477419D01*
X-362590Y470804D01*
X-364142Y463000D01*
X-362590Y455196D01*
X-358169Y448581D01*
X-351554Y444160D01*
X-343750Y442608D01*
X-335946Y444160D01*
X-329331Y448581D01*
X-324910Y455196D01*
X-323358Y463000D01*
X-324910Y470804D01*
X-329331Y477419D01*
X-335946Y481840D01*
X-343750Y483392D01*
D02*
G37*
G36*
X346446Y431696D02*
X332497D01*
Y417747D01*
X333776Y418002D01*
X341218Y422975D01*
X346191Y430417D01*
X346446Y431696D01*
D02*
G37*
G36*
X317497D02*
X303548D01*
X303803Y430417D01*
X308775Y422975D01*
X316218Y418002D01*
X317497Y417747D01*
Y431696D01*
D02*
G37*
G36*
X-127135Y430648D02*
Y416699D01*
X-113186D01*
X-113440Y417978D01*
X-118413Y425421D01*
X-125856Y430393D01*
X-127135Y430648D01*
D02*
G37*
G36*
X-142135D02*
X-143414Y430393D01*
X-150856Y425421D01*
X-155829Y417978D01*
X-156084Y416699D01*
X-142135D01*
Y430648D01*
D02*
G37*
G36*
X-399750Y423500D02*
X-404750D01*
Y406000D01*
X-387250D01*
Y411000D01*
X-399750Y423500D01*
D02*
G37*
G36*
X-419749D02*
X-424750D01*
X-437250Y411000D01*
Y406000D01*
X-419749D01*
Y423500D01*
D02*
G37*
G36*
X-113186Y401699D02*
X-127135D01*
Y387750D01*
X-125856Y388005D01*
X-118413Y392978D01*
X-113440Y400420D01*
X-113186Y401699D01*
D02*
G37*
G36*
X-142135D02*
X-156084D01*
X-155829Y400420D01*
X-150856Y392978D01*
X-143414Y388005D01*
X-142135Y387750D01*
Y401699D01*
D02*
G37*
G36*
X218115Y431982D02*
X210312Y430430D01*
X203696Y426009D01*
X199276Y419394D01*
X197724Y411590D01*
X199276Y403786D01*
X203696Y397171D01*
X210312Y392750D01*
X218115Y391198D01*
X224290Y392426D01*
X227986Y390896D01*
X260791D01*
X260843Y390873D01*
X261330Y390617D01*
X261940Y390234D01*
X262579Y389773D01*
X264453Y388169D01*
X265468Y387173D01*
X266428Y386786D01*
X272275Y382880D01*
X280079Y381328D01*
X287883Y382880D01*
X294498Y387300D01*
X298919Y393916D01*
X300471Y401720D01*
X298919Y409523D01*
X294498Y416139D01*
X287883Y420559D01*
X280079Y422111D01*
X272275Y420559D01*
X266595Y416764D01*
X265591Y416384D01*
X263411Y414334D01*
X262666Y413729D01*
X261943Y413206D01*
X261330Y412822D01*
X260843Y412566D01*
X260791Y412543D01*
X238318D01*
X236955Y419394D01*
X232535Y426009D01*
X225919Y430430D01*
X218115Y431982D01*
D02*
G37*
G36*
X-387250Y391000D02*
X-404750D01*
Y373500D01*
X-399750D01*
X-387250Y386000D01*
Y391000D01*
D02*
G37*
G36*
X-419749D02*
X-437250D01*
Y386000D01*
X-424750Y373500D01*
X-419749D01*
Y391000D01*
D02*
G37*
G36*
X-221500Y365750D02*
X-244000D01*
X-255250Y354500D01*
Y332000D01*
X-244000Y320750D01*
X-221500D01*
X-210250Y332000D01*
Y354500D01*
X-221500Y365750D01*
D02*
G37*
G36*
X-289500D02*
X-312000D01*
X-323250Y354500D01*
Y332000D01*
X-312000Y320750D01*
X-289500D01*
X-278250Y332000D01*
Y354500D01*
X-289500Y365750D01*
D02*
G37*
G36*
X-401750Y338000D02*
X-424250D01*
X-435500Y326750D01*
Y304250D01*
X-424250Y293000D01*
X-401750D01*
X-390500Y304250D01*
Y326750D01*
X-401750Y338000D01*
D02*
G37*
G36*
X252692Y355579D02*
X244888Y354027D01*
X238273Y349606D01*
X233852Y342991D01*
X232300Y335187D01*
X233852Y327383D01*
X238273Y320768D01*
X243861Y317033D01*
X244959Y315535D01*
X245934Y304454D01*
X244803Y300247D01*
X238778Y296221D01*
X233805Y288778D01*
X233551Y287499D01*
X276448D01*
X276194Y288778D01*
X271221Y296221D01*
X264345Y300815D01*
X263734Y301402D01*
X261184Y313171D01*
X262087Y317372D01*
X262332Y317574D01*
X267111Y320768D01*
X271532Y327383D01*
X273084Y335187D01*
X271532Y342991D01*
X267111Y349606D01*
X260496Y354027D01*
X252692Y355579D01*
D02*
G37*
G36*
X276448Y272500D02*
X262499D01*
Y258551D01*
X263778Y258805D01*
X271221Y263778D01*
X276194Y271220D01*
X276448Y272500D01*
D02*
G37*
G36*
X247500D02*
X233551D01*
X233805Y271220D01*
X238778Y263778D01*
X246220Y258805D01*
X247500Y258551D01*
Y272500D01*
D02*
G37*
%LPD*%
G36*
X-279712Y1316000D02*
X-279895Y1316095D01*
X-280248Y1316180D01*
X-280770Y1316255D01*
X-282324Y1316375D01*
X-287470Y1316495D01*
X-289180Y1316500D01*
Y1336500D01*
X-279712Y1337000D01*
Y1316000D01*
D02*
G37*
G36*
X271152Y392969D02*
X269941Y394157D01*
X267605Y396157D01*
X266480Y396969D01*
X265384Y397657D01*
X264316Y398219D01*
X263277Y398657D01*
X262267Y398969D01*
X261285Y399157D01*
X260331Y399220D01*
Y404219D01*
X261285Y404282D01*
X262267Y404470D01*
X263277Y404782D01*
X264316Y405220D01*
X265384Y405782D01*
X266480Y406470D01*
X267605Y407282D01*
X268759Y408219D01*
X271152Y410470D01*
Y392969D01*
D02*
G37*
%LPC*%
G36*
X802500Y1251449D02*
X801221Y1251194D01*
X793779Y1246222D01*
X788806Y1238779D01*
X788551Y1237500D01*
X802500D01*
Y1251449D01*
D02*
G37*
G36*
Y1222500D02*
X788551D01*
X788806Y1221221D01*
X793779Y1213779D01*
X801221Y1208806D01*
X802500Y1208551D01*
Y1222500D01*
D02*
G37*
G36*
X807500Y1156446D02*
Y1142497D01*
X821449D01*
X821195Y1143776D01*
X816222Y1151218D01*
X808779Y1156191D01*
X807500Y1156446D01*
D02*
G37*
G36*
X821449Y1127497D02*
X807500D01*
Y1113548D01*
X808779Y1113803D01*
X816222Y1118776D01*
X821195Y1126218D01*
X821449Y1127497D01*
D02*
G37*
G36*
X760001Y1170392D02*
X752197Y1168840D01*
X745581Y1164420D01*
X741161Y1157804D01*
X739609Y1150000D01*
X741161Y1142197D01*
X745581Y1135581D01*
X752197Y1131161D01*
X760001Y1129608D01*
X767804Y1131161D01*
X778806Y1126218D01*
X783779Y1118776D01*
X791221Y1113803D01*
X792501Y1113548D01*
Y1134997D01*
Y1156446D01*
X792076Y1156361D01*
X790629Y1156315D01*
X776454Y1161375D01*
X774420Y1164420D01*
X767804Y1168840D01*
X760001Y1170392D01*
D02*
G37*
G36*
X807500Y971449D02*
Y957500D01*
X821449D01*
X821195Y958779D01*
X816222Y966222D01*
X808779Y971194D01*
X807500Y971449D01*
D02*
G37*
G36*
X821449Y942500D02*
X807500D01*
Y928551D01*
X808779Y928806D01*
X816222Y933779D01*
X821195Y941221D01*
X821449Y942500D01*
D02*
G37*
G36*
X755001Y974273D02*
X747197Y972721D01*
X740581Y968301D01*
X736161Y961685D01*
X734609Y953882D01*
X736161Y946078D01*
X740581Y939462D01*
X747197Y935042D01*
X755001Y933490D01*
X762804Y935042D01*
X766965Y937822D01*
X771090Y939006D01*
X782338Y935936D01*
X783779Y933779D01*
X791221Y928806D01*
X792501Y928551D01*
Y950000D01*
Y971449D01*
X791221Y971194D01*
X784770Y966884D01*
X782509Y966377D01*
X769657Y967946D01*
X769420Y968301D01*
X762804Y972721D01*
X755001Y974273D01*
D02*
G37*
G36*
X505001Y945392D02*
X497197Y943840D01*
X490581Y939420D01*
X486161Y932804D01*
X484609Y925000D01*
X486161Y917197D01*
X490581Y910581D01*
X497197Y906160D01*
X505001Y904608D01*
X512804Y906160D01*
X519420Y910581D01*
X523840Y917197D01*
X525392Y925000D01*
X523840Y932804D01*
X519420Y939420D01*
X512804Y943840D01*
X505001Y945392D01*
D02*
G37*
G36*
X507500Y886449D02*
Y872500D01*
X521449D01*
X521195Y873779D01*
X516222Y881222D01*
X508779Y886194D01*
X507500Y886449D01*
D02*
G37*
G36*
X521449Y857500D02*
X507500D01*
Y843551D01*
X508779Y843806D01*
X516222Y848779D01*
X521195Y856221D01*
X521449Y857500D01*
D02*
G37*
G36*
X817500Y761449D02*
X816221Y761194D01*
X808779Y756221D01*
X803806Y748779D01*
X803551Y747500D01*
X817500D01*
Y761449D01*
D02*
G37*
G36*
Y732500D02*
X803551D01*
X803806Y731221D01*
X808779Y723779D01*
X816221Y718806D01*
X817500Y718551D01*
Y732500D01*
D02*
G37*
G36*
X818750Y298199D02*
X817471Y297944D01*
X810029Y292971D01*
X805056Y285529D01*
X804801Y284250D01*
X818750D01*
Y298199D01*
D02*
G37*
G36*
Y269250D02*
X804801D01*
X805056Y267971D01*
X810029Y260529D01*
X817471Y255556D01*
X818750Y255301D01*
Y269250D01*
D02*
G37*
G36*
X596250Y207500D02*
X591249D01*
Y190000D01*
X608750D01*
Y195000D01*
X596250Y207500D01*
D02*
G37*
%LPD*%
D20*
X223977Y-472840D02*
Y-459846D01*
X112750Y-348620D02*
X223977Y-459846D01*
X112750Y-348620D02*
Y40500D01*
X365000Y144500D02*
X403000Y182500D01*
X583750D01*
X131250Y59000D02*
X241250D01*
X112750Y40500D02*
X131250Y59000D01*
X495250Y210750D02*
X515000Y230500D01*
X393000Y210750D02*
X495250D01*
X241250Y59000D02*
X393000Y210750D01*
X365000Y75000D02*
Y144500D01*
D21*
X160477Y-472840D02*
Y-437385D01*
X96500Y-373408D02*
X160477Y-437385D01*
X96500Y-373408D02*
Y47231D01*
X129000Y-560663D02*
Y-434250D01*
X84000Y-389250D02*
X129000Y-434250D01*
X84000Y-389250D02*
Y52408D01*
X16515Y1195000D02*
X310000Y901515D01*
Y862692D02*
Y901515D01*
Y862692D02*
X362852Y809839D01*
X20000Y1224998D02*
X323250Y921747D01*
Y878164D02*
Y921747D01*
Y878164D02*
X355726Y845688D01*
X337500Y897502D02*
Y942497D01*
X392500Y799838D02*
Y957498D01*
X405000Y778750D02*
Y979998D01*
X417500Y758750D02*
Y1002497D01*
X430000Y738750D02*
Y1024997D01*
X363940Y911873D02*
Y951058D01*
X337500Y897502D02*
X360162Y874840D01*
X55000Y1224998D02*
X337500Y942497D01*
X-270000Y1004997D02*
X-50000Y1224998D01*
X-270000Y864762D02*
Y1004997D01*
X-323912Y810849D02*
X-270000Y864762D01*
X-410750Y765510D02*
X-326088Y680848D01*
X-410750Y765510D02*
Y1108861D01*
X-292675Y1226936D01*
X-388250Y1079425D02*
X-317049Y1150626D01*
X-388250Y775750D02*
Y1079425D01*
Y775750D02*
X-369251Y756751D01*
Y756512D02*
Y756751D01*
Y756512D02*
X-326088Y713348D01*
X-358251Y778012D02*
X-326088Y745849D01*
X-358251Y778012D02*
Y792834D01*
X-366250Y800834D02*
X-358251Y792834D01*
X-366250Y800834D02*
Y1083747D01*
X-225000Y1224998D01*
X-326088Y778349D02*
X-325000D01*
Y810849D02*
X-323912D01*
X-325000Y908350D02*
Y1054997D01*
X-348750Y801012D02*
Y918188D01*
X-349000Y918438D02*
X-348750Y918188D01*
X-325000Y875850D02*
X-323912D01*
X-301250Y898513D02*
Y1043747D01*
X-323912Y875850D02*
X-301250Y898513D01*
X-348750Y801012D02*
X-326088Y778349D01*
X-349000Y918438D02*
Y1065997D01*
X-301250Y1043747D02*
X-120000Y1224998D01*
X-285000Y1024997D02*
X-85000Y1224998D01*
X-285000Y987502D02*
Y1024997D01*
X-317049Y1167948D02*
X-259999Y1224998D01*
X-326088Y713348D02*
X-325000D01*
X-326088Y680848D02*
X-325000D01*
X-326088Y745849D02*
X-325000D01*
X-15000Y1224998D02*
X14997Y1195000D01*
X488750Y406750D02*
Y691412D01*
X482250Y400250D02*
X488750Y406750D01*
X477500Y702662D02*
X488750Y691412D01*
X119342Y87750D02*
X182735D01*
X124519Y75250D02*
X229500D01*
X119342Y87750D02*
X221000D01*
X378750Y245500D01*
X229500Y75250D02*
X381718Y227468D01*
X84000Y52408D02*
X119342Y87750D01*
X96500Y47231D02*
X124519Y75250D01*
X488750Y744000D02*
X493750Y749000D01*
X488750Y733588D02*
Y744000D01*
X477500Y722338D02*
X488750Y733588D01*
X477500Y702662D02*
Y722338D01*
X433000Y400250D02*
X482250D01*
X417750Y385000D02*
X433000Y400250D01*
X417750Y262500D02*
Y385000D01*
X400750Y245500D02*
X417750Y262500D01*
X378750Y245500D02*
X400750D01*
X501250Y266250D02*
Y712500D01*
X488750Y253750D02*
X501250Y266250D01*
X488750Y237250D02*
Y253750D01*
X478968Y227468D02*
X488750Y237250D01*
X381718Y227468D02*
X478968D01*
X129000Y-560663D02*
X160477Y-592140D01*
X428250Y1085250D02*
X494750D01*
X420000Y1162250D02*
Y1240000D01*
X431874Y1055626D02*
X484374D01*
X300000Y1187500D02*
X431874Y1055626D01*
X340000Y1173500D02*
X428250Y1085250D01*
X431249Y1110001D02*
X510000D01*
X125000Y1224998D02*
X392500Y957498D01*
X370000Y777339D02*
X392500Y799838D01*
X160000Y1224998D02*
X405000Y979998D01*
X371088Y744838D02*
X405000Y778750D01*
X195000Y1224998D02*
X417500Y1002497D01*
X371088Y712338D02*
X417500Y758750D01*
X230000Y1224998D02*
X430000Y1024997D01*
X371088Y679838D02*
X430000Y738750D01*
X362852Y809839D02*
X363940D01*
X-349000Y1065997D02*
X-190000Y1224998D01*
X-317049Y1150626D02*
Y1167948D01*
X432250Y1150000D02*
X510000D01*
X420000Y1162250D02*
X432250Y1150000D01*
X380000Y1161250D02*
X431249Y1110001D01*
X380000Y1161250D02*
Y1240000D01*
X494750Y1085250D02*
X510000Y1070000D01*
X340000Y1173500D02*
Y1240000D01*
X484374Y1055626D02*
X510000Y1030000D01*
X300000Y1187500D02*
Y1240000D01*
X90000Y1224998D02*
X363940Y951058D01*
X355726Y845688D02*
X360591D01*
X-325000Y1054997D02*
X-155000Y1224998D01*
X370000Y679838D02*
X371088D01*
X370000Y712338D02*
X371088D01*
X370000Y744838D02*
X371088D01*
X360591Y845688D02*
X363940Y842340D01*
X14997Y1195000D02*
X16515D01*
D22*
X-303898Y1326500D02*
X-269000D01*
X-368967Y1261431D02*
X-303898Y1326500D01*
X-387819Y1261431D02*
X-368967D01*
X64968Y124218D02*
X199949D01*
X-1750Y57500D02*
X64968Y124218D01*
X-1750Y-275500D02*
Y57500D01*
X-145900Y-419650D02*
X-1750Y-275500D01*
X-230316Y-419650D02*
X-145900D01*
X-257973Y-447307D02*
X-230316Y-419650D01*
X-257973Y-498373D02*
Y-447307D01*
Y-498373D02*
X-236006Y-520340D01*
X25227D01*
X97027Y-592140D01*
D23*
X-325000Y843350D02*
X-323828D01*
X-285000Y882178D02*
Y987502D01*
X-323828Y843350D02*
X-285000Y882178D01*
D27*
X227986Y401720D02*
X280079D01*
X218115Y411590D02*
X227986Y401720D01*
D29*
X515000Y230500D02*
D03*
X-300750Y343250D02*
D03*
X-232750D02*
D03*
X-412250Y398500D02*
D03*
X-387819Y695000D02*
D03*
X391000Y278000D02*
D03*
Y343250D02*
D03*
D30*
X223977Y-592140D02*
D03*
X97027D02*
D03*
X-93473Y-472840D02*
D03*
X-156973D02*
D03*
X-220473D02*
D03*
X97027D02*
D03*
X33527D02*
D03*
X-29973D02*
D03*
X-93473Y-592140D02*
D03*
X-156973D02*
D03*
X-220473D02*
D03*
X-29973D02*
D03*
X33527D02*
D03*
X160477Y-472840D02*
D03*
Y-592140D02*
D03*
X223977Y-472840D02*
D03*
D31*
X-365000Y1375000D02*
D03*
X365000D02*
D03*
Y75000D02*
D03*
D32*
X-413000Y315500D02*
D03*
D33*
X363940Y911873D02*
D03*
X360162Y874840D02*
D03*
X-325000Y778349D02*
D03*
Y810849D02*
D03*
Y908350D02*
D03*
Y875850D02*
D03*
Y843350D02*
D03*
X-292675Y1226936D02*
D03*
X-325000Y713348D02*
D03*
Y680848D02*
D03*
Y745849D02*
D03*
X20000Y1224998D02*
D03*
X-15000D02*
D03*
X-225000D02*
D03*
X254999Y279999D02*
D03*
X493750Y749000D02*
D03*
X501250Y712500D02*
D03*
X539750Y276750D02*
D03*
X535000Y358000D02*
D03*
X826250Y276750D02*
D03*
X420000Y1240000D02*
D03*
X500000Y1230000D02*
D03*
X510000Y1110001D02*
D03*
X280079Y401720D02*
D03*
X160000Y1224998D02*
D03*
X230000D02*
D03*
X195000D02*
D03*
X300000Y1240000D02*
D03*
X340000D02*
D03*
X-259999Y1224998D02*
D03*
X-190000D02*
D03*
X-155000D02*
D03*
X-120000D02*
D03*
X-85000D02*
D03*
X-50000D02*
D03*
X370000Y679838D02*
D03*
Y712338D02*
D03*
Y744838D02*
D03*
Y777339D02*
D03*
X363940Y842340D02*
D03*
Y809839D02*
D03*
X125000Y1224998D02*
D03*
X90000D02*
D03*
X55000D02*
D03*
X380000Y1240000D02*
D03*
X510000Y1150000D02*
D03*
Y1030000D02*
D03*
Y1070000D02*
D03*
X371000Y626959D02*
D03*
X218115Y411590D02*
D03*
X252692Y335187D02*
D03*
X-316764Y595000D02*
D03*
X415000Y500000D02*
D03*
X505001Y925000D02*
D03*
X825000Y740000D02*
D03*
X409090Y565999D02*
D03*
X500000Y865000D02*
D03*
X810000Y1230000D02*
D03*
X-343750Y463000D02*
D03*
X760001Y1150000D02*
D03*
X800000Y1134997D02*
D03*
X755001Y953882D02*
D03*
X800000Y950000D02*
D03*
X-134635Y409199D02*
D03*
X324997Y439196D02*
D03*
D34*
X-269000Y1326500D02*
D03*
X-387819Y1261431D02*
D03*
D35*
X199949Y124218D02*
D03*
X1500Y1158750D02*
D03*
X-51750Y1336000D02*
D03*
X-52750Y1157250D02*
D03*
D36*
X583750Y182500D02*
D03*
%TF.MD5,0485ea3198a528e3a5dc6e44693519bd*%
M02*
