%TF.GenerationSoftware,Altium Limited,Altium Designer,18.0.12 (696)*%
G04 Layer_Color=255*
%FSLAX45Y45*%
%MOMM*%
%TF.FileFunction,Pads,Top*%
%TF.Part,Single*%
G01*
G75*
%TA.AperFunction,SMDPad,CuDef*%
%ADD10R,0.43180X0.43180*%
%ADD11R,0.76200X0.68580*%
%ADD12R,0.43180X0.43180*%
%TA.AperFunction,ConnectorPad*%
%ADD13R,0.76200X0.68580*%
%TA.AperFunction,SMDPad,CuDef*%
%ADD14R,0.16000X0.43500*%
%ADD15R,0.25000X0.43500*%
%ADD16R,0.15240X0.20320*%
%ADD17R,0.20320X0.15240*%
%ADD18R,1.60000X0.25000*%
%ADD19R,5.33400X4.57200*%
%TA.AperFunction,ComponentPad*%
G04:AMPARAMS|DCode=29|XSize=0.3mm|YSize=0.3mm|CornerRadius=0mm|HoleSize=0mm|Usage=FLASHONLY|Rotation=180.000|XOffset=0mm|YOffset=0mm|HoleType=Round|Shape=Octagon|*
%AMOCTAGOND29*
4,1,8,-0.15000,0.07500,-0.15000,-0.07500,-0.07500,-0.15000,0.07500,-0.15000,0.15000,-0.07500,0.15000,0.07500,0.07500,0.15000,-0.07500,0.15000,-0.15000,0.07500,0.0*
%
%ADD29OCTAGOND29*%

%ADD30O,0.40000X0.60000*%
%TA.AperFunction,ViaPad*%
%ADD31C,1.20000*%
%TA.AperFunction,ComponentPad*%
G04:AMPARAMS|DCode=32|XSize=0.3mm|YSize=0.3mm|CornerRadius=0mm|HoleSize=0mm|Usage=FLASHONLY|Rotation=90.000|XOffset=0mm|YOffset=0mm|HoleType=Round|Shape=Octagon|*
%AMOCTAGOND32*
4,1,8,0.07500,0.15000,-0.07500,0.15000,-0.15000,0.07500,-0.15000,-0.07500,-0.07500,-0.15000,0.07500,-0.15000,0.15000,-0.07500,0.15000,0.07500,0.07500,0.15000,0.0*
%
%ADD32OCTAGOND32*%

D10*
X-68370Y146750D02*
D03*
X10370D02*
D03*
X-15240Y322750D02*
D03*
X63500D02*
D03*
D11*
X177000Y311750D02*
D03*
Y205070D02*
D03*
D12*
X311750Y324370D02*
D03*
Y245630D02*
D03*
X-136500Y325620D02*
D03*
Y246880D02*
D03*
D13*
X-420750Y493910D02*
D03*
Y600590D02*
D03*
D14*
X-290004Y1097699D02*
D03*
X-255005D02*
D03*
X-220006D02*
D03*
X-185006D02*
D03*
X-150007D02*
D03*
X-115007D02*
D03*
X-80008D02*
D03*
X-45009D02*
D03*
X-10009D02*
D03*
X24990D02*
D03*
X59990D02*
D03*
X94989D02*
D03*
X129989D02*
D03*
X164988D02*
D03*
X199987D02*
D03*
X234987D02*
D03*
X269986D02*
D03*
X-290004Y1279199D02*
D03*
X-255005D02*
D03*
X-220006D02*
D03*
X-185006D02*
D03*
X-150007D02*
D03*
X-115007D02*
D03*
X-80008D02*
D03*
X-45009D02*
D03*
X-10009D02*
D03*
X24990D02*
D03*
X59990D02*
D03*
X94989D02*
D03*
X129989D02*
D03*
X164988D02*
D03*
X199987D02*
D03*
X234987D02*
D03*
X269986D02*
D03*
D15*
X-330005D02*
D03*
Y1097699D02*
D03*
X309995Y1279199D02*
D03*
Y1097699D02*
D03*
D16*
X126675Y449159D02*
D03*
X4755D02*
D03*
X-86685D02*
D03*
X-56205D02*
D03*
X-25725D02*
D03*
X35235D02*
D03*
X65715D02*
D03*
X96195D02*
D03*
X157155D02*
D03*
X187635D02*
D03*
X218115D02*
D03*
X248595D02*
D03*
X-178125D02*
D03*
X-208605D02*
D03*
X248595Y987639D02*
D03*
X218115D02*
D03*
X187635D02*
D03*
X157155D02*
D03*
X126675D02*
D03*
X96195D02*
D03*
X65715D02*
D03*
X-208605D02*
D03*
X-178125D02*
D03*
X-147645D02*
D03*
X-117165D02*
D03*
X-86685D02*
D03*
X-56205D02*
D03*
X-25725D02*
D03*
D17*
X-284805Y901279D02*
D03*
Y870799D02*
D03*
Y809839D02*
D03*
Y687919D02*
D03*
Y718399D02*
D03*
Y748879D02*
D03*
Y779359D02*
D03*
Y931759D02*
D03*
Y840319D02*
D03*
X324795Y901279D02*
D03*
Y870799D02*
D03*
Y840319D02*
D03*
Y809839D02*
D03*
Y657439D02*
D03*
Y687919D02*
D03*
Y718399D02*
D03*
Y748879D02*
D03*
Y779359D02*
D03*
Y931759D02*
D03*
Y505039D02*
D03*
Y535519D02*
D03*
Y565999D02*
D03*
Y626959D02*
D03*
X-284805Y505039D02*
D03*
Y535519D02*
D03*
Y565999D02*
D03*
Y626959D02*
D03*
Y657439D02*
D03*
D18*
X-341957Y63326D02*
D03*
Y122451D02*
D03*
D19*
X19995Y718399D02*
D03*
D29*
X515000Y230500D02*
D03*
X-300750Y343250D02*
D03*
X-232750D02*
D03*
X-412250Y398500D02*
D03*
X-387819Y695000D02*
D03*
X391000Y278000D02*
D03*
Y343250D02*
D03*
D30*
X223977Y-592140D02*
D03*
X97027D02*
D03*
X-93473Y-472840D02*
D03*
X-156973D02*
D03*
X-220473D02*
D03*
X97027D02*
D03*
X33527D02*
D03*
X-29973D02*
D03*
X-93473Y-592140D02*
D03*
X-156973D02*
D03*
X-220473D02*
D03*
X-29973D02*
D03*
X33527D02*
D03*
X160477Y-472840D02*
D03*
Y-592140D02*
D03*
X223977Y-472840D02*
D03*
D31*
X-365000Y1375000D02*
D03*
X365000D02*
D03*
Y75000D02*
D03*
D32*
X-413000Y315500D02*
D03*
%TF.MD5,8c64ce9e7d40b0e572de19c9d200f737*%
M02*
