%TF.GenerationSoftware,Altium Limited,Altium Designer,18.0.12 (696)*%
G04 Layer_Color=128*
%FSLAX45Y45*%
%MOMM*%
%TF.FileFunction,Drillmap*%
%TF.Part,Single*%
G01*
G75*
%TA.AperFunction,NonConductor*%
%ADD80C,0.12700*%
D80*
X510000Y230500D02*
X520000D01*
X515000Y225500D02*
Y235500D01*
X210227Y-592140D02*
X237727D01*
X223977Y-605890D02*
Y-578390D01*
X83277Y-592140D02*
X110777D01*
X97027Y-605890D02*
Y-578390D01*
X-107223Y-472840D02*
X-79723D01*
X-93473Y-486590D02*
Y-459090D01*
X-170723Y-472840D02*
X-143223D01*
X-156973Y-486590D02*
Y-459090D01*
X-234223Y-472840D02*
X-206723D01*
X-220473Y-486590D02*
Y-459090D01*
X83277Y-472840D02*
X110777D01*
X97027Y-486590D02*
Y-459090D01*
X19777Y-472840D02*
X47277D01*
X33527Y-486590D02*
Y-459090D01*
X-43723Y-472840D02*
X-16223D01*
X-29973Y-486590D02*
Y-459090D01*
X-107223Y-592140D02*
X-79723D01*
X-93473Y-605890D02*
Y-578390D01*
X-170723Y-592140D02*
X-143223D01*
X-156973Y-605890D02*
Y-578390D01*
X-234223Y-592140D02*
X-206723D01*
X-220473Y-605890D02*
Y-578390D01*
X-43723Y-592140D02*
X-16223D01*
X-29973Y-605890D02*
Y-578390D01*
X19777Y-592140D02*
X47277D01*
X33527Y-605890D02*
Y-578390D01*
X146727Y-472840D02*
X174227D01*
X160477Y-486590D02*
Y-459090D01*
X146727Y-592140D02*
X174227D01*
X160477Y-605890D02*
Y-578390D01*
X210227Y-472840D02*
X237727D01*
X223977Y-486590D02*
Y-459090D01*
X-395000Y1375000D02*
X-335000D01*
X-365000Y1345000D02*
Y1405000D01*
X-305750Y343250D02*
X-295750D01*
X-300750Y338250D02*
Y348250D01*
X-237750Y343250D02*
X-227750D01*
X-232750Y338250D02*
Y348250D01*
X-418000Y315500D02*
X-408000D01*
X-413000Y310500D02*
Y320500D01*
X-417250Y398500D02*
X-407250D01*
X-412250Y393500D02*
Y403500D01*
X-392819Y695000D02*
X-382819D01*
X-387819Y690000D02*
Y700000D01*
X386000Y278000D02*
X396000D01*
X391000Y273000D02*
Y283000D01*
X386000Y343250D02*
X396000D01*
X391000Y338250D02*
Y348250D01*
X335000Y1375000D02*
X395000D01*
X365000Y1345000D02*
Y1405000D01*
X335000Y75000D02*
X395000D01*
X365000Y45000D02*
Y105000D01*
X534750Y276750D02*
X544750D01*
X539750Y271750D02*
Y281750D01*
X530000Y358000D02*
X540000D01*
X535000Y353000D02*
Y363000D01*
X495000Y1230000D02*
X505000D01*
X500000Y1225000D02*
Y1235000D01*
X247692Y335187D02*
X257692D01*
X252692Y330187D02*
Y340187D01*
X410000Y500000D02*
X420000D01*
X415000Y495000D02*
Y505000D01*
X500001Y925000D02*
X510001D01*
X505001Y920000D02*
Y930000D01*
X404090Y565999D02*
X414090D01*
X409090Y560999D02*
Y570999D01*
X-348750Y463000D02*
X-338750D01*
X-343750Y458000D02*
Y468000D01*
X755001Y1150000D02*
X765001D01*
X760001Y1145000D02*
Y1155000D01*
X750001Y953882D02*
X760001D01*
X755001Y948882D02*
Y958881D01*
%TF.MD5,39c9228b9534d43a995481450321f192*%
M02*
