%TF.GenerationSoftware,Altium Limited,Altium Designer,18.0.12 (696)*%
G04 Layer_Color=16711935*
%FSLAX45Y45*%
%MOMM*%
%TF.FileFunction,Soldermask,Bot*%
%TF.Part,Single*%
G01*
G75*
%TA.AperFunction,BGAPad,CuDef*%
%ADD52C,0.40320*%
%TA.AperFunction,SMDPad,CuDef*%
%ADD53R,1.00320X0.45320*%
%TA.AperFunction,BGAPad,CuDef*%
%ADD54R,0.40320X0.40320*%
%TA.AperFunction,SMDPad,CuDef*%
%ADD55R,0.40320X0.31920*%
%ADD56R,0.40320X0.35320*%
%ADD57R,0.31920X0.31920*%
%ADD58R,1.00320X1.05320*%
%ADD59R,0.55320X0.50320*%
%ADD60R,0.50320X0.55320*%
%TA.AperFunction,ComponentPad*%
G04:AMPARAMS|DCode=61|XSize=0.5032mm|YSize=0.5032mm|CornerRadius=0mm|HoleSize=0mm|Usage=FLASHONLY|Rotation=180.000|XOffset=0mm|YOffset=0mm|HoleType=Round|Shape=Octagon|*
%AMOCTAGOND61*
4,1,8,-0.25160,0.12580,-0.25160,-0.12580,-0.12580,-0.25160,0.12580,-0.25160,0.25160,-0.12580,0.25160,0.12580,0.12580,0.25160,-0.12580,0.25160,-0.25160,0.12580,0.0*
%
%ADD61OCTAGOND61*%

%ADD62O,0.50000X0.70000*%
%TA.AperFunction,ViaPad*%
%ADD63C,1.40320*%
%TA.AperFunction,ComponentPad*%
G04:AMPARAMS|DCode=64|XSize=0.5032mm|YSize=0.5032mm|CornerRadius=0mm|HoleSize=0mm|Usage=FLASHONLY|Rotation=90.000|XOffset=0mm|YOffset=0mm|HoleType=Round|Shape=Octagon|*
%AMOCTAGOND64*
4,1,8,0.12580,0.25160,-0.12580,0.25160,-0.25160,0.12580,-0.25160,-0.12580,-0.12580,-0.25160,0.12580,-0.25160,0.25160,-0.12580,0.25160,0.12580,0.12580,0.25160,0.0*
%
%ADD64OCTAGOND64*%

%TA.AperFunction,ViaPad*%
%ADD65C,0.45320*%
%ADD66C,0.40000*%
D52*
X565000Y1065001D02*
D03*
Y985001D02*
D03*
Y1025001D02*
D03*
Y1105001D02*
D03*
X605000Y985001D02*
D03*
X645000D02*
D03*
X685000D02*
D03*
X605000Y1025001D02*
D03*
X645000D02*
D03*
X685000D02*
D03*
X605000Y1065001D02*
D03*
X645000D02*
D03*
X685000D02*
D03*
X605000Y1105001D02*
D03*
X645000D02*
D03*
X685000D02*
D03*
D53*
X253997Y755000D02*
D03*
Y705000D02*
D03*
Y655000D02*
D03*
Y605000D02*
D03*
D54*
X535000Y782000D02*
D03*
Y735000D02*
D03*
X771600Y426000D02*
D03*
Y485060D02*
D03*
X560700Y418200D02*
D03*
X599530D02*
D03*
X771600Y736545D02*
D03*
Y765675D02*
D03*
X535000Y453785D02*
D03*
Y442140D02*
D03*
X709950Y795800D02*
D03*
X771600Y755365D02*
D03*
D55*
X535000Y758020D02*
D03*
D56*
X771600Y455000D02*
D03*
D57*
Y755365D02*
D03*
X535000Y447140D02*
D03*
D58*
X611750Y276750D02*
D03*
X751750D02*
D03*
X720000Y1230000D02*
D03*
X580000D02*
D03*
D59*
X775000Y885000D02*
D03*
X715000D02*
D03*
X625000D02*
D03*
X565000D02*
D03*
D60*
X785000Y1015000D02*
D03*
Y1075000D02*
D03*
D61*
X515000Y230500D02*
D03*
X-300750Y343250D02*
D03*
X-232750D02*
D03*
X-412250Y398500D02*
D03*
X-387819Y695000D02*
D03*
X391000Y278000D02*
D03*
Y343250D02*
D03*
D62*
X223977Y-592140D02*
D03*
X97027D02*
D03*
X-93473Y-472840D02*
D03*
X-156973D02*
D03*
X-220473D02*
D03*
X97027D02*
D03*
X33527D02*
D03*
X-29973D02*
D03*
X-93473Y-592140D02*
D03*
X-156973D02*
D03*
X-220473D02*
D03*
X-29973D02*
D03*
X33527D02*
D03*
X160477Y-472840D02*
D03*
Y-592140D02*
D03*
X223977Y-472840D02*
D03*
D63*
X-365000Y1375000D02*
D03*
X365000D02*
D03*
Y75000D02*
D03*
D64*
X-413000Y315500D02*
D03*
D65*
X420000Y1240000D02*
D03*
X510000Y1110001D02*
D03*
X300000Y1240000D02*
D03*
X340000D02*
D03*
X380000D02*
D03*
X510000Y1150000D02*
D03*
Y1030000D02*
D03*
Y1070000D02*
D03*
D66*
X500000Y1230000D02*
D03*
X415000Y500000D02*
D03*
X505001Y925000D02*
D03*
X825000Y740000D02*
D03*
X409090Y565999D02*
D03*
X500000Y865000D02*
D03*
X810000Y1230000D02*
D03*
X-343750Y463000D02*
D03*
X760001Y1150000D02*
D03*
X800000Y1134997D02*
D03*
X755001Y953882D02*
D03*
X800000Y950000D02*
D03*
%TF.MD5,460fc1dd7b314b5b14e522303763564d*%
M02*
