%TF.GenerationSoftware,Altium Limited,Altium Designer,18.0.12 (696)*%
G04 Layer_Color=2752767*
%FSLAX45Y45*%
%MOMM*%
%TF.FileFunction,Drawing*%
%TF.Part,Single*%
G01*
G75*
%TA.AperFunction,NonConductor*%
%ADD80C,0.12700*%
D80*
X442950Y698200D02*
Y799800D01*
X544550D01*
Y698200D01*
X442950D01*
X450450Y661700D02*
Y763300D01*
X552050D01*
Y661700D01*
X450450D01*
X775450Y225950D02*
Y327550D01*
X877050D01*
Y225950D01*
X775450D01*
X369200Y1189200D02*
Y1290800D01*
X470800D01*
Y1189200D01*
X369200D01*
X459200Y1059201D02*
Y1160801D01*
X560800D01*
Y1059201D01*
X459200D01*
X249200Y1189200D02*
Y1290800D01*
X350800D01*
Y1189200D01*
X249200D01*
X289200D02*
Y1290800D01*
X390800D01*
Y1189200D01*
X289200D01*
X329200D02*
Y1290800D01*
X430800D01*
Y1189200D01*
X329200D01*
X459200Y1099200D02*
Y1200800D01*
X560800D01*
Y1099200D01*
X459200D01*
Y979200D02*
Y1080800D01*
X560800D01*
Y979200D01*
X459200D01*
Y1019200D02*
Y1120800D01*
X560800D01*
Y1019200D01*
X459200D01*
X-51750Y1285200D02*
X-26350Y1310600D01*
X-950D01*
X-26350Y1336000D01*
X-950Y1361400D01*
X-26350D01*
X-51750Y1386800D01*
X-77150Y1361400D01*
X-102550D01*
X-77150Y1336000D01*
X-102550Y1310600D01*
X-77150D01*
X-51750Y1285200D01*
X-52750Y1106450D02*
X-27350Y1131850D01*
X-1950D01*
X-27350Y1157250D01*
X-1950Y1182650D01*
X-27350D01*
X-52750Y1208050D01*
X-78150Y1182650D01*
X-103550D01*
X-78150Y1157250D01*
X-103550Y1131850D01*
X-78150D01*
X-52750Y1106450D01*
X774200Y689200D02*
Y790800D01*
X875800D01*
Y689200D01*
X774200D01*
X449200Y814200D02*
Y915800D01*
X550800D01*
Y814200D01*
X449200D01*
X759200Y1179200D02*
Y1280800D01*
X860800D01*
Y1179200D01*
X759200D01*
X749200Y1084197D02*
Y1185797D01*
X850800D01*
Y1084197D01*
X749200D01*
Y899200D02*
Y1000800D01*
X850800D01*
Y899200D01*
X749200D01*
%TF.MD5,c57d6ef600021b17259b40e365be5490*%
M02*
