G04*
G04 #@! TF.GenerationSoftware,Altium Limited,Altium Designer,18.0.12 (696)*
G04*
G04 Layer_Color=65535*
%FSLAX44Y44*%
%MOMM*%
G71*
G01*
G75*
%ADD41C,0.1016*%
G36*
X-39535Y57265D02*
X-44615D01*
Y59805D01*
X-39535D01*
Y57265D01*
D02*
G37*
G36*
Y49645D02*
X-44615D01*
Y52185D01*
X-39535D01*
Y49645D01*
D02*
G37*
G36*
X5461Y30751D02*
X3937D01*
Y33799D01*
X5461D01*
Y30751D01*
D02*
G37*
G36*
X889D02*
X-635D01*
Y33799D01*
X889D01*
Y30751D01*
D02*
G37*
G36*
X-12126Y30149D02*
X-15174D01*
Y31673D01*
X-12126D01*
Y30149D01*
D02*
G37*
G36*
X32699Y30024D02*
X29651D01*
Y31548D01*
X32699D01*
Y30024D01*
D02*
G37*
G36*
X20240Y28381D02*
X15160D01*
Y30921D01*
X20240D01*
Y28381D01*
D02*
G37*
G36*
X-12126Y25577D02*
X-15174D01*
Y27101D01*
X-12126D01*
Y25577D01*
D02*
G37*
G36*
X32699Y25452D02*
X29651D01*
Y26976D01*
X32699D01*
Y25452D01*
D02*
G37*
G36*
X20240Y20761D02*
X15160D01*
Y23301D01*
X20240D01*
Y20761D01*
D02*
G37*
G36*
X148Y13151D02*
X-1376D01*
Y16199D01*
X148D01*
Y13151D01*
D02*
G37*
G36*
X-4424D02*
X-5948D01*
Y16199D01*
X-4424D01*
Y13151D01*
D02*
G37*
D41*
X20240Y21269D02*
Y30413D01*
X15160Y21269D02*
Y30413D01*
X32699Y25960D02*
Y31040D01*
X29651Y25960D02*
Y31040D01*
X-44615Y50153D02*
Y59297D01*
X-39535Y50153D02*
Y59297D01*
X-127Y33799D02*
X4953D01*
X-127Y30751D02*
X4953D01*
X-5440Y16199D02*
X-360D01*
X-5440Y13151D02*
X-360D01*
X-12126Y26085D02*
Y31165D01*
X-15174Y26085D02*
Y31165D01*
M02*
