G04*
G04 #@! TF.GenerationSoftware,Altium Limited,Altium Designer,18.0.12 (696)*
G04*
G04 Layer_Color=8388736*
%FSLAX44Y44*%
%MOMM*%
G71*
G01*
G75*
%ADD12C,0.0254*%
%ADD71C,0.2540*%
%ADD75C,0.0010*%
D12*
X586503Y153177D02*
X594003Y160678D01*
X579003Y153177D02*
X594003Y168178D01*
X571503Y153177D02*
X586503Y168178D01*
X564003Y153177D02*
X579003Y168178D01*
X556503Y153177D02*
X571503Y168178D01*
X549003Y153177D02*
X564003Y168178D01*
X541503Y153177D02*
X556503Y168178D01*
X534003Y153177D02*
X549003Y168178D01*
X527688Y154362D02*
X541503Y168178D01*
X527688Y161862D02*
X534003Y168178D01*
X586503D02*
X594003Y175678D01*
X579003Y168178D02*
X594003Y183178D01*
X571503Y168178D02*
X586503Y183178D01*
X564003Y168178D02*
X579003Y183178D01*
X556503Y168178D02*
X571503Y183178D01*
X549003Y168178D02*
X564003Y183178D01*
X541503Y168178D02*
X556503Y183178D01*
X534003Y168178D02*
X549003Y183178D01*
X527688Y169362D02*
X541503Y183178D01*
X527688Y176862D02*
X534003Y183178D01*
X586503D02*
X594003Y190678D01*
X579003Y183178D02*
X594003Y198178D01*
X571503Y183178D02*
X586503Y198178D01*
X564003Y183178D02*
X579003Y198178D01*
X556503Y183178D02*
X571503Y198178D01*
X549003Y183178D02*
X564003Y198178D01*
X541503Y183178D02*
X556503Y198178D01*
X534003Y183178D02*
X549003Y198178D01*
X527688Y184362D02*
X541503Y198178D01*
X527688Y191863D02*
X534003Y198178D01*
X586503D02*
X594003Y205678D01*
X579003Y198178D02*
X594003Y213178D01*
X571503Y198178D02*
X586503Y213178D01*
X564003Y198178D02*
X579003Y213178D01*
X556503Y198178D02*
X571503Y213178D01*
X549003Y198178D02*
X564003Y213178D01*
X541503Y198178D02*
X556503Y213178D01*
X534003Y198178D02*
X549003Y213178D01*
X527688Y199363D02*
X541503Y213178D01*
X527688Y206863D02*
X534003Y213178D01*
X586503D02*
X594003Y220678D01*
X579003Y213178D02*
X594003Y228178D01*
X571503Y213178D02*
X586503Y228178D01*
X564003Y213178D02*
X579003Y228178D01*
X556503Y213178D02*
X571503Y228178D01*
X549003Y213178D02*
X564003Y228178D01*
X541503Y213178D02*
X556503Y228178D01*
X534003Y213178D02*
X549003Y228178D01*
X527688Y214363D02*
X541503Y228178D01*
X527688Y221863D02*
X534003Y228178D01*
X586503D02*
X594003Y235678D01*
X579003Y228178D02*
X594003Y243178D01*
X571503Y228178D02*
X586503Y243178D01*
X564003Y228178D02*
X579003Y243178D01*
X556503Y228178D02*
X571503Y243178D01*
X549003Y228178D02*
X564003Y243178D01*
X541503Y228178D02*
X556503Y243178D01*
X534003Y228178D02*
X549003Y243178D01*
X527688Y229363D02*
X541503Y243178D01*
X527688Y236863D02*
X534003Y243178D01*
X586503D02*
X594003Y250678D01*
X579003Y243178D02*
X594003Y258178D01*
X571503Y243178D02*
X586503Y258178D01*
X564003Y243178D02*
X579003Y258178D01*
X556503Y243178D02*
X571503Y258178D01*
X549003Y243178D02*
X564003Y258178D01*
X541503Y243178D02*
X556503Y258178D01*
X534003Y243178D02*
X549003Y258178D01*
X527688Y244363D02*
X541503Y258178D01*
X527688Y251863D02*
X534003Y258178D01*
X586503D02*
X594003Y265678D01*
X579003Y258178D02*
X594003Y273178D01*
X571503Y258178D02*
X586503Y273178D01*
X564003Y258178D02*
X579003Y273178D01*
X556503Y258178D02*
X571503Y273178D01*
X549003Y258178D02*
X564003Y273178D01*
X541503Y258178D02*
X556503Y273178D01*
X534003Y258178D02*
X549003Y273178D01*
X527688Y259363D02*
X541503Y273178D01*
X527688Y266863D02*
X534003Y273178D01*
X586503D02*
X594003Y280678D01*
X579003Y273178D02*
X594003Y288178D01*
X571503Y273178D02*
X586503Y288178D01*
X564003Y273178D02*
X579003Y288178D01*
X556503Y273178D02*
X571503Y288178D01*
X549003Y273178D02*
X564003Y288178D01*
X541503Y273178D02*
X556503Y288178D01*
X534003Y273178D02*
X549003Y288178D01*
X527688Y274363D02*
X541503Y288178D01*
X527688Y281863D02*
X534003Y288178D01*
X594003Y190678D02*
X601503Y183178D01*
X594003Y198178D02*
X609003Y183178D01*
X601503Y198178D02*
X616503Y183178D01*
X609003Y198178D02*
X624003Y183178D01*
X616503Y198178D02*
X631503Y183178D01*
X624003Y198178D02*
X639003Y183178D01*
X631503Y198178D02*
X646503Y183178D01*
X639003Y198178D02*
X654003Y183178D01*
X646503Y198178D02*
X661503Y183178D01*
X654003Y198178D02*
X669003Y183178D01*
X661503Y198178D02*
X676503Y183178D01*
X669003Y198178D02*
X684003Y183178D01*
X676503Y198178D02*
X690308Y184372D01*
X684003Y198178D02*
X690308Y191872D01*
X594003Y205678D02*
X601503Y198178D01*
X594003Y213178D02*
X609003Y198178D01*
X601503Y213178D02*
X616503Y198178D01*
X609003Y213178D02*
X624003Y198178D01*
X616503Y213178D02*
X631503Y198178D01*
X624003Y213178D02*
X639003Y198178D01*
X631503Y213178D02*
X646503Y198178D01*
X639003Y213178D02*
X654003Y198178D01*
X646503Y213178D02*
X661503Y198178D01*
X654003Y213178D02*
X669003Y198178D01*
X661503Y213178D02*
X676503Y198178D01*
X669003Y213178D02*
X684003Y198178D01*
X676503Y213178D02*
X690308Y199372D01*
X684003Y213178D02*
X690308Y206872D01*
X594003Y220678D02*
X601503Y213178D01*
X594003Y228178D02*
X609003Y213178D01*
X601503Y228178D02*
X616503Y213178D01*
X609003Y228178D02*
X624003Y213178D01*
X616503Y228178D02*
X631503Y213178D01*
X624003Y228178D02*
X639003Y213178D01*
X631503Y228178D02*
X646503Y213178D01*
X639003Y228178D02*
X654003Y213178D01*
X646503Y228178D02*
X661503Y213178D01*
X654003Y228178D02*
X669003Y213178D01*
X661503Y228178D02*
X676503Y213178D01*
X669003Y228178D02*
X684003Y213178D01*
X676503Y228178D02*
X690308Y214372D01*
X684003Y228178D02*
X690308Y221872D01*
X594003Y235678D02*
X601503Y228178D01*
X594003Y243178D02*
X609003Y228178D01*
X601503Y243178D02*
X616503Y228178D01*
X609003Y243178D02*
X624003Y228178D01*
X616503Y243178D02*
X631503Y228178D01*
X624003Y243178D02*
X639003Y228178D01*
X631503Y243178D02*
X646503Y228178D01*
X639003Y243178D02*
X654003Y228178D01*
X646503Y243178D02*
X661503Y228178D01*
X654003Y243178D02*
X669003Y228178D01*
X661503Y243178D02*
X676503Y228178D01*
X669003Y243178D02*
X684003Y228178D01*
X676503Y243178D02*
X690308Y229372D01*
X684003Y243178D02*
X690308Y236872D01*
X594003Y250678D02*
X601503Y243178D01*
X594003Y258178D02*
X609003Y243178D01*
X601503Y258178D02*
X616503Y243178D01*
X609003Y258178D02*
X624003Y243178D01*
X616503Y258178D02*
X631503Y243178D01*
X624003Y258178D02*
X639003Y243178D01*
X631503Y258178D02*
X646503Y243178D01*
X639003Y258178D02*
X654003Y243178D01*
X646503Y258178D02*
X661503Y243178D01*
X654003Y258178D02*
X669003Y243178D01*
X661503Y258178D02*
X676503Y243178D01*
X669003Y258178D02*
X684003Y243178D01*
X676503Y258178D02*
X690308Y244372D01*
X684003Y258178D02*
X690308Y251872D01*
X594003Y265678D02*
X601503Y258178D01*
X594003Y273178D02*
X609003Y258178D01*
X601503Y273178D02*
X616503Y258178D01*
X609003Y273178D02*
X624003Y258178D01*
X616503Y273178D02*
X631503Y258178D01*
X624003Y273178D02*
X639003Y258178D01*
X631503Y273178D02*
X646503Y258178D01*
X639003Y273178D02*
X654003Y258178D01*
X646503Y273178D02*
X661503Y258178D01*
X654003Y273178D02*
X669003Y258178D01*
X661503Y273178D02*
X676503Y258178D01*
X669003Y273178D02*
X684003Y258178D01*
X676503Y273178D02*
X690308Y259372D01*
X684003Y273178D02*
X690308Y266872D01*
Y190678D02*
X786614D01*
X690308Y205678D02*
X786614D01*
X690308Y220678D02*
X786614D01*
X690308Y235678D02*
X786614D01*
X690308Y250678D02*
X786614D01*
X179543Y5534D02*
X187181Y13172D01*
X172043Y5534D02*
X187181Y20672D01*
X164543Y5534D02*
X187181Y28172D01*
X160456Y8947D02*
X187181Y35672D01*
X152460Y8452D02*
X187181Y43172D01*
X144960Y8452D02*
X187181Y50672D01*
X137460Y8452D02*
X187181Y58172D01*
X130456Y8947D02*
X187181Y65672D01*
X119543Y5534D02*
X187181Y73172D01*
X112043Y5534D02*
X187181Y80672D01*
X104543Y5534D02*
X187181Y88172D01*
X97043Y5534D02*
X187181Y95672D01*
X96144Y12135D02*
X187181Y103172D01*
X96144Y19635D02*
X187181Y110672D01*
X96144Y27135D02*
X187181Y118172D01*
X96144Y34635D02*
X187181Y125672D01*
X96144Y42135D02*
X187181Y133172D01*
X96144Y49635D02*
X187181Y140672D01*
X96144Y57135D02*
X187181Y148172D01*
X96144Y64635D02*
X181074Y149565D01*
X96144Y72135D02*
X173574Y149565D01*
X96144Y79635D02*
X166074Y149565D01*
X96144Y87135D02*
X158574Y149565D01*
X96144Y94635D02*
X151074Y149565D01*
X96144Y102135D02*
X143574Y149565D01*
X96144Y109635D02*
X136074Y149565D01*
X96144Y117135D02*
X128574Y149565D01*
X96144Y124635D02*
X121074Y149565D01*
X96144Y132135D02*
X113574Y149565D01*
X96144Y139635D02*
X106074Y149565D01*
X96144Y147135D02*
X98574Y149565D01*
X187180Y28401D02*
X190155Y28676D01*
X187180Y35901D02*
X190155Y36176D01*
X187180Y43401D02*
X190155Y43676D01*
X187180Y50901D02*
X190155Y51176D01*
X187180Y58401D02*
X190155Y58676D01*
X187180Y65901D02*
X190155Y66176D01*
X187180Y73401D02*
X190155Y73676D01*
X187180Y80901D02*
X190155Y81176D01*
X187180Y88401D02*
X190155Y88676D01*
X187180Y95901D02*
X190155Y96176D01*
X187180Y103401D02*
X190155Y103676D01*
X187180Y110901D02*
X190155Y111176D01*
X187180Y118401D02*
X190155Y118676D01*
X187180Y125901D02*
X190155Y126176D01*
X187180Y133401D02*
X190155Y133676D01*
X219696Y20901D02*
X227333Y28539D01*
X212196Y20901D02*
X227333Y36039D01*
X204696Y20901D02*
X227333Y43539D01*
X197196Y20901D02*
X227333Y51039D01*
X190155Y21360D02*
X227333Y58539D01*
X190155Y28860D02*
X227333Y66039D01*
X190155Y36360D02*
X227333Y73539D01*
X190155Y43861D02*
X227333Y81039D01*
X190155Y51361D02*
X227333Y88539D01*
X190155Y58861D02*
X227333Y96039D01*
X190155Y66361D02*
X227333Y103539D01*
X190155Y73861D02*
X227333Y111039D01*
X190155Y81361D02*
X227333Y118539D01*
X190155Y88861D02*
X227333Y126039D01*
X190155Y96361D02*
X227333Y133539D01*
X190155Y103861D02*
X220492Y134198D01*
X190155Y111361D02*
X212992Y134198D01*
X190155Y118861D02*
X205492Y134198D01*
X190155Y126361D02*
X197992Y134198D01*
X190155Y133861D02*
X190492Y134198D01*
X134388Y-18653D02*
X142025Y-26290D01*
X134388Y-11153D02*
X149525Y-26290D01*
X134388Y-3653D02*
X155951Y-25216D01*
X134387Y3847D02*
X155951Y-17716D01*
X136951Y8784D02*
X155951Y-10216D01*
X144451Y8784D02*
X155951Y-2716D01*
X151951Y8784D02*
X155951Y4784D01*
X163730Y-57421D02*
X171368Y-49784D01*
X156230Y-57421D02*
X171368Y-42284D01*
X148730Y-57421D02*
X171368Y-34783D01*
X141230Y-57421D02*
X164563Y-34088D01*
X133730Y-57421D02*
X160419Y-30732D01*
X126230Y-57421D02*
X156669Y-26982D01*
X118730Y-57421D02*
X150136Y-26015D01*
X116344Y-52307D02*
X142636Y-26015D01*
X116344Y-44807D02*
X135136Y-26015D01*
X116344Y-37307D02*
X119563Y-34088D01*
D71*
X103644Y299425D02*
Y291928D01*
X108642D01*
X112391Y296926D02*
X114890D01*
X116140Y295676D01*
Y291928D01*
X112391D01*
X111141Y293177D01*
X112391Y294427D01*
X116140D01*
X118639Y296926D02*
Y293177D01*
X119888Y291928D01*
X123637D01*
Y290678D01*
X122388Y289429D01*
X121138D01*
X123637Y291928D02*
Y296926D01*
X129885Y291928D02*
X127386D01*
X126137Y293177D01*
Y295676D01*
X127386Y296926D01*
X129885D01*
X131135Y295676D01*
Y294427D01*
X126137D01*
X133634Y296926D02*
Y291928D01*
Y294427D01*
X134884Y295676D01*
X136133Y296926D01*
X137383D01*
X103644Y158177D02*
X104893Y156927D01*
X107392D01*
X108642Y158177D01*
Y163176D01*
X107392Y164425D01*
X104893D01*
X103644Y163176D01*
Y161926D01*
X104893Y160676D01*
X108642D01*
X103644Y178176D02*
X104893Y179425D01*
X107392D01*
X108642Y178176D01*
Y176926D01*
X107392Y175676D01*
X108642Y174427D01*
Y173177D01*
X107392Y171928D01*
X104893D01*
X103644Y173177D01*
Y174427D01*
X104893Y175676D01*
X103644Y176926D01*
Y178176D01*
X104893Y175676D02*
X107392D01*
X103644Y194425D02*
X108642D01*
Y193176D01*
X103644Y188177D01*
Y186928D01*
X108642Y209425D02*
X106143Y208176D01*
X103644Y205676D01*
Y203177D01*
X104893Y201928D01*
X107392D01*
X108642Y203177D01*
Y204427D01*
X107392Y205676D01*
X103644D01*
X108642Y224425D02*
X103644D01*
Y220676D01*
X106143Y221926D01*
X107392D01*
X108642Y220676D01*
Y218177D01*
X107392Y216928D01*
X104893D01*
X103644Y218177D01*
X107392Y231928D02*
Y239425D01*
X103644Y235676D01*
X108642D01*
X103644Y253176D02*
X104893Y254425D01*
X107392D01*
X108642Y253176D01*
Y251926D01*
X107392Y250676D01*
X106143D01*
X107392D01*
X108642Y249427D01*
Y248177D01*
X107392Y246928D01*
X104893D01*
X103644Y248177D01*
X108642Y261928D02*
X103644D01*
X108642Y266926D01*
Y268176D01*
X107392Y269425D01*
X104893D01*
X103644Y268176D01*
Y276928D02*
X106143D01*
X104893D01*
Y284425D01*
X103644Y283176D01*
X157463Y291928D02*
Y299425D01*
X162461Y291928D01*
Y299425D01*
X166210Y296926D02*
X168709D01*
X169959Y295676D01*
Y291928D01*
X166210D01*
X164960Y293177D01*
X166210Y294427D01*
X169959D01*
X172458Y291928D02*
Y296926D01*
X173708D01*
X174957Y295676D01*
Y291928D01*
Y295676D01*
X176207Y296926D01*
X177456Y295676D01*
Y291928D01*
X183704D02*
X181205D01*
X179956Y293177D01*
Y295676D01*
X181205Y296926D01*
X183704D01*
X184954Y295676D01*
Y294427D01*
X179956D01*
X157463Y164425D02*
Y156927D01*
X161212D01*
X162461Y158177D01*
Y159427D01*
X161212Y160676D01*
X157463D01*
X161212D01*
X162461Y161926D01*
Y163176D01*
X161212Y164425D01*
X157463D01*
X166210Y156927D02*
X168709D01*
X169959Y158177D01*
Y160676D01*
X168709Y161926D01*
X166210D01*
X164960Y160676D01*
Y158177D01*
X166210Y156927D01*
X173708Y163176D02*
Y161926D01*
X172458D01*
X174957D01*
X173708D01*
Y158177D01*
X174957Y156927D01*
X179956Y163176D02*
Y161926D01*
X178706D01*
X181205D01*
X179956D01*
Y158177D01*
X181205Y156927D01*
X186204D02*
X188703D01*
X189952Y158177D01*
Y160676D01*
X188703Y161926D01*
X186204D01*
X184954Y160676D01*
Y158177D01*
X186204Y156927D01*
X192452D02*
Y161926D01*
X193701D01*
X194951Y160676D01*
Y156927D01*
Y160676D01*
X196200Y161926D01*
X197450Y160676D01*
Y156927D01*
X212445Y163176D02*
X211196Y164425D01*
X208696D01*
X207447Y163176D01*
Y161926D01*
X208696Y160676D01*
X211196D01*
X212445Y159427D01*
Y158177D01*
X211196Y156927D01*
X208696D01*
X207447Y158177D01*
X216194Y156927D02*
X218693D01*
X219943Y158177D01*
Y160676D01*
X218693Y161926D01*
X216194D01*
X214944Y160676D01*
Y158177D01*
X216194Y156927D01*
X222442D02*
X224941D01*
X223692D01*
Y164425D01*
X222442D01*
X233688D02*
Y156927D01*
X229940D01*
X228690Y158177D01*
Y160676D01*
X229940Y161926D01*
X233688D01*
X239936Y156927D02*
X237437D01*
X236188Y158177D01*
Y160676D01*
X237437Y161926D01*
X239936D01*
X241186Y160676D01*
Y159427D01*
X236188D01*
X243685Y161926D02*
Y156927D01*
Y159427D01*
X244935Y160676D01*
X246184Y161926D01*
X247434D01*
X157463Y179425D02*
Y171928D01*
X161212D01*
X162461Y173177D01*
Y174427D01*
X161212Y175676D01*
X157463D01*
X161212D01*
X162461Y176926D01*
Y178176D01*
X161212Y179425D01*
X157463D01*
X166210Y171928D02*
X168709D01*
X169959Y173177D01*
Y175676D01*
X168709Y176926D01*
X166210D01*
X164960Y175676D01*
Y173177D01*
X166210Y171928D01*
X173708Y178176D02*
Y176926D01*
X172458D01*
X174957D01*
X173708D01*
Y173177D01*
X174957Y171928D01*
X179956Y178176D02*
Y176926D01*
X178706D01*
X181205D01*
X179956D01*
Y173177D01*
X181205Y171928D01*
X186204D02*
X188703D01*
X189952Y173177D01*
Y175676D01*
X188703Y176926D01*
X186204D01*
X184954Y175676D01*
Y173177D01*
X186204Y171928D01*
X192452D02*
Y176926D01*
X193701D01*
X194951Y175676D01*
Y171928D01*
Y175676D01*
X196200Y176926D01*
X197450Y175676D01*
Y171928D01*
X207447D02*
X209946D01*
X208696D01*
Y179425D01*
X207447D01*
X214944Y176926D02*
X217444D01*
X218693Y175676D01*
Y171928D01*
X214944D01*
X213695Y173177D01*
X214944Y174427D01*
X218693D01*
X221192Y176926D02*
Y173177D01*
X222442Y171928D01*
X226191D01*
Y170678D01*
X224941Y169428D01*
X223692D01*
X226191Y171928D02*
Y176926D01*
X232439Y171928D02*
X229940D01*
X228690Y173177D01*
Y175676D01*
X229940Y176926D01*
X232439D01*
X233688Y175676D01*
Y174427D01*
X228690D01*
X236188Y176926D02*
Y171928D01*
Y174427D01*
X237437Y175676D01*
X238687Y176926D01*
X239936D01*
X157463Y194425D02*
Y186928D01*
X161212D01*
X162461Y188177D01*
Y193176D01*
X161212Y194425D01*
X157463D01*
X164960Y186928D02*
X167460D01*
X166210D01*
Y191926D01*
X164960D01*
X174957Y186928D02*
X172458D01*
X171208Y188177D01*
Y190676D01*
X172458Y191926D01*
X174957D01*
X176207Y190676D01*
Y189427D01*
X171208D01*
X178706Y186928D02*
X181205D01*
X179956D01*
Y194425D01*
X178706D01*
X188703Y186928D02*
X186204D01*
X184954Y188177D01*
Y190676D01*
X186204Y191926D01*
X188703D01*
X189952Y190676D01*
Y189427D01*
X184954D01*
X197450Y191926D02*
X193701D01*
X192452Y190676D01*
Y188177D01*
X193701Y186928D01*
X197450D01*
X201199Y193176D02*
Y191926D01*
X199949D01*
X202448D01*
X201199D01*
Y188177D01*
X202448Y186928D01*
X206197Y191926D02*
Y186928D01*
Y189427D01*
X207447Y190676D01*
X208696Y191926D01*
X209946D01*
X213695Y186928D02*
X216194D01*
X214944D01*
Y191926D01*
X213695D01*
X224941D02*
X221192D01*
X219943Y190676D01*
Y188177D01*
X221192Y186928D01*
X224941D01*
X239936D02*
X234938D01*
X239936Y191926D01*
Y193176D01*
X238687Y194425D01*
X236188D01*
X234938Y193176D01*
X157463Y201928D02*
Y206926D01*
X159962Y209425D01*
X162461Y206926D01*
Y201928D01*
Y205676D01*
X157463D01*
X169959Y209425D02*
Y201928D01*
X166210D01*
X164960Y203177D01*
Y205676D01*
X166210Y206926D01*
X169959D01*
X172458Y209425D02*
Y201928D01*
Y205676D01*
X173708Y206926D01*
X176207D01*
X177456Y205676D01*
Y201928D01*
X183704D02*
X181205D01*
X179956Y203177D01*
Y205676D01*
X181205Y206926D01*
X183704D01*
X184954Y205676D01*
Y204427D01*
X179956D01*
X187453Y201928D02*
X191202D01*
X192452Y203177D01*
X191202Y204427D01*
X188703D01*
X187453Y205676D01*
X188703Y206926D01*
X192452D01*
X194951Y201928D02*
X197450D01*
X196200D01*
Y206926D01*
X194951D01*
X201199D02*
X203698Y201928D01*
X206197Y206926D01*
X212445Y201928D02*
X209946D01*
X208696Y203177D01*
Y205676D01*
X209946Y206926D01*
X212445D01*
X213695Y205676D01*
Y204427D01*
X208696D01*
X228690Y201928D02*
X223692D01*
X228690Y206926D01*
Y208176D01*
X227440Y209425D01*
X224941D01*
X223692Y208176D01*
X162461Y223176D02*
X161212Y224425D01*
X158713D01*
X157463Y223176D01*
Y218177D01*
X158713Y216928D01*
X161212D01*
X162461Y218177D01*
Y220676D01*
X159962D01*
X164960Y216928D02*
Y224425D01*
X169959Y216928D01*
Y224425D01*
X172458D02*
Y216928D01*
X176207D01*
X177456Y218177D01*
Y223176D01*
X176207Y224425D01*
X172458D01*
X157463Y231928D02*
Y236926D01*
X159962Y239425D01*
X162461Y236926D01*
Y231928D01*
Y235676D01*
X157463D01*
X169959Y239425D02*
Y231928D01*
X166210D01*
X164960Y233177D01*
Y235676D01*
X166210Y236926D01*
X169959D01*
X172458Y239425D02*
Y231928D01*
Y235676D01*
X173708Y236926D01*
X176207D01*
X177456Y235676D01*
Y231928D01*
X183704D02*
X181205D01*
X179956Y233177D01*
Y235676D01*
X181205Y236926D01*
X183704D01*
X184954Y235676D01*
Y234427D01*
X179956D01*
X187453Y231928D02*
X191202D01*
X192452Y233177D01*
X191202Y234427D01*
X188703D01*
X187453Y235676D01*
X188703Y236926D01*
X192452D01*
X194951Y231928D02*
X197450D01*
X196200D01*
Y236926D01*
X194951D01*
X201199D02*
X203698Y231928D01*
X206197Y236926D01*
X212445Y231928D02*
X209946D01*
X208696Y233177D01*
Y235676D01*
X209946Y236926D01*
X212445D01*
X213695Y235676D01*
Y234427D01*
X208696D01*
X223692Y231928D02*
X226191D01*
X224941D01*
Y239425D01*
X223692Y238176D01*
X157463Y254425D02*
Y246928D01*
X161212D01*
X162461Y248177D01*
Y253176D01*
X161212Y254425D01*
X157463D01*
X164960Y246928D02*
X167460D01*
X166210D01*
Y251926D01*
X164960D01*
X174957Y246928D02*
X172458D01*
X171208Y248177D01*
Y250676D01*
X172458Y251926D01*
X174957D01*
X176207Y250676D01*
Y249427D01*
X171208D01*
X178706Y246928D02*
X181205D01*
X179956D01*
Y254425D01*
X178706D01*
X188703Y246928D02*
X186204D01*
X184954Y248177D01*
Y250676D01*
X186204Y251926D01*
X188703D01*
X189952Y250676D01*
Y249427D01*
X184954D01*
X197450Y251926D02*
X193701D01*
X192452Y250676D01*
Y248177D01*
X193701Y246928D01*
X197450D01*
X201199Y253176D02*
Y251926D01*
X199949D01*
X202448D01*
X201199D01*
Y248177D01*
X202448Y246928D01*
X206197Y251926D02*
Y246928D01*
Y249427D01*
X207447Y250676D01*
X208696Y251926D01*
X209946D01*
X213695Y246928D02*
X216194D01*
X214944D01*
Y251926D01*
X213695D01*
X224941D02*
X221192D01*
X219943Y250676D01*
Y248177D01*
X221192Y246928D01*
X224941D01*
X234938D02*
X237437D01*
X236188D01*
Y254425D01*
X234938Y253176D01*
X157463Y269425D02*
X162461D01*
X159962D01*
Y261928D01*
X166210D02*
X168709D01*
X169959Y263177D01*
Y265676D01*
X168709Y266926D01*
X166210D01*
X164960Y265676D01*
Y263177D01*
X166210Y261928D01*
X172458Y259428D02*
Y266926D01*
X176207D01*
X177456Y265676D01*
Y263177D01*
X176207Y261928D01*
X172458D01*
X187453Y269425D02*
Y261928D01*
X192452D01*
X196200Y266926D02*
X198700D01*
X199949Y265676D01*
Y261928D01*
X196200D01*
X194951Y263177D01*
X196200Y264427D01*
X199949D01*
X202448Y266926D02*
Y263177D01*
X203698Y261928D01*
X207447D01*
Y260678D01*
X206197Y259428D01*
X204948D01*
X207447Y261928D02*
Y266926D01*
X213695Y261928D02*
X211196D01*
X209946Y263177D01*
Y265676D01*
X211196Y266926D01*
X213695D01*
X214944Y265676D01*
Y264427D01*
X209946D01*
X217444Y266926D02*
Y261928D01*
Y264427D01*
X218693Y265676D01*
X219943Y266926D01*
X221192D01*
X162461Y284425D02*
X157463D01*
Y280676D01*
X159962D01*
X157463D01*
Y276928D01*
X166210D02*
X168709D01*
X169959Y278177D01*
Y280676D01*
X168709Y281926D01*
X166210D01*
X164960Y280676D01*
Y278177D01*
X166210Y276928D01*
X173708Y283176D02*
Y281926D01*
X172458D01*
X174957D01*
X173708D01*
Y278177D01*
X174957Y276928D01*
X179956D02*
X182455D01*
X183704Y278177D01*
Y280676D01*
X182455Y281926D01*
X179956D01*
X178706Y280676D01*
Y278177D01*
X179956Y276928D01*
X186204D02*
X188703D01*
X187453D01*
Y284425D01*
X186204D01*
X193701Y281926D02*
X196200D01*
X197450Y280676D01*
Y276928D01*
X193701D01*
X192452Y278177D01*
X193701Y279427D01*
X197450D01*
X204948Y281926D02*
X201199D01*
X199949Y280676D01*
Y278177D01*
X201199Y276928D01*
X204948D01*
X207447D02*
Y284425D01*
Y279427D02*
X211196Y281926D01*
X207447Y279427D02*
X211196Y276928D01*
X267514Y291928D02*
Y299425D01*
X270013Y296926D01*
X272512Y299425D01*
Y291928D01*
X276261Y296926D02*
X278760D01*
X280010Y295676D01*
Y291928D01*
X276261D01*
X275012Y293177D01*
X276261Y294427D01*
X280010D01*
X283759Y298176D02*
Y296926D01*
X282509D01*
X285008D01*
X283759D01*
Y293177D01*
X285008Y291928D01*
X292506D02*
X290007D01*
X288757Y293177D01*
Y295676D01*
X290007Y296926D01*
X292506D01*
X293756Y295676D01*
Y294427D01*
X288757D01*
X296255Y296926D02*
Y291928D01*
Y294427D01*
X297504Y295676D01*
X298754Y296926D01*
X300004D01*
X303752Y291928D02*
X306252D01*
X305002D01*
Y296926D01*
X303752D01*
X311250D02*
X313749D01*
X314999Y295676D01*
Y291928D01*
X311250D01*
X310000Y293177D01*
X311250Y294427D01*
X314999D01*
X317498Y291928D02*
X319997D01*
X318748D01*
Y299425D01*
X317498D01*
X272512Y163176D02*
X271263Y164425D01*
X268764D01*
X267514Y163176D01*
Y161926D01*
X268764Y160676D01*
X271263D01*
X272512Y159427D01*
Y158177D01*
X271263Y156927D01*
X268764D01*
X267514Y158177D01*
X276261Y156927D02*
X278760D01*
X280010Y158177D01*
Y160676D01*
X278760Y161926D01*
X276261D01*
X275012Y160676D01*
Y158177D01*
X276261Y156927D01*
X282509D02*
X285008D01*
X283759D01*
Y164425D01*
X282509D01*
X293756D02*
Y156927D01*
X290007D01*
X288757Y158177D01*
Y160676D01*
X290007Y161926D01*
X293756D01*
X300004Y156927D02*
X297504D01*
X296255Y158177D01*
Y160676D01*
X297504Y161926D01*
X300004D01*
X301253Y160676D01*
Y159427D01*
X296255D01*
X303752Y161926D02*
Y156927D01*
Y159427D01*
X305002Y160676D01*
X306252Y161926D01*
X307501D01*
X318748Y156927D02*
Y164425D01*
X322496D01*
X323746Y163176D01*
Y160676D01*
X322496Y159427D01*
X318748D01*
X321247D02*
X323746Y156927D01*
X329994D02*
X327495D01*
X326245Y158177D01*
Y160676D01*
X327495Y161926D01*
X329994D01*
X331244Y160676D01*
Y159427D01*
X326245D01*
X333743Y156927D02*
X337492D01*
X338741Y158177D01*
X337492Y159427D01*
X334992D01*
X333743Y160676D01*
X334992Y161926D01*
X338741D01*
X341240Y156927D02*
X343740D01*
X342490D01*
Y161926D01*
X341240D01*
X347488Y156927D02*
X351237D01*
X352487Y158177D01*
X351237Y159427D01*
X348738D01*
X347488Y160676D01*
X348738Y161926D01*
X352487D01*
X356236Y163176D02*
Y161926D01*
X354986D01*
X357485D01*
X356236D01*
Y158177D01*
X357485Y156927D01*
X272512Y178176D02*
X271263Y179425D01*
X268764D01*
X267514Y178176D01*
Y173177D01*
X268764Y171928D01*
X271263D01*
X272512Y173177D01*
X276261Y171928D02*
X278760D01*
X280010Y173177D01*
Y175676D01*
X278760Y176926D01*
X276261D01*
X275012Y175676D01*
Y173177D01*
X276261Y171928D01*
X282509Y169428D02*
Y176926D01*
X286258D01*
X287508Y175676D01*
Y173177D01*
X286258Y171928D01*
X282509D01*
X290007Y169428D02*
Y176926D01*
X293756D01*
X295005Y175676D01*
Y173177D01*
X293756Y171928D01*
X290007D01*
X301253D02*
X298754D01*
X297504Y173177D01*
Y175676D01*
X298754Y176926D01*
X301253D01*
X302503Y175676D01*
Y174427D01*
X297504D01*
X305002Y176926D02*
Y171928D01*
Y174427D01*
X306252Y175676D01*
X307501Y176926D01*
X308751D01*
X272512Y194425D02*
X267514D01*
Y190676D01*
X270013D01*
X267514D01*
Y186928D01*
X275012D02*
Y194425D01*
X278760D01*
X280010Y193176D01*
Y190676D01*
X278760Y189427D01*
X275012D01*
X277511D02*
X280010Y186928D01*
X282509Y190676D02*
X287508D01*
X293756Y186928D02*
Y194425D01*
X290007Y190676D01*
X295005D01*
X272512Y223176D02*
X271263Y224425D01*
X268764D01*
X267514Y223176D01*
Y218177D01*
X268764Y216928D01*
X271263D01*
X272512Y218177D01*
X276261Y216928D02*
X278760D01*
X280010Y218177D01*
Y220676D01*
X278760Y221926D01*
X276261D01*
X275012Y220676D01*
Y218177D01*
X276261Y216928D01*
X282509Y214428D02*
Y221926D01*
X286258D01*
X287508Y220676D01*
Y218177D01*
X286258Y216928D01*
X282509D01*
X290007Y214428D02*
Y221926D01*
X293756D01*
X295005Y220676D01*
Y218177D01*
X293756Y216928D01*
X290007D01*
X301253D02*
X298754D01*
X297504Y218177D01*
Y220676D01*
X298754Y221926D01*
X301253D01*
X302503Y220676D01*
Y219427D01*
X297504D01*
X305002Y221926D02*
Y216928D01*
Y219427D01*
X306252Y220676D01*
X307501Y221926D01*
X308751D01*
X272512Y254425D02*
X267514D01*
Y250676D01*
X270013D01*
X267514D01*
Y246928D01*
X275012D02*
Y254425D01*
X278760D01*
X280010Y253176D01*
Y250676D01*
X278760Y249427D01*
X275012D01*
X277511D02*
X280010Y246928D01*
X282509Y250676D02*
X287508D01*
X293756Y246928D02*
Y254425D01*
X290007Y250676D01*
X295005D01*
X272512Y268176D02*
X271263Y269425D01*
X268764D01*
X267514Y268176D01*
Y263177D01*
X268764Y261928D01*
X271263D01*
X272512Y263177D01*
X276261Y261928D02*
X278760D01*
X280010Y263177D01*
Y265676D01*
X278760Y266926D01*
X276261D01*
X275012Y265676D01*
Y263177D01*
X276261Y261928D01*
X282509Y259428D02*
Y266926D01*
X286258D01*
X287508Y265676D01*
Y263177D01*
X286258Y261928D01*
X282509D01*
X290007Y259428D02*
Y266926D01*
X293756D01*
X295005Y265676D01*
Y263177D01*
X293756Y261928D01*
X290007D01*
X301253D02*
X298754D01*
X297504Y263177D01*
Y265676D01*
X298754Y266926D01*
X301253D01*
X302503Y265676D01*
Y264427D01*
X297504D01*
X305002Y266926D02*
Y261928D01*
Y264427D01*
X306252Y265676D01*
X307501Y266926D01*
X308751D01*
X272512Y283176D02*
X271263Y284425D01*
X268764D01*
X267514Y283176D01*
Y281926D01*
X268764Y280676D01*
X271263D01*
X272512Y279427D01*
Y278177D01*
X271263Y276928D01*
X268764D01*
X267514Y278177D01*
X276261Y276928D02*
X278760D01*
X280010Y278177D01*
Y280676D01*
X278760Y281926D01*
X276261D01*
X275012Y280676D01*
Y278177D01*
X276261Y276928D01*
X282509D02*
X285008D01*
X283759D01*
Y284425D01*
X282509D01*
X293756D02*
Y276928D01*
X290007D01*
X288757Y278177D01*
Y280676D01*
X290007Y281926D01*
X293756D01*
X300004Y276928D02*
X297504D01*
X296255Y278177D01*
Y280676D01*
X297504Y281926D01*
X300004D01*
X301253Y280676D01*
Y279427D01*
X296255D01*
X303752Y281926D02*
Y276928D01*
Y279427D01*
X305002Y280676D01*
X306252Y281926D01*
X307501D01*
X318748Y276928D02*
Y284425D01*
X322496D01*
X323746Y283176D01*
Y280676D01*
X322496Y279427D01*
X318748D01*
X321247D02*
X323746Y276928D01*
X329994D02*
X327495D01*
X326245Y278177D01*
Y280676D01*
X327495Y281926D01*
X329994D01*
X331244Y280676D01*
Y279427D01*
X326245D01*
X333743Y276928D02*
X337492D01*
X338741Y278177D01*
X337492Y279427D01*
X334992D01*
X333743Y280676D01*
X334992Y281926D01*
X338741D01*
X341240Y276928D02*
X343740D01*
X342490D01*
Y281926D01*
X341240D01*
X347488Y276928D02*
X351237D01*
X352487Y278177D01*
X351237Y279427D01*
X348738D01*
X347488Y280676D01*
X348738Y281926D01*
X352487D01*
X356236Y283176D02*
Y281926D01*
X354986D01*
X357485D01*
X356236D01*
Y278177D01*
X357485Y276928D01*
X377565Y299425D02*
X382564D01*
X380064D01*
Y291928D01*
X385063Y299425D02*
Y291928D01*
Y295676D01*
X386312Y296926D01*
X388812D01*
X390061Y295676D01*
Y291928D01*
X392560D02*
X395060D01*
X393810D01*
Y296926D01*
X392560D01*
X403807D02*
X400058D01*
X398808Y295676D01*
Y293177D01*
X400058Y291928D01*
X403807D01*
X406306D02*
Y299425D01*
Y294427D02*
X410055Y296926D01*
X406306Y294427D02*
X410055Y291928D01*
X413804D02*
Y296926D01*
X417552D01*
X418802Y295676D01*
Y291928D01*
X425050D02*
X422551D01*
X421301Y293177D01*
Y295676D01*
X422551Y296926D01*
X425050D01*
X426300Y295676D01*
Y294427D01*
X421301D01*
X428799Y291928D02*
X432548D01*
X433797Y293177D01*
X432548Y294427D01*
X430048D01*
X428799Y295676D01*
X430048Y296926D01*
X433797D01*
X436296Y291928D02*
X440045D01*
X441295Y293177D01*
X440045Y294427D01*
X437546D01*
X436296Y295676D01*
X437546Y296926D01*
X441295D01*
X377565Y178176D02*
X378815Y179425D01*
X381314D01*
X382564Y178176D01*
Y173177D01*
X381314Y171928D01*
X378815D01*
X377565Y173177D01*
Y178176D01*
X385063Y171928D02*
Y173177D01*
X386312D01*
Y171928D01*
X385063D01*
X391311Y178176D02*
X392560Y179425D01*
X395060D01*
X396309Y178176D01*
Y173177D01*
X395060Y171928D01*
X392560D01*
X391311Y173177D01*
Y178176D01*
X398808Y171928D02*
X401308D01*
X400058D01*
Y179425D01*
X398808Y178176D01*
X410055Y171928D02*
X405056D01*
X410055Y176926D01*
Y178176D01*
X408805Y179425D01*
X406306D01*
X405056Y178176D01*
X412554Y171928D02*
Y176926D01*
X413804D01*
X415053Y175676D01*
Y171928D01*
Y175676D01*
X416303Y176926D01*
X417552Y175676D01*
Y171928D01*
X420052D02*
Y176926D01*
X421301D01*
X422551Y175676D01*
Y171928D01*
Y175676D01*
X423800Y176926D01*
X425050Y175676D01*
Y171928D01*
X377565Y193176D02*
X378815Y194425D01*
X381314D01*
X382564Y193176D01*
Y188177D01*
X381314Y186928D01*
X378815D01*
X377565Y188177D01*
Y193176D01*
X385063Y186928D02*
Y188177D01*
X386312D01*
Y186928D01*
X385063D01*
X391311Y193176D02*
X392560Y194425D01*
X395060D01*
X396309Y193176D01*
Y188177D01*
X395060Y186928D01*
X392560D01*
X391311Y188177D01*
Y193176D01*
X403807Y186928D02*
X398808D01*
X403807Y191926D01*
Y193176D01*
X402557Y194425D01*
X400058D01*
X398808Y193176D01*
X411304Y186928D02*
X406306D01*
X411304Y191926D01*
Y193176D01*
X410055Y194425D01*
X407556D01*
X406306Y193176D01*
X413804Y186928D02*
Y191926D01*
X415053D01*
X416303Y190676D01*
Y186928D01*
Y190676D01*
X417552Y191926D01*
X418802Y190676D01*
Y186928D01*
X421301D02*
Y191926D01*
X422551D01*
X423800Y190676D01*
Y186928D01*
Y190676D01*
X425050Y191926D01*
X426300Y190676D01*
Y186928D01*
X377565Y208176D02*
X378815Y209425D01*
X381314D01*
X382564Y208176D01*
Y203177D01*
X381314Y201928D01*
X378815D01*
X377565Y203177D01*
Y208176D01*
X385063Y201928D02*
Y203177D01*
X386312D01*
Y201928D01*
X385063D01*
X391311Y208176D02*
X392560Y209425D01*
X395060D01*
X396309Y208176D01*
Y203177D01*
X395060Y201928D01*
X392560D01*
X391311Y203177D01*
Y208176D01*
X403807Y201928D02*
X398808D01*
X403807Y206926D01*
Y208176D01*
X402557Y209425D01*
X400058D01*
X398808Y208176D01*
X411304Y209425D02*
X406306D01*
Y205676D01*
X408805Y206926D01*
X410055D01*
X411304Y205676D01*
Y203177D01*
X410055Y201928D01*
X407556D01*
X406306Y203177D01*
X413804Y201928D02*
Y206926D01*
X415053D01*
X416303Y205676D01*
Y201928D01*
Y205676D01*
X417552Y206926D01*
X418802Y205676D01*
Y201928D01*
X421301D02*
Y206926D01*
X422551D01*
X423800Y205676D01*
Y201928D01*
Y205676D01*
X425050Y206926D01*
X426300Y205676D01*
Y201928D01*
X377565Y223176D02*
X378815Y224425D01*
X381314D01*
X382564Y223176D01*
Y218177D01*
X381314Y216928D01*
X378815D01*
X377565Y218177D01*
Y223176D01*
X385063Y216928D02*
Y218177D01*
X386312D01*
Y216928D01*
X385063D01*
X391311Y223176D02*
X392560Y224425D01*
X395060D01*
X396309Y223176D01*
Y218177D01*
X395060Y216928D01*
X392560D01*
X391311Y218177D01*
Y223176D01*
X398808Y216928D02*
X401308D01*
X400058D01*
Y224425D01*
X398808Y223176D01*
X410055Y216928D02*
X405056D01*
X410055Y221926D01*
Y223176D01*
X408805Y224425D01*
X406306D01*
X405056Y223176D01*
X412554Y216928D02*
Y221926D01*
X413804D01*
X415053Y220676D01*
Y216928D01*
Y220676D01*
X416303Y221926D01*
X417552Y220676D01*
Y216928D01*
X420052D02*
Y221926D01*
X421301D01*
X422551Y220676D01*
Y216928D01*
Y220676D01*
X423800Y221926D01*
X425050Y220676D01*
Y216928D01*
X377565Y238176D02*
X378815Y239425D01*
X381314D01*
X382564Y238176D01*
Y233177D01*
X381314Y231928D01*
X378815D01*
X377565Y233177D01*
Y238176D01*
X385063Y231928D02*
Y233177D01*
X386312D01*
Y231928D01*
X385063D01*
X391311Y238176D02*
X392560Y239425D01*
X395060D01*
X396309Y238176D01*
Y233177D01*
X395060Y231928D01*
X392560D01*
X391311Y233177D01*
Y238176D01*
X403807Y231928D02*
X398808D01*
X403807Y236926D01*
Y238176D01*
X402557Y239425D01*
X400058D01*
X398808Y238176D01*
X411304Y239425D02*
X406306D01*
Y235676D01*
X408805Y236926D01*
X410055D01*
X411304Y235676D01*
Y233177D01*
X410055Y231928D01*
X407556D01*
X406306Y233177D01*
X413804Y231928D02*
Y236926D01*
X415053D01*
X416303Y235676D01*
Y231928D01*
Y235676D01*
X417552Y236926D01*
X418802Y235676D01*
Y231928D01*
X421301D02*
Y236926D01*
X422551D01*
X423800Y235676D01*
Y231928D01*
Y235676D01*
X425050Y236926D01*
X426300Y235676D01*
Y231928D01*
X377565Y253176D02*
X378815Y254425D01*
X381314D01*
X382564Y253176D01*
Y248177D01*
X381314Y246928D01*
X378815D01*
X377565Y248177D01*
Y253176D01*
X385063Y246928D02*
Y248177D01*
X386312D01*
Y246928D01*
X385063D01*
X391311Y253176D02*
X392560Y254425D01*
X395060D01*
X396309Y253176D01*
Y248177D01*
X395060Y246928D01*
X392560D01*
X391311Y248177D01*
Y253176D01*
X403807Y246928D02*
X398808D01*
X403807Y251926D01*
Y253176D01*
X402557Y254425D01*
X400058D01*
X398808Y253176D01*
X411304Y246928D02*
X406306D01*
X411304Y251926D01*
Y253176D01*
X410055Y254425D01*
X407556D01*
X406306Y253176D01*
X413804Y246928D02*
Y251926D01*
X415053D01*
X416303Y250676D01*
Y246928D01*
Y250676D01*
X417552Y251926D01*
X418802Y250676D01*
Y246928D01*
X421301D02*
Y251926D01*
X422551D01*
X423800Y250676D01*
Y246928D01*
Y250676D01*
X425050Y251926D01*
X426300Y250676D01*
Y246928D01*
X377565Y268176D02*
X378815Y269425D01*
X381314D01*
X382564Y268176D01*
Y263177D01*
X381314Y261928D01*
X378815D01*
X377565Y263177D01*
Y268176D01*
X385063Y261928D02*
Y263177D01*
X386312D01*
Y261928D01*
X385063D01*
X391311Y268176D02*
X392560Y269425D01*
X395060D01*
X396309Y268176D01*
Y263177D01*
X395060Y261928D01*
X392560D01*
X391311Y263177D01*
Y268176D01*
X398808Y261928D02*
X401308D01*
X400058D01*
Y269425D01*
X398808Y268176D01*
X410055Y261928D02*
X405056D01*
X410055Y266926D01*
Y268176D01*
X408805Y269425D01*
X406306D01*
X405056Y268176D01*
X412554Y261928D02*
Y266926D01*
X413804D01*
X415053Y265676D01*
Y261928D01*
Y265676D01*
X416303Y266926D01*
X417552Y265676D01*
Y261928D01*
X420052D02*
Y266926D01*
X421301D01*
X422551Y265676D01*
Y261928D01*
Y265676D01*
X423800Y266926D01*
X425050Y265676D01*
Y261928D01*
X466373Y298176D02*
X465124Y299425D01*
X462624D01*
X461375Y298176D01*
Y293177D01*
X462624Y291928D01*
X465124D01*
X466373Y293177D01*
X470122Y291928D02*
X472621D01*
X473871Y293177D01*
Y295676D01*
X472621Y296926D01*
X470122D01*
X468872Y295676D01*
Y293177D01*
X470122Y291928D01*
X476370D02*
Y296926D01*
X480119D01*
X481368Y295676D01*
Y291928D01*
X483868D02*
X487616D01*
X488866Y293177D01*
X487616Y294427D01*
X485117D01*
X483868Y295676D01*
X485117Y296926D01*
X488866D01*
X492615Y298176D02*
Y296926D01*
X491365D01*
X493864D01*
X492615D01*
Y293177D01*
X493864Y291928D01*
X498863Y296926D02*
X501362D01*
X502612Y295676D01*
Y291928D01*
X498863D01*
X497613Y293177D01*
X498863Y294427D01*
X502612D01*
X505111Y291928D02*
Y296926D01*
X508860D01*
X510109Y295676D01*
Y291928D01*
X513858Y298176D02*
Y296926D01*
X512608D01*
X515108D01*
X513858D01*
Y293177D01*
X515108Y291928D01*
X461375Y163176D02*
X462624Y164425D01*
X465124D01*
X466373Y163176D01*
Y161926D01*
X465124Y160676D01*
X463874D01*
X465124D01*
X466373Y159427D01*
Y158177D01*
X465124Y156927D01*
X462624D01*
X461375Y158177D01*
X468872Y156927D02*
Y158177D01*
X470122D01*
Y156927D01*
X468872D01*
X480119Y164425D02*
X475120D01*
Y160676D01*
X477620Y161926D01*
X478869D01*
X480119Y160676D01*
Y158177D01*
X478869Y156927D01*
X476370D01*
X475120Y158177D01*
X465124Y186928D02*
Y194425D01*
X461375Y190676D01*
X466373D01*
X468872Y186928D02*
Y188177D01*
X470122D01*
Y186928D01*
X468872D01*
X480119D02*
X475120D01*
X480119Y191926D01*
Y193176D01*
X478869Y194425D01*
X476370D01*
X475120Y193176D01*
X465124Y201928D02*
Y209425D01*
X461375Y205676D01*
X466373D01*
X468872Y201928D02*
Y203177D01*
X470122D01*
Y201928D01*
X468872D01*
X480119D02*
X475120D01*
X480119Y206926D01*
Y208176D01*
X478869Y209425D01*
X476370D01*
X475120Y208176D01*
X465124Y231928D02*
Y239425D01*
X461375Y235676D01*
X466373D01*
X468872Y231928D02*
Y233177D01*
X470122D01*
Y231928D01*
X468872D01*
X480119D02*
X475120D01*
X480119Y236926D01*
Y238176D01*
X478869Y239425D01*
X476370D01*
X475120Y238176D01*
X465124Y246928D02*
Y254425D01*
X461375Y250676D01*
X466373D01*
X468872Y246928D02*
Y248177D01*
X470122D01*
Y246928D01*
X468872D01*
X480119D02*
X475120D01*
X480119Y251926D01*
Y253176D01*
X478869Y254425D01*
X476370D01*
X475120Y253176D01*
X461375Y283176D02*
X462624Y284425D01*
X465124D01*
X466373Y283176D01*
Y281926D01*
X465124Y280676D01*
X463874D01*
X465124D01*
X466373Y279427D01*
Y278177D01*
X465124Y276928D01*
X462624D01*
X461375Y278177D01*
X468872Y276928D02*
Y278177D01*
X470122D01*
Y276928D01*
X468872D01*
X480119Y284425D02*
X475120D01*
Y280676D01*
X477620Y281926D01*
X478869D01*
X480119Y280676D01*
Y278177D01*
X478869Y276928D01*
X476370D01*
X475120Y278177D01*
X535188Y291928D02*
X537687D01*
X536437D01*
Y296926D01*
X535188D01*
X541436Y291928D02*
Y296926D01*
X545184D01*
X546434Y295676D01*
Y291928D01*
X550183Y298176D02*
Y296926D01*
X548933D01*
X551432D01*
X550183D01*
Y293177D01*
X551432Y291928D01*
X556431Y296926D02*
X558930D01*
X560180Y295676D01*
Y291928D01*
X556431D01*
X555181Y293177D01*
X556431Y294427D01*
X560180D01*
X562679Y291928D02*
Y296926D01*
X566428D01*
X567677Y295676D01*
Y291928D01*
X602752D02*
X605252D01*
X606501Y293177D01*
Y295676D01*
X605252Y296926D01*
X602752D01*
X601503Y295676D01*
Y293177D01*
X602752Y291928D01*
X609000D02*
Y296926D01*
X610250D01*
X611500Y295676D01*
Y291928D01*
Y295676D01*
X612749Y296926D01*
X613999Y295676D01*
Y291928D01*
X616498D02*
Y296926D01*
X620247D01*
X621496Y295676D01*
Y291928D01*
X627744D02*
X625245D01*
X623996Y293177D01*
Y295676D01*
X625245Y296926D01*
X627744D01*
X628994Y295676D01*
Y294427D01*
X623996D01*
X632743Y298176D02*
Y296926D01*
X631493D01*
X633992D01*
X632743D01*
Y293177D01*
X633992Y291928D01*
X637741Y295676D02*
X642740D01*
X645239Y291928D02*
X647738D01*
X646488D01*
Y296926D01*
X645239D01*
X651487Y291928D02*
Y296926D01*
X655236D01*
X656485Y295676D01*
Y291928D01*
X660234Y298176D02*
Y296926D01*
X658984D01*
X661484D01*
X660234D01*
Y293177D01*
X661484Y291928D01*
X666482Y296926D02*
X668981D01*
X670231Y295676D01*
Y291928D01*
X666482D01*
X665232Y293177D01*
X666482Y294427D01*
X670231D01*
X672730Y291928D02*
Y296926D01*
X676479D01*
X677728Y295676D01*
Y291928D01*
X697808D02*
X700308D01*
X699058D01*
Y296926D01*
X697808D01*
X704056Y291928D02*
Y296926D01*
X707805D01*
X709055Y295676D01*
Y291928D01*
X712804Y298176D02*
Y296926D01*
X711554D01*
X714053D01*
X712804D01*
Y293177D01*
X714053Y291928D01*
X719052Y296926D02*
X721551D01*
X722800Y295676D01*
Y291928D01*
X719052D01*
X717802Y293177D01*
X719052Y294427D01*
X722800D01*
X725300Y291928D02*
Y296926D01*
X729048D01*
X730298Y295676D01*
Y291928D01*
X732797Y295676D02*
X737795D01*
X745293Y299425D02*
Y291928D01*
X741544D01*
X740295Y293177D01*
Y295676D01*
X741544Y296926D01*
X745293D01*
X747792D02*
Y291928D01*
Y294427D01*
X749042Y295676D01*
X750292Y296926D01*
X751541D01*
X755290Y291928D02*
X757789D01*
X756540D01*
Y296926D01*
X755290D01*
X761538D02*
X764037Y291928D01*
X766536Y296926D01*
X772784Y291928D02*
X770285D01*
X769035Y293177D01*
Y295676D01*
X770285Y296926D01*
X772784D01*
X774034Y295676D01*
Y294427D01*
X769035D01*
D75*
X96144Y288178D02*
X786614D01*
X96144Y303178D02*
X786614D01*
X96144Y153177D02*
Y303178D01*
Y153177D02*
X149963D01*
X96144Y168178D02*
X149963D01*
X96144Y183178D02*
X149963D01*
X96144Y198178D02*
X149963D01*
X96144Y213178D02*
X149963D01*
X96144Y228178D02*
X149963D01*
X96144Y243178D02*
X149963D01*
X96144Y258178D02*
X149963D01*
X96144Y273178D02*
X149963D01*
Y153177D02*
Y303178D01*
Y153177D02*
X260014D01*
X149963Y168178D02*
X260014D01*
X149963Y183178D02*
X260014D01*
X149963Y198178D02*
X260014D01*
X149963Y213178D02*
X260014D01*
X149963Y228178D02*
X260014D01*
X149963Y243178D02*
X260014D01*
X149963Y258178D02*
X260014D01*
X149963Y273178D02*
X260014D01*
Y153177D02*
Y303178D01*
Y153177D02*
X370065D01*
X260014Y168178D02*
X370065D01*
X260014Y183178D02*
X370065D01*
X260014Y198178D02*
X370065D01*
X260014Y213178D02*
X370065D01*
X260014Y228178D02*
X370065D01*
X260014Y243178D02*
X370065D01*
X260014Y258178D02*
X370065D01*
X260014Y273178D02*
X370065D01*
Y153177D02*
Y303178D01*
Y153177D02*
X453875D01*
X370065Y168178D02*
X453875D01*
X370065Y183178D02*
X453875D01*
X370065Y198178D02*
X453875D01*
X370065Y213178D02*
X453875D01*
X370065Y228178D02*
X453875D01*
X370065Y243178D02*
X453875D01*
X370065Y258178D02*
X453875D01*
X370065Y273178D02*
X453875D01*
Y153177D02*
Y303178D01*
Y153177D02*
X527688D01*
X453875Y168178D02*
X527688D01*
X453875Y183178D02*
X527688D01*
X453875Y198178D02*
X527688D01*
X453875Y213178D02*
X527688D01*
X453875Y228178D02*
X527688D01*
X453875Y243178D02*
X527688D01*
X453875Y258178D02*
X527688D01*
X453875Y273178D02*
X527688D01*
Y153177D02*
Y303178D01*
Y153177D02*
X594003D01*
X527688Y168178D02*
X594003D01*
X527688Y183178D02*
X594003D01*
X527688Y198178D02*
X594003D01*
X527688Y213178D02*
X594003D01*
X527688Y228178D02*
X594003D01*
X527688Y243178D02*
X594003D01*
X527688Y258178D02*
X594003D01*
X527688Y273178D02*
X594003D01*
Y153177D02*
Y303178D01*
Y153177D02*
X690308D01*
X594003Y168178D02*
X690308D01*
X594003Y183178D02*
X690308D01*
X594003Y198178D02*
X690308D01*
X594003Y213178D02*
X690308D01*
X594003Y228178D02*
X690308D01*
X594003Y243178D02*
X690308D01*
X594003Y258178D02*
X690308D01*
X594003Y273178D02*
X690308D01*
Y153177D02*
Y303178D01*
Y153177D02*
X786614D01*
X690308Y168178D02*
X786614D01*
X690308Y183178D02*
X786614D01*
X690308Y198178D02*
X786614D01*
X690308Y213178D02*
X786614D01*
X690308Y228178D02*
X786614D01*
X690308Y243178D02*
X786614D01*
X690308Y258178D02*
X786614D01*
X690308Y273178D02*
X786614D01*
Y153177D02*
Y303178D01*
X134387Y8646D02*
Y9142D01*
X123730Y9142D02*
X134387Y9142D01*
X123730Y9142D02*
X123730Y5672D01*
X96144D02*
X123730D01*
X96144D02*
Y149428D01*
X187181D01*
Y5672D02*
Y149428D01*
X163386Y5672D02*
X187181D01*
X163386Y9142D02*
X163386Y5672D01*
X155951Y9142D02*
X163386Y9142D01*
X155951Y8646D02*
Y9142D01*
X134387Y8646D02*
X155951D01*
X187180Y21039D02*
X190155D01*
X187180D02*
Y134061D01*
X190155D01*
Y21039D02*
Y134061D01*
X190155D02*
X227333D01*
Y21039D02*
Y134061D01*
X190155Y21039D02*
X227333D01*
X190155D02*
Y134061D01*
X134387Y8646D02*
X134388Y-26153D01*
X134387Y8646D02*
X155951D01*
X155951Y-26153D02*
X155951Y8646D01*
X134388Y-26153D02*
X155951D01*
Y-26458D02*
Y-26152D01*
Y-26458D02*
X163775Y-34282D01*
X171368Y-34282D01*
Y-57284D02*
Y-34282D01*
X116344Y-57283D02*
X171368Y-57284D01*
X116344Y-57283D02*
Y-34282D01*
X126613Y-34282D01*
X134388Y-26507D01*
Y-26152D01*
X155951D01*
M02*
