G04*
G04 #@! TF.GenerationSoftware,Altium Limited,Altium Designer,18.0.12 (696)*
G04*
G04 Layer_Color=128*
%FSLAX44Y44*%
%MOMM*%
G71*
G01*
G75*
%ADD72C,0.0508*%
D72*
X51000Y23050D02*
X52000D01*
X51500Y22550D02*
Y23550D01*
X21023Y-59214D02*
X23773D01*
X22398Y-60589D02*
Y-57839D01*
X8328Y-59214D02*
X11078D01*
X9703Y-60589D02*
Y-57839D01*
X-10722Y-47284D02*
X-7972D01*
X-9347Y-48659D02*
Y-45909D01*
X-17072Y-47284D02*
X-14322D01*
X-15697Y-48659D02*
Y-45909D01*
X-23422Y-47284D02*
X-20672D01*
X-22047Y-48659D02*
Y-45909D01*
X8328Y-47284D02*
X11078D01*
X9703Y-48659D02*
Y-45909D01*
X1978Y-47284D02*
X4728D01*
X3353Y-48659D02*
Y-45909D01*
X-4372Y-47284D02*
X-1622D01*
X-2997Y-48659D02*
Y-45909D01*
X-10722Y-59214D02*
X-7972D01*
X-9347Y-60589D02*
Y-57839D01*
X-17072Y-59214D02*
X-14322D01*
X-15697Y-60589D02*
Y-57839D01*
X-23422Y-59214D02*
X-20672D01*
X-22047Y-60589D02*
Y-57839D01*
X-4372Y-59214D02*
X-1622D01*
X-2997Y-60589D02*
Y-57839D01*
X1978Y-59214D02*
X4728D01*
X3353Y-60589D02*
Y-57839D01*
X14673Y-47284D02*
X17423D01*
X16048Y-48659D02*
Y-45909D01*
X14673Y-59214D02*
X17423D01*
X16048Y-60589D02*
Y-57839D01*
X21023Y-47284D02*
X23773D01*
X22398Y-48659D02*
Y-45909D01*
X-39500Y137500D02*
X-33500D01*
X-36500Y134500D02*
Y140500D01*
X-30575Y34325D02*
X-29575D01*
X-30075Y33825D02*
Y34825D01*
X-23775Y34325D02*
X-22775D01*
X-23275Y33825D02*
Y34825D01*
X-41800Y31550D02*
X-40800D01*
X-41300Y31050D02*
Y32050D01*
X-41725Y39850D02*
X-40725D01*
X-41225Y39350D02*
Y40350D01*
X-39282Y69500D02*
X-38282D01*
X-38782Y69000D02*
Y70000D01*
X38600Y27800D02*
X39600D01*
X39100Y27300D02*
Y28300D01*
X38600Y34325D02*
X39600D01*
X39100Y33825D02*
Y34825D01*
X33500Y137500D02*
X39500D01*
X36500Y134500D02*
Y140500D01*
X33500Y7500D02*
X39500D01*
X36500Y4500D02*
Y10500D01*
X53475Y27675D02*
X54475D01*
X53975Y27175D02*
Y28175D01*
X53000Y35800D02*
X54000D01*
X53500Y35300D02*
Y36300D01*
X49500Y123000D02*
X50500D01*
X50000Y122500D02*
Y123500D01*
X24769Y33519D02*
X25769D01*
X25269Y33019D02*
Y34019D01*
X41000Y50000D02*
X42000D01*
X41500Y49500D02*
Y50500D01*
X50000Y92500D02*
X51000D01*
X50500Y92000D02*
Y93000D01*
X40409Y56600D02*
X41409D01*
X40909Y56100D02*
Y57100D01*
X-34875Y46300D02*
X-33875D01*
X-34375Y45800D02*
Y46800D01*
X75500Y115000D02*
X76500D01*
X76000Y114500D02*
Y115500D01*
X75000Y95388D02*
X76000D01*
X75500Y94888D02*
Y95888D01*
M02*
