G04*
G04 #@! TF.GenerationSoftware,Altium Limited,Altium Designer,18.0.12 (696)*
G04*
G04 Layer_Physical_Order=3*
G04 Layer_Color=16711680*
%FSLAX44Y44*%
%MOMM*%
G71*
G01*
G75*
%ADD37C,0.1500*%
%ADD38C,0.0750*%
%ADD42C,0.1000*%
%ADD43C,0.3000*%
%ADD45P,0.3247X8X202.5*%
%ADD46O,0.4000X0.6000*%
%ADD47C,1.2000*%
%ADD48P,0.3247X8X112.5*%
%ADD49C,0.2500*%
%ADD51C,0.5000*%
%ADD52C,0.2000*%
%ADD53R,0.8000X0.2500*%
%ADD54R,0.2000X0.2000*%
%ADD55R,0.2000X0.1160*%
%ADD56R,0.2000X0.1500*%
%ADD57R,0.1160X0.1160*%
%ADD58R,0.8000X0.8500*%
%ADD59R,0.3500X0.3000*%
%ADD60R,0.3000X0.3500*%
G36*
X-3461Y131780D02*
X-3511Y131718D01*
X-3556Y131632D01*
X-3596Y131521D01*
X-3630Y131386D01*
X-3659Y131227D01*
X-3701Y130835D01*
X-3722Y130345D01*
X-3725Y130063D01*
X-6725Y130139D01*
X-6727Y130421D01*
X-6784Y131302D01*
X-6810Y131461D01*
X-6840Y131595D01*
X-6876Y131705D01*
X-6916Y131790D01*
X-6960Y131850D01*
X-3461Y131780D01*
D02*
G37*
G36*
X32974Y125564D02*
X33062Y125497D01*
X33156Y125437D01*
X33257Y125386D01*
X33363Y125344D01*
X33476Y125309D01*
X33595Y125282D01*
X33720Y125263D01*
X33851Y125253D01*
X33988Y125250D01*
X32750Y124012D01*
X32747Y124150D01*
X32737Y124280D01*
X32718Y124405D01*
X32691Y124524D01*
X32656Y124636D01*
X32613Y124743D01*
X32562Y124844D01*
X32503Y124938D01*
X32436Y125026D01*
X32361Y125108D01*
X32892Y125639D01*
X32974Y125564D01*
D02*
G37*
G36*
X29977Y122750D02*
X29931Y122746D01*
X29880Y122733D01*
X29823Y122710D01*
X29762Y122678D01*
X29696Y122636D01*
X29625Y122585D01*
X29467Y122454D01*
X29290Y122286D01*
X28760Y122816D01*
X28818Y122878D01*
X28867Y122937D01*
X28907Y122994D01*
X28938Y123049D01*
X28961Y123102D01*
X28975Y123153D01*
X28980Y123202D01*
X28976Y123248D01*
X28963Y123293D01*
X28941Y123335D01*
X29977Y122750D01*
D02*
G37*
G36*
X80107Y122125D02*
X80077Y122149D01*
X80034Y122170D01*
X79979Y122189D01*
X79911Y122205D01*
X79832Y122219D01*
X79636Y122239D01*
X79391Y122249D01*
X79250Y122250D01*
Y123750D01*
X79391Y123751D01*
X79832Y123781D01*
X79911Y123795D01*
X79979Y123811D01*
X80034Y123830D01*
X80077Y123851D01*
X80107Y123875D01*
Y122125D01*
D02*
G37*
G36*
X50923Y123851D02*
X50966Y123830D01*
X51021Y123811D01*
X51089Y123795D01*
X51168Y123781D01*
X51364Y123761D01*
X51609Y123751D01*
X51750Y123750D01*
Y122250D01*
X51609Y122249D01*
X51168Y122219D01*
X51089Y122205D01*
X51021Y122189D01*
X50966Y122170D01*
X50923Y122149D01*
X50893Y122125D01*
Y123875D01*
X50923Y123851D01*
D02*
G37*
G36*
X42780Y123009D02*
X42695Y122908D01*
X42620Y122807D01*
X42555Y122704D01*
X42500Y122600D01*
X42455Y122494D01*
X42420Y122387D01*
X42395Y122279D01*
X42380Y122169D01*
X42375Y122058D01*
X41625D01*
X41620Y122169D01*
X41605Y122279D01*
X41580Y122387D01*
X41545Y122494D01*
X41500Y122600D01*
X41445Y122704D01*
X41380Y122807D01*
X41305Y122908D01*
X41220Y123009D01*
X41125Y123107D01*
X42875D01*
X42780Y123009D01*
D02*
G37*
G36*
X38780D02*
X38695Y122908D01*
X38620Y122807D01*
X38555Y122704D01*
X38500Y122600D01*
X38455Y122494D01*
X38420Y122387D01*
X38395Y122279D01*
X38380Y122169D01*
X38375Y122058D01*
X37625D01*
X37620Y122169D01*
X37605Y122279D01*
X37580Y122387D01*
X37545Y122494D01*
X37500Y122600D01*
X37445Y122704D01*
X37380Y122807D01*
X37305Y122908D01*
X37220Y123009D01*
X37125Y123107D01*
X38875D01*
X38780Y123009D01*
D02*
G37*
G36*
X75985Y124358D02*
X76030Y124230D01*
X76104Y124117D01*
X76210Y124020D01*
X76345Y123938D01*
X76509Y123870D01*
X76705Y123818D01*
X76929Y123780D01*
X77185Y123757D01*
X77470Y123750D01*
Y122250D01*
X77185Y122242D01*
X76929Y122220D01*
X76705Y122183D01*
X76509Y122130D01*
X76345Y122063D01*
X76210Y121980D01*
X76104Y121882D01*
X76030Y121770D01*
X75985Y121643D01*
X75970Y121500D01*
Y124500D01*
X75985Y124358D01*
D02*
G37*
G36*
X54061Y121500D02*
X54046Y121643D01*
X54000Y121770D01*
X53923Y121882D01*
X53816Y121980D01*
X53678Y122063D01*
X53510Y122130D01*
X53311Y122183D01*
X53081Y122220D01*
X52821Y122242D01*
X52530Y122250D01*
Y123750D01*
X52821Y123757D01*
X53081Y123780D01*
X53311Y123818D01*
X53510Y123870D01*
X53678Y123938D01*
X53816Y124020D01*
X53923Y124117D01*
X54000Y124230D01*
X54046Y124358D01*
X54061Y124500D01*
Y121500D01*
D02*
G37*
G36*
X70152Y118811D02*
X70038Y118893D01*
X69902Y118932D01*
X69745Y118929D01*
X69565Y118884D01*
X69364Y118796D01*
X69141Y118665D01*
X68896Y118493D01*
X68629Y118278D01*
X68031Y117720D01*
X66970Y118780D01*
X67270Y119091D01*
X67743Y119646D01*
X67915Y119891D01*
X68046Y120114D01*
X68134Y120315D01*
X68179Y120495D01*
X68182Y120652D01*
X68143Y120788D01*
X68061Y120902D01*
X70152Y118811D01*
D02*
G37*
G36*
X-3725Y119186D02*
X-3723Y118904D01*
X-3666Y118023D01*
X-3640Y117864D01*
X-3610Y117730D01*
X-3574Y117620D01*
X-3534Y117535D01*
X-3490Y117475D01*
X-6989Y117545D01*
X-6939Y117607D01*
X-6894Y117693D01*
X-6854Y117804D01*
X-6820Y117939D01*
X-6791Y118098D01*
X-6749Y118490D01*
X-6728Y118980D01*
X-6725Y119262D01*
X-3725Y119186D01*
D02*
G37*
G36*
X61969Y118780D02*
X61833Y118765D01*
X61711Y118721D01*
X61603Y118645D01*
X61509Y118540D01*
X61430Y118406D01*
X61365Y118240D01*
X61315Y118046D01*
X61279Y117821D01*
X61257Y117565D01*
X61250Y117281D01*
X59750D01*
X59742Y117570D01*
X59720Y117829D01*
X59682Y118058D01*
X59630Y118256D01*
X59563Y118425D01*
X59480Y118562D01*
X59383Y118670D01*
X59270Y118747D01*
X59142Y118794D01*
X59000Y118811D01*
X61969Y118780D01*
D02*
G37*
G36*
X75254Y113997D02*
X75169Y114056D01*
X75080Y114108D01*
X74986Y114154D01*
X74888Y114194D01*
X74786Y114228D01*
X74679Y114256D01*
X74569Y114278D01*
X74453Y114293D01*
X74334Y114303D01*
X74211Y114306D01*
X74038Y115306D01*
X74163Y115310D01*
X74282Y115322D01*
X74394Y115343D01*
X74499Y115373D01*
X74597Y115411D01*
X74687Y115457D01*
X74771Y115511D01*
X74849Y115574D01*
X74919Y115646D01*
X74982Y115725D01*
X75254Y113997D01*
D02*
G37*
G36*
X52137Y115534D02*
X52267Y115348D01*
X52436Y115138D01*
X52760Y114777D01*
X53024Y114506D01*
X52617Y113853D01*
X52528Y113934D01*
X52439Y113999D01*
X52350Y114050D01*
X52260Y114085D01*
X52171Y114105D01*
X52080Y114110D01*
X51990Y114100D01*
X51899Y114074D01*
X51809Y114033D01*
X51717Y113976D01*
X52087Y115618D01*
X52137Y115534D01*
D02*
G37*
G36*
X80182Y112263D02*
X80158Y112255D01*
X80126Y112237D01*
X80085Y112208D01*
X80035Y112170D01*
X79836Y111992D01*
X79559Y111722D01*
X78285Y112570D01*
X78383Y112671D01*
X78610Y112934D01*
X78664Y113009D01*
X78707Y113079D01*
X78738Y113141D01*
X78759Y113198D01*
X78769Y113249D01*
X78767Y113293D01*
X80182Y112263D01*
D02*
G37*
G36*
X65260Y111150D02*
X63740D01*
X63742Y111167D01*
X63744Y111214D01*
X63750Y112662D01*
X65250D01*
X65260Y111150D01*
D02*
G37*
G36*
X61260D02*
X59740D01*
X59742Y111167D01*
X59744Y111214D01*
X59750Y112662D01*
X61250D01*
X61260Y111150D01*
D02*
G37*
G36*
X55664Y111872D02*
X55752Y111799D01*
X55843Y111735D01*
X55937Y111678D01*
X56034Y111629D01*
X56134Y111588D01*
X56237Y111554D01*
X56342Y111528D01*
X56451Y111509D01*
X56563Y111498D01*
X55502Y110437D01*
X55491Y110549D01*
X55472Y110658D01*
X55446Y110764D01*
X55412Y110866D01*
X55371Y110966D01*
X55322Y111063D01*
X55265Y111157D01*
X55201Y111248D01*
X55129Y111336D01*
X55049Y111421D01*
X55579Y111951D01*
X55664Y111872D01*
D02*
G37*
G36*
X70173Y111466D02*
X70055Y111344D01*
X69851Y111107D01*
X69767Y110993D01*
X69693Y110883D01*
X69630Y110774D01*
X69579Y110669D01*
X69539Y110567D01*
X69510Y110468D01*
X69492Y110371D01*
X68371Y111492D01*
X68467Y111510D01*
X68567Y111539D01*
X68669Y111579D01*
X68774Y111630D01*
X68882Y111693D01*
X68993Y111767D01*
X69107Y111852D01*
X69343Y112055D01*
X69466Y112173D01*
X70173Y111466D01*
D02*
G37*
G36*
X52137Y111534D02*
X52267Y111348D01*
X52436Y111138D01*
X52760Y110777D01*
X53024Y110506D01*
X52617Y109853D01*
X52528Y109934D01*
X52439Y109999D01*
X52350Y110050D01*
X52260Y110085D01*
X52171Y110105D01*
X52080Y110110D01*
X51990Y110100D01*
X51899Y110074D01*
X51809Y110033D01*
X51717Y109976D01*
X52087Y111618D01*
X52137Y111534D01*
D02*
G37*
G36*
X79257Y110435D02*
X79279Y110180D01*
X79315Y109955D01*
X79365Y109760D01*
X79430Y109594D01*
X79509Y109459D01*
X79603Y109354D01*
X79710Y109279D01*
X79833Y109235D01*
X79970Y109220D01*
X77031D01*
X77167Y109235D01*
X77290Y109279D01*
X77397Y109354D01*
X77491Y109459D01*
X77570Y109594D01*
X77635Y109760D01*
X77685Y109955D01*
X77721Y110180D01*
X77743Y110435D01*
X77750Y110719D01*
X79250D01*
X79257Y110435D01*
D02*
G37*
G36*
X65025Y109949D02*
X65020Y109899D01*
X65019Y109890D01*
X65292D01*
X65237Y109809D01*
X65187Y109718D01*
X65143Y109618D01*
X65105Y109507D01*
X65073Y109386D01*
X65047Y109256D01*
X65026Y109115D01*
X65003Y108808D01*
X65000Y108441D01*
X64000D01*
X63991Y108884D01*
X63974Y109115D01*
X63953Y109256D01*
X63927Y109386D01*
X63895Y109507D01*
X63857Y109618D01*
X63813Y109718D01*
X63763Y109809D01*
X63708Y109890D01*
X63971D01*
X63969Y109970D01*
X65031D01*
X65025Y109949D01*
D02*
G37*
G36*
X61025Y109949D02*
X61020Y109899D01*
X61019Y109890D01*
X61292D01*
X61237Y109809D01*
X61187Y109718D01*
X61143Y109618D01*
X61105Y109507D01*
X61073Y109386D01*
X61047Y109256D01*
X61026Y109115D01*
X61003Y108808D01*
X61000Y108441D01*
X60000D01*
X59991Y108884D01*
X59974Y109115D01*
X59953Y109256D01*
X59927Y109386D01*
X59895Y109507D01*
X59857Y109618D01*
X59813Y109718D01*
X59763Y109809D01*
X59708Y109890D01*
X59971D01*
X59969Y109970D01*
X61031D01*
X61025Y109949D01*
D02*
G37*
G36*
X65003Y108196D02*
X65026Y107885D01*
X65047Y107745D01*
X65073Y107614D01*
X65105Y107493D01*
X65143Y107383D01*
X65187Y107282D01*
X65237Y107191D01*
X65292Y107110D01*
X63708D01*
X63763Y107191D01*
X63813Y107282D01*
X63857Y107383D01*
X63895Y107493D01*
X63927Y107614D01*
X63953Y107745D01*
X63974Y107885D01*
X63997Y108196D01*
X64000Y108366D01*
X65000D01*
X65003Y108196D01*
D02*
G37*
G36*
X61003D02*
X61026Y107885D01*
X61047Y107745D01*
X61073Y107614D01*
X61105Y107493D01*
X61143Y107383D01*
X61187Y107282D01*
X61237Y107191D01*
X61292Y107110D01*
X59708D01*
X59763Y107191D01*
X59813Y107282D01*
X59857Y107383D01*
X59895Y107493D01*
X59927Y107614D01*
X59953Y107745D01*
X59974Y107885D01*
X59997Y108196D01*
X60000Y108366D01*
X61000D01*
X61003Y108196D01*
D02*
G37*
G36*
X55664Y107872D02*
X55752Y107800D01*
X55843Y107735D01*
X55937Y107678D01*
X56034Y107629D01*
X56134Y107588D01*
X56237Y107554D01*
X56342Y107528D01*
X56451Y107509D01*
X56563Y107498D01*
X55502Y106438D01*
X55491Y106549D01*
X55472Y106658D01*
X55446Y106764D01*
X55412Y106866D01*
X55371Y106966D01*
X55322Y107063D01*
X55265Y107157D01*
X55201Y107248D01*
X55129Y107336D01*
X55049Y107421D01*
X55579Y107951D01*
X55664Y107872D01*
D02*
G37*
G36*
X52137Y107534D02*
X52267Y107348D01*
X52436Y107138D01*
X52760Y106777D01*
X53024Y106506D01*
X52617Y105852D01*
X52528Y105934D01*
X52439Y105999D01*
X52350Y106050D01*
X52260Y106085D01*
X52171Y106105D01*
X52080Y106110D01*
X51990Y106100D01*
X51899Y106074D01*
X51809Y106033D01*
X51717Y105976D01*
X52087Y107618D01*
X52137Y107534D01*
D02*
G37*
G36*
X77031Y105780D02*
X77016Y105775D01*
X76971Y105770D01*
X76895Y105765D01*
X75531Y105750D01*
Y107250D01*
X75820Y107257D01*
X76078Y107280D01*
X76307Y107317D01*
X76505Y107370D01*
X76673Y107437D01*
X76811Y107520D01*
X76919Y107618D01*
X76996Y107730D01*
X77044Y107858D01*
X77061Y108000D01*
X77031Y105780D01*
D02*
G37*
G36*
X69167Y107258D02*
X69214Y107256D01*
X70662Y107250D01*
X70661Y105750D01*
X69150Y105740D01*
X69150Y107260D01*
X69167Y107258D01*
D02*
G37*
G36*
X65237Y105809D02*
X65187Y105718D01*
X65143Y105618D01*
X65105Y105507D01*
X65073Y105386D01*
X65047Y105256D01*
X65026Y105115D01*
X65003Y104804D01*
X65000Y104634D01*
X64000D01*
X63997Y104804D01*
X63974Y105115D01*
X63953Y105256D01*
X63927Y105386D01*
X63895Y105507D01*
X63857Y105618D01*
X63813Y105718D01*
X63763Y105809D01*
X63708Y105890D01*
X65292D01*
X65237Y105809D01*
D02*
G37*
G36*
X55664Y103871D02*
X55752Y103799D01*
X55843Y103735D01*
X55937Y103678D01*
X56034Y103629D01*
X56134Y103588D01*
X56237Y103554D01*
X56342Y103528D01*
X56451Y103509D01*
X56563Y103498D01*
X55502Y102437D01*
X55491Y102549D01*
X55472Y102658D01*
X55446Y102764D01*
X55412Y102866D01*
X55371Y102966D01*
X55322Y103063D01*
X55265Y103157D01*
X55201Y103248D01*
X55129Y103336D01*
X55049Y103421D01*
X55579Y103951D01*
X55664Y103871D01*
D02*
G37*
G36*
X52137Y103534D02*
X52267Y103348D01*
X52436Y103138D01*
X52760Y102777D01*
X53024Y102506D01*
X52617Y101853D01*
X52528Y101934D01*
X52439Y101999D01*
X52350Y102050D01*
X52260Y102085D01*
X52171Y102105D01*
X52080Y102110D01*
X51990Y102100D01*
X51899Y102074D01*
X51809Y102033D01*
X51717Y101976D01*
X52087Y103618D01*
X52137Y103534D01*
D02*
G37*
G36*
X65003Y104196D02*
X65026Y103885D01*
X65047Y103745D01*
X65073Y103614D01*
X65105Y103493D01*
X65143Y103383D01*
X65187Y103282D01*
X65237Y103191D01*
X65292Y103110D01*
X63890D01*
Y101708D01*
X63809Y101763D01*
X63718Y101813D01*
X63617Y101857D01*
X63507Y101895D01*
X63386Y101927D01*
X63256Y101953D01*
X63115Y101974D01*
X62804Y101997D01*
X62634Y102000D01*
Y103000D01*
X62804Y103003D01*
X63115Y103026D01*
X63256Y103047D01*
X63386Y103073D01*
X63507Y103105D01*
X63617Y103143D01*
X63718Y103187D01*
X63779Y103221D01*
X63813Y103282D01*
X63857Y103383D01*
X63895Y103493D01*
X63927Y103614D01*
X63953Y103745D01*
X63974Y103885D01*
X63997Y104196D01*
X64000Y104366D01*
X65000D01*
X65003Y104196D01*
D02*
G37*
G36*
X61191Y103237D02*
X61282Y103187D01*
X61383Y103143D01*
X61493Y103105D01*
X61614Y103073D01*
X61744Y103047D01*
X61885Y103026D01*
X62196Y103003D01*
X62366Y103000D01*
Y102000D01*
X62196Y101997D01*
X61885Y101974D01*
X61744Y101953D01*
X61614Y101927D01*
X61493Y101895D01*
X61383Y101857D01*
X61282Y101813D01*
X61191Y101763D01*
X61110Y101708D01*
Y103293D01*
X61191Y103237D01*
D02*
G37*
G36*
X69208Y103222D02*
X69267Y103208D01*
X69354Y103197D01*
X69613Y103178D01*
X70752Y103159D01*
X70541Y101659D01*
X69122Y101717D01*
X69177Y103236D01*
X69208Y103222D01*
D02*
G37*
G36*
X77058Y101142D02*
X77134Y101315D01*
X77179Y101495D01*
X77182Y101652D01*
X77143Y101788D01*
X77061Y101902D01*
X77546Y101417D01*
X77548Y101423D01*
X77556Y101461D01*
X77548Y101498D01*
X77533Y101550D01*
X77516Y101592D01*
X77497Y101624D01*
X77578D01*
X77588Y101734D01*
X77596Y101950D01*
X77597Y102074D01*
X78597D01*
X78598Y101950D01*
X78618Y101624D01*
X78697D01*
X78678Y101592D01*
X78661Y101550D01*
X78646Y101498D01*
X78638Y101461D01*
X78646Y101423D01*
X78661Y101371D01*
X78678Y101329D01*
X78697Y101297D01*
X78616D01*
X78606Y101187D01*
X78598Y100971D01*
X78597Y100847D01*
X78116D01*
X79152Y99811D01*
X79038Y99893D01*
X78902Y99932D01*
X78745Y99929D01*
X78565Y99884D01*
X78364Y99796D01*
X78141Y99665D01*
X77896Y99493D01*
X77629Y99277D01*
X77031Y98720D01*
X75970Y99781D01*
X76270Y100091D01*
X76743Y100646D01*
X76915Y100891D01*
X77031Y101088D01*
X76997Y101179D01*
X76919Y101292D01*
X76811Y101389D01*
X76673Y101472D01*
X76505Y101539D01*
X76307Y101592D01*
X76078Y101629D01*
X75820Y101652D01*
X75531Y101659D01*
Y103159D01*
X77031Y103219D01*
X77058Y101142D01*
D02*
G37*
G36*
X55664Y99872D02*
X55752Y99799D01*
X55843Y99735D01*
X55937Y99678D01*
X56034Y99629D01*
X56134Y99588D01*
X56237Y99554D01*
X56342Y99528D01*
X56451Y99509D01*
X56563Y99498D01*
X55502Y98438D01*
X55491Y98549D01*
X55472Y98658D01*
X55446Y98764D01*
X55412Y98866D01*
X55371Y98966D01*
X55322Y99063D01*
X55265Y99157D01*
X55201Y99248D01*
X55129Y99336D01*
X55049Y99421D01*
X55579Y99951D01*
X55664Y99872D01*
D02*
G37*
G36*
X60629Y97508D02*
X60532Y97491D01*
X60433Y97462D01*
X60331Y97421D01*
X60226Y97370D01*
X60118Y97307D01*
X60007Y97233D01*
X59893Y97149D01*
X59657Y96945D01*
X59534Y96827D01*
X58827Y97534D01*
X58945Y97657D01*
X59149Y97893D01*
X59233Y98007D01*
X59307Y98118D01*
X59370Y98226D01*
X59421Y98331D01*
X59461Y98433D01*
X59490Y98533D01*
X59508Y98629D01*
X60629Y97508D01*
D02*
G37*
G36*
X69179Y97752D02*
X69115Y97662D01*
X69059Y97569D01*
X69010Y97472D01*
X68969Y97372D01*
X68935Y97269D01*
X68909Y97163D01*
X68890Y97053D01*
X68879Y96939D01*
X68875Y96823D01*
X68125D01*
X68121Y96939D01*
X68110Y97053D01*
X68091Y97163D01*
X68065Y97269D01*
X68031Y97372D01*
X67990Y97472D01*
X67941Y97569D01*
X67885Y97662D01*
X67821Y97752D01*
X67750Y97839D01*
X69250D01*
X69179Y97752D01*
D02*
G37*
G36*
X76444Y96957D02*
X76445Y96815D01*
X76482Y96192D01*
X76492Y96156D01*
X76503Y96134D01*
X74774Y96406D01*
X74807Y96436D01*
X74836Y96479D01*
X74861Y96534D01*
X74883Y96601D01*
X74902Y96680D01*
X74917Y96771D01*
X74938Y96990D01*
X74943Y97118D01*
X74944Y97258D01*
X76444Y96957D01*
D02*
G37*
G36*
X80094Y93754D02*
X80063Y93746D01*
X80023Y93729D01*
X79976Y93701D01*
X79921Y93663D01*
X79789Y93556D01*
X79626Y93409D01*
X79432Y93220D01*
X78257Y94167D01*
X78355Y94267D01*
X78585Y94529D01*
X78640Y94604D01*
X78685Y94672D01*
X78719Y94734D01*
X78742Y94789D01*
X78754Y94838D01*
X78756Y94881D01*
X80094Y93754D01*
D02*
G37*
G36*
X51469Y93304D02*
X51550Y93240D01*
X51637Y93184D01*
X51730Y93135D01*
X51827Y93094D01*
X51930Y93060D01*
X52039Y93034D01*
X52152Y93015D01*
X52271Y93004D01*
X52396Y93000D01*
Y92000D01*
X52271Y91996D01*
X52152Y91985D01*
X52039Y91966D01*
X51930Y91940D01*
X51827Y91906D01*
X51730Y91865D01*
X51637Y91816D01*
X51550Y91760D01*
X51469Y91696D01*
X51393Y91625D01*
Y93375D01*
X51469Y93304D01*
D02*
G37*
G36*
X78319Y91179D02*
X78341Y90919D01*
X78379Y90689D01*
X78431Y90490D01*
X78499Y90322D01*
X78581Y90184D01*
X78678Y90077D01*
X78791Y90000D01*
X78918Y89954D01*
X79061Y89939D01*
X76061D01*
X76203Y89954D01*
X76331Y90000D01*
X76444Y90077D01*
X76541Y90184D01*
X76624Y90322D01*
X76691Y90490D01*
X76743Y90689D01*
X76781Y90919D01*
X76803Y91179D01*
X76811Y91469D01*
X78311D01*
X78319Y91179D01*
D02*
G37*
G36*
X64219Y89970D02*
X63119Y89939D01*
X63190Y89949D01*
X63254Y89974D01*
X63310Y90014D01*
X63359Y90069D01*
X63400Y90139D01*
X63434Y90225D01*
X63460Y90326D01*
X63479Y90442D01*
X63490Y90573D01*
X63494Y90720D01*
X64244D01*
X64219Y89970D01*
D02*
G37*
G36*
X69934Y90351D02*
X70210Y90118D01*
X70332Y90033D01*
X70443Y89970D01*
X70544Y89927D01*
X70634Y89906D01*
X70714D01*
X70783Y89927D01*
X70841Y89970D01*
X69781Y88909D01*
X69823Y88967D01*
X69844Y89036D01*
Y89116D01*
X69823Y89206D01*
X69781Y89307D01*
X69717Y89418D01*
X69632Y89540D01*
X69526Y89673D01*
X69250Y89970D01*
X69781Y90500D01*
X69934Y90351D01*
D02*
G37*
G36*
X51777Y86942D02*
X51677Y86841D01*
X51263Y86374D01*
X51245Y86342D01*
X51237Y86318D01*
X50207Y87733D01*
X50251Y87731D01*
X50301Y87741D01*
X50358Y87762D01*
X50421Y87793D01*
X50490Y87836D01*
X50566Y87890D01*
X50735Y88030D01*
X50829Y88117D01*
X50929Y88215D01*
X51777Y86942D01*
D02*
G37*
G36*
X70841Y87030D02*
X70783Y87073D01*
X70714Y87094D01*
X70634D01*
X70544Y87073D01*
X70443Y87030D01*
X70332Y86967D01*
X70210Y86882D01*
X70078Y86776D01*
X69781Y86500D01*
X69250Y87030D01*
X69399Y87184D01*
X69632Y87460D01*
X69717Y87582D01*
X69781Y87693D01*
X69823Y87794D01*
X69844Y87884D01*
Y87964D01*
X69823Y88033D01*
X69781Y88091D01*
X70841Y87030D01*
D02*
G37*
G36*
X61786D02*
X61730Y87075D01*
X61663Y87099D01*
X61585Y87100D01*
X61495Y87080D01*
X61395Y87037D01*
X61283Y86973D01*
X61160Y86888D01*
X61027Y86780D01*
X60725Y86500D01*
X60250Y87086D01*
X60396Y87237D01*
X60626Y87510D01*
X60710Y87631D01*
X60774Y87742D01*
X60816Y87843D01*
X60838Y87934D01*
X60840Y88015D01*
X60820Y88086D01*
X60781Y88147D01*
X61786Y87030D01*
D02*
G37*
G36*
X54781Y88356D02*
X54865Y88558D01*
X54908Y88738D01*
Y88897D01*
X54865Y89035D01*
X54781Y89152D01*
X56902Y87030D01*
X56785Y87115D01*
X56647Y87158D01*
X56488D01*
X56308Y87115D01*
X56106Y87030D01*
X55884Y86903D01*
X55640Y86734D01*
X55374Y86521D01*
X54781Y85970D01*
X53720Y87030D01*
X54017Y87338D01*
X54261Y87627D01*
X54240Y87635D01*
X54046Y87685D01*
X53821Y87721D01*
X53566Y87743D01*
X53281Y87750D01*
Y89250D01*
X53566Y89257D01*
X53821Y89279D01*
X54046Y89315D01*
X54240Y89365D01*
X54405Y89430D01*
X54541Y89509D01*
X54646Y89603D01*
X54721Y89711D01*
X54766Y89833D01*
X54781Y89970D01*
Y88356D01*
D02*
G37*
G36*
X78688Y87046D02*
X78560Y87000D01*
X78447Y86923D01*
X78350Y86816D01*
X78267Y86678D01*
X78200Y86510D01*
X78148Y86311D01*
X78110Y86081D01*
X78088Y85821D01*
X78080Y85531D01*
X76580D01*
X76572Y85821D01*
X76550Y86081D01*
X76512Y86311D01*
X76460Y86510D01*
X76392Y86678D01*
X76310Y86816D01*
X76213Y86923D01*
X76100Y87000D01*
X75972Y87046D01*
X75830Y87061D01*
X78830D01*
X78688Y87046D01*
D02*
G37*
G36*
X54252Y80385D02*
X54305Y79545D01*
X54329Y79409D01*
X54358Y79304D01*
X54391Y79229D01*
X54428Y79184D01*
X54469Y79170D01*
X52530D01*
X52572Y79184D01*
X52610Y79229D01*
X52642Y79304D01*
X52671Y79409D01*
X52695Y79545D01*
X52715Y79710D01*
X52741Y80129D01*
X52750Y80669D01*
X54250D01*
X54252Y80385D01*
D02*
G37*
G36*
X78130Y77537D02*
X76191D01*
X76265Y77552D01*
X76331Y77597D01*
X76389Y77672D01*
X76440Y77777D01*
X76483Y77912D01*
X76518Y78077D01*
X76545Y78272D01*
X76564Y78497D01*
X76580Y79037D01*
X78080D01*
X78130Y77537D01*
D02*
G37*
G36*
X29369Y76719D02*
X28275Y76689D01*
X28346Y76699D01*
X28410Y76724D01*
X28466Y76764D01*
X28515Y76819D01*
X28556Y76889D01*
X28590Y76975D01*
X28616Y77076D01*
X28635Y77192D01*
X28646Y77323D01*
X28650Y77470D01*
X29400D01*
X29369Y76719D01*
D02*
G37*
G36*
X54898Y75632D02*
X54817Y75631D01*
X54538Y75613D01*
X54508Y75606D01*
X54487Y75598D01*
X54474Y75589D01*
X54469Y75578D01*
Y76351D01*
X54474Y76357D01*
X54487Y76362D01*
X54508Y76367D01*
X54538Y76371D01*
X54624Y76377D01*
X54898Y76382D01*
Y75632D01*
D02*
G37*
G36*
X52530Y75252D02*
X52523Y75286D01*
X52501Y75315D01*
X52463Y75342D01*
X52410Y75364D01*
X52343Y75383D01*
X52260Y75399D01*
X52163Y75411D01*
X51923Y75425D01*
X51781Y75427D01*
Y76177D01*
X51923Y76179D01*
X52260Y76205D01*
X52343Y76221D01*
X52410Y76240D01*
X52463Y76262D01*
X52501Y76289D01*
X52523Y76318D01*
X52530Y76351D01*
Y75252D01*
D02*
G37*
G36*
X81737Y73010D02*
X81713Y73023D01*
X81676Y73034D01*
X81625Y73044D01*
X81562Y73053D01*
X81396Y73067D01*
X80907Y73077D01*
X80641Y74577D01*
X80781Y74579D01*
X81129Y74604D01*
X81220Y74619D01*
X81299Y74637D01*
X81367Y74659D01*
X81421Y74683D01*
X81464Y74712D01*
X81495Y74743D01*
X81737Y73010D01*
D02*
G37*
G36*
X54477Y74179D02*
X54500Y74115D01*
X54537Y74059D01*
X54590Y74010D01*
X54657Y73969D01*
X54739Y73935D01*
X54837Y73909D01*
X54949Y73890D01*
X55077Y73879D01*
X55219Y73875D01*
Y73125D01*
X55077Y73121D01*
X54949Y73110D01*
X54837Y73091D01*
X54739Y73065D01*
X54657Y73031D01*
X54590Y72990D01*
X54537Y72941D01*
X54500Y72885D01*
X54477Y72821D01*
X54469Y72750D01*
Y74250D01*
X54477Y74179D01*
D02*
G37*
G36*
X78145Y74615D02*
X78190Y74607D01*
X78265Y74600D01*
X78670Y74585D01*
X79630Y74577D01*
Y73077D01*
X79345Y73073D01*
X78670Y73014D01*
X78505Y72979D01*
X78370Y72936D01*
X78265Y72885D01*
X78190Y72826D01*
X78145Y72759D01*
X78130Y72685D01*
Y74624D01*
X78145Y74615D01*
D02*
G37*
G36*
X29900Y71719D02*
X29748Y71563D01*
X29509Y71284D01*
X29421Y71161D01*
X29354Y71049D01*
X29309Y70949D01*
X29284Y70859D01*
X29281Y70781D01*
X29299Y70714D01*
X29339Y70659D01*
X28309Y71689D01*
X28364Y71650D01*
X28431Y71631D01*
X28509Y71634D01*
X28598Y71659D01*
X28699Y71704D01*
X28810Y71771D01*
X28933Y71859D01*
X29067Y71968D01*
X29369Y72250D01*
X29900Y71719D01*
D02*
G37*
G36*
X51764Y72358D02*
X51688Y72276D01*
X51621Y72188D01*
X51562Y72094D01*
X51512Y71993D01*
X51469Y71887D01*
X51434Y71774D01*
X51407Y71655D01*
X51388Y71530D01*
X51378Y71399D01*
X51375Y71262D01*
X50138Y72500D01*
X50275Y72502D01*
X50405Y72513D01*
X50530Y72532D01*
X50649Y72559D01*
X50761Y72594D01*
X50868Y72636D01*
X50968Y72688D01*
X51063Y72747D01*
X51151Y72814D01*
X51233Y72889D01*
X51764Y72358D01*
D02*
G37*
G36*
X29900Y66719D02*
X29748Y66563D01*
X29509Y66284D01*
X29421Y66161D01*
X29354Y66049D01*
X29309Y65949D01*
X29284Y65859D01*
X29281Y65781D01*
X29299Y65714D01*
X29339Y65659D01*
X28309Y66689D01*
X28364Y66650D01*
X28431Y66631D01*
X28509Y66634D01*
X28598Y66659D01*
X28699Y66704D01*
X28810Y66771D01*
X28933Y66859D01*
X29067Y66968D01*
X29369Y67250D01*
X29900Y66719D01*
D02*
G37*
G36*
X21587Y62098D02*
X21866Y61859D01*
X21989Y61771D01*
X22101Y61704D01*
X22201Y61659D01*
X22290Y61634D01*
X22369Y61631D01*
X22435Y61650D01*
X22491Y61689D01*
X21461Y60659D01*
X21500Y60714D01*
X21518Y60781D01*
X21515Y60859D01*
X21491Y60949D01*
X21445Y61049D01*
X21379Y61161D01*
X21291Y61283D01*
X21182Y61418D01*
X20900Y61719D01*
X21430Y62250D01*
X21587Y62098D01*
D02*
G37*
G36*
X19729Y61400D02*
X20649Y60659D01*
X20650Y60657D01*
Y58500D01*
X30150D01*
Y61400D01*
X43188D01*
Y59310D01*
X41918Y58632D01*
X41787Y58719D01*
X41659Y58745D01*
Y56600D01*
Y54455D01*
X41787Y54481D01*
X42780Y53746D01*
X42852Y53454D01*
X42817Y53021D01*
X42250Y52621D01*
Y50000D01*
Y47586D01*
X42996Y47129D01*
X43188Y46894D01*
Y23748D01*
X42289Y22851D01*
X24413Y22900D01*
X20000Y18487D01*
X20000Y3600D01*
X13012D01*
X12500Y3812D01*
X-9250D01*
X-9762Y3600D01*
X-47825Y3600D01*
Y61400D01*
X19729Y61400D01*
D02*
G37*
G36*
X54428Y43229D02*
X54391Y43184D01*
X54358Y43109D01*
X54329Y43004D01*
X54305Y42869D01*
X54285Y42704D01*
X54259Y42284D01*
X54250Y41744D01*
X52750D01*
X52748Y42029D01*
X52695Y42869D01*
X52671Y43004D01*
X52642Y43109D01*
X52610Y43184D01*
X52572Y43229D01*
X52530Y43244D01*
X54469D01*
X54428Y43229D01*
D02*
G37*
G36*
X60881Y40835D02*
X60844Y40790D01*
X60811Y40715D01*
X60782Y40610D01*
X60758Y40475D01*
X60738Y40310D01*
X60712Y39890D01*
X60703Y39350D01*
X59203D01*
X59201Y39635D01*
X59148Y40475D01*
X59124Y40610D01*
X59096Y40715D01*
X59062Y40790D01*
X59025Y40835D01*
X58983Y40850D01*
X60923D01*
X60881Y40835D01*
D02*
G37*
G36*
X56998D02*
X56961Y40790D01*
X56928Y40715D01*
X56899Y40610D01*
X56875Y40475D01*
X56855Y40310D01*
X56829Y39890D01*
X56820Y39350D01*
X55320D01*
X55318Y39635D01*
X55265Y40475D01*
X55241Y40610D01*
X55212Y40715D01*
X55180Y40790D01*
X55142Y40835D01*
X55100Y40850D01*
X57040D01*
X56998Y40835D01*
D02*
G37*
G36*
X54251Y37409D02*
X54281Y36968D01*
X54295Y36889D01*
X54311Y36821D01*
X54330Y36766D01*
X54351Y36723D01*
X54375Y36693D01*
X52625D01*
X52649Y36723D01*
X52670Y36766D01*
X52689Y36821D01*
X52705Y36889D01*
X52719Y36968D01*
X52739Y37164D01*
X52749Y37409D01*
X52750Y37550D01*
X54250D01*
X54251Y37409D01*
D02*
G37*
G36*
X60711Y33104D02*
X60733Y32843D01*
X60771Y32614D01*
X60823Y32415D01*
X60890Y32247D01*
X60973Y32109D01*
X61070Y32002D01*
X61183Y31925D01*
X61311Y31879D01*
X61453Y31864D01*
X59053D01*
X57206Y29523D01*
X57279Y29651D01*
X57313Y29798D01*
X57306Y29963D01*
X57260Y30147D01*
X57174Y30350D01*
X57048Y30571D01*
X56882Y30812D01*
X56676Y31070D01*
X56431Y31348D01*
X56145Y31644D01*
X56955Y32955D01*
X57274Y32647D01*
X57841Y32165D01*
X58089Y31992D01*
X58313Y31863D01*
X58513Y31780D01*
X58689Y31741D01*
X58842Y31747D01*
X58971Y31798D01*
X59043Y31864D01*
X58453D01*
X58595Y31879D01*
X58723Y31925D01*
X58836Y32002D01*
X58933Y32109D01*
X59016Y32247D01*
X59083Y32415D01*
X59135Y32614D01*
X59173Y32843D01*
X59195Y33104D01*
X59203Y33394D01*
X60703D01*
X60711Y33104D01*
D02*
G37*
G36*
X57206Y26175D02*
X57190Y26318D01*
X57146Y26445D01*
X57070Y26558D01*
X56965Y26655D01*
X56831Y26737D01*
X56666Y26805D01*
X56470Y26858D01*
X56245Y26895D01*
X55991Y26918D01*
X55710Y26925D01*
X55584Y26924D01*
X55143Y26894D01*
X55064Y26880D01*
X54996Y26864D01*
X54941Y26845D01*
X54898Y26824D01*
X54868Y26800D01*
Y28550D01*
X54898Y28526D01*
X54941Y28505D01*
X54996Y28486D01*
X55064Y28470D01*
X55143Y28456D01*
X55339Y28436D01*
X55584Y28426D01*
X55710Y28425D01*
X55991Y28433D01*
X56245Y28455D01*
X56470Y28493D01*
X56666Y28545D01*
X56831Y28612D01*
X56965Y28695D01*
X57070Y28793D01*
X57146Y28905D01*
X57190Y29032D01*
X57206Y29175D01*
Y26175D01*
D02*
G37*
G36*
X81732Y26800D02*
X81702Y26824D01*
X81659Y26845D01*
X81604Y26864D01*
X81536Y26880D01*
X81457Y26894D01*
X81261Y26914D01*
X81016Y26924D01*
X80875Y26925D01*
Y28425D01*
X81016Y28426D01*
X81457Y28456D01*
X81536Y28470D01*
X81604Y28486D01*
X81659Y28505D01*
X81702Y28526D01*
X81732Y28550D01*
Y26800D01*
D02*
G37*
G36*
X79129Y29032D02*
X79175Y28905D01*
X79252Y28793D01*
X79359Y28695D01*
X79497Y28612D01*
X79665Y28545D01*
X79864Y28493D01*
X80093Y28455D01*
X80354Y28433D01*
X80645Y28425D01*
Y26925D01*
X80354Y26918D01*
X80093Y26895D01*
X79864Y26858D01*
X79665Y26805D01*
X79497Y26737D01*
X79359Y26655D01*
X79252Y26558D01*
X79175Y26445D01*
X79129Y26318D01*
X79114Y26175D01*
Y29175D01*
X79129Y29032D01*
D02*
G37*
G36*
X43188Y15500D02*
X43426Y14926D01*
X44000Y14688D01*
X44000D01*
Y11004D01*
X42730Y10752D01*
X42614Y11030D01*
X41493Y12493D01*
X40030Y13614D01*
X38327Y14320D01*
X37250Y14462D01*
Y7500D01*
X36500D01*
Y6750D01*
X29538D01*
X29680Y5673D01*
X30386Y3970D01*
X31508Y2508D01*
X32970Y1385D01*
X33249Y1270D01*
X32996Y-0D01*
X21100Y-0D01*
X21100Y15500D01*
X26300Y20700D01*
X43188D01*
Y15500D01*
D02*
G37*
%LPC*%
G36*
X40159Y58745D02*
X40031Y58719D01*
X39287Y58222D01*
X38790Y57478D01*
X38764Y57350D01*
X40159D01*
Y58745D01*
D02*
G37*
G36*
Y55850D02*
X38764D01*
X38790Y55722D01*
X39287Y54978D01*
X40031Y54481D01*
X40159Y54455D01*
Y55850D01*
D02*
G37*
G36*
X40750Y52145D02*
X40622Y52119D01*
X39878Y51622D01*
X39381Y50878D01*
X39355Y50750D01*
X40750D01*
Y52145D01*
D02*
G37*
G36*
Y49250D02*
X39355D01*
X39381Y49122D01*
X39878Y48378D01*
X40622Y47881D01*
X40750Y47855D01*
Y49250D01*
D02*
G37*
G36*
X-33625Y48445D02*
Y47050D01*
X-32230D01*
X-32256Y47178D01*
X-32753Y47922D01*
X-33497Y48419D01*
X-33625Y48445D01*
D02*
G37*
G36*
X-35125D02*
X-35253Y48419D01*
X-35997Y47922D01*
X-36494Y47178D01*
X-36520Y47050D01*
X-35125D01*
Y48445D01*
D02*
G37*
G36*
X-32230Y45550D02*
X-33625D01*
Y44155D01*
X-33497Y44181D01*
X-32753Y44678D01*
X-32256Y45422D01*
X-32230Y45550D01*
D02*
G37*
G36*
X-35125D02*
X-36520D01*
X-36494Y45422D01*
X-35997Y44678D01*
X-35253Y44181D01*
X-35125Y44155D01*
Y45550D01*
D02*
G37*
G36*
X-40100Y42100D02*
X-42350D01*
X-43475Y40975D01*
Y38725D01*
X-42350Y37600D01*
X-40100D01*
X-38975Y38725D01*
Y40975D01*
X-40100Y42100D01*
D02*
G37*
G36*
X26019Y35664D02*
Y34269D01*
X27414D01*
X27389Y34397D01*
X26891Y35141D01*
X26147Y35638D01*
X26019Y35664D01*
D02*
G37*
G36*
X24519D02*
X24391Y35638D01*
X23647Y35141D01*
X23150Y34397D01*
X23124Y34269D01*
X24519D01*
Y35664D01*
D02*
G37*
G36*
X40225Y36575D02*
X37975D01*
X36850Y35450D01*
Y33200D01*
X37975Y32075D01*
X40225D01*
X41350Y33200D01*
Y35450D01*
X40225Y36575D01*
D02*
G37*
G36*
X-22150D02*
X-24400D01*
X-25525Y35450D01*
Y33200D01*
X-24400Y32075D01*
X-22150D01*
X-21025Y33200D01*
Y35450D01*
X-22150Y36575D01*
D02*
G37*
G36*
X-28950D02*
X-31200D01*
X-32325Y35450D01*
Y33200D01*
X-31200Y32075D01*
X-28950D01*
X-27825Y33200D01*
Y35450D01*
X-28950Y36575D01*
D02*
G37*
G36*
X27414Y32769D02*
X26019D01*
Y31374D01*
X26147Y31399D01*
X26891Y31897D01*
X27389Y32641D01*
X27414Y32769D01*
D02*
G37*
G36*
X24519D02*
X23124D01*
X23150Y32641D01*
X23647Y31897D01*
X24391Y31399D01*
X24519Y31374D01*
Y32769D01*
D02*
G37*
G36*
X-40175Y33800D02*
X-42425D01*
X-43550Y32675D01*
Y30425D01*
X-42425Y29300D01*
X-40175D01*
X-39050Y30425D01*
Y32675D01*
X-40175Y33800D01*
D02*
G37*
G36*
X40350Y30300D02*
X39850D01*
Y28550D01*
X41600D01*
Y29050D01*
X40350Y30300D01*
D02*
G37*
G36*
X38350D02*
X37850D01*
X36600Y29050D01*
Y28550D01*
X38350D01*
Y30300D01*
D02*
G37*
G36*
X41600Y27050D02*
X39850D01*
Y25300D01*
X40350D01*
X41600Y26550D01*
Y27050D01*
D02*
G37*
G36*
X38350D02*
X36600D01*
Y26550D01*
X37850Y25300D01*
X38350D01*
Y27050D01*
D02*
G37*
G36*
X35750Y14462D02*
X34673Y14320D01*
X32970Y13614D01*
X31508Y12493D01*
X30386Y11030D01*
X29680Y9327D01*
X29538Y8250D01*
X35750D01*
Y14462D01*
D02*
G37*
%LPD*%
D37*
X53975Y27675D02*
X61175D01*
X53500Y44714D02*
Y45378D01*
Y44214D02*
Y44714D01*
Y35800D02*
Y44214D01*
X59953Y28897D02*
X61175Y27675D01*
X56070Y32780D02*
X59953Y28897D01*
X56070Y32780D02*
Y41820D01*
X59953Y28897D02*
Y41820D01*
X75175Y27675D02*
X82625D01*
X50000Y123000D02*
X58000D01*
X53500Y85750D02*
X56250Y88500D01*
X53500Y78200D02*
Y85750D01*
X77561Y92410D02*
X80000Y94849D01*
X77333Y73827D02*
X82327D01*
X52275Y88500D02*
X56500D01*
X50275Y86500D02*
X52275Y88500D01*
X64500Y115250D02*
X72000Y122750D01*
X72250Y123000D02*
X81000D01*
X77330Y76670D02*
Y88330D01*
X75694Y95583D02*
Y98444D01*
X78500Y111725D02*
X80000Y113225D01*
X78500Y108000D02*
Y111725D01*
X64500Y110500D02*
Y115250D01*
X77561Y88561D02*
Y92410D01*
X75694Y98444D02*
X78097Y100847D01*
X68500Y106500D02*
X77500D01*
X58000Y122012D02*
X60500Y119512D01*
Y110500D02*
Y119512D01*
X68591Y102409D02*
X77762D01*
X78097Y102074D01*
D38*
X50277Y75802D02*
X53500D01*
X49375Y74900D02*
X50277Y75802D01*
X52375Y73500D02*
X53500D01*
X50125Y71250D02*
X52375Y73500D01*
X53500Y75802D02*
X53705Y76007D01*
X42000Y79350D02*
Y124000D01*
X51000Y111000D02*
X52000D01*
X30000Y123526D02*
Y124000D01*
X20275Y117633D02*
X29016Y126375D01*
X20275Y62875D02*
Y117633D01*
X29025Y122551D02*
X30000Y123526D01*
X31625Y126375D02*
X34000Y124000D01*
X29016Y126375D02*
X31625D01*
X20275Y62875D02*
X22650Y60500D01*
X25400D01*
X29025Y76375D02*
Y122551D01*
X25400Y75500D02*
X28150D01*
X29025Y76375D01*
X25400Y70500D02*
X28150D01*
X38000Y80350D01*
Y124000D01*
X28150Y65500D02*
X42000Y79350D01*
X25400Y65500D02*
X28150D01*
X51000Y103000D02*
X52000D01*
X56500Y98500D01*
X51000Y107000D02*
X52000D01*
X56500Y102500D01*
X52000Y111000D02*
X56500Y106500D01*
X51000Y115000D02*
X52000D01*
X56500Y110500D01*
X54898Y76007D02*
X55625Y76734D01*
X53500Y73500D02*
X56000D01*
X68250Y85500D02*
X71250Y88500D01*
X63468Y85500D02*
X68250D01*
X58000Y80032D02*
X63468Y85500D01*
X58000Y75500D02*
Y80032D01*
X56000Y73500D02*
X58000Y75500D01*
X62195Y88500D02*
X62500D01*
X55625Y81931D02*
X62195Y88500D01*
X55625Y76734D02*
Y81931D01*
X53705Y76007D02*
X54898D01*
X62500Y88047D02*
Y88330D01*
X62500Y88500D02*
X62750D01*
X68500Y91250D02*
Y98500D01*
Y91250D02*
X71250Y88500D01*
X64500Y98165D02*
Y98500D01*
X63869Y97534D02*
X64500Y98165D01*
X63869Y89619D02*
Y97534D01*
X62750Y88500D02*
X63869Y89619D01*
D42*
X50500Y92500D02*
X54500D01*
X80000Y94849D02*
Y95000D01*
X82327Y73827D02*
X82500Y74000D01*
X77160Y73654D02*
X77333Y73827D01*
X50000Y86500D02*
X50275D01*
X77160Y76500D02*
X77330Y76670D01*
X72000Y122750D02*
Y123000D01*
X75500Y95388D02*
X75694Y95583D01*
X75806Y114806D02*
X76000Y115000D01*
X80000Y113225D02*
Y113500D01*
X72806Y114806D02*
X75806D01*
X68500Y110500D02*
X72806Y114806D01*
X78097Y100847D02*
Y102074D01*
X77330Y88330D02*
X77561Y88561D01*
X64500Y106371D02*
X64629Y106500D01*
X64500Y110500D02*
X64500Y110500D01*
X64500Y106500D02*
Y110500D01*
Y102500D02*
Y106371D01*
X60500Y102500D02*
X60500Y102500D01*
X64629D01*
X54500Y92500D02*
X60500Y98500D01*
Y110500D02*
X60500Y110500D01*
X60500Y106500D02*
Y110500D01*
X62330Y81200D02*
X67705D01*
X78830Y57700D02*
Y63700D01*
X51830Y57700D02*
Y63700D01*
X65565Y40200D02*
X68330D01*
X68500Y102500D02*
X68591Y102409D01*
D43*
X-5275Y133225D02*
X-5225Y133175D01*
Y116143D02*
Y133175D01*
X-5275Y116093D02*
X-5225Y116143D01*
D45*
X51500Y23050D02*
D03*
X-30075Y34325D02*
D03*
X-23275D02*
D03*
X-41225Y39850D02*
D03*
X-38782Y69500D02*
D03*
X39100Y27800D02*
D03*
Y34325D02*
D03*
D46*
X22398Y-59214D02*
D03*
X9703D02*
D03*
X-9347Y-47284D02*
D03*
X-15697D02*
D03*
X-22047D02*
D03*
X9703D02*
D03*
X3353D02*
D03*
X-2997D02*
D03*
X-9347Y-59214D02*
D03*
X-15697D02*
D03*
X-22047D02*
D03*
X-2997D02*
D03*
X3353D02*
D03*
X16048Y-47284D02*
D03*
Y-59214D02*
D03*
X22398Y-47284D02*
D03*
D47*
X-36500Y137500D02*
D03*
X36500D02*
D03*
Y7500D02*
D03*
D48*
X-41300Y31550D02*
D03*
D49*
X49375Y74900D02*
D03*
X50125Y71250D02*
D03*
X53975Y27675D02*
D03*
X53500Y35800D02*
D03*
X82625Y27675D02*
D03*
X42000Y124000D02*
D03*
X50000Y123000D02*
D03*
X51000Y111000D02*
D03*
X30000Y124000D02*
D03*
X34000D02*
D03*
X38000D02*
D03*
X51000Y115000D02*
D03*
Y103000D02*
D03*
Y107000D02*
D03*
X25269Y33519D02*
D03*
X41500Y50000D02*
D03*
X50500Y92500D02*
D03*
X82500Y74000D02*
D03*
X40909Y56600D02*
D03*
X50000Y86500D02*
D03*
X81000Y123000D02*
D03*
X-34375Y46300D02*
D03*
X76000Y115000D02*
D03*
X80000Y113500D02*
D03*
X75500Y95388D02*
D03*
X80000Y95000D02*
D03*
D51*
X-5175Y133600D02*
D03*
X-5275Y115725D02*
D03*
D52*
X56500Y106500D02*
D03*
Y98500D02*
D03*
Y102500D02*
D03*
Y110500D02*
D03*
X60500Y98500D02*
D03*
X64500D02*
D03*
X68500D02*
D03*
X60500Y102500D02*
D03*
X64500D02*
D03*
X68500D02*
D03*
X60500Y106500D02*
D03*
X64500D02*
D03*
X68500D02*
D03*
X60500Y110500D02*
D03*
X64500D02*
D03*
X68500D02*
D03*
D53*
X25400Y75500D02*
D03*
Y70500D02*
D03*
Y65500D02*
D03*
Y60500D02*
D03*
D54*
X53500Y78200D02*
D03*
Y73500D02*
D03*
X77160Y42600D02*
D03*
Y48506D02*
D03*
X56070Y41820D02*
D03*
X59953D02*
D03*
X77160Y73654D02*
D03*
Y76568D02*
D03*
X53500Y45378D02*
D03*
Y44214D02*
D03*
X70995Y79580D02*
D03*
X77160Y75536D02*
D03*
D55*
X53500Y75802D02*
D03*
D56*
X77160Y45500D02*
D03*
D57*
Y75536D02*
D03*
X53500Y44714D02*
D03*
D58*
X61175Y27675D02*
D03*
X75175D02*
D03*
X72000Y123000D02*
D03*
X58000D02*
D03*
D59*
X77500Y88500D02*
D03*
X71500D02*
D03*
X62500D02*
D03*
X56500D02*
D03*
D60*
X78500Y101500D02*
D03*
Y107500D02*
D03*
M02*
