G04*
G04 #@! TF.GenerationSoftware,Altium Limited,Altium Designer,18.0.12 (696)*
G04*
G04 Layer_Physical_Order=2*
G04 Layer_Color=39423*
%FSLAX44Y44*%
%MOMM*%
G71*
G01*
G75*
%ADD13C,0.0500*%
%ADD37C,0.1500*%
%ADD38C,0.0750*%
%ADD39C,0.2000*%
%ADD40C,0.0762*%
%ADD45P,0.3247X8X202.5*%
%ADD46O,0.4000X0.6000*%
%ADD47C,1.2000*%
%ADD49C,0.2500*%
%ADD50C,0.3000*%
%ADD51C,0.5000*%
G36*
X-40004Y145000D02*
X-39751Y143730D01*
X-40030Y143615D01*
X-41492Y142493D01*
X-42614Y141030D01*
X-43320Y139327D01*
X-43462Y138250D01*
X-29538D01*
X-29680Y139327D01*
X-30385Y141030D01*
X-31507Y142493D01*
X-32970Y143615D01*
X-33249Y143730D01*
X-32996Y145000D01*
X32996Y145000D01*
X33249Y143730D01*
X32970Y143615D01*
X31508Y142493D01*
X30386Y141030D01*
X29680Y139327D01*
X29538Y138250D01*
X36500D01*
Y137500D01*
X37250D01*
Y130538D01*
X38327Y130680D01*
X40030Y131385D01*
X41493Y132508D01*
X42614Y133970D01*
X42730Y134249D01*
X44000Y133996D01*
Y126597D01*
X42788Y125888D01*
X42730Y125894D01*
X42000Y126039D01*
X41220Y125884D01*
X40558Y125442D01*
X39442D01*
X38780Y125884D01*
X38000Y126039D01*
X37220Y125884D01*
X36558Y125442D01*
X35442D01*
X34780Y125884D01*
X34000Y126039D01*
X33220Y125884D01*
X32558Y125442D01*
X31442D01*
X30780Y125884D01*
X30000Y126039D01*
X29220Y125884D01*
X28558Y125442D01*
X28116Y124780D01*
X27961Y124000D01*
X28116Y123220D01*
X28502Y122643D01*
X28540Y122544D01*
X28617Y122464D01*
X28668Y122404D01*
X28709Y122348D01*
X28742Y122297D01*
X28766Y122251D01*
X28782Y122213D01*
Y120236D01*
X27512Y119710D01*
X25124Y122097D01*
X25109Y122135D01*
X25094Y122186D01*
X25080Y122245D01*
X25070Y122313D01*
X25064Y122391D01*
X25062Y122503D01*
X25019Y122599D01*
X24884Y123280D01*
X24442Y123942D01*
X23780Y124384D01*
X23000Y124539D01*
X22220Y124384D01*
X21558Y123942D01*
X20942D01*
X20280Y124384D01*
X19500Y124539D01*
X18720Y124384D01*
X18058Y123942D01*
X17442D01*
X16780Y124384D01*
X16000Y124539D01*
X15220Y124384D01*
X14558Y123942D01*
X13942D01*
X13280Y124384D01*
X12500Y124539D01*
X11720Y124384D01*
X11688Y124363D01*
X10750Y124046D01*
X9812Y124363D01*
X9780Y124384D01*
X9000Y124539D01*
X8220Y124384D01*
X8188Y124363D01*
X7250Y124046D01*
X6312Y124363D01*
X6280Y124384D01*
X5500Y124539D01*
X4720Y124384D01*
X4688Y124363D01*
X3750Y124046D01*
X2812Y124363D01*
X2780Y124384D01*
X2000Y124539D01*
X1220Y124384D01*
X558Y123942D01*
X-58D01*
X-720Y124384D01*
X-1500Y124539D01*
X-2280Y124384D01*
X-2312Y124363D01*
X-3250Y124046D01*
X-4188Y124363D01*
X-4220Y124384D01*
X-5000Y124539D01*
X-5780Y124384D01*
X-6442Y123942D01*
X-7058D01*
X-7720Y124384D01*
X-8500Y124539D01*
X-9280Y124384D01*
X-9942Y123942D01*
X-10558D01*
X-11220Y124384D01*
X-12000Y124539D01*
X-12780Y124384D01*
X-13442Y123942D01*
X-14058D01*
X-14720Y124384D01*
X-15500Y124539D01*
X-16280Y124384D01*
X-16942Y123942D01*
X-17558D01*
X-18220Y124384D01*
X-19000Y124539D01*
X-19780Y124384D01*
X-20442Y123942D01*
X-21058D01*
X-21720Y124384D01*
X-22500Y124539D01*
X-23280Y124384D01*
X-23942Y123942D01*
X-24558D01*
X-25220Y124384D01*
X-26000Y124539D01*
X-26780Y124384D01*
X-27826Y124136D01*
X-28487Y124578D01*
X-29267Y124733D01*
X-30048Y124578D01*
X-30709Y124136D01*
X-31151Y123474D01*
X-31287Y122793D01*
X-31329Y122697D01*
X-31331Y122585D01*
X-31338Y122507D01*
X-31348Y122438D01*
X-31361Y122379D01*
X-31377Y122329D01*
X-31392Y122291D01*
X-41936Y111747D01*
X-42293Y110886D01*
Y76551D01*
X-41936Y75690D01*
X-39169Y72923D01*
X-39655Y71750D01*
X-39907D01*
X-41032Y70625D01*
Y68375D01*
X-39907Y67250D01*
X-37657D01*
X-36532Y68375D01*
X-35299Y68716D01*
X-34974Y68519D01*
X-34632Y68263D01*
X-34591Y68221D01*
X-34578Y68159D01*
X-34567Y68073D01*
X-34558Y67957D01*
X-34486Y67816D01*
X-34384Y67304D01*
X-33942Y66643D01*
X-33280Y66201D01*
X-32500Y66046D01*
X-31720Y66201D01*
X-31058Y66643D01*
X-30616Y67304D01*
X-30461Y68085D01*
X-30616Y68865D01*
X-31058Y69527D01*
Y69893D01*
X-30616Y70554D01*
X-30461Y71335D01*
X-30616Y72115D01*
X-31058Y72777D01*
Y73143D01*
X-30616Y73804D01*
X-30461Y74585D01*
X-30616Y75365D01*
X-31058Y76027D01*
Y76393D01*
X-30616Y77055D01*
X-30461Y77835D01*
X-30616Y78615D01*
X-31058Y79277D01*
Y79643D01*
X-30616Y80305D01*
X-30514Y80816D01*
X-30442Y80957D01*
X-30433Y81073D01*
X-30422Y81159D01*
X-30407Y81234D01*
X-30389Y81299D01*
X-30370Y81357D01*
X-30348Y81406D01*
X-26139Y85615D01*
X-25782Y86476D01*
Y99995D01*
X-10042Y115736D01*
X-10023Y115736D01*
X-8746Y115235D01*
X-8572Y114359D01*
X-7798Y113202D01*
X-6641Y112428D01*
X-6025Y112306D01*
Y115725D01*
X-4525D01*
Y112306D01*
X-3909Y112428D01*
X-2752Y113202D01*
X-1510Y112774D01*
X-1216Y112578D01*
X-600Y112456D01*
Y115875D01*
X900D01*
Y112456D01*
X1516Y112578D01*
X2673Y113352D01*
X3318Y114316D01*
X4689Y114740D01*
X29782Y89647D01*
Y86269D01*
X30139Y85408D01*
X34242Y81305D01*
X34263Y81256D01*
X34283Y81199D01*
X34301Y81133D01*
X34316Y81057D01*
X34327Y80972D01*
X34336Y80856D01*
X34408Y80715D01*
X34510Y80204D01*
X34952Y79542D01*
X35540Y79149D01*
X35116Y78514D01*
X34961Y77734D01*
X35116Y76954D01*
X35558Y76292D01*
Y75926D01*
X35116Y75264D01*
X34961Y74484D01*
X35116Y73703D01*
X35558Y73042D01*
Y72676D01*
X35116Y72014D01*
X34961Y71234D01*
X35116Y70454D01*
X35558Y69792D01*
Y69426D01*
X35116Y68764D01*
X34961Y67984D01*
X35116Y67203D01*
X35558Y66542D01*
X36208Y66108D01*
X36220Y66046D01*
X36222Y64874D01*
X36209Y64807D01*
X35478Y64318D01*
X34981Y63574D01*
X34955Y63446D01*
X39245D01*
X39219Y63574D01*
X38722Y64318D01*
X37978Y64815D01*
X37905Y64830D01*
X37801Y65885D01*
X37838Y66138D01*
X38442Y66542D01*
X38884Y67203D01*
X38986Y67715D01*
X39058Y67856D01*
X39067Y67972D01*
X39078Y68058D01*
X39093Y68133D01*
X39111Y68198D01*
X39131Y68256D01*
X39152Y68305D01*
X42730Y71883D01*
X44000Y71357D01*
Y58242D01*
X42822Y57464D01*
X42730Y57475D01*
X42351Y58042D01*
X41689Y58484D01*
X40909Y58639D01*
X40129Y58484D01*
X39467Y58042D01*
X39025Y57380D01*
X38870Y56600D01*
X39025Y55820D01*
X39467Y55158D01*
X40129Y54716D01*
X40909Y54561D01*
X41689Y54716D01*
X42351Y55158D01*
X42730Y55725D01*
X42822Y55736D01*
X44000Y54958D01*
X44000Y52144D01*
X43516Y51823D01*
X42730Y51584D01*
X42280Y51884D01*
X41500Y52039D01*
X40720Y51884D01*
X40058Y51442D01*
X39616Y50780D01*
X39461Y50000D01*
X39616Y49220D01*
X40058Y48558D01*
X40720Y48116D01*
X41500Y47961D01*
X42280Y48116D01*
X42730Y48416D01*
X43516Y48177D01*
X44000Y47856D01*
Y41243D01*
X43300D01*
X42439Y40886D01*
X40914Y39361D01*
X40557Y38500D01*
Y36713D01*
X40225Y36575D01*
X37975D01*
X36850Y35450D01*
Y33200D01*
X37975Y32075D01*
X40225D01*
X40557Y31937D01*
Y30188D01*
X40225Y30050D01*
X37975D01*
X36850Y28925D01*
Y26675D01*
X37197Y26328D01*
X37014Y25411D01*
X34376Y22773D01*
X24413Y22800D01*
X20000Y18387D01*
Y15995D01*
X19995Y15990D01*
X18629Y15719D01*
X17471Y14945D01*
X17100Y14389D01*
X17056Y14370D01*
X16912Y14323D01*
X16756Y14285D01*
X16586Y14257D01*
X16402Y14240D01*
X16179Y14233D01*
X16119Y14206D01*
X6497D01*
X5814Y14070D01*
X5235Y13684D01*
X-1437Y7012D01*
X-1823Y6433D01*
X-1959Y5750D01*
Y3500D01*
X-47825Y3500D01*
X-47825Y145000D01*
X-40004D01*
D02*
G37*
G36*
X84500Y123447D02*
X83230Y123322D01*
X83119Y123878D01*
X82622Y124622D01*
X81878Y125119D01*
X81750Y125145D01*
Y123000D01*
Y120855D01*
X81878Y120881D01*
X82622Y121378D01*
X83119Y122122D01*
X83230Y122678D01*
X84500Y122553D01*
Y76897D01*
X83542Y76233D01*
X83250Y76154D01*
Y74000D01*
Y71846D01*
X83542Y71767D01*
X84500Y71103D01*
Y30656D01*
X84136Y30342D01*
X83375Y29928D01*
Y27675D01*
Y25422D01*
X84136Y25008D01*
X84500Y24694D01*
Y15500D01*
X61171Y15500D01*
X60645Y16770D01*
X60875Y17000D01*
Y17500D01*
X58375D01*
Y18250D01*
X57640D01*
Y16781D01*
X57488Y16917D01*
X57321Y17040D01*
X57138Y17147D01*
X56940Y17241D01*
X56726Y17320D01*
X56496Y17385D01*
X56251Y17435D01*
X55989Y17471D01*
X55713Y17493D01*
X55421Y17500D01*
Y19000D01*
X55713Y19007D01*
X55989Y19029D01*
X56251Y19065D01*
X56496Y19115D01*
X56726Y19180D01*
X56940Y19259D01*
X57138Y19353D01*
X57321Y19461D01*
X57488Y19583D01*
X57625Y19706D01*
Y20750D01*
X57125D01*
X56273Y19898D01*
X56154Y19874D01*
X53455D01*
X52969Y21144D01*
X53750Y21925D01*
Y24175D01*
X53487Y24438D01*
X53836Y25296D01*
X54067Y25654D01*
X54755Y25791D01*
X55417Y26233D01*
X55859Y26895D01*
X56014Y27675D01*
X55859Y28455D01*
X55417Y29117D01*
X54755Y29559D01*
X53975Y29714D01*
X53195Y29559D01*
X52613Y29170D01*
X52190Y29262D01*
X51343Y29621D01*
Y33317D01*
X52613Y33988D01*
X52720Y33916D01*
X53500Y33761D01*
X54280Y33916D01*
X54942Y34358D01*
X55384Y35020D01*
X55539Y35800D01*
X55384Y36580D01*
X54942Y37242D01*
X54280Y37684D01*
X53500Y37839D01*
X52720Y37684D01*
X52613Y37613D01*
X51343Y38283D01*
Y69658D01*
X51567Y69808D01*
X52009Y70470D01*
X52164Y71250D01*
X52009Y72030D01*
X51567Y72692D01*
X50967Y73305D01*
X51259Y74120D01*
X51414Y74900D01*
X51259Y75680D01*
X50817Y76342D01*
X50155Y76784D01*
X49375Y76939D01*
X48595Y76784D01*
X48270Y76567D01*
X47158Y76996D01*
X47000Y77130D01*
Y84654D01*
X48270Y85039D01*
X48378Y84878D01*
X49122Y84381D01*
X49250Y84355D01*
Y86500D01*
Y88645D01*
X49122Y88619D01*
X48378Y88122D01*
X48270Y87961D01*
X47000Y88346D01*
Y102906D01*
X48240Y103603D01*
X48294Y103580D01*
X48325Y103564D01*
X48370Y103536D01*
X48449Y103476D01*
X48938Y103026D01*
X48938Y102997D01*
X48981Y102900D01*
X49116Y102220D01*
X49558Y101558D01*
X50220Y101116D01*
X51000Y100961D01*
X51780Y101116D01*
X52442Y101558D01*
X52884Y102220D01*
X53039Y103000D01*
X52884Y103780D01*
X52442Y104442D01*
Y105558D01*
X52884Y106220D01*
X53039Y107000D01*
X52884Y107780D01*
X52442Y108442D01*
Y109558D01*
X52884Y110220D01*
X53039Y111000D01*
X52884Y111780D01*
X52442Y112442D01*
Y113558D01*
X52884Y114220D01*
X53039Y115000D01*
X52884Y115780D01*
X52442Y116442D01*
X51780Y116884D01*
X51000Y117039D01*
X50220Y116884D01*
X49643Y116498D01*
X49544Y116460D01*
X49464Y116383D01*
X49404Y116332D01*
X49348Y116291D01*
X49297Y116258D01*
X49251Y116234D01*
X49213Y116218D01*
X47000D01*
Y121778D01*
X47147Y121836D01*
X48270Y121989D01*
X48558Y121558D01*
X49220Y121116D01*
X50000Y120961D01*
X50780Y121116D01*
X51442Y121558D01*
X51884Y122220D01*
X52039Y123000D01*
X51884Y123780D01*
X51442Y124442D01*
X50780Y124884D01*
X50000Y125039D01*
X49220Y124884D01*
X48558Y124442D01*
X48270Y124011D01*
X47147Y124164D01*
X47000Y124222D01*
Y129500D01*
X84500Y129500D01*
Y123447D01*
D02*
G37*
G36*
X42780Y123009D02*
X42695Y122908D01*
X42620Y122807D01*
X42555Y122704D01*
X42500Y122600D01*
X42455Y122494D01*
X42420Y122387D01*
X42395Y122279D01*
X42380Y122169D01*
X42375Y122058D01*
X41625D01*
X41620Y122169D01*
X41605Y122279D01*
X41580Y122387D01*
X41545Y122494D01*
X41500Y122600D01*
X41445Y122704D01*
X41380Y122807D01*
X41305Y122908D01*
X41220Y123009D01*
X41125Y123107D01*
X42875D01*
X42780Y123009D01*
D02*
G37*
G36*
X38780D02*
X38695Y122908D01*
X38620Y122807D01*
X38555Y122704D01*
X38500Y122600D01*
X38455Y122494D01*
X38420Y122387D01*
X38395Y122279D01*
X38380Y122169D01*
X38375Y122058D01*
X37625D01*
X37620Y122169D01*
X37605Y122279D01*
X37580Y122387D01*
X37545Y122494D01*
X37500Y122600D01*
X37445Y122704D01*
X37380Y122807D01*
X37305Y122908D01*
X37220Y123009D01*
X37125Y123107D01*
X38875D01*
X38780Y123009D01*
D02*
G37*
G36*
X34780D02*
X34695Y122908D01*
X34620Y122807D01*
X34555Y122704D01*
X34500Y122600D01*
X34455Y122494D01*
X34420Y122387D01*
X34395Y122279D01*
X34380Y122169D01*
X34375Y122058D01*
X33625D01*
X33620Y122169D01*
X33605Y122279D01*
X33580Y122387D01*
X33545Y122494D01*
X33500Y122600D01*
X33445Y122704D01*
X33380Y122807D01*
X33305Y122908D01*
X33220Y123009D01*
X33125Y123107D01*
X34875D01*
X34780Y123009D01*
D02*
G37*
G36*
X30780D02*
X30695Y122908D01*
X30620Y122807D01*
X30555Y122704D01*
X30500Y122600D01*
X30455Y122494D01*
X30420Y122387D01*
X30395Y122279D01*
X30380Y122169D01*
X30375Y122058D01*
X29625D01*
X29620Y122169D01*
X29605Y122279D01*
X29580Y122387D01*
X29545Y122494D01*
X29500Y122600D01*
X29445Y122704D01*
X29380Y122807D01*
X29305Y122908D01*
X29220Y123009D01*
X29125Y123107D01*
X30875D01*
X30780Y123009D01*
D02*
G37*
G36*
X-29280Y121444D02*
X-29417Y121441D01*
X-29548Y121430D01*
X-29673Y121412D01*
X-29791Y121385D01*
X-29904Y121350D01*
X-30011Y121307D01*
X-30111Y121256D01*
X-30205Y121197D01*
X-30294Y121130D01*
X-30376Y121055D01*
X-30906Y121585D01*
X-30831Y121667D01*
X-30764Y121756D01*
X-30705Y121850D01*
X-30654Y121951D01*
X-30611Y122057D01*
X-30576Y122170D01*
X-30549Y122288D01*
X-30531Y122413D01*
X-30520Y122544D01*
X-30517Y122681D01*
X-29280Y121444D01*
D02*
G37*
G36*
X24253Y122350D02*
X24263Y122219D01*
X24282Y122095D01*
X24309Y121976D01*
X24344Y121863D01*
X24386Y121757D01*
X24437Y121656D01*
X24496Y121562D01*
X24564Y121474D01*
X24639Y121391D01*
X24108Y120861D01*
X24026Y120936D01*
X23938Y121003D01*
X23843Y121062D01*
X23743Y121113D01*
X23637Y121156D01*
X23524Y121191D01*
X23405Y121218D01*
X23280Y121236D01*
X23149Y121247D01*
X23012Y121250D01*
X24250Y122487D01*
X24253Y122350D01*
D02*
G37*
G36*
X20752D02*
X20763Y122219D01*
X20782Y122095D01*
X20809Y121976D01*
X20844Y121863D01*
X20886Y121757D01*
X20937Y121656D01*
X20996Y121562D01*
X21063Y121474D01*
X21139Y121391D01*
X20608Y120861D01*
X20526Y120936D01*
X20438Y121003D01*
X20343Y121062D01*
X20243Y121113D01*
X20136Y121156D01*
X20024Y121191D01*
X19905Y121218D01*
X19780Y121236D01*
X19649Y121247D01*
X19512Y121250D01*
X20750Y122487D01*
X20752Y122350D01*
D02*
G37*
G36*
X17253D02*
X17263Y122219D01*
X17282Y122095D01*
X17309Y121976D01*
X17344Y121863D01*
X17386Y121757D01*
X17437Y121656D01*
X17497Y121562D01*
X17564Y121474D01*
X17639Y121391D01*
X17108Y120861D01*
X17026Y120936D01*
X16938Y121003D01*
X16844Y121062D01*
X16743Y121113D01*
X16637Y121156D01*
X16524Y121191D01*
X16405Y121218D01*
X16280Y121236D01*
X16149Y121247D01*
X16013Y121250D01*
X17250Y122487D01*
X17253Y122350D01*
D02*
G37*
G36*
X13752D02*
X13763Y122219D01*
X13782Y122095D01*
X13809Y121976D01*
X13844Y121863D01*
X13886Y121757D01*
X13937Y121656D01*
X13996Y121562D01*
X14064Y121474D01*
X14139Y121391D01*
X13608Y120861D01*
X13526Y120936D01*
X13438Y121003D01*
X13343Y121062D01*
X13243Y121113D01*
X13137Y121156D01*
X13024Y121191D01*
X12905Y121218D01*
X12780Y121236D01*
X12650Y121247D01*
X12513Y121250D01*
X13750Y122487D01*
X13752Y122350D01*
D02*
G37*
G36*
X10252D02*
X10263Y122219D01*
X10282Y122095D01*
X10309Y121976D01*
X10344Y121863D01*
X10387Y121757D01*
X10437Y121656D01*
X10496Y121562D01*
X10563Y121474D01*
X10639Y121391D01*
X10108Y120861D01*
X10026Y120936D01*
X9938Y121003D01*
X9844Y121062D01*
X9743Y121113D01*
X9636Y121156D01*
X9524Y121191D01*
X9405Y121218D01*
X9280Y121236D01*
X9150Y121247D01*
X9013Y121250D01*
X10250Y122487D01*
X10252Y122350D01*
D02*
G37*
G36*
X6752D02*
X6763Y122219D01*
X6782Y122095D01*
X6809Y121976D01*
X6844Y121863D01*
X6887Y121757D01*
X6938Y121656D01*
X6996Y121562D01*
X7064Y121474D01*
X7139Y121391D01*
X6608Y120861D01*
X6526Y120936D01*
X6438Y121003D01*
X6344Y121062D01*
X6243Y121113D01*
X6137Y121156D01*
X6024Y121191D01*
X5905Y121218D01*
X5780Y121236D01*
X5649Y121247D01*
X5512Y121250D01*
X6750Y122487D01*
X6752Y122350D01*
D02*
G37*
G36*
X3252D02*
X3263Y122219D01*
X3282Y122095D01*
X3309Y121976D01*
X3344Y121863D01*
X3386Y121757D01*
X3438Y121656D01*
X3496Y121562D01*
X3564Y121474D01*
X3639Y121391D01*
X3108Y120861D01*
X3026Y120936D01*
X2938Y121003D01*
X2844Y121062D01*
X2743Y121113D01*
X2637Y121156D01*
X2524Y121191D01*
X2405Y121218D01*
X2280Y121236D01*
X2149Y121247D01*
X2013Y121250D01*
X3250Y122487D01*
X3252Y122350D01*
D02*
G37*
G36*
X-247D02*
X-237Y122219D01*
X-218Y122095D01*
X-191Y121976D01*
X-156Y121863D01*
X-114Y121757D01*
X-63Y121656D01*
X-3Y121562D01*
X64Y121474D01*
X139Y121391D01*
X-392Y120861D01*
X-474Y120936D01*
X-562Y121003D01*
X-657Y121062D01*
X-757Y121113D01*
X-864Y121156D01*
X-976Y121191D01*
X-1095Y121218D01*
X-1220Y121236D01*
X-1350Y121247D01*
X-1488Y121250D01*
X-250Y122487D01*
X-247Y122350D01*
D02*
G37*
G36*
X-5013Y121250D02*
X-5149Y121247D01*
X-5280Y121236D01*
X-5405Y121218D01*
X-5524Y121191D01*
X-5637Y121156D01*
X-5743Y121113D01*
X-5843Y121062D01*
X-5938Y121003D01*
X-6026Y120936D01*
X-6108Y120861D01*
X-6639Y121391D01*
X-6564Y121474D01*
X-6496Y121562D01*
X-6438Y121656D01*
X-6387Y121757D01*
X-6344Y121863D01*
X-6309Y121976D01*
X-6282Y122095D01*
X-6263Y122219D01*
X-6252Y122350D01*
X-6250Y122487D01*
X-5013Y121250D01*
D02*
G37*
G36*
X-8512D02*
X-8650Y121247D01*
X-8780Y121236D01*
X-8905Y121218D01*
X-9024Y121191D01*
X-9136Y121156D01*
X-9243Y121113D01*
X-9344Y121062D01*
X-9438Y121003D01*
X-9526Y120936D01*
X-9608Y120861D01*
X-10139Y121391D01*
X-10064Y121474D01*
X-9997Y121562D01*
X-9937Y121656D01*
X-9887Y121757D01*
X-9844Y121863D01*
X-9809Y121976D01*
X-9782Y122095D01*
X-9763Y122219D01*
X-9753Y122350D01*
X-9750Y122487D01*
X-8512Y121250D01*
D02*
G37*
G36*
X-12012D02*
X-12149Y121247D01*
X-12280Y121236D01*
X-12405Y121218D01*
X-12524Y121191D01*
X-12636Y121156D01*
X-12743Y121113D01*
X-12844Y121062D01*
X-12938Y121003D01*
X-13026Y120936D01*
X-13108Y120861D01*
X-13639Y121391D01*
X-13563Y121474D01*
X-13497Y121562D01*
X-13437Y121656D01*
X-13386Y121757D01*
X-13344Y121863D01*
X-13309Y121976D01*
X-13282Y122095D01*
X-13263Y122219D01*
X-13253Y122350D01*
X-13250Y122487D01*
X-12012Y121250D01*
D02*
G37*
G36*
X-15512D02*
X-15649Y121247D01*
X-15780Y121236D01*
X-15905Y121218D01*
X-16024Y121191D01*
X-16136Y121156D01*
X-16243Y121113D01*
X-16343Y121062D01*
X-16438Y121003D01*
X-16526Y120936D01*
X-16608Y120861D01*
X-17139Y121391D01*
X-17063Y121474D01*
X-16997Y121562D01*
X-16937Y121656D01*
X-16887Y121757D01*
X-16844Y121863D01*
X-16809Y121976D01*
X-16782Y122095D01*
X-16763Y122219D01*
X-16753Y122350D01*
X-16750Y122487D01*
X-15512Y121250D01*
D02*
G37*
G36*
X-19013D02*
X-19149Y121247D01*
X-19280Y121236D01*
X-19405Y121218D01*
X-19524Y121191D01*
X-19636Y121156D01*
X-19743Y121113D01*
X-19843Y121062D01*
X-19938Y121003D01*
X-20026Y120936D01*
X-20108Y120861D01*
X-20639Y121391D01*
X-20563Y121474D01*
X-20496Y121562D01*
X-20437Y121656D01*
X-20387Y121757D01*
X-20344Y121863D01*
X-20309Y121976D01*
X-20282Y122095D01*
X-20263Y122219D01*
X-20252Y122350D01*
X-20250Y122487D01*
X-19013Y121250D01*
D02*
G37*
G36*
X-22513D02*
X-22649Y121247D01*
X-22780Y121236D01*
X-22905Y121218D01*
X-23024Y121191D01*
X-23136Y121156D01*
X-23243Y121113D01*
X-23343Y121062D01*
X-23438Y121003D01*
X-23526Y120936D01*
X-23608Y120861D01*
X-24139Y121391D01*
X-24063Y121474D01*
X-23996Y121562D01*
X-23937Y121656D01*
X-23886Y121757D01*
X-23844Y121863D01*
X-23809Y121976D01*
X-23782Y122095D01*
X-23763Y122219D01*
X-23753Y122350D01*
X-23750Y122487D01*
X-22513Y121250D01*
D02*
G37*
G36*
X-26012D02*
X-26149Y121247D01*
X-26280Y121236D01*
X-26405Y121218D01*
X-26524Y121191D01*
X-26636Y121156D01*
X-26743Y121113D01*
X-26843Y121062D01*
X-26938Y121003D01*
X-27026Y120936D01*
X-27108Y120861D01*
X-27639Y121391D01*
X-27564Y121474D01*
X-27496Y121562D01*
X-27437Y121656D01*
X-27387Y121757D01*
X-27344Y121863D01*
X-27309Y121976D01*
X-27282Y122095D01*
X-27263Y122219D01*
X-27253Y122350D01*
X-27250Y122487D01*
X-26012Y121250D01*
D02*
G37*
G36*
X50107Y114125D02*
X50009Y114220D01*
X49908Y114305D01*
X49807Y114380D01*
X49704Y114445D01*
X49600Y114500D01*
X49494Y114545D01*
X49387Y114580D01*
X49279Y114605D01*
X49169Y114620D01*
X49058Y114625D01*
Y115375D01*
X49169Y115380D01*
X49279Y115395D01*
X49387Y115420D01*
X49494Y115455D01*
X49600Y115500D01*
X49704Y115555D01*
X49807Y115620D01*
X49908Y115695D01*
X50009Y115780D01*
X50107Y115875D01*
Y114125D01*
D02*
G37*
G36*
Y110125D02*
X50009Y110220D01*
X49908Y110305D01*
X49807Y110380D01*
X49704Y110445D01*
X49600Y110500D01*
X49494Y110545D01*
X49387Y110580D01*
X49279Y110605D01*
X49169Y110620D01*
X49058Y110625D01*
Y111375D01*
X49169Y111380D01*
X49279Y111395D01*
X49387Y111420D01*
X49494Y111455D01*
X49600Y111500D01*
X49704Y111555D01*
X49807Y111620D01*
X49908Y111695D01*
X50009Y111780D01*
X50107Y111875D01*
Y110125D01*
D02*
G37*
G36*
X49974Y108564D02*
X50062Y108497D01*
X50156Y108438D01*
X50257Y108386D01*
X50363Y108344D01*
X50476Y108309D01*
X50595Y108282D01*
X50720Y108263D01*
X50851Y108253D01*
X50988Y108250D01*
X49750Y107013D01*
X49747Y107149D01*
X49737Y107280D01*
X49718Y107405D01*
X49691Y107524D01*
X49656Y107636D01*
X49613Y107743D01*
X49563Y107844D01*
X49503Y107938D01*
X49436Y108026D01*
X49361Y108108D01*
X49892Y108639D01*
X49974Y108564D01*
D02*
G37*
G36*
Y104564D02*
X50062Y104496D01*
X50156Y104438D01*
X50257Y104387D01*
X50363Y104344D01*
X50476Y104309D01*
X50595Y104282D01*
X50720Y104263D01*
X50851Y104253D01*
X50988Y104250D01*
X49750Y103013D01*
X49747Y103149D01*
X49737Y103280D01*
X49718Y103405D01*
X49691Y103524D01*
X49656Y103637D01*
X49613Y103743D01*
X49563Y103843D01*
X49503Y103938D01*
X49436Y104026D01*
X49361Y104108D01*
X49892Y104639D01*
X49974Y104564D01*
D02*
G37*
G36*
X36774Y93019D02*
X36789Y92909D01*
X36814Y92800D01*
X36849Y92693D01*
X36894Y92587D01*
X36949Y92483D01*
X37014Y92380D01*
X37089Y92279D01*
X37174Y92179D01*
X37269Y92080D01*
X35519D01*
X35614Y92179D01*
X35699Y92279D01*
X35774Y92380D01*
X35839Y92483D01*
X35894Y92587D01*
X35939Y92693D01*
X35974Y92800D01*
X35999Y92909D01*
X36014Y93019D01*
X36019Y93130D01*
X36769D01*
X36774Y93019D01*
D02*
G37*
G36*
X-32120Y92666D02*
X-32105Y92556D01*
X-32080Y92448D01*
X-32045Y92341D01*
X-32000Y92235D01*
X-31945Y92131D01*
X-31880Y92028D01*
X-31805Y91926D01*
X-31720Y91826D01*
X-31625Y91728D01*
X-33375D01*
X-33280Y91826D01*
X-33195Y91926D01*
X-33120Y92028D01*
X-33055Y92131D01*
X-33000Y92235D01*
X-32955Y92341D01*
X-32920Y92448D01*
X-32895Y92556D01*
X-32880Y92666D01*
X-32875Y92777D01*
X-32125D01*
X-32120Y92666D01*
D02*
G37*
G36*
X-30826Y88620D02*
X-30900Y88539D01*
X-30968Y88451D01*
X-31028Y88358D01*
X-31081Y88257D01*
X-31127Y88151D01*
X-31166Y88037D01*
X-31198Y87918D01*
X-31223Y87792D01*
X-31241Y87659D01*
X-31252Y87521D01*
X-32411Y88832D01*
X-32276Y88827D01*
X-32147Y88830D01*
X-32024Y88843D01*
X-31907Y88865D01*
X-31795Y88895D01*
X-31689Y88935D01*
X-31589Y88984D01*
X-31494Y89042D01*
X-31405Y89109D01*
X-31322Y89185D01*
X-30826Y88620D01*
D02*
G37*
G36*
X34990Y89047D02*
X35078Y88981D01*
X35173Y88921D01*
X35273Y88870D01*
X35380Y88828D01*
X35492Y88793D01*
X35611Y88766D01*
X35736Y88747D01*
X35867Y88737D01*
X36004Y88734D01*
X34766Y87497D01*
X34764Y87633D01*
X34753Y87764D01*
X34734Y87889D01*
X34708Y88008D01*
X34673Y88120D01*
X34630Y88227D01*
X34579Y88328D01*
X34520Y88422D01*
X34453Y88510D01*
X34378Y88592D01*
X34908Y89123D01*
X34990Y89047D01*
D02*
G37*
G36*
X-30821Y85358D02*
X-30896Y85277D01*
X-30963Y85189D01*
X-31024Y85095D01*
X-31078Y84995D01*
X-31124Y84889D01*
X-31164Y84776D01*
X-31197Y84658D01*
X-31222Y84533D01*
X-31241Y84402D01*
X-31252Y84265D01*
X-32405Y85581D01*
X-32272Y85576D01*
X-32144Y85579D01*
X-32023Y85591D01*
X-31906Y85613D01*
X-31795Y85644D01*
X-31690Y85684D01*
X-31590Y85733D01*
X-31495Y85791D01*
X-31406Y85858D01*
X-31322Y85934D01*
X-30821Y85358D01*
D02*
G37*
G36*
X35088Y85592D02*
X35178Y85526D01*
X35272Y85472D01*
X35370Y85430D01*
X35471Y85400D01*
X35577Y85382D01*
X35686Y85377D01*
X35800Y85383D01*
X35917Y85402D01*
X36038Y85432D01*
X35189Y83902D01*
X35148Y84042D01*
X35056Y84300D01*
X35005Y84419D01*
X34894Y84634D01*
X34833Y84731D01*
X34769Y84821D01*
X34702Y84903D01*
X34632Y84979D01*
X35002Y85670D01*
X35088Y85592D01*
D02*
G37*
G36*
X-30826Y82120D02*
X-30900Y82039D01*
X-30968Y81951D01*
X-31028Y81858D01*
X-31081Y81757D01*
X-31127Y81650D01*
X-31166Y81537D01*
X-31198Y81418D01*
X-31223Y81292D01*
X-31241Y81159D01*
X-31252Y81020D01*
X-32411Y82332D01*
X-32276Y82326D01*
X-32147Y82330D01*
X-32024Y82343D01*
X-31907Y82365D01*
X-31795Y82395D01*
X-31689Y82435D01*
X-31589Y82484D01*
X-31494Y82542D01*
X-31405Y82608D01*
X-31322Y82684D01*
X-30826Y82120D01*
D02*
G37*
G36*
X35299Y82508D02*
X35388Y82441D01*
X35483Y82383D01*
X35583Y82334D01*
X35689Y82294D01*
X35801Y82263D01*
X35918Y82242D01*
X36041Y82229D01*
X36170Y82225D01*
X36305Y82231D01*
X35146Y80920D01*
X35135Y81058D01*
X35117Y81191D01*
X35092Y81317D01*
X35060Y81436D01*
X35021Y81550D01*
X34975Y81656D01*
X34922Y81756D01*
X34862Y81850D01*
X34794Y81938D01*
X34720Y82019D01*
X35216Y82583D01*
X35299Y82508D01*
D02*
G37*
G36*
X-33595Y79359D02*
X-33506Y79292D01*
X-33411Y79234D01*
X-33311Y79185D01*
X-33205Y79145D01*
X-33093Y79114D01*
X-32976Y79093D01*
X-32853Y79080D01*
X-32724Y79076D01*
X-32589Y79082D01*
X-33748Y77771D01*
X-33759Y77909D01*
X-33777Y78042D01*
X-33802Y78168D01*
X-33834Y78287D01*
X-33873Y78401D01*
X-33919Y78507D01*
X-33972Y78608D01*
X-34032Y78701D01*
X-34100Y78789D01*
X-34174Y78870D01*
X-33678Y79434D01*
X-33595Y79359D01*
D02*
G37*
G36*
X38639Y78842D02*
X38564Y78760D01*
X38496Y78672D01*
X38438Y78577D01*
X38386Y78477D01*
X38344Y78370D01*
X38309Y78258D01*
X38282Y78139D01*
X38263Y78014D01*
X38253Y77883D01*
X38250Y77746D01*
X37013Y78984D01*
X37150Y78986D01*
X37280Y78997D01*
X37405Y79016D01*
X37524Y79043D01*
X37636Y79078D01*
X37743Y79120D01*
X37843Y79171D01*
X37938Y79230D01*
X38026Y79297D01*
X38108Y79373D01*
X38639Y78842D01*
D02*
G37*
G36*
X38674Y75519D02*
X38600Y75438D01*
X38533Y75350D01*
X38472Y75256D01*
X38419Y75156D01*
X38373Y75049D01*
X38334Y74936D01*
X38302Y74817D01*
X38277Y74691D01*
X38259Y74558D01*
X38248Y74419D01*
X37089Y75731D01*
X37224Y75725D01*
X37353Y75729D01*
X37476Y75742D01*
X37593Y75764D01*
X37705Y75794D01*
X37811Y75834D01*
X37911Y75883D01*
X38006Y75941D01*
X38095Y76007D01*
X38178Y76083D01*
X38674Y75519D01*
D02*
G37*
G36*
X-33595Y76108D02*
X-33506Y76042D01*
X-33411Y75984D01*
X-33311Y75935D01*
X-33205Y75895D01*
X-33093Y75865D01*
X-32976Y75843D01*
X-32853Y75830D01*
X-32724Y75826D01*
X-32589Y75832D01*
X-33748Y74521D01*
X-33759Y74659D01*
X-33777Y74792D01*
X-33802Y74918D01*
X-33834Y75037D01*
X-33873Y75150D01*
X-33919Y75257D01*
X-33972Y75357D01*
X-34032Y75451D01*
X-34100Y75539D01*
X-34174Y75620D01*
X-33678Y76184D01*
X-33595Y76108D01*
D02*
G37*
G36*
X49333Y73651D02*
X49317Y73648D01*
X49303Y73640D01*
X49291Y73626D01*
X49280Y73605D01*
X49271Y73579D01*
X49263Y73547D01*
X49257Y73509D01*
X49253Y73465D01*
X49250Y73359D01*
X48500D01*
X48487Y74020D01*
X49333Y73651D01*
D02*
G37*
G36*
X38674Y72269D02*
X38600Y72188D01*
X38533Y72100D01*
X38472Y72006D01*
X38419Y71906D01*
X38373Y71799D01*
X38334Y71686D01*
X38302Y71567D01*
X38277Y71441D01*
X38259Y71308D01*
X38248Y71169D01*
X37089Y72481D01*
X37224Y72475D01*
X37353Y72479D01*
X37476Y72492D01*
X37593Y72513D01*
X37705Y72544D01*
X37811Y72584D01*
X37911Y72633D01*
X38006Y72691D01*
X38095Y72757D01*
X38178Y72833D01*
X38674Y72269D01*
D02*
G37*
G36*
X-33595Y72859D02*
X-33506Y72792D01*
X-33411Y72734D01*
X-33311Y72685D01*
X-33205Y72645D01*
X-33093Y72614D01*
X-32976Y72593D01*
X-32853Y72580D01*
X-32724Y72576D01*
X-32589Y72582D01*
X-33748Y71270D01*
X-33759Y71409D01*
X-33777Y71542D01*
X-33802Y71668D01*
X-33834Y71787D01*
X-33873Y71900D01*
X-33919Y72007D01*
X-33972Y72107D01*
X-34032Y72201D01*
X-34100Y72289D01*
X-34174Y72370D01*
X-33678Y72934D01*
X-33595Y72859D01*
D02*
G37*
G36*
X38674Y69019D02*
X38600Y68938D01*
X38533Y68850D01*
X38472Y68756D01*
X38419Y68656D01*
X38373Y68549D01*
X38334Y68436D01*
X38302Y68317D01*
X38277Y68191D01*
X38259Y68058D01*
X38248Y67919D01*
X37089Y69231D01*
X37224Y69225D01*
X37353Y69229D01*
X37476Y69242D01*
X37593Y69263D01*
X37705Y69294D01*
X37811Y69334D01*
X37911Y69383D01*
X38006Y69441D01*
X38095Y69507D01*
X38178Y69583D01*
X38674Y69019D01*
D02*
G37*
G36*
X-33595Y69608D02*
X-33506Y69542D01*
X-33411Y69484D01*
X-33311Y69435D01*
X-33205Y69395D01*
X-33093Y69364D01*
X-32976Y69343D01*
X-32853Y69330D01*
X-32724Y69326D01*
X-32589Y69332D01*
X-33748Y68020D01*
X-33759Y68159D01*
X-33777Y68292D01*
X-33802Y68418D01*
X-33834Y68537D01*
X-33873Y68650D01*
X-33919Y68757D01*
X-33972Y68857D01*
X-34032Y68951D01*
X-34100Y69039D01*
X-34174Y69120D01*
X-33678Y69684D01*
X-33595Y69608D01*
D02*
G37*
G36*
X51776Y21611D02*
X51700Y21659D01*
X51603Y21673D01*
X51484Y21653D01*
X51344Y21597D01*
X51182Y21508D01*
X51000Y21384D01*
X50795Y21226D01*
X50323Y20806D01*
X50055Y20545D01*
X48995Y21605D01*
X49256Y21873D01*
X49834Y22550D01*
X49958Y22732D01*
X50047Y22894D01*
X50103Y23034D01*
X50123Y23153D01*
X50109Y23250D01*
X50061Y23326D01*
X51776Y21611D01*
D02*
G37*
G36*
X37254Y14262D02*
X37282Y13941D01*
X37307Y13808D01*
X37340Y13694D01*
X37379Y13598D01*
X37426Y13520D01*
X37479Y13460D01*
X37540Y13419D01*
X37608Y13397D01*
X35392D01*
X35460Y13419D01*
X35521Y13460D01*
X35574Y13520D01*
X35621Y13598D01*
X35660Y13694D01*
X35693Y13808D01*
X35718Y13941D01*
X35736Y14092D01*
X35746Y14262D01*
X35750Y14450D01*
X37250D01*
X37254Y14262D01*
D02*
G37*
G36*
X18210Y10672D02*
X18057Y10814D01*
X17894Y10942D01*
X17720Y11054D01*
X17536Y11152D01*
X17341Y11234D01*
X17134Y11302D01*
X16918Y11354D01*
X16690Y11392D01*
X16452Y11414D01*
X16204Y11422D01*
Y13422D01*
X16452Y13429D01*
X16690Y13452D01*
X16918Y13489D01*
X17134Y13542D01*
X17341Y13609D01*
X17536Y13692D01*
X17720Y13789D01*
X17894Y13902D01*
X18057Y14029D01*
X18210Y14172D01*
Y10672D01*
D02*
G37*
G36*
X16424Y-43867D02*
X16448Y-44170D01*
X16462Y-44244D01*
X16479Y-44305D01*
X16499Y-44352D01*
X16523Y-44386D01*
X16549Y-44406D01*
X16579Y-44413D01*
X15516D01*
X15546Y-44406D01*
X15573Y-44386D01*
X15596Y-44352D01*
X15616Y-44305D01*
X15634Y-44244D01*
X15648Y-44170D01*
X15659Y-44082D01*
X15671Y-43867D01*
X15673Y-43738D01*
X16423D01*
X16424Y-43867D01*
D02*
G37*
G36*
X21089Y-43605D02*
X21620Y-44054D01*
X21858Y-44220D01*
X22078Y-44348D01*
X22280Y-44438D01*
X22464Y-44488D01*
X22630Y-44500D01*
X22777Y-44474D01*
X22907Y-44408D01*
X20450Y-46135D01*
X20552Y-46039D01*
X20612Y-45923D01*
X20631Y-45786D01*
X20608Y-45629D01*
X20545Y-45452D01*
X20441Y-45254D01*
X20295Y-45036D01*
X20109Y-44798D01*
X19881Y-44539D01*
X19612Y-44260D01*
X20796Y-43323D01*
X21089Y-43605D01*
D02*
G37*
G36*
X14028Y-56659D02*
X14138Y-56753D01*
X14239Y-56828D01*
X14330Y-56882D01*
X14412Y-56917D01*
X14484Y-56932D01*
X14547Y-56927D01*
X14601Y-56903D01*
X14646Y-56859D01*
X14681Y-56795D01*
X14070Y-58267D01*
X14092Y-58193D01*
X14098Y-58114D01*
X14088Y-58030D01*
X14063Y-57940D01*
X14023Y-57845D01*
X13967Y-57744D01*
X13896Y-57637D01*
X13809Y-57525D01*
X13706Y-57408D01*
X13589Y-57285D01*
X13909Y-56545D01*
X14028Y-56659D01*
D02*
G37*
G36*
X7499Y-55582D02*
X8171Y-56143D01*
X8461Y-56336D01*
X8721Y-56470D01*
X8950Y-56546D01*
X9148Y-56564D01*
X9316Y-56523D01*
X9452Y-56423D01*
X9559Y-56266D01*
X7725Y-60034D01*
X7792Y-59839D01*
X7812Y-59623D01*
X7785Y-59389D01*
X7711Y-59135D01*
X7590Y-58862D01*
X7422Y-58569D01*
X7207Y-58257D01*
X6945Y-57926D01*
X6636Y-57576D01*
X6280Y-57206D01*
X7117Y-55214D01*
X7499Y-55582D01*
D02*
G37*
%LPC*%
G36*
X-4425Y137019D02*
Y134350D01*
X-1756D01*
X-1878Y134966D01*
X-2652Y136123D01*
X-3809Y136897D01*
X-4425Y137019D01*
D02*
G37*
G36*
X-5925D02*
X-6541Y136897D01*
X-7698Y136123D01*
X-8472Y134966D01*
X-8594Y134350D01*
X-5925D01*
Y137019D01*
D02*
G37*
G36*
X35750Y136750D02*
X29538D01*
X29680Y135673D01*
X30386Y133970D01*
X31508Y132508D01*
X32970Y131385D01*
X34673Y130680D01*
X35750Y130538D01*
Y136750D01*
D02*
G37*
G36*
X-29538D02*
X-43462D01*
X-43320Y135673D01*
X-42614Y133970D01*
X-41492Y132508D01*
X-40030Y131385D01*
X-38327Y130680D01*
X-36871Y130488D01*
X-36279Y129284D01*
X-37542Y128021D01*
X-37904Y128263D01*
X-38782Y128437D01*
X-39660Y128263D01*
X-40404Y127765D01*
X-40901Y127021D01*
X-41076Y126143D01*
X-40901Y125265D01*
X-40404Y124521D01*
X-39660Y124024D01*
X-38782Y123849D01*
X-37904Y124024D01*
X-37402Y124359D01*
X-36897D01*
X-36214Y124495D01*
X-35635Y124881D01*
X-29651Y130866D01*
X-28986D01*
X-28920Y130838D01*
X-28757Y130838D01*
X-28273Y130826D01*
X-28214Y130822D01*
X-27778Y130531D01*
X-26900Y130356D01*
X-26022Y130531D01*
X-25278Y131028D01*
X-24780Y131772D01*
X-24606Y132650D01*
X-24780Y133528D01*
X-25278Y134272D01*
X-26022Y134769D01*
X-26900Y134944D01*
X-27778Y134769D01*
X-28178Y134502D01*
X-28804Y134469D01*
X-29456Y135042D01*
X-29698Y135404D01*
X-29676Y135704D01*
X-29538Y136750D01*
D02*
G37*
G36*
X-1756Y132850D02*
X-4425D01*
Y130181D01*
X-3809Y130303D01*
X-2652Y131077D01*
X-1878Y132234D01*
X-1756Y132850D01*
D02*
G37*
G36*
X-5925D02*
X-8594D01*
X-8472Y132234D01*
X-7698Y131077D01*
X-6541Y130303D01*
X-5925Y130181D01*
Y132850D01*
D02*
G37*
G36*
X39245Y61946D02*
X37850D01*
Y60551D01*
X37978Y60577D01*
X38722Y61074D01*
X39219Y61818D01*
X39245Y61946D01*
D02*
G37*
G36*
X36350D02*
X34955D01*
X34981Y61818D01*
X35478Y61074D01*
X36222Y60577D01*
X36350Y60551D01*
Y61946D01*
D02*
G37*
G36*
X-30926Y61645D02*
Y60250D01*
X-29532D01*
X-29557Y60378D01*
X-30054Y61122D01*
X-30798Y61619D01*
X-30926Y61645D01*
D02*
G37*
G36*
X-32426D02*
X-32554Y61619D01*
X-33298Y61122D01*
X-33796Y60378D01*
X-33821Y60250D01*
X-32426D01*
Y61645D01*
D02*
G37*
G36*
X-29532Y58750D02*
X-30926D01*
Y57355D01*
X-30798Y57381D01*
X-30054Y57878D01*
X-29557Y58622D01*
X-29532Y58750D01*
D02*
G37*
G36*
X-32426D02*
X-33821D01*
X-33796Y58622D01*
X-33298Y57878D01*
X-32554Y57381D01*
X-32426Y57355D01*
Y58750D01*
D02*
G37*
G36*
X33250Y46065D02*
Y44670D01*
X34645D01*
X34619Y44798D01*
X34122Y45542D01*
X33378Y46039D01*
X33250Y46065D01*
D02*
G37*
G36*
X31750D02*
X31622Y46039D01*
X30877Y45542D01*
X30380Y44798D01*
X30355Y44670D01*
X31750D01*
Y46065D01*
D02*
G37*
G36*
X-34375Y48339D02*
X-35155Y48184D01*
X-35817Y47742D01*
X-36259Y47080D01*
X-36414Y46300D01*
X-36259Y45520D01*
X-35817Y44858D01*
X-35155Y44416D01*
X-34375Y44261D01*
X-33595Y44416D01*
X-32933Y44858D01*
X-32491Y45520D01*
X-32336Y46300D01*
X-32491Y47080D01*
X-32933Y47742D01*
X-33595Y48184D01*
X-34375Y48339D01*
D02*
G37*
G36*
X34645Y43170D02*
X33250D01*
Y41775D01*
X33378Y41800D01*
X34122Y42298D01*
X34619Y43042D01*
X34645Y43170D01*
D02*
G37*
G36*
X31750D02*
X30355D01*
X30380Y43042D01*
X30877Y42298D01*
X31622Y41800D01*
X31750Y41775D01*
Y43170D01*
D02*
G37*
G36*
X-12714Y43065D02*
Y41670D01*
X-11319D01*
X-11344Y41798D01*
X-11841Y42542D01*
X-12586Y43039D01*
X-12714Y43065D01*
D02*
G37*
G36*
X-14214D02*
X-14341Y43039D01*
X-15086Y42542D01*
X-15583Y41798D01*
X-15608Y41670D01*
X-14214D01*
Y43065D01*
D02*
G37*
G36*
X-39975Y42350D02*
X-40475D01*
Y40600D01*
X-38725D01*
Y41100D01*
X-39975Y42350D01*
D02*
G37*
G36*
X-41975D02*
X-42475D01*
X-43725Y41100D01*
Y40600D01*
X-41975D01*
Y42350D01*
D02*
G37*
G36*
X-11319Y40170D02*
X-12714D01*
Y38775D01*
X-12586Y38800D01*
X-11841Y39298D01*
X-11344Y40042D01*
X-11319Y40170D01*
D02*
G37*
G36*
X-14214D02*
X-15608D01*
X-15583Y40042D01*
X-15086Y39298D01*
X-14341Y38800D01*
X-14214Y38775D01*
Y40170D01*
D02*
G37*
G36*
X21811Y43198D02*
X21031Y43043D01*
X20370Y42601D01*
X19928Y41939D01*
X19772Y41159D01*
X19928Y40379D01*
X20370Y39717D01*
X21031Y39275D01*
X21811Y39120D01*
X22429Y39243D01*
X22799Y39090D01*
X26079D01*
X26084Y39087D01*
X26133Y39062D01*
X26194Y39023D01*
X26258Y38977D01*
X26445Y38817D01*
X26547Y38717D01*
X26643Y38679D01*
X27227Y38288D01*
X28008Y38133D01*
X28788Y38288D01*
X29450Y38730D01*
X29892Y39392D01*
X30047Y40172D01*
X29892Y40952D01*
X29450Y41614D01*
X28788Y42056D01*
X28008Y42211D01*
X27227Y42056D01*
X26660Y41676D01*
X26559Y41638D01*
X26341Y41433D01*
X26267Y41373D01*
X26194Y41321D01*
X26133Y41282D01*
X26084Y41257D01*
X26079Y41254D01*
X23832D01*
X23695Y41939D01*
X23254Y42601D01*
X22592Y43043D01*
X21811Y43198D01*
D02*
G37*
G36*
X-38725Y39100D02*
X-40475D01*
Y37350D01*
X-39975D01*
X-38725Y38600D01*
Y39100D01*
D02*
G37*
G36*
X-41975D02*
X-43725D01*
Y38600D01*
X-42475Y37350D01*
X-41975D01*
Y39100D01*
D02*
G37*
G36*
X-22150Y36575D02*
X-24400D01*
X-25525Y35450D01*
Y33200D01*
X-24400Y32075D01*
X-22150D01*
X-21025Y33200D01*
Y35450D01*
X-22150Y36575D01*
D02*
G37*
G36*
X-28950D02*
X-31200D01*
X-32325Y35450D01*
Y33200D01*
X-31200Y32075D01*
X-28950D01*
X-27825Y33200D01*
Y35450D01*
X-28950Y36575D01*
D02*
G37*
G36*
X-40175Y33800D02*
X-42425D01*
X-43550Y32675D01*
Y30425D01*
X-42425Y29300D01*
X-40175D01*
X-39050Y30425D01*
Y32675D01*
X-40175Y33800D01*
D02*
G37*
G36*
X25269Y35558D02*
X24489Y35403D01*
X23827Y34961D01*
X23385Y34299D01*
X23230Y33519D01*
X23385Y32738D01*
X23827Y32077D01*
X24386Y31703D01*
X24496Y31553D01*
X24593Y30445D01*
X24480Y30025D01*
X23878Y29622D01*
X23380Y28878D01*
X23355Y28750D01*
X27645D01*
X27619Y28878D01*
X27122Y29622D01*
X26435Y30082D01*
X26373Y30140D01*
X26118Y31317D01*
X26209Y31737D01*
X26233Y31757D01*
X26711Y32077D01*
X27153Y32738D01*
X27308Y33519D01*
X27153Y34299D01*
X26711Y34961D01*
X26050Y35403D01*
X25269Y35558D01*
D02*
G37*
G36*
X27645Y27250D02*
X26250D01*
Y25855D01*
X26378Y25880D01*
X27122Y26378D01*
X27619Y27122D01*
X27645Y27250D01*
D02*
G37*
G36*
X24750D02*
X23355D01*
X23380Y27122D01*
X23878Y26378D01*
X24622Y25880D01*
X24750Y25855D01*
Y27250D01*
D02*
G37*
%LPD*%
G36*
X-27971Y131600D02*
X-27989Y131609D01*
X-28025Y131618D01*
X-28077Y131625D01*
X-28232Y131637D01*
X-28747Y131650D01*
X-28918Y131650D01*
Y133650D01*
X-27971Y133700D01*
Y131600D01*
D02*
G37*
G36*
X27115Y39297D02*
X26994Y39416D01*
X26760Y39616D01*
X26648Y39697D01*
X26538Y39766D01*
X26432Y39822D01*
X26328Y39866D01*
X26227Y39897D01*
X26128Y39916D01*
X26033Y39922D01*
Y40422D01*
X26128Y40428D01*
X26227Y40447D01*
X26328Y40478D01*
X26432Y40522D01*
X26538Y40578D01*
X26648Y40647D01*
X26760Y40728D01*
X26876Y40822D01*
X27115Y41047D01*
Y39297D01*
D02*
G37*
%LPC*%
G36*
X80250Y125145D02*
X80122Y125119D01*
X79378Y124622D01*
X78881Y123878D01*
X78855Y123750D01*
X80250D01*
Y125145D01*
D02*
G37*
G36*
Y122250D02*
X78855D01*
X78881Y122122D01*
X79378Y121378D01*
X80122Y120881D01*
X80250Y120855D01*
Y122250D01*
D02*
G37*
G36*
X80750Y115645D02*
Y114250D01*
X82145D01*
X82120Y114378D01*
X81622Y115122D01*
X80878Y115619D01*
X80750Y115645D01*
D02*
G37*
G36*
X82145Y112750D02*
X80750D01*
Y111355D01*
X80878Y111380D01*
X81622Y111878D01*
X82120Y112622D01*
X82145Y112750D01*
D02*
G37*
G36*
X76000Y117039D02*
X75220Y116884D01*
X74558Y116442D01*
X74116Y115780D01*
X73961Y115000D01*
X74116Y114220D01*
X74558Y113558D01*
X75220Y113116D01*
X76000Y112961D01*
X76780Y113116D01*
X77881Y112622D01*
X78378Y111878D01*
X79122Y111380D01*
X79250Y111355D01*
Y113500D01*
Y115645D01*
X79208Y115636D01*
X79063Y115632D01*
X77645Y116138D01*
X77442Y116442D01*
X76780Y116884D01*
X76000Y117039D01*
D02*
G37*
G36*
X80750Y97145D02*
Y95750D01*
X82145D01*
X82120Y95878D01*
X81622Y96622D01*
X80878Y97119D01*
X80750Y97145D01*
D02*
G37*
G36*
X82145Y94250D02*
X80750D01*
Y92855D01*
X80878Y92881D01*
X81622Y93378D01*
X82120Y94122D01*
X82145Y94250D01*
D02*
G37*
G36*
X75500Y97427D02*
X74720Y97272D01*
X74058Y96830D01*
X73616Y96168D01*
X73461Y95388D01*
X73616Y94608D01*
X74058Y93946D01*
X74720Y93504D01*
X75500Y93349D01*
X76280Y93504D01*
X76697Y93782D01*
X77109Y93901D01*
X78234Y93594D01*
X78378Y93378D01*
X79122Y92881D01*
X79250Y92855D01*
Y95000D01*
Y97145D01*
X79122Y97119D01*
X78477Y96688D01*
X78251Y96638D01*
X76966Y96795D01*
X76942Y96830D01*
X76280Y97272D01*
X75500Y97427D01*
D02*
G37*
G36*
X50500Y94539D02*
X49720Y94384D01*
X49058Y93942D01*
X48616Y93280D01*
X48461Y92500D01*
X48616Y91720D01*
X49058Y91058D01*
X49720Y90616D01*
X50500Y90461D01*
X51280Y90616D01*
X51942Y91058D01*
X52384Y91720D01*
X52539Y92500D01*
X52384Y93280D01*
X51942Y93942D01*
X51280Y94384D01*
X50500Y94539D01*
D02*
G37*
G36*
X50750Y88645D02*
Y87250D01*
X52145D01*
X52119Y87378D01*
X51622Y88122D01*
X50878Y88619D01*
X50750Y88645D01*
D02*
G37*
G36*
X52145Y85750D02*
X50750D01*
Y84355D01*
X50878Y84381D01*
X51622Y84878D01*
X52119Y85622D01*
X52145Y85750D01*
D02*
G37*
G36*
X81750Y76145D02*
X81622Y76119D01*
X80878Y75622D01*
X80381Y74878D01*
X80355Y74750D01*
X81750D01*
Y76145D01*
D02*
G37*
G36*
Y73250D02*
X80355D01*
X80381Y73122D01*
X80878Y72378D01*
X81622Y71881D01*
X81750Y71855D01*
Y73250D01*
D02*
G37*
G36*
X81875Y29820D02*
X81747Y29794D01*
X81003Y29297D01*
X80506Y28553D01*
X80480Y28425D01*
X81875D01*
Y29820D01*
D02*
G37*
G36*
Y26925D02*
X80480D01*
X80506Y26797D01*
X81003Y26053D01*
X81747Y25556D01*
X81875Y25530D01*
Y26925D01*
D02*
G37*
G36*
X59625Y20750D02*
X59125D01*
Y19000D01*
X60875D01*
Y19500D01*
X59625Y20750D01*
D02*
G37*
%LPD*%
D13*
X22799Y40172D02*
X28008D01*
X21811Y41159D02*
X22799Y40172D01*
D37*
X22398Y-47284D02*
Y-45985D01*
X11275Y-34862D02*
X22398Y-45985D01*
X11275Y-34862D02*
Y4050D01*
X36500Y14450D02*
X40300Y18250D01*
X58375D01*
X13125Y5900D02*
X24125D01*
X11275Y4050D02*
X13125Y5900D01*
X49525Y21075D02*
X51500Y23050D01*
X39300Y21075D02*
X49525D01*
X24125Y5900D02*
X39300Y21075D01*
X36500Y7500D02*
Y14450D01*
D38*
X16048Y-47284D02*
Y-43738D01*
X9650Y-37341D02*
X16048Y-43738D01*
X9650Y-37341D02*
Y4723D01*
X12900Y-56066D02*
Y-43425D01*
X8400Y-38925D02*
X12900Y-43425D01*
X8400Y-38925D02*
Y5241D01*
X1652Y119500D02*
X31000Y90152D01*
Y86269D02*
Y90152D01*
Y86269D02*
X36285Y80984D01*
X2000Y122500D02*
X32325Y92175D01*
Y87816D02*
Y92175D01*
Y87816D02*
X35573Y84569D01*
X33750Y89750D02*
Y94250D01*
X39250Y79984D02*
Y95750D01*
X40500Y77875D02*
Y98000D01*
X41750Y75875D02*
Y100250D01*
X43000Y73875D02*
Y102500D01*
X36394Y91187D02*
Y95106D01*
X33750Y89750D02*
X36016Y87484D01*
X5500Y122500D02*
X33750Y94250D01*
X-27000Y100500D02*
X-5000Y122500D01*
X-27000Y86476D02*
Y100500D01*
X-32391Y81085D02*
X-27000Y86476D01*
X-41075Y76551D02*
X-32609Y68085D01*
X-41075Y76551D02*
Y110886D01*
X-29267Y122694D01*
X-38825Y107942D02*
X-31705Y115063D01*
X-38825Y77575D02*
Y107942D01*
Y77575D02*
X-36925Y75675D01*
Y75651D02*
Y75675D01*
Y75651D02*
X-32609Y71335D01*
X-35825Y77801D02*
X-32609Y74585D01*
X-35825Y77801D02*
Y79283D01*
X-36625Y80083D02*
X-35825Y79283D01*
X-36625Y80083D02*
Y108375D01*
X-22500Y122500D01*
X-32609Y77835D02*
X-32500D01*
Y81085D02*
X-32391D01*
X-32500Y90835D02*
Y105500D01*
X-34875Y80101D02*
Y91819D01*
X-34900Y91844D02*
X-34875Y91819D01*
X-32500Y87585D02*
X-32391D01*
X-30125Y89851D02*
Y104375D01*
X-32391Y87585D02*
X-30125Y89851D01*
X-34875Y80101D02*
X-32609Y77835D01*
X-34900Y91844D02*
Y106600D01*
X-30125Y104375D02*
X-12000Y122500D01*
X-28500Y102500D02*
X-8500Y122500D01*
X-28500Y98750D02*
Y102500D01*
X-31705Y116795D02*
X-26000Y122500D01*
X-32609Y71335D02*
X-32500D01*
X-32609Y68085D02*
X-32500D01*
X-32609Y74585D02*
X-32500D01*
X-1500Y122500D02*
X1500Y119500D01*
X48875Y40675D02*
Y69141D01*
X48225Y40025D02*
X48875Y40675D01*
X47750Y70266D02*
X48875Y69141D01*
X11934Y8775D02*
X18274D01*
X12452Y7525D02*
X22950D01*
X11934Y8775D02*
X22100D01*
X37875Y24550D01*
X22950Y7525D02*
X38172Y22747D01*
X8400Y5241D02*
X11934Y8775D01*
X9650Y4723D02*
X12452Y7525D01*
X48875Y74400D02*
X49375Y74900D01*
X48875Y73359D02*
Y74400D01*
X47750Y72234D02*
X48875Y73359D01*
X47750Y70266D02*
Y72234D01*
X43300Y40025D02*
X48225D01*
X41775Y38500D02*
X43300Y40025D01*
X41775Y26250D02*
Y38500D01*
X40075Y24550D02*
X41775Y26250D01*
X37875Y24550D02*
X40075D01*
X50125Y26625D02*
Y71250D01*
X48875Y25375D02*
X50125Y26625D01*
X48875Y23725D02*
Y25375D01*
X47897Y22747D02*
X48875Y23725D01*
X38172Y22747D02*
X47897D01*
X12900Y-56066D02*
X16048Y-59214D01*
X42825Y108525D02*
X49475D01*
X42000Y116225D02*
Y124000D01*
X43187Y105563D02*
X48437D01*
X30000Y118750D02*
X43187Y105563D01*
X34000Y117350D02*
X42825Y108525D01*
X43125Y111000D02*
X51000D01*
X12500Y122500D02*
X39250Y95750D01*
X37000Y77734D02*
X39250Y79984D01*
X16000Y122500D02*
X40500Y98000D01*
X37109Y74484D02*
X40500Y77875D01*
X19500Y122500D02*
X41750Y100250D01*
X37109Y71234D02*
X41750Y75875D01*
X23000Y122500D02*
X43000Y102500D01*
X37109Y67984D02*
X43000Y73875D01*
X36285Y80984D02*
X36394D01*
X-34900Y106600D02*
X-19000Y122500D01*
X-31705Y115063D02*
Y116795D01*
X43225Y115000D02*
X51000D01*
X42000Y116225D02*
X43225Y115000D01*
X38000Y116125D02*
X43125Y111000D01*
X38000Y116125D02*
Y124000D01*
X49475Y108525D02*
X51000Y107000D01*
X34000Y117350D02*
Y124000D01*
X48437Y105563D02*
X51000Y103000D01*
X30000Y118750D02*
Y124000D01*
X9000Y122500D02*
X36394Y95106D01*
X35573Y84569D02*
X36059D01*
X-32500Y105500D02*
X-15500Y122500D01*
X37000Y67984D02*
X37109D01*
X37000Y71234D02*
X37109D01*
X37000Y74484D02*
X37109D01*
X36059Y84569D02*
X36394Y84234D01*
X1500Y119500D02*
X1652D01*
D39*
X-30390Y132650D02*
X-26900D01*
X-36897Y126143D02*
X-30390Y132650D01*
X-38782Y126143D02*
X-36897D01*
X6497Y12422D02*
X19995D01*
X-175Y5750D02*
X6497Y12422D01*
X-175Y-27550D02*
Y5750D01*
X-14590Y-41965D02*
X-175Y-27550D01*
X-23032Y-41965D02*
X-14590D01*
X-25797Y-44731D02*
X-23032Y-41965D01*
X-25797Y-49837D02*
Y-44731D01*
Y-49837D02*
X-23601Y-52034D01*
X2523D01*
X9703Y-59214D01*
D40*
X-32500Y84335D02*
X-32383D01*
X-28500Y88218D02*
Y98750D01*
X-32383Y84335D02*
X-28500Y88218D01*
D45*
X58375Y18250D02*
D03*
X51500Y23050D02*
D03*
X-41225Y39850D02*
D03*
D46*
X9703Y-59214D02*
D03*
X16048Y-47284D02*
D03*
Y-59214D02*
D03*
X22398Y-47284D02*
D03*
D47*
X-36500Y137500D02*
D03*
X36500D02*
D03*
Y7500D02*
D03*
D49*
X36394Y91187D02*
D03*
X36016Y87484D02*
D03*
X-32500Y77835D02*
D03*
Y81085D02*
D03*
Y90835D02*
D03*
Y87585D02*
D03*
Y84335D02*
D03*
X-29267Y122694D02*
D03*
X-32500Y71335D02*
D03*
Y68085D02*
D03*
Y74585D02*
D03*
X2000Y122500D02*
D03*
X-1500D02*
D03*
X-22500D02*
D03*
X25500Y28000D02*
D03*
X49375Y74900D02*
D03*
X50125Y71250D02*
D03*
X82625Y27675D02*
D03*
X42000Y124000D02*
D03*
X51000Y111000D02*
D03*
X28008Y40172D02*
D03*
X16000Y122500D02*
D03*
X23000D02*
D03*
X19500D02*
D03*
X30000Y124000D02*
D03*
X34000D02*
D03*
X-26000Y122500D02*
D03*
X-19000D02*
D03*
X-15500D02*
D03*
X-12000D02*
D03*
X-8500D02*
D03*
X-5000D02*
D03*
X37000Y67984D02*
D03*
Y71234D02*
D03*
Y74484D02*
D03*
Y77734D02*
D03*
X36394Y84234D02*
D03*
Y80984D02*
D03*
X12500Y122500D02*
D03*
X9000D02*
D03*
X5500D02*
D03*
X38000Y124000D02*
D03*
X51000Y115000D02*
D03*
Y103000D02*
D03*
Y107000D02*
D03*
X37100Y62696D02*
D03*
X21811Y41159D02*
D03*
X-31676Y59500D02*
D03*
X82500Y74000D02*
D03*
X50000Y86500D02*
D03*
X81000Y123000D02*
D03*
X80000Y113500D02*
D03*
Y95000D02*
D03*
X-13463Y40920D02*
D03*
X32500Y43920D02*
D03*
D50*
X-26900Y132650D02*
D03*
X-38782Y126143D02*
D03*
D51*
X19995Y12422D02*
D03*
X150Y115875D02*
D03*
X-5175Y133600D02*
D03*
X-5275Y115725D02*
D03*
M02*
