G04*
G04 #@! TF.GenerationSoftware,Altium Limited,Altium Designer,18.0.12 (696)*
G04*
G04 Layer_Color=10517442*
%FSLAX44Y44*%
%MOMM*%
G71*
G01*
G75*
%ADD12C,0.0254*%
%ADD13C,0.0500*%
%ADD37C,0.1500*%
%ADD41C,0.1016*%
%ADD42C,0.1000*%
%ADD72C,0.0508*%
D12*
X-7600Y73258D02*
Y71734D01*
X-6838D01*
X-6585Y71988D01*
Y72496D01*
X-6838Y72750D01*
X-7600D01*
X-6077D02*
X-5569D01*
X-5823D01*
Y71734D01*
X-6077D01*
X-4045Y72750D02*
X-4553D01*
X-4807Y72496D01*
Y71988D01*
X-4553Y71734D01*
X-4045D01*
X-3792Y71988D01*
Y72242D01*
X-4807D01*
X-3284Y71734D02*
X-2268D01*
X-3284Y72750D01*
X-2268D01*
X-1506D02*
X-998D01*
X-745Y72496D01*
Y71988D01*
X-998Y71734D01*
X-1506D01*
X-1760Y71988D01*
Y72496D01*
X-1506Y72750D01*
X-237Y71988D02*
X779D01*
X2303Y71227D02*
Y72750D01*
X1541D01*
X1287Y72496D01*
Y71988D01*
X1541Y71734D01*
X2303D01*
X2810D02*
Y72750D01*
Y72242D01*
X3064Y71988D01*
X3318Y71734D01*
X3572D01*
X4334Y72750D02*
X4842D01*
X4588D01*
Y71734D01*
X4334D01*
X5604D02*
X6111Y72750D01*
X6619Y71734D01*
X7889Y72750D02*
X7381D01*
X7127Y72496D01*
Y71988D01*
X7381Y71734D01*
X7889D01*
X8143Y71988D01*
Y72242D01*
X7127D01*
X65588Y56200D02*
X64065D01*
Y56962D01*
X64319Y57216D01*
X65335D01*
X65588Y56962D01*
Y56200D01*
X64065Y57723D02*
Y58231D01*
Y57977D01*
X65588D01*
X65335Y57723D01*
X72500Y105524D02*
Y104000D01*
X71738D01*
X71484Y104254D01*
Y105270D01*
X71738Y105524D01*
X72500D01*
X70977Y105270D02*
X70723Y105524D01*
X70215D01*
X69961Y105270D01*
Y104254D01*
X70215Y104000D01*
X70723D01*
X70977Y104254D01*
Y105270D01*
X61191Y26905D02*
X60937Y26651D01*
X60429D01*
X60175Y26905D01*
Y27921D01*
X60429Y28175D01*
X60937D01*
X61191Y27921D01*
X61698Y28175D02*
X62206D01*
X61953D01*
Y26651D01*
X61698Y26905D01*
X62968Y28175D02*
X63476D01*
X63222D01*
Y26651D01*
X62968Y26905D01*
X70516Y89230D02*
X70262Y88976D01*
X69754D01*
X69500Y89230D01*
Y90246D01*
X69754Y90500D01*
X70262D01*
X70516Y90246D01*
X71024Y90500D02*
X71531D01*
X71277D01*
Y88976D01*
X71024Y89230D01*
X72293D02*
X72547Y88976D01*
X73055D01*
X73309Y89230D01*
Y90246D01*
X73055Y90500D01*
X72547D01*
X72293Y90246D01*
Y89230D01*
X55516D02*
X55262Y88976D01*
X54754D01*
X54500Y89230D01*
Y90246D01*
X54754Y90500D01*
X55262D01*
X55516Y90246D01*
X56024D02*
X56277Y90500D01*
X56785D01*
X57039Y90246D01*
Y89230D01*
X56785Y88976D01*
X56277D01*
X56024Y89230D01*
Y89484D01*
X56277Y89738D01*
X57039D01*
X71984Y123770D02*
X72238Y124024D01*
X72746D01*
X73000Y123770D01*
Y122754D01*
X72746Y122500D01*
X72238D01*
X71984Y122754D01*
X71476Y123770D02*
X71223Y124024D01*
X70715D01*
X70461Y123770D01*
Y123516D01*
X70715Y123262D01*
X70461Y123008D01*
Y122754D01*
X70715Y122500D01*
X71223D01*
X71476Y122754D01*
Y123008D01*
X71223Y123262D01*
X71476Y123516D01*
Y123770D01*
X71223Y123262D02*
X70715D01*
X79230Y108484D02*
X78976Y108738D01*
Y109246D01*
X79230Y109500D01*
X80246D01*
X80500Y109246D01*
Y108738D01*
X80246Y108484D01*
X78976Y107977D02*
Y106961D01*
X79230D01*
X80246Y107977D01*
X80500D01*
D13*
X56175Y22425D02*
Y32925D01*
Y22425D02*
X80175D01*
X56175Y32925D02*
X80175D01*
Y22425D02*
Y32925D01*
X68250Y85500D02*
X80750D01*
X68250D02*
Y91500D01*
X80750D01*
Y85500D02*
Y91500D01*
X53250Y85500D02*
X65750D01*
X53250D02*
Y91500D01*
X65750D01*
Y85500D02*
Y91500D01*
X77000Y117750D02*
Y128250D01*
X53000D02*
X77000D01*
X53000Y117750D02*
X77000D01*
X53000D02*
Y128250D01*
X75500Y98250D02*
Y110750D01*
X81500D01*
Y98250D02*
Y110750D01*
X75500Y98250D02*
X81500D01*
D37*
X3900Y96850D02*
X-6097D01*
Y91852D01*
X-4431Y90185D01*
X-1099D01*
X567Y91852D01*
Y96850D01*
Y93518D02*
X3900Y90185D01*
X-6097Y52850D02*
X567D01*
X3900Y49518D01*
X567Y46185D01*
X-6097D01*
Y52850D02*
X567D01*
X3900Y49518D01*
X567Y46185D01*
X-6097D01*
X3900Y96850D02*
X-6097D01*
Y91852D01*
X-4431Y90185D01*
X-1099D01*
X567Y91852D01*
Y96850D01*
Y93518D02*
X3900Y90185D01*
D41*
X57440Y37700D02*
X72690D01*
X49565Y38200D02*
Y83200D01*
Y37700D02*
X57440D01*
X49565Y83200D02*
X80565D01*
X81065Y37700D02*
Y83200D01*
X72690Y37700D02*
X80565D01*
D42*
X-10600Y89850D02*
G03*
X-10600Y89850I-500J0D01*
G01*
X73565Y41200D02*
G03*
X73565Y41200I-500J0D01*
G01*
X72000Y113000D02*
G03*
X72000Y113000I-500J0D01*
G01*
X12900Y65250D02*
X15400D01*
X15900Y59750D02*
X18900Y56750D01*
X-14600Y42350D02*
Y102350D01*
X12899Y42551D02*
Y102350D01*
X15900Y59750D02*
Y64850D01*
X31900Y56750D02*
Y79250D01*
X12899D02*
X31900D01*
X18900Y56750D02*
X31900D01*
X-14600Y102350D02*
X12899D01*
X-14600Y42350D02*
X12699D01*
X31900Y56750D02*
Y79250D01*
X18900Y56750D02*
X31900D01*
X15900Y59750D02*
X18900Y56750D01*
X12900Y65250D02*
X15400D01*
X15900Y59750D02*
Y64850D01*
X12899Y79250D02*
X31900D01*
X-14600Y42350D02*
Y102350D01*
X12899D01*
Y42551D02*
Y102350D01*
X-14600Y42350D02*
X12699D01*
X73750Y93250D02*
Y115750D01*
X51250Y93250D02*
X73750D01*
X51250D02*
Y115750D01*
X73750D01*
D72*
X71570Y38200D02*
Y83200D01*
M02*
