G04*
G04 #@! TF.GenerationSoftware,Altium Limited,Altium Designer,18.0.12 (696)*
G04*
G04 Layer_Color=2752767*
%FSLAX44Y44*%
%MOMM*%
G71*
G01*
G75*
%ADD72C,0.0508*%
D72*
X34362Y89155D02*
Y93219D01*
X38426D01*
Y89155D01*
X34362D01*
X33984Y85452D02*
Y89516D01*
X38048D01*
Y85452D01*
X33984D01*
X-26900Y130618D02*
X-25884Y131634D01*
X-24868D01*
X-25884Y132650D01*
X-24868Y133666D01*
X-25884D01*
X-26900Y134682D01*
X-27916Y133666D01*
X-28932D01*
X-27916Y132650D01*
X-28932Y131634D01*
X-27916D01*
X-26900Y130618D01*
X-38782Y124111D02*
X-37766Y125127D01*
X-36750D01*
X-37766Y126143D01*
X-36750Y127159D01*
X-37766D01*
X-38782Y128175D01*
X-39798Y127159D01*
X-40814D01*
X-39798Y126143D01*
X-40814Y125127D01*
X-39798D01*
X-38782Y124111D01*
X-34532Y75803D02*
Y79867D01*
X-30468D01*
Y75803D01*
X-34532D01*
Y79053D02*
Y83117D01*
X-30468D01*
Y79053D01*
X-34532D01*
Y88803D02*
Y92867D01*
X-30468D01*
Y88803D01*
X-34532D01*
Y85553D02*
Y89617D01*
X-30468D01*
Y85553D01*
X-34532D01*
Y82303D02*
Y86367D01*
X-30468D01*
Y82303D01*
X-34532D01*
X-31300Y120662D02*
Y124726D01*
X-27236D01*
Y120662D01*
X-31300D01*
X-34532Y69303D02*
Y73367D01*
X-30468D01*
Y69303D01*
X-34532D01*
Y66053D02*
Y70117D01*
X-30468D01*
Y66053D01*
X-34532D01*
Y72553D02*
Y76617D01*
X-30468D01*
Y72553D01*
X-34532D01*
X-32Y120468D02*
Y124532D01*
X4032D01*
Y120468D01*
X-32D01*
X-3532D02*
Y124532D01*
X532D01*
Y120468D01*
X-3532D01*
X-24532D02*
Y124532D01*
X-20468D01*
Y120468D01*
X-24532D01*
X19995Y10390D02*
X21011Y11406D01*
X22027D01*
X21011Y12422D01*
X22027Y13438D01*
X21011D01*
X19995Y14454D01*
X18979Y13438D01*
X17963D01*
X18979Y12422D01*
X17963Y11406D01*
X18979D01*
X19995Y10390D01*
X23468Y25968D02*
Y30032D01*
X27532D01*
Y25968D01*
X23468D01*
X25976Y38140D02*
Y42204D01*
X30040D01*
Y38140D01*
X25976D01*
X13968Y120468D02*
Y124532D01*
X18032D01*
Y120468D01*
X13968D01*
X150Y113843D02*
X1166Y114859D01*
X2182D01*
X1166Y115875D01*
X2182Y116891D01*
X1166D01*
X150Y117907D01*
X-866Y116891D01*
X-1882D01*
X-866Y115875D01*
X-1882Y114859D01*
X-866D01*
X150Y113843D01*
X20968Y120468D02*
Y124532D01*
X25032D01*
Y120468D01*
X20968D01*
X17468D02*
Y124532D01*
X21532D01*
Y120468D01*
X17468D01*
X-28032D02*
Y124532D01*
X-23968D01*
Y120468D01*
X-28032D01*
X-21032D02*
Y124532D01*
X-16968D01*
Y120468D01*
X-21032D01*
X-17532D02*
Y124532D01*
X-13468D01*
Y120468D01*
X-17532D01*
X-14032D02*
Y124532D01*
X-9968D01*
Y120468D01*
X-14032D01*
X-10532D02*
Y124532D01*
X-6468D01*
Y120468D01*
X-10532D01*
X-7032D02*
Y124532D01*
X-2968D01*
Y120468D01*
X-7032D01*
X34968Y65952D02*
Y70016D01*
X39032D01*
Y65952D01*
X34968D01*
Y69202D02*
Y73266D01*
X39032D01*
Y69202D01*
X34968D01*
Y72452D02*
Y76516D01*
X39032D01*
Y72452D01*
X34968D01*
Y75702D02*
Y79766D01*
X39032D01*
Y75702D01*
X34968D01*
X34362Y82202D02*
Y86266D01*
X38426D01*
Y82202D01*
X34362D01*
Y78952D02*
Y83016D01*
X38426D01*
Y78952D01*
X34362D01*
X10468Y120468D02*
Y124532D01*
X14532D01*
Y120468D01*
X10468D01*
X6968D02*
Y124532D01*
X11032D01*
Y120468D01*
X6968D01*
X3468D02*
Y124532D01*
X7532D01*
Y120468D01*
X3468D01*
X35068Y60664D02*
Y64728D01*
X39132D01*
Y60664D01*
X35068D01*
X19779Y39127D02*
Y43191D01*
X23844D01*
Y39127D01*
X19779D01*
X-33708Y57468D02*
Y61532D01*
X-29644D01*
Y57468D01*
X-33708D01*
X-15496Y38888D02*
Y42952D01*
X-11431D01*
Y38888D01*
X-15496D01*
X30468Y41888D02*
Y45952D01*
X34532D01*
Y41888D01*
X30468D01*
M02*
