G04*
G04 #@! TF.GenerationSoftware,Altium Limited,Altium Designer,18.0.12 (696)*
G04*
G04 Layer_Color=8421504*
%FSLAX44Y44*%
%MOMM*%
G71*
G01*
G75*
%ADD14R,0.4318X0.4318*%
%ADD15R,0.7620X0.6858*%
%ADD16R,0.4318X0.4318*%
%ADD17R,0.1600X0.4350*%
%ADD18R,0.2500X0.4350*%
%ADD19R,0.1524X0.2032*%
%ADD20R,0.2032X0.1524*%
%ADD21R,1.6000X0.2500*%
%ADD22R,5.3340X4.5720*%
D14*
X-6837Y14675D02*
D03*
X1037D02*
D03*
X-1524Y32275D02*
D03*
X6350D02*
D03*
D15*
X17700Y31175D02*
D03*
Y20507D02*
D03*
X-42075Y49391D02*
D03*
Y60059D02*
D03*
D16*
X31175Y32437D02*
D03*
Y24563D02*
D03*
X-13650Y32562D02*
D03*
Y24688D02*
D03*
D17*
X-29000Y109770D02*
D03*
X-25501D02*
D03*
X-22001D02*
D03*
X-18501D02*
D03*
X-15001D02*
D03*
X-11501D02*
D03*
X-8001D02*
D03*
X-4501D02*
D03*
X-1001D02*
D03*
X2499D02*
D03*
X5999D02*
D03*
X9499D02*
D03*
X12999D02*
D03*
X16499D02*
D03*
X19999D02*
D03*
X23499D02*
D03*
X26999D02*
D03*
X-29000Y127920D02*
D03*
X-25501D02*
D03*
X-22001D02*
D03*
X-18501D02*
D03*
X-15001D02*
D03*
X-11501D02*
D03*
X-8001D02*
D03*
X-4501D02*
D03*
X-1001D02*
D03*
X2499D02*
D03*
X5999D02*
D03*
X9499D02*
D03*
X12999D02*
D03*
X16499D02*
D03*
X19999D02*
D03*
X23499D02*
D03*
X26999D02*
D03*
D18*
X-33001D02*
D03*
Y109770D02*
D03*
X31000Y127920D02*
D03*
Y109770D02*
D03*
D19*
X12667Y44916D02*
D03*
X476D02*
D03*
X-8669D02*
D03*
X-5620D02*
D03*
X-2573D02*
D03*
X3523D02*
D03*
X6571D02*
D03*
X9620D02*
D03*
X15716D02*
D03*
X18764D02*
D03*
X21811D02*
D03*
X24859D02*
D03*
X-17812D02*
D03*
X-20861D02*
D03*
X24859Y98764D02*
D03*
X21811D02*
D03*
X18764D02*
D03*
X15716D02*
D03*
X12667D02*
D03*
X9620D02*
D03*
X6571D02*
D03*
X-20861D02*
D03*
X-17812D02*
D03*
X-14764D02*
D03*
X-11717D02*
D03*
X-8669D02*
D03*
X-5620D02*
D03*
X-2573D02*
D03*
D20*
X-28481Y90128D02*
D03*
Y87080D02*
D03*
Y80984D02*
D03*
Y68792D02*
D03*
Y71840D02*
D03*
Y74888D02*
D03*
Y77936D02*
D03*
Y93176D02*
D03*
Y84032D02*
D03*
X32480Y90128D02*
D03*
Y87080D02*
D03*
Y84032D02*
D03*
Y80984D02*
D03*
Y65744D02*
D03*
Y68792D02*
D03*
Y71840D02*
D03*
Y74888D02*
D03*
Y77936D02*
D03*
Y93176D02*
D03*
Y50504D02*
D03*
Y53552D02*
D03*
Y56600D02*
D03*
Y62696D02*
D03*
X-28481Y50504D02*
D03*
Y53552D02*
D03*
Y56600D02*
D03*
Y62696D02*
D03*
Y65744D02*
D03*
D21*
X-34196Y6333D02*
D03*
Y12245D02*
D03*
D22*
X1999Y71840D02*
D03*
M02*
