G04*
G04 #@! TF.GenerationSoftware,Altium Limited,Altium Designer,18.0.12 (696)*
G04*
G04 Layer_Color=2752767*
%FSLAX44Y44*%
%MOMM*%
G71*
G01*
G75*
%ADD72C,0.0508*%
%ADD77C,0.0677*%
D72*
X49468Y21018D02*
Y25082D01*
X53532D01*
Y21018D01*
X49468D01*
X-36500Y135468D02*
X-38532Y139532D01*
X-34468D01*
X-36500Y135468D01*
X-32107Y32293D02*
Y36357D01*
X-28043D01*
Y32293D01*
X-32107D01*
X-25307D02*
Y36357D01*
X-21243D01*
Y32293D01*
X-25307D01*
X-43332Y29518D02*
Y33582D01*
X-39268D01*
Y29518D01*
X-43332D01*
X-43257Y37818D02*
Y41882D01*
X-39193D01*
Y37818D01*
X-43257D01*
X-40814Y67468D02*
Y71532D01*
X-36750D01*
Y67468D01*
X-40814D01*
X37068Y25768D02*
Y29832D01*
X41132D01*
Y25768D01*
X37068D01*
Y32293D02*
Y36357D01*
X41132D01*
Y32293D01*
X37068D01*
X36500Y135468D02*
X34468Y139532D01*
X38532D01*
X36500Y135468D01*
Y5468D02*
X34468Y9532D01*
X38532D01*
X36500Y5468D01*
X51943Y25643D02*
Y29707D01*
X56007D01*
Y25643D01*
X51943D01*
X51468Y33768D02*
Y37832D01*
X55532D01*
Y33768D01*
X51468D01*
X47968Y120968D02*
Y125032D01*
X52032D01*
Y120968D01*
X47968D01*
X23237Y31487D02*
Y35551D01*
X27301D01*
Y31487D01*
X23237D01*
X39468Y47968D02*
Y52032D01*
X43532D01*
Y47968D01*
X39468D01*
X48468Y90468D02*
Y94532D01*
X52532D01*
Y90468D01*
X48468D01*
X38877Y54568D02*
Y58632D01*
X42941D01*
Y54568D01*
X38877D01*
X-36407Y44268D02*
Y48332D01*
X-32343D01*
Y44268D01*
X-36407D01*
X73968Y112968D02*
Y117032D01*
X78032D01*
Y112968D01*
X73968D01*
X73468Y93356D02*
Y97420D01*
X77532D01*
Y93356D01*
X73468D01*
D77*
X24430Y-59214D02*
G03*
X24430Y-59214I-2032J0D01*
G01*
X11735D02*
G03*
X11735Y-59214I-2032J0D01*
G01*
X-7315Y-47284D02*
G03*
X-7315Y-47284I-2032J0D01*
G01*
X-13665D02*
G03*
X-13665Y-47284I-2032J0D01*
G01*
X-20015D02*
G03*
X-20015Y-47284I-2032J0D01*
G01*
X11735D02*
G03*
X11735Y-47284I-2032J0D01*
G01*
X5385D02*
G03*
X5385Y-47284I-2032J0D01*
G01*
X-965D02*
G03*
X-965Y-47284I-2032J0D01*
G01*
X-7315Y-59214D02*
G03*
X-7315Y-59214I-2032J0D01*
G01*
X-13665D02*
G03*
X-13665Y-59214I-2032J0D01*
G01*
X-20015D02*
G03*
X-20015Y-59214I-2032J0D01*
G01*
X-965D02*
G03*
X-965Y-59214I-2032J0D01*
G01*
X5385D02*
G03*
X5385Y-59214I-2032J0D01*
G01*
X18080Y-47284D02*
G03*
X18080Y-47284I-2032J0D01*
G01*
Y-59214D02*
G03*
X18080Y-59214I-2032J0D01*
G01*
X24430Y-47284D02*
G03*
X24430Y-47284I-2032J0D01*
G01*
M02*
