G04*
G04 #@! TF.GenerationSoftware,Altium Limited,Altium Designer,18.0.12 (696)*
G04*
G04 Layer_Color=32896*
%FSLAX44Y44*%
%MOMM*%
G71*
G01*
G75*
%ADD11C,0.0381*%
%ADD12C,0.0254*%
%ADD13C,0.0500*%
%ADD37C,0.1500*%
%ADD39C,0.2000*%
%ADD42C,0.1000*%
D11*
X52832Y36473D02*
Y34950D01*
X52070D01*
X51816Y35204D01*
Y36219D01*
X52070Y36473D01*
X52832D01*
X51308Y34950D02*
X50801D01*
X51055D01*
Y36473D01*
X51308Y36219D01*
X73900Y123479D02*
Y121956D01*
X73138D01*
X72884Y122210D01*
Y123226D01*
X73138Y123479D01*
X73900D01*
X72376Y123226D02*
X72123Y123479D01*
X71615D01*
X71361Y123226D01*
Y122210D01*
X71615Y121956D01*
X72123D01*
X72376Y122210D01*
Y123226D01*
X69489Y19945D02*
X69743Y20199D01*
X70251D01*
X70505Y19945D01*
Y18929D01*
X70251Y18675D01*
X69743D01*
X69489Y18929D01*
X68982Y18675D02*
X68474D01*
X68728D01*
Y20199D01*
X68982Y19945D01*
X67712Y18675D02*
X67204D01*
X67458D01*
Y20199D01*
X67712Y19945D01*
X80516Y90730D02*
X80262Y90477D01*
X79754D01*
X79500Y90730D01*
Y91746D01*
X79754Y92000D01*
X80262D01*
X80516Y91746D01*
X81024Y92000D02*
X81531D01*
X81278D01*
Y90477D01*
X81024Y90730D01*
X82293D02*
X82547Y90477D01*
X83055D01*
X83309Y90730D01*
Y91746D01*
X83055Y92000D01*
X82547D01*
X82293Y91746D01*
Y90730D01*
X79230Y123984D02*
X78976Y124238D01*
Y124746D01*
X79230Y125000D01*
X80246D01*
X80500Y124746D01*
Y124238D01*
X80246Y123984D01*
X79230Y123476D02*
X78976Y123223D01*
Y122715D01*
X79230Y122461D01*
X79484D01*
X79738Y122715D01*
X79992Y122461D01*
X80246D01*
X80500Y122715D01*
Y123223D01*
X80246Y123476D01*
X79992D01*
X79738Y123223D01*
X79484Y123476D01*
X79230D01*
X79738Y123223D02*
Y122715D01*
X81230Y113754D02*
X80976Y114008D01*
Y114516D01*
X81230Y114770D01*
X82246D01*
X82500Y114516D01*
Y114008D01*
X82246Y113754D01*
X80976Y113246D02*
Y112231D01*
X81230D01*
X82246Y113246D01*
X82500D01*
D12*
X5400Y104492D02*
Y106016D01*
X4638D01*
X4384Y105762D01*
Y105254D01*
X4638Y105000D01*
X5400D01*
X3876D02*
X3368D01*
X3622D01*
Y106016D01*
X3876D01*
X1845Y105000D02*
X2353D01*
X2607Y105254D01*
Y105762D01*
X2353Y106016D01*
X1845D01*
X1591Y105762D01*
Y105508D01*
X2607D01*
X1083Y106016D02*
X67D01*
X1083Y105000D01*
X67D01*
X-694D02*
X-1202D01*
X-1456Y105254D01*
Y105762D01*
X-1202Y106016D01*
X-694D01*
X-440Y105762D01*
Y105254D01*
X-694Y105000D01*
X-1964Y105762D02*
X-2980D01*
X-4503Y106524D02*
Y105000D01*
X-3741D01*
X-3487Y105254D01*
Y105762D01*
X-3741Y106016D01*
X-4503D01*
X-5011D02*
Y105000D01*
Y105508D01*
X-5265Y105762D01*
X-5519Y106016D01*
X-5773D01*
X-6535Y105000D02*
X-7042D01*
X-6788D01*
Y106016D01*
X-6535D01*
X-7804D02*
X-8312Y105000D01*
X-8820Y106016D01*
X-10089Y105000D02*
X-9582D01*
X-9328Y105254D01*
Y105762D01*
X-9582Y106016D01*
X-10089D01*
X-10343Y105762D01*
Y105508D01*
X-9328D01*
D13*
X50333Y90834D02*
X50000Y90501D01*
X49333D01*
X49000Y90834D01*
Y92167D01*
X49333Y92500D01*
X50000D01*
X50333Y92167D01*
X50999D02*
X51333Y92500D01*
X51999D01*
X52332Y92167D01*
Y90834D01*
X51999Y90501D01*
X51333D01*
X50999Y90834D01*
Y91167D01*
X51333Y91500D01*
X52332D01*
D37*
X3900Y96850D02*
X-6097D01*
Y91852D01*
X-4431Y90185D01*
X-1099D01*
X567Y91852D01*
Y96850D01*
Y93518D02*
X3900Y90185D01*
X-6097Y52850D02*
X567D01*
X3900Y49518D01*
X567Y46185D01*
X-6097D01*
D39*
X67175Y24425D02*
X69175D01*
X67175Y30925D02*
X69175D01*
X64000Y126250D02*
X66000D01*
X64000Y119750D02*
X66000D01*
D42*
X73871Y115371D02*
G03*
X73871Y115371I-500J0D01*
G01*
M02*
