G04*
G04 #@! TF.GenerationSoftware,Altium Limited,Altium Designer,18.0.12 (696)*
G04*
G04 Layer_Color=8388736*
%FSLAX44Y44*%
%MOMM*%
G71*
G01*
G75*
%ADD23R,0.6350X0.6350*%
%ADD24R,0.9652X0.8890*%
%ADD25R,0.6350X0.6350*%
%ADD26R,0.2300X0.5050*%
%ADD27R,0.3200X0.5050*%
%ADD28R,0.3556X0.4064*%
%ADD29R,0.4064X0.3556*%
%ADD30R,1.8032X0.4532*%
%ADD31R,5.5372X4.7752*%
%ADD32P,0.5447X8X202.5*%
%ADD33O,0.5000X0.7000*%
%ADD34C,1.4032*%
%ADD35P,0.5447X8X112.5*%
%ADD36C,0.4000*%
D23*
X-6837Y14675D02*
D03*
X1037D02*
D03*
X-1524Y32275D02*
D03*
X6350D02*
D03*
D24*
X17700Y31175D02*
D03*
Y20507D02*
D03*
X-42075Y49391D02*
D03*
Y60059D02*
D03*
D25*
X31175Y32437D02*
D03*
Y24563D02*
D03*
X-13650Y32562D02*
D03*
Y24688D02*
D03*
D26*
X-29000Y109770D02*
D03*
X-25501D02*
D03*
X-22001D02*
D03*
X-18501D02*
D03*
X-15001D02*
D03*
X-11501D02*
D03*
X-8001D02*
D03*
X-4501D02*
D03*
X-1001D02*
D03*
X2499D02*
D03*
X5999D02*
D03*
X9499D02*
D03*
X12999D02*
D03*
X16499D02*
D03*
X19999D02*
D03*
X23499D02*
D03*
X26999D02*
D03*
X-29000Y127920D02*
D03*
X-25501D02*
D03*
X-22001D02*
D03*
X-18501D02*
D03*
X-15001D02*
D03*
X-11501D02*
D03*
X-8001D02*
D03*
X-4501D02*
D03*
X-1001D02*
D03*
X2499D02*
D03*
X5999D02*
D03*
X9499D02*
D03*
X12999D02*
D03*
X16499D02*
D03*
X19999D02*
D03*
X23499D02*
D03*
X26999D02*
D03*
D27*
X-33001D02*
D03*
Y109770D02*
D03*
X31000Y127920D02*
D03*
Y109770D02*
D03*
D28*
X12667Y44916D02*
D03*
X476D02*
D03*
X-8669D02*
D03*
X-5620D02*
D03*
X-2573D02*
D03*
X3523D02*
D03*
X6571D02*
D03*
X9620D02*
D03*
X15716D02*
D03*
X18764D02*
D03*
X21811D02*
D03*
X24859D02*
D03*
X-17812D02*
D03*
X-20861D02*
D03*
X24859Y98764D02*
D03*
X21811D02*
D03*
X18764D02*
D03*
X15716D02*
D03*
X12667D02*
D03*
X9620D02*
D03*
X6571D02*
D03*
X-20861D02*
D03*
X-17812D02*
D03*
X-14764D02*
D03*
X-11717D02*
D03*
X-8669D02*
D03*
X-5620D02*
D03*
X-2573D02*
D03*
D29*
X-28481Y90128D02*
D03*
Y87080D02*
D03*
Y80984D02*
D03*
Y68792D02*
D03*
Y71840D02*
D03*
Y74888D02*
D03*
Y77936D02*
D03*
Y93176D02*
D03*
Y84032D02*
D03*
X32480Y90128D02*
D03*
Y87080D02*
D03*
Y84032D02*
D03*
Y80984D02*
D03*
Y65744D02*
D03*
Y68792D02*
D03*
Y71840D02*
D03*
Y74888D02*
D03*
Y77936D02*
D03*
Y93176D02*
D03*
Y50504D02*
D03*
Y53552D02*
D03*
Y56600D02*
D03*
Y62696D02*
D03*
X-28481Y50504D02*
D03*
Y53552D02*
D03*
Y56600D02*
D03*
Y62696D02*
D03*
Y65744D02*
D03*
D30*
X-34196Y6333D02*
D03*
Y12245D02*
D03*
D31*
X1999Y71840D02*
D03*
D32*
X51500Y23050D02*
D03*
X-30075Y34325D02*
D03*
X-23275D02*
D03*
X-41225Y39850D02*
D03*
X-38782Y69500D02*
D03*
X39100Y27800D02*
D03*
Y34325D02*
D03*
D33*
X22398Y-59214D02*
D03*
X9703D02*
D03*
X-9347Y-47284D02*
D03*
X-15697D02*
D03*
X-22047D02*
D03*
X9703D02*
D03*
X3353D02*
D03*
X-2997D02*
D03*
X-9347Y-59214D02*
D03*
X-15697D02*
D03*
X-22047D02*
D03*
X-2997D02*
D03*
X3353D02*
D03*
X16048Y-47284D02*
D03*
Y-59214D02*
D03*
X22398Y-47284D02*
D03*
D34*
X-36500Y137500D02*
D03*
X36500D02*
D03*
Y7500D02*
D03*
D35*
X-41300Y31550D02*
D03*
D36*
X25500Y28000D02*
D03*
X50000Y123000D02*
D03*
X41500Y50000D02*
D03*
X50500Y92500D02*
D03*
X40909Y56600D02*
D03*
X-34375Y46300D02*
D03*
X76000Y115000D02*
D03*
X75500Y95388D02*
D03*
X-13463Y40920D02*
D03*
X32500Y43920D02*
D03*
M02*
