G04*
G04 #@! TF.GenerationSoftware,Altium Limited,Altium Designer,18.0.12 (696)*
G04*
G04 Layer_Color=16711935*
%FSLAX44Y44*%
%MOMM*%
G71*
G01*
G75*
%ADD12C,0.0254*%
%ADD42C,0.1000*%
%ADD74C,0.0400*%
D12*
X34764Y48000D02*
X143112D01*
D42*
X53750Y95750D02*
X71250D01*
X53750Y113250D02*
X71250D01*
X53750Y95750D02*
Y113250D01*
X71250Y95750D02*
Y113250D01*
X59425Y22925D02*
Y32425D01*
X76925Y22925D02*
Y32425D01*
X59425Y22925D02*
X76925D01*
X59425Y32425D02*
X76925D01*
X71350Y86850D02*
Y90150D01*
X77650Y86850D02*
Y90150D01*
X71350Y86850D02*
X77650D01*
X71350Y90150D02*
X77650D01*
X56350Y86850D02*
Y90150D01*
X62650Y86850D02*
Y90150D01*
X56350Y86850D02*
X62650D01*
X56350Y90150D02*
X62650D01*
X73750Y118250D02*
Y127750D01*
X56250Y118250D02*
Y127750D01*
X73750D01*
X56250Y118250D02*
X73750D01*
X76850Y107650D02*
X80150D01*
X76850Y101350D02*
X80150D01*
X76850D02*
Y107650D01*
X80150Y101350D02*
Y107650D01*
D74*
X52330Y60700D02*
X78330D01*
X52330Y80700D02*
X78330D01*
X52330Y40700D02*
X78330D01*
X65330D02*
Y80700D01*
X52330Y40700D02*
Y80700D01*
X78330Y40700D02*
Y80700D01*
X71565Y40700D02*
Y80700D01*
X65330Y40700D02*
Y80700D01*
X52330Y60700D02*
X78330D01*
X65330D02*
Y66050D01*
X50330Y38700D02*
Y82700D01*
Y38700D02*
X80330D01*
Y82700D01*
X50330D02*
X80330D01*
X65330Y60700D02*
X71565D01*
M02*
