G04*
G04 #@! TF.GenerationSoftware,Altium Limited,Altium Designer,18.0.12 (696)*
G04*
G04 Layer_Color=128*
%FSLAX44Y44*%
%MOMM*%
G71*
G01*
G75*
%ADD52C,0.2000*%
%ADD53R,0.8000X0.2500*%
%ADD54R,0.2000X0.2000*%
%ADD55R,0.2000X0.1160*%
%ADD56R,0.2000X0.1500*%
%ADD57R,0.1160X0.1160*%
%ADD58R,0.8000X0.8500*%
%ADD59R,0.3500X0.3000*%
%ADD60R,0.3000X0.3500*%
D52*
X56500Y106500D02*
D03*
Y98500D02*
D03*
Y102500D02*
D03*
Y110500D02*
D03*
X60500Y98500D02*
D03*
X64500D02*
D03*
X68500D02*
D03*
X60500Y102500D02*
D03*
X64500D02*
D03*
X68500D02*
D03*
X60500Y106500D02*
D03*
X64500D02*
D03*
X68500D02*
D03*
X60500Y110500D02*
D03*
X64500D02*
D03*
X68500D02*
D03*
D53*
X25400Y75500D02*
D03*
Y70500D02*
D03*
Y65500D02*
D03*
Y60500D02*
D03*
D54*
X53500Y78200D02*
D03*
Y73500D02*
D03*
X77160Y42600D02*
D03*
Y48506D02*
D03*
X56070Y41820D02*
D03*
X59953D02*
D03*
X77160Y73654D02*
D03*
Y76568D02*
D03*
X53500Y45378D02*
D03*
Y44214D02*
D03*
X70995Y79580D02*
D03*
X77160Y75536D02*
D03*
D55*
X53500Y75802D02*
D03*
D56*
X77160Y45500D02*
D03*
D57*
Y75536D02*
D03*
X53500Y44714D02*
D03*
D58*
X61175Y27675D02*
D03*
X75175D02*
D03*
X72000Y123000D02*
D03*
X58000D02*
D03*
D59*
X77500Y88500D02*
D03*
X71500D02*
D03*
X62500D02*
D03*
X56500D02*
D03*
D60*
X78500Y101500D02*
D03*
Y107500D02*
D03*
M02*
