G04*
G04 #@! TF.GenerationSoftware,Altium Limited,Altium Designer,18.0.12 (696)*
G04*
G04 Layer_Color=1930808*
%FSLAX44Y44*%
%MOMM*%
G71*
G01*
G75*
%ADD12C,0.0254*%
%ADD41C,0.1016*%
%ADD42C,0.1000*%
%ADD72C,0.0508*%
D12*
X-750Y101850D02*
X-600Y42350D01*
X-14600Y72250D02*
X12600Y71850D01*
D41*
X72690Y37700D02*
X80565D01*
X49565D02*
X57440D01*
X72690D01*
X81065D02*
Y83200D01*
X49565D02*
X80565D01*
X49565Y38200D02*
Y83200D01*
D42*
X15900Y59750D02*
Y64850D01*
Y59750D02*
X18900Y56750D01*
X12900Y65250D02*
X15400D01*
X31900Y56750D02*
Y79250D01*
X18900Y56750D02*
X31900D01*
X12899Y79250D02*
X31900D01*
X-14600Y42350D02*
Y102350D01*
Y42350D02*
X12699D01*
X12899Y42551D02*
Y102350D01*
X-14600D02*
X12899D01*
X15400Y65250D02*
X15900D01*
X51250Y93250D02*
Y115750D01*
X73750D01*
Y93250D02*
Y115750D01*
X51250Y93250D02*
X73750D01*
X62500Y99500D02*
Y109500D01*
X57500Y104500D02*
X67500D01*
X63425Y27675D02*
X72925D01*
X68175Y22925D02*
Y32425D01*
X72850Y88500D02*
X76150D01*
X74500Y86850D02*
Y90150D01*
X57850Y88500D02*
X61150D01*
X59500Y86850D02*
Y90150D01*
X60250Y123000D02*
X69750D01*
X65000Y118250D02*
Y127750D01*
X78500Y102850D02*
Y106150D01*
X76850Y104500D02*
X80150D01*
D72*
X71570Y38200D02*
Y83200D01*
M02*
