M48
;Layer_Color=9474304
;FILE_FORMAT=4:4
METRIC,LZ
;TYPE=PLATED
T1F00S00C0.1000
T3F00S00C0.2750
T4F00S00C0.6000
;TYPE=NON_PLATED
%
T01
X-000413Y0003155
X-00041225Y0003985
X-00034375Y000463
X-00030075Y00034325
X-00023275
X00025269Y00033519
X000391Y00034325
Y000278
X000415Y0005
X00040909Y000566
X-00038782Y000695
X000505Y000925
X000755Y00095388
X00076Y00115
X0005Y00123
X000535Y000358
X00053975Y00027675
X000515Y0002305
T03
X-00022047Y-00059214
X-00015697
X-00009347
X-00002997
X00003353
X00009703
X00016048
X00022398
Y-00047284
X00016048
X00009703
X00003353
X-00002997
X-00009347
X-00015697
X-00022047
T04
X000365Y000075
Y001375
X-000365
M30
