M48
;Layer_Color=9474304
;FILE_FORMAT=4:4
METRIC,LZ
;TYPE=PLATED
T1F00S00C0.1000
T2F00S00C0.2000
;TYPE=NON_PLATED
%
T01
X-00013463Y0004092
X00021811Y00041159
X00028008Y00040172
X000325Y0004392
X000255Y00028
X000371Y00062696
X00037Y00067984
Y00071234
Y00074484
Y00077734
X00036394Y00080984
Y00084234
X00036016Y00087484
X00036394Y00091187
X00023Y001225
X000195
X00016
X000125
X00009
X000055
X00002
X-000015
X-00005
X-000085
X-00012
X-000155
X-00019
X-000225
X-00026
X-00029267Y00122694
X-000325Y00090835
Y00087585
Y00084335
Y00081085
Y00077835
Y00074585
Y00071335
Y00068085
X-00031676Y000595
T02
X00019995Y00012422
X0000015Y00115875
X-000269Y0013265
X-00038782Y00126143
M30
