M48
;Layer_Color=9474304
;FILE_FORMAT=4:4
METRIC,LZ
T5F00S00C5.0800
%
G90
G05
T05
G00X00033098Y-00088394
M15
G01X00037945Y-00086894
G01X00042397Y-0008446
G01X00046277Y-00081191
G01X00049429Y-00077215
G01X00051728Y-00072692
G01X00053083Y-00067803
G01X0005345Y-000635
G01X0005345Y-000403
G01X00052943Y-00035252
G01X00051443Y-00030405
G01X0004901Y-00025953
G01X0004819Y-0002498
G01X00049048Y-00024893
G01X00053895Y-00023393
G01X00058347Y-0002096
G01X00062227Y-0001769
G01X00065379Y-00013715
G01X00067318Y-000099
G01X000845Y-000099
G01X00089548Y-00009393
G01X00094395Y-00007893
G01X00098847Y-0000546
G01X00102727Y-0000219
G01X00105879Y00001785
G01X00108178Y00006308
G01X00109533Y00011197
G01X001099Y000155
G01X001099Y001295
G01X00109393Y00134548
G01X00107893Y00139395
G01X0010546Y00143847
G01X0010219Y00147727
G01X00098215Y00150879
G01X00093692Y00153178
G01X00088803Y00154533
G01X000845Y001549
G01X00067391Y001549
G01X0006496Y00159347
G01X0006169Y00163227
G01X00057715Y00166379
G01X00053192Y00168678
G01X00048303Y00170033
G01X00044Y001704
G01X-00047825Y001704
G01X-00052873Y00169893
G01X-0005772Y00168393
G01X-00062172Y0016596
G01X-00066052Y0016269
G01X-00069204Y00158715
G01X-00071503Y00154192
G01X-00072858Y00149303
G01X-00073225Y00145
G01X-00073225Y0
G01X-00072718Y-00005048
G01X-00071218Y-00009895
G01X-00068785Y-00014347
G01X-00065515Y-00018227
G01X-0006154Y-00021379
G01X-00057017Y-00023678
G01X-00052128Y-00025033
G01X-00047885Y-00025395
G01X-00048829Y-00026585
G01X-00051128Y-00031108
G01X-00052483Y-00035998
G01X-0005285Y-000403
G01X-0005285Y-000635
G01X-00052343Y-00068548
G01X-00050843Y-00073395
G01X-0004841Y-00077847
G01X-0004514Y-00081727
G01X-00041165Y-00084879
G01X-00036642Y-00087178
G01X-00031753Y-00088533
G01X-0002745Y-000889
G01X0002805Y-000889
G01X00033098Y-00088394
M16
M17
M30
